<?xml version="1.0" standalone="no"?>
<!DOCTYPE svg PUBLIC "-//W3C//DTD SVG 1.1//EN" "http://www.w3.org/Graphics/SVG/1.1/DTD/svg11.dtd" >
<svg xmlns="http://www.w3.org/2000/svg">
<metadata></metadata>
<defs>
<font id="solomonbold" horiz-adv-x="917" >
<font-face units-per-em="2048" ascent="1536" descent="-512" />
<missing-glyph horiz-adv-x="526" />
<glyph unicode="&#xd;" horiz-adv-x="681" />
<glyph unicode=" "  horiz-adv-x="526" />
<glyph unicode="&#x09;" horiz-adv-x="526" />
<glyph unicode="&#xa0;" horiz-adv-x="526" />
<glyph unicode="!" horiz-adv-x="632" d="M178 1434h256l-12 -1094h-229zM186 0v236h246v-236h-246z" />
<glyph unicode="&#x22;" horiz-adv-x="708" d="M96 991v445h207v-445h-207zM399 991v445h209v-445h-209z" />
<glyph unicode="#" horiz-adv-x="1200" d="M86 391l2 203h197l32 223h-165l2 201h196l62 418h217l-62 -418h197l63 418h213l-61 -418h149v-201h-180l-37 -223h150l-2 -203h-178l-62 -391h-211l60 391h-199l-61 -391h-213l59 391h-168zM487 580h224l41 251h-226z" />
<glyph unicode="$" horiz-adv-x="1130" d="M66 303l188 96q39 -102 118 -162.5t169 -60.5q104 -2 169.5 49t71.5 144q4 61 -19.5 108t-68.5 76t-85 45t-93 31q-66 16 -113 33.5t-108.5 51.5t-99 74.5t-63.5 106.5t-23 145q4 156 97 256.5t232 128.5v179h207v-177q242 -55 326 -286l-185 -84q-70 170 -237 170 q-86 0 -147.5 -50.5t-67.5 -146.5q-2 -47 17.5 -83t65.5 -60.5t74.5 -34.5t83.5 -27q94 -25 162 -53.5t137.5 -80.5t103.5 -136t30 -197q-8 -162 -110.5 -259t-252.5 -124v-178h-207v178q-121 25 -221 109t-151 219z" />
<glyph unicode="%" horiz-adv-x="1751" d="M31 1091.5q0 149.5 107.5 255t257 105.5t258 -105t108.5 -255q0 -147 -108.5 -254t-258 -107t-257 105.5t-107.5 255zM229 1092q0 -82 48.5 -128t120 -46t119.5 46t48 128t-48 130t-119.5 48t-120 -47t-48.5 -131zM270 -72l908 1559h245l-909 -1559h-244zM936 313.5 q0 149.5 107.5 255t259.5 105.5q150 0 257 -105.5t107 -255.5q0 -147 -107.5 -252.5t-256.5 -105.5q-152 0 -259.5 104.5t-107.5 254zM1135 313q0 -82 48 -128t119.5 -46t119.5 46t48 128t-48 130.5t-119.5 48.5t-119.5 -47.5t-48 -131.5z" />
<glyph unicode="&#x26;" horiz-adv-x="1335" d="M84 410q0 221 256 385q-121 152 -121 286q0 158 110.5 252t262.5 94q139 0 240.5 -92t101.5 -233q0 -125 -64.5 -205.5t-179.5 -146.5l205 -220l84 156l184 -96l-123 -230q31 -33 273 -309h-293l-107 125q-178 -201 -387 -201q-186 0 -314 122t-128 313zM309 414 q0 -121 82 -181.5t192.5 -33t182.5 136.5l-281 303q-74 -33 -125 -95.5t-51 -129.5zM440 1085q0 -86 101 -202q182 96 182 217q0 55 -40 92t-97 37q-61 0 -103.5 -41t-42.5 -103z" />
<glyph unicode="'" horiz-adv-x="399" d="M88 999v437h207v-437h-207z" />
<glyph unicode="(" horiz-adv-x="747" d="M123 721q0 209 68.5 397.5t213 354t349.5 268.5v-252q-193 -104 -302.5 -312t-109.5 -458q0 -233 109.5 -441t302.5 -323v-254q-205 102 -350.5 268t-213 354.5t-67.5 397.5z" />
<glyph unicode=")" horiz-adv-x="776" d="M-2 -63q190 115 301 326t111 444q0 229 -112 444t-300 330v248q205 -104 350.5 -270.5t214 -355t68.5 -395t-67.5 -395t-213 -354.5t-352.5 -270v248z" />
<glyph unicode="*" horiz-adv-x="942" d="M37 1067l63 188l246 -92l-6 269h205l-13 -269l248 92l64 -188l-256 -72l168 -213l-170 -118l-146 221l-147 -221l-168 118l168 213z" />
<glyph unicode="+" horiz-adv-x="1314" d="M133 559v211h402v395h219v-395h385v-211h-385v-399h-219v399h-402z" />
<glyph unicode="," horiz-adv-x="518" d="M8 -268l146 483h254l-185 -483h-215z" />
<glyph unicode="-" d="M152 524v215h587v-215h-587z" />
<glyph unicode="." horiz-adv-x="520" d="M117 -4v244h250v-244h-250z" />
<glyph unicode="/" horiz-adv-x="843" d="M16 -125l574 1681h231l-571 -1681h-234z" />
<glyph unicode="0" horiz-adv-x="1230" d="M102 416v606q0 203 143.5 317.5t340.5 116.5q203 4 352 -110.5t149 -323.5v-606q0 -188 -124 -303q-139 -133 -367 -133q-227 -4 -371 133q-123 119 -123 303zM332 416q0 -102 80 -164t184 -62t183 61.5t79 164.5v606q0 102 -82 163.5t-188 59.5q-102 -2 -179 -62.5 t-77 -160.5v-606z" />
<glyph unicode="1" horiz-adv-x="647" d="M63 1225v209h406v-1434h-231v1225h-175z" />
<glyph unicode="2" horiz-adv-x="1144" d="M70 156l620 669q76 80 89.5 172.5t-47 160t-181.5 71.5q-90 4 -167 -51.5t-118 -151.5l-186 86q63 164 190 245t287 77q197 -6 320.5 -127t128.5 -287q0 -170 -158 -340l-442 -465h610v-215h-885z" />
<glyph unicode="3" horiz-adv-x="1124" d="M49 303l174 98q100 -211 303 -211q98 0 168 57.5t70 174.5q0 102 -63.5 166.5t-153.5 64.5h-139v205h139q80 0 131 48t51 132q0 94 -61.5 143.5t-145.5 49.5q-186 0 -260 -156l-166 90q57 135 177 207t251 72q176 0 305 -103.5t129 -302.5q0 -80 -46 -163.5t-119 -110.5 q201 -104 200 -344q-2 -211 -142 -327t-331 -116q-143 0 -274 85t-197 241z" />
<glyph unicode="4" horiz-adv-x="1171" d="M37 451l668 983h258v-965h106v-215h-106v-254h-226v254h-555zM291 469h446v401l17 295h-6l-144 -252z" />
<glyph unicode="5" horiz-adv-x="1171" d="M74 283l182 98q45 -92 127 -143.5t168 -51.5q129 0 202.5 85t73.5 204q0 137 -76.5 207t-197.5 74q-156 6 -291 -94h-133l109 772h729v-205h-545l-41 -297q281 84 477.5 -50t196.5 -407q0 -201 -136.5 -352.5t-371.5 -151.5q-152 0 -276.5 79t-196.5 233z" />
<glyph unicode="6" horiz-adv-x="1212" d="M92 473q0 145 84 279l422 682h264l-319 -514q129 29 237.5 -3t175 -104t103.5 -161t37 -179q0 -199 -133.5 -347.5t-369 -148.5t-368.5 148.5t-133 347.5zM322 473q0 -113 72.5 -196.5t199.5 -83.5q129 0 201.5 83.5t72.5 196.5q0 109 -72.5 187.5t-201.5 78.5 q-117 0 -194.5 -74.5t-77.5 -191.5z" />
<glyph unicode="7" horiz-adv-x="997" d="M39 1214v218h792l127 -160l-653 -1272h-260l631 1214h-637z" />
<glyph unicode="8" horiz-adv-x="1181" d="M92 418q-2 104 58.5 197.5t156.5 150.5q-74 37 -118 121t-44 162q0 184 126 294.5t296 110.5t295 -110.5t125 -294.5q0 -82 -43 -161t-117 -120q217 -111 215 -350q-2 -207 -143 -327t-331.5 -120t-332 120t-143.5 327zM324 416q0 -94 64.5 -167t178.5 -71 q115 0 181.5 73t66.5 169t-66.5 170t-181 74t-179 -75t-64.5 -173zM375 1053q0 -74 51 -131.5t141 -57.5q88 0 139.5 57.5t51.5 131.5q0 76 -51.5 136t-139.5 60t-140 -60.5t-52 -135.5z" />
<glyph unicode="9" horiz-adv-x="1218" d="M88 961q0 199 133 347t368.5 148t369 -148.5t133.5 -346.5q0 -145 -84 -279l-422 -682h-264l319 514q-129 -29 -237.5 3t-175 103.5t-103.5 160.5t-37 180zM315 961q0 -109 73 -188t202 -79q117 0 194.5 75t77.5 192q0 113 -72.5 196.5t-199.5 83.5q-129 0 -202 -84 t-73 -196z" />
<glyph unicode=":" horiz-adv-x="598" d="M158 -4v244h250v-244h-250zM158 774v244h250v-244h-250z" />
<glyph unicode=";" horiz-adv-x="600" d="M18 -268l146 483h254l-185 -483h-215zM158 774v244h250v-244h-250z" />
<glyph unicode="&#x3c;" horiz-adv-x="991" d="M55 504v155l811 447v-252l-544 -272l544 -271v-245z" />
<glyph unicode="=" horiz-adv-x="1271" d="M168 272v209h901v-209h-901zM168 655v209h901v-209h-901z" />
<glyph unicode="&#x3e;" horiz-adv-x="995" d="M98 66v245l545 271l-545 268v252l811 -443v-155z" />
<glyph unicode="?" horiz-adv-x="1064" d="M6 1214q186 238 440 238q197 0 335.5 -113.5t138.5 -330.5q-2 -162 -100.5 -273.5t-282.5 -144.5l-15 -252h-209l-10 403q158 2 271.5 72t111.5 197q-2 115 -72.5 167t-173.5 52q-70 0 -142.5 -39t-125.5 -105zM293 0v236h246v-236h-246z" />
<glyph unicode="@" horiz-adv-x="1644" d="M76 436q8 201 100 377t265 290t390 114q299 0 487.5 -160t197.5 -455q6 -238 -139.5 -413t-325.5 -175q-49 0 -88 33t-48 107q-74 -123 -213 -123q-127 0 -211.5 95t-89.5 241q-6 215 122 372.5t331 157.5q53 0 106.5 -29.5t71.5 -79.5q35 70 35 74l145 -18l-110 -572 q-18 -70 24 -65q51 6 113 100q86 131 82 297q-12 428 -490 428q-242 0 -396 -183t-161 -415q-10 -311 171.5 -442t490.5 -31l76 -154q-279 -98 -490 -46.5t-332.5 233.5t-113.5 442zM598 369q2 -59 35 -98.5t78 -39.5q98 0 174 119t71 234q-2 59 -31.5 97t-74.5 38 q-123 2 -189.5 -107.5t-62.5 -242.5z" />
<glyph unicode="A" horiz-adv-x="1282" d="M-12 0l514 1444h250l520 -1444h-246l-160 436h-477l-153 -436h-248zM459 641h336l-133 410l-33 147h-11l-32 -147z" />
<glyph unicode="B" horiz-adv-x="1226" d="M166 0v1442h457q184 0 306 -107.5t122 -287.5q0 -82 -42 -158t-130 -117q115 -42 175 -142q58 -97 58 -197v-7q0 -209 -143.5 -317.5t-350.5 -108.5h-452zM399 217h224q129 0 196.5 63.5t67.5 151.5t-68.5 155.5t-195.5 67.5h-224v-438zM399 860h224q100 0 152 56.5 t52 132.5q0 74 -52 128t-152 54h-224v-371z" />
<glyph unicode="C" horiz-adv-x="1472" d="M76 713q0 141 48 275t137 241.5t231.5 172t314.5 64.5h3q340 0 538 -241l-148 -138q-160 168 -378 168h-15q-231 -4 -363.5 -166.5t-132.5 -375.5q0 -211 133.5 -371t362.5 -160q115 0 229.5 53.5t194.5 149.5l164 -127q-238 -289 -588 -289q-229 0 -399 109.5 t-251 275.5t-81 359z" />
<glyph unicode="D" horiz-adv-x="1464" d="M170 0v1444h457h6q367 0 569 -258q155 -198 155 -462q0 -22 -1 -44q-14 -293 -209 -483q-199 -197 -518 -197h-459zM403 213h224h10q268 0 401 205q87 133 87 293q0 51 -9 106q-39 225 -215 336q-117 76 -270 76h-228v-1016z" />
<glyph unicode="E" horiz-adv-x="1067" d="M164 2v1440h805v-211h-570v-406h562v-211h-562q0 -68 -1 -198.5t-1 -200.5h572v-213h-805z" />
<glyph unicode="F" horiz-adv-x="1040" d="M164 0v1436h805v-213h-570v-410h562v-211h-562v-602h-235z" />
<glyph unicode="G" horiz-adv-x="1660" d="M78 715q0 141 48 273t138 239.5t232.5 172t314.5 64.5q168 0 320.5 -74.5t263.5 -205.5l-168 -137q-82 96 -192.5 150t-223.5 54q-154 0 -270.5 -82t-172 -201.5t-55.5 -252.5q0 -209 134.5 -368t363.5 -159q170 0 302 90.5t159 266.5h-574v213h822v-35q0 -337 -184 -539 q-195 -213 -525 -213q-229 0 -399 109.5t-251 275.5t-83 359z" />
<glyph unicode="H" horiz-adv-x="1388" d="M168 0v1440h235v-619h551v619h236v-1440h-236v608h-551v-608h-235z" />
<glyph unicode="I" horiz-adv-x="561" d="M158 0v1440h233v-1440h-233z" />
<glyph unicode="J" horiz-adv-x="1095" d="M20 375l205 45q23 -113 102 -173.5t165 -60.5q84 0 145 62.5t61 169.5v805h-258v211h494v-1016q0 -209 -130 -326t-310 -117q-166 0 -299.5 101.5t-174.5 298.5z" />
<glyph unicode="K" horiz-adv-x="1269" d="M168 0v1444h235v-629l566 629h278l-563 -637l578 -807h-271l-461 653l-127 -127v-526h-235z" />
<glyph unicode="L" horiz-adv-x="958" d="M164 0v1434h235v-1219h527v-215h-762z" />
<glyph unicode="M" horiz-adv-x="1722" d="M172 0v1442h266l404 -940l403 940h266v-1442h-235v723l33 340l-11 2l-106 -307l-248 -539h-205l-247 539l-107 307l-10 -2l33 -340v-723h-236z" />
<glyph unicode="N" horiz-adv-x="1480" d="M168 0v1442h272l527 -934l98 -215l6 2l-31 266v881h236v-1442h-268l-531 934l-100 215l-6 -2l32 -266v-881h-235z" />
<glyph unicode="O" horiz-adv-x="1658" d="M76 715q0 322 213 535.5t520 213.5q305 0 519 -216t214 -533q0 -319 -214 -532.5t-519 -213.5q-307 0 -520 211t-213 535zM313 715q0 -246 147.5 -389.5t348.5 -143.5q199 0 348.5 143.5t149.5 389.5q-1 244 -151 391q-148 145 -344 145h-5q-199 -2 -346.5 -147 t-147.5 -389z" />
<glyph unicode="P" horiz-adv-x="1173" d="M166 -2v1442h446q236 0 366 -141.5t130 -334t-130 -329.5t-364 -137h-215v-500h-233zM399 711h213q123 0 192.5 77.5t69.5 176.5q0 100 -70.5 181t-191.5 81h-213v-516z" />
<glyph unicode="Q" horiz-adv-x="1683" d="M78 712.5q0 321.5 213 533.5t520 212t521 -212t214 -533q0 -271 -145 -443l131 -131l-158 -153l-131 131q-186 -145 -432 -146q-307 0 -520 210t-213 531.5zM315 712.5q0 -243.5 147.5 -387t348.5 -143.5q137 0 279 90l-216 215l160 156l205 -209q76 113 76 279 q0 244 -153 390q-152 144 -350 144h-5q-199 0 -345.5 -145.5t-146.5 -389z" />
<glyph unicode="R" horiz-adv-x="1241" d="M168 0v1436h471q225 0 362.5 -108.5t139.5 -336.5v-7q-1 -182 -101 -288q-102 -108 -268 -133l432 -563h-278l-422 555h-101v-555h-235zM403 762h238q123 0 193.5 60.5t70.5 168.5q0 111 -71.5 171.5t-192.5 60.5h-238v-461z" />
<glyph unicode="S" horiz-adv-x="1126" d="M47 299l178 92q98 -211 303 -211h7q101 0 167 54q68 56 72 147q1 9 1 18q1 49 -19 89q-22 46 -69.5 75t-86.5 44.5t-96 29.5q-66 18 -116 35.5t-110.5 52.5t-99.5 78q-38 43 -64 111q-24 64 -24 139v12q4 197 138 300t315 103q147 0 267 -82.5t175 -236.5l-184 -84 q-39 94 -111 144.5t-149 50.5h-6q-82 0 -145 -50q-65 -52 -71 -151v-10q0 -57 40 -101q44 -48 92.5 -69t113.5 -37q78 -20 133.5 -40t120 -57.5t103.5 -86.5q40 -48 64 -122q21 -63 21 -141q0 -13 -1 -26q-10 -193 -153.5 -297.5t-330.5 -104.5q-152 0 -284 85t-191 247z " />
<glyph unicode="T" horiz-adv-x="935" d="M-4 1223v215h913v-215h-338v-1223h-235v1223h-340z" />
<glyph unicode="U" horiz-adv-x="1320" d="M147 430v1004h236v-1004q0 -121 76 -182.5t184.5 -61.5t186 61.5t77.5 182.5v1004h236v-1004q0 -154 -75 -260.5t-184.5 -151.5t-240.5 -45q-207 0 -351.5 115t-144.5 342z" />
<glyph unicode="V" horiz-adv-x="1263" d="M-25 1442h252l336 -1022l53 -223h11l43 223l340 1022h250l-498 -1444h-281z" />
<glyph unicode="W" horiz-adv-x="1933" d="M43 1438h244l243 -996l33 -245h8l39 245l215 824h258l215 -824l39 -245h9l32 245l244 996h244l-379 -1444h-283l-194 725l-52 280h-8l-51 -280l-194 -725h-283z" />
<glyph unicode="X" horiz-adv-x="1296" d="M10 2l477 715l-473 717h277l352 -543l352 543h277l-473 -717l475 -715h-279l-352 551l-352 -551h-281z" />
<glyph unicode="Y" horiz-adv-x="1185" d="M-31 1444h269l340 -627l335 627h273l-494 -869v-575h-231v578z" />
<glyph unicode="Z" horiz-adv-x="1142" d="M55 156l727 1077h-678v211h869l90 -164l-719 -1065h700v-215h-878z" />
<glyph unicode="[" horiz-adv-x="616" d="M168 -199l2 1809h391v-174h-164q0 -227 -1 -721t-1 -719h164v-195h-391z" />
<glyph unicode="\" horiz-adv-x="845" d="M-8 1556h229l574 -1681h-230z" />
<glyph unicode="]" horiz-adv-x="618" d="M29 1436v174h391l2 -1809h-391v195h164q0 225 -1 718.5t-1 721.5h-164z" />
<glyph unicode="^" horiz-adv-x="1142" d="M86 649l414 772h139l412 -772h-236l-246 488l-250 -488h-233z" />
<glyph unicode="_" horiz-adv-x="1132" d="M37 4h1048v-190h-1048v190z" />
<glyph unicode="`" horiz-adv-x="1021" d="M307 1729h242l153 -273h-192z" />
<glyph unicode="a" horiz-adv-x="1118" d="M76 432q57 164 246 230q99 37 220 37q2 -1 3 -1q123 0 209 -61q0 131 -70 189q-68 56 -171 55h-7q-152 -2 -287 -84l-88 133q109 90 254 120q72 15 141 16q68 0 134 -16q130 -30 221.5 -139.5t91.5 -279.5v-631h-176l-33 106q-63 -70 -132 -96t-163 -26q-246 0 -356 159 q-58 83 -58 175q0 56 21 114zM270 346q0 -158 252 -158q152 0 234 88v177q-86 59 -209 59q-125 -2 -201 -49t-76 -117z" />
<glyph unicode="b" horiz-adv-x="1183" d="M129 43v1393h223v-410q110 36 209 36q83 0 157 -26q163 -56 263 -201t100 -321v-6q1 -210 -145 -368q-148 -160 -397 -160q-229 0 -410 63zM352 190q72 -14 187 -18q151 0 237 106q85 103 84 230v6q-2 195 -160 296q-85 55 -179 55q-81 0 -169 -40v-635z" />
<glyph unicode="c" horiz-adv-x="1056" d="M51 518q2 223 146.5 381t392.5 160q217 0 387 -168l-125 -148q-113 111 -264 111h-6q-126 0 -216 -89q-92 -91 -94 -251q0 -141 84 -237.5t234 -96.5q133 0 268 119l127 -145q-176 -176 -395 -177q-254 0 -396.5 158t-142.5 383z" />
<glyph unicode="d" horiz-adv-x="1191" d="M70 516q0 176 100 322q100 144 263 200q74 25 157 26q98 0 209 -36v406h223v-1389q-180 -63 -410 -63q-250 0 -397 160q-145 157 -145 368v6zM291 516v-6q1 -126 85 -230q86 -106 236 -106q115 4 187 19v634q-87 40 -168 40q-95 0 -180 -55q-158 -101 -160 -296z" />
<glyph unicode="e" horiz-adv-x="1206" d="M61 522q0 217 142.5 378t386.5 163h6q218 -1 360 -147q144 -148 144 -369q0 -55 -8 -119h-807q20 -102 101 -174t206 -72q188 0 287 135l163 -100q-174 -233 -450 -233q-252 0 -392 160q-139 158 -139 372v6zM289 612h594q-23 117 -98.5 183.5t-192.5 68.5 q-129 -2 -204.5 -68.5t-98.5 -183.5z" />
<glyph unicode="f" horiz-adv-x="585" d="M33 848v190h112v78q0 172 116 254q95 67 239 67q31 0 65 -3v-195q-16 1 -31 1q-166 0 -165 -124v-78h196v-190h-196v-848h-224v848h-112z" />
<glyph unicode="g" horiz-adv-x="1185" d="M63 532q4 213 149.5 372t393.5 159q228 0 410 -68v-946q0 -215 -130 -331.5t-317 -120.5h-11q-259 0 -443 184l121 143q61 -59 154 -94q88 -33 171 -33h10q94 2 158 56.5t64 166.5q-91 -32 -182 -32h-5q-252 0 -398 162q-145 161 -145 376v6zM285 528q0 -135 86 -238.5 t235 -103.5q92 0 189 29q0 109 1 317.5t1 319.5q-103 16 -191 16q-150 0 -235.5 -103t-85.5 -237z" />
<glyph unicode="h" horiz-adv-x="1220" d="M129 0v1434h223v-404q80 31 189 35h14q221 0 363 -123q148 -127 147 -356v-586h-223v586q0 129 -85 201.5t-216 72.5q-98 0 -189 -31v-829h-223z" />
<glyph unicode="i" horiz-adv-x="473" d="M111 1184v250h227v-250h-227zM113 0v1042h223v-1042h-223z" />
<glyph unicode="j" horiz-adv-x="473" d="M-39 -203q13 -1 24 -1q67 0 95 30q33 35 33 106v1106h223v-1106q0 -180 -96 -262q-76 -65 -210 -65q-33 0 -69 4v188zM111 1184v250h227v-250h-227z" />
<glyph unicode="k" horiz-adv-x="1040" d="M129 0v1434h217v-799l404 405h272l-453 -460l467 -580h-264l-350 434l-76 -72v-362h-217z" />
<glyph unicode="l" horiz-adv-x="536" d="M109 319v1115h223v-1115q0 -68 32 -98q26 -24 86 -24q16 0 35 2v-201q-36 -4 -69 -4q-134 0 -211 66q-96 82 -96 259z" />
<glyph unicode="m" horiz-adv-x="1869" d="M139 0v987q229 76 412 78h13q265 0 347 -162q109 158 330 158q199 0 319.5 -107.5t120.5 -349.5v-604h-219v608q0 129 -60.5 190.5t-160.5 61.5q-98 0 -159.5 -60.5t-63.5 -185.5v-614h-213v614v9q0 98 -40 159q-41 64 -111 80q-50 12 -102 12q-20 0 -41 -2 q-73 -6 -149 -32v-840h-223z" />
<glyph unicode="n" horiz-adv-x="1241" d="M129 0v993q199 70 424 70q154 0 267.5 -44t187 -151.5t73.5 -271.5v-596h-221v596q0 145 -92 209.5t-236 64.5q-59 0 -178 -30v-840h-225z" />
<glyph unicode="o" horiz-adv-x="1234" d="M53 518q0 227 156 383t387 156q233 0 387 -155t154 -384q0 -227 -154 -384t-387 -157q-231 0 -387 157t-156 384zM276 518q0 -162 96.5 -251t223.5 -89q129 0 223 89t94 251t-94 249t-223 87q-127 0 -223.5 -87t-96.5 -249z" />
<glyph unicode="p" horiz-adv-x="1187" d="M129 -393v1392q180 63 410 64q250 0 397 -160q145 -158 145 -369v-6q0 -176 -100 -321.5t-263 -200.5q-75 -25 -158 -25q-98 0 -208 35v-409h-223zM352 217q87 -39 168 -39q94 0 180 54q158 102 160 296v6q0 127 -84 232q-87 106 -237 106q-104 -4 -187 -20v-635z" />
<glyph unicode="q" horiz-adv-x="1187" d="M66 528v6q0 211 145 369q147 160 397 160q229 0 410 -64v-1392h-223v409q-110 -36 -209 -36q-83 0 -157 26q-163 55 -263 200.5t-100 321.5zM287 528q2 -195 159 -296q86 -55 180 -55q81 0 169 40v639q-72 14 -187 18q-147 0 -235 -108q-86 -105 -86 -232v-6z" />
<glyph unicode="r" horiz-adv-x="829" d="M125 0v1042h192l15 -110q70 127 246 133q131 0 237 -68l-94 -180q-84 45 -167 46h-3q-81 0 -143 -57q-62 -58 -62 -155v-651h-221z" />
<glyph unicode="s" horiz-adv-x="878" d="M45 170l139 135q92 -117 222 -127q9 -1 17 -1q58 1 105 25q54 28 54 89q0 113 -176 143q-330 55 -332 309q0 147 111.5 232.5t265.5 85.5q193 0 323 -137l-123 -138q-100 78 -196 78q-63 0 -115 -30q-50 -28 -49 -88q0 -18 3 -32q3 -12 11 -22t14.5 -17t19.5 -14.5 t20.5 -11.5t24.5 -8t23.5 -6t26 -6t21.5 -4q150 -29 247 -108t97 -220q0 -162 -119 -241t-268 -79q-229 0 -367 193z" />
<glyph unicode="t" horiz-adv-x="620" d="M14 846v192h123v396h221v-396h193v-192h-193v-518q0 -66 50 -102q41 -29 111 -28q16 0 32 1v-201q-34 -3 -66 -3q-142 -1 -235 65q-113 80 -113 262v524h-123z" />
<glyph unicode="u" horiz-adv-x="1239" d="M117 457v581h221v-581q0 -131 87 -204t220 -73q129 0 199 23v837h225v-987q-213 -76 -422 -76q-229 0 -379.5 127t-150.5 353z" />
<glyph unicode="v" horiz-adv-x="970" d="M-16 1042h237l185 -583l67 -279h8l64 281l178 581h238l-355 -1046h-266z" />
<glyph unicode="w" horiz-adv-x="1468" d="M-2 1044h227l115 -514l53 -337h8l52 337l129 508h245l129 -508l52 -337h8l53 337l115 514h227l-254 -1044h-291l-110 471l-49 344h-7l-47 -344l-110 -471h-291z" />
<glyph unicode="x" horiz-adv-x="1032" d="M-14 0l354 520q-61 86 -181 270.5t-167 253.5h266l238 -372l237 372h264l-348 -524l352 -520h-264l-241 373q-41 -59 -124 -190.5t-118 -182.5h-268z" />
<glyph unicode="y" horiz-adv-x="1024" d="M-20 1038h239l293 -735l266 735h240l-481 -1237q-81 -197 -320 -197q-37 0 -78 5v182q21 -2 39 -2q120 0 156 90l61 152z" />
<glyph unicode="z" horiz-adv-x="937" d="M45 141l514 703h-481v196h665l101 -145l-512 -702h518v-193h-694z" />
<glyph unicode="{" horiz-adv-x="618" d="M70 596v211q129 0 129 217v338q0 117 68.5 193.5t181.5 76.5h118v-198h-63q-76 4 -76 -78v-369q0 -78 -36 -160t-109 -125q145 -70 145 -284v-352q0 -43 15.5 -54.5t48.5 -9.5h75v-201h-127q-113 0 -177 70t-64 186v324q0 215 -129 215z" />
<glyph unicode="|" horiz-adv-x="563" d="M164 -319v1902h215v-1902h-215z" />
<glyph unicode="}" horiz-adv-x="618" d="M31 2h75q23 -2 34.5 1t20.5 17.5t9 45.5v352q0 215 145 284q-74 43 -109.5 125t-35.5 160v369q0 82 -76 78h-63v198h119q113 0 181 -76.5t68 -193.5v-338q0 -217 129 -217v-211q-129 0 -129 -215v-324q0 -117 -64.5 -186.5t-176.5 -69.5h-127v201z" />
<glyph unicode="~" horiz-adv-x="1191" d="M76 592q156 240 342 227q111 -8 237 -106q57 -45 99 -49q96 -9 194 120l123 -118q-125 -231 -330 -215q-113 6 -221 90q-76 59 -123 61q-92 8 -198 -127z" />
<glyph unicode="&#xad;" horiz-adv-x="882" d="M113 473v209h630v-209h-630z" />
<glyph unicode="&#x2000;" horiz-adv-x="870" />
<glyph unicode="&#x2001;" horiz-adv-x="1740" />
<glyph unicode="&#x2002;" horiz-adv-x="870" />
<glyph unicode="&#x2003;" horiz-adv-x="1740" />
<glyph unicode="&#x2004;" horiz-adv-x="579" />
<glyph unicode="&#x2005;" horiz-adv-x="434" />
<glyph unicode="&#x2006;" horiz-adv-x="288" />
<glyph unicode="&#x2007;" horiz-adv-x="288" />
<glyph unicode="&#x2008;" horiz-adv-x="217" />
<glyph unicode="&#x2009;" horiz-adv-x="348" />
<glyph unicode="&#x200a;" horiz-adv-x="96" />
<glyph unicode="&#x2010;" d="M152 524v215h587v-215h-587z" />
<glyph unicode="&#x2011;" d="M152 524v215h587v-215h-587z" />
<glyph unicode="&#x2012;" d="M152 524v215h587v-215h-587z" />
<glyph unicode="&#x2013;" horiz-adv-x="1354" d="M152 524v215h1024v-215h-1024z" />
<glyph unicode="&#x2014;" horiz-adv-x="2378" d="M152 524v215h2048v-215h-2048z" />
<glyph unicode="&#x202f;" horiz-adv-x="348" />
<glyph unicode="&#x205f;" horiz-adv-x="434" />
<glyph unicode="&#x25fc;" horiz-adv-x="1044" d="M0 0v1044h1044v-1044h-1044z" />
<glyph horiz-adv-x="0" />
</font>
</defs>
</svg>
