<?xml version="1.0" standalone="no"?>
<!DOCTYPE svg PUBLIC "-//W3C//DTD SVG 1.1//EN" "http://www.w3.org/Graphics/SVG/1.1/DTD/svg11.dtd" >
<svg xmlns="http://www.w3.org/2000/svg">
<metadata></metadata>
<defs>
<font id="superstorelight" horiz-adv-x="0" >
<font-face units-per-em="2048" ascent="1638" descent="-410" />
<missing-glyph horiz-adv-x="378" />
<glyph unicode="&#x3b;&#x3b;For&#x20;Education&#x20;Used&#x20;Only&#x3b;&#x3b;" horiz-adv-x="1269" d="M113 512q0 109 41 204t111.5 165.5t165.5 111.5t204 41t204 -41t165.5 -111.5t111.5 -165.5t41 -204t-41 -204t-111.5 -165.5t-166 -111.5t-203.5 -41q-109 0 -204 41t-165.5 111.5t-111.5 165.5t-41 204zM180 512q0 -94 36 -177t97.5 -144.5t144.5 -97.5t177 -36t177 36 t144.5 97.5t97.5 144.5t36 177t-36 177t-97.5 144.5t-144.5 97.5t-177 36t-177 -36t-144.5 -97.5t-97.5 -144.5t-36 -177zM360 444v127q0 80 21.5 130.5t59.5 79t89.5 39.5t108.5 11q45 0 97 -5t122 -35l-24 -62q-51 29 -103.5 33t-75.5 4q-37 0 -76.5 -7t-72.5 -27.5 t-54.5 -58.5t-21.5 -102v-127q0 -63 21.5 -101t54.5 -59.5t72.5 -28.5t76.5 -7q23 0 75 4t104 33l24 -60q-70 -31 -122 -36t-97 -5q-57 0 -108.5 10.5t-89.5 40t-59.5 80t-21.5 129.5z" />
<glyph unicode="&#x3b;&#x3b;Registered&#x3b;&#x3b;" horiz-adv-x="1269" d="M113 512q0 109 41 204t111.5 165.5t165.5 111.5t204 41t204 -41t165.5 -111.5t111.5 -165.5t41 -204t-41 -204t-111.5 -165.5t-166 -111.5t-203.5 -41q-109 0 -204 41t-165.5 111.5t-111.5 165.5t-41 204zM180 512q0 -94 36 -177t97.5 -144.5t144.5 -97.5t177 -36t177 36 t144.5 97.5t97.5 144.5t36 177t-36 177t-97.5 144.5t-144.5 97.5t-177 36t-177 -36t-144.5 -97.5t-97.5 -144.5t-36 -177zM426 219v598h305q74 0 114 -51t40 -141q0 -76 -37 -126t-88 -69q25 -53 46 -105.5t44 -105.5h-66l-90 211h-198v-211h-70zM496 496h215 q59 0 81.5 35.5t22.5 93.5q0 55 -22.5 91t-81.5 36h-215v-256z" />
<glyph unicode="&#x3b;&#x3b;Multiply&#x3b;&#x3b;" horiz-adv-x="790" d="M106 158l236 235l-236 236l52 51l235 -236l236 236l51 -51l-236 -236l234 -233l-51 -51l-234 233l-235 -236z" />
<glyph unicode="&#x3b;&#x3b;Divide&#x3b;&#x3b;" horiz-adv-x="964" d="M113 356v72h739v-72h-739zM426 147q0 23 15.5 38.5t37.5 15.5q23 0 38 -15.5t15 -38.5t-15 -38t-38 -15t-38 15t-15 38zM426 643q0 23 15.5 38t37.5 15q23 0 38 -15t15 -38t-15 -38t-38 -15t-38 15t-15 38z" />
<glyph unicode="&#x2018;&#x2018;" horiz-adv-x="534" d="M113 928l92 174h53l-61 -174h-84zM276 928l93 174h53l-62 -174h-84z" />
<glyph unicode="&#x2019;&#x2019;" horiz-adv-x="534" d="M113 928l61 174h84l-92 -174h-53zM276 928l62 174h84l-92 -174h-54z" />
<glyph unicode="&#x3b;&#x3b;Trademark&#x3b;&#x3b;" horiz-adv-x="1325" d="M113 963v61h456v-61h-196v-574h-66v574h-194zM641 389v635h117l168 -565l170 565h116v-635h-65v580l-174 -580h-90l-176 580v-580h-66z" />
<glyph unicode="&#xe24;&#xe32;" horiz-adv-x="1282" d="M96 0v690q37 51 82 79t87 41t78 16t56 3q117 0 181.5 -36.5t95.5 -81.5t37 -85t6 -46v-981h-72v970q0 70 -34.5 109t-80 56.5t-85 20.5t-48.5 3q-78 0 -138 -24.5t-93 -71.5v-590h92v-72h-164zM707 784q39 27 98 36t104 9q61 0 111.5 -11t87.5 -38.5t57.5 -75 t20.5 -120.5v-985h-72v985q0 61 -19.5 96t-50 52.5t-66.5 21.5t-69 4q-29 0 -79 -3t-95 -26z" />
<glyph unicode="&#xe26;&#xe32;" horiz-adv-x="1304" d="M31 0v72h88v618q37 51 82 79t87 41t77.5 16t56.5 3q117 0 181.5 -36.5t95 -81.5t36.5 -85t6 -46v-981h-71v970q0 70 -35 109t-80 56.5t-85 20.5t-48 3q-78 0 -138.5 -24.5t-93.5 -71.5v-662h-159zM729 784q39 27 98.5 36t104.5 9q61 0 111.5 -11t87 -38.5t57 -75 t20.5 -120.5v-985h-71v985q0 61 -19.5 96t-50.5 52.5t-66.5 21.5t-68.5 4q-29 0 -79 -3t-95 -26z" />
<glyph unicode="&#xd;" horiz-adv-x="579" />
<glyph unicode=" "  horiz-adv-x="378" />
<glyph unicode="&#x09;" horiz-adv-x="378" />
<glyph unicode="&#xa0;" horiz-adv-x="378" />
<glyph unicode="!" horiz-adv-x="313" d="M102 43q0 23 15.5 38t38.5 15t38 -15t15 -38t-15.5 -38t-37.5 -15q-23 0 -38.5 15t-15.5 38zM115 1024h84q-2 -117 -3 -220.5t-2 -204.5t-1 -204.5t-3 -218.5h-69q0 117 -1 222.5t-1 207t-1 203.5t-3 215z" />
<glyph unicode="&#x22;" horiz-adv-x="448" d="M113 1102h77q-6 -47 -10 -88t-8 -86h-41zM256 1102h80q-6 -47 -10 -88t-9 -86h-38z" />
<glyph unicode="#" horiz-adv-x="1267" d="M113 279v71h147l113 330h-137v72h161q23 66 46.5 136t45.5 136h72l-90 -272h461l90 272h76l-92 -272h149v-72h-176l-111 -330h164v-71h-188l-96 -279h-72l94 279h-459l-96 -279h-72l95 279h-125zM334 350h461l110 330h-459z" />
<glyph unicode="$" horiz-adv-x="937" d="M104 752q0 139 82 209.5t242 70.5h2v113h72v-113q66 -4 129 -12t110 -27l-26 -67q-47 16 -103.5 23t-109.5 9v-413q61 -20 118.5 -43t103.5 -53.5t73.5 -71.5t27.5 -98q0 -82 -27.5 -136.5t-72.5 -88.5t-103.5 -48t-119.5 -16v-105h-72v105q-84 2 -155.5 20.5 t-151.5 67.5l41 61q63 -41 130.5 -57t135.5 -21v428q-61 18 -119.5 41t-104.5 53.5t-74 71.5t-28 97zM176 752q0 -37 20.5 -63.5t55.5 -48.5t81 -39t97 -34v394h-4q-49 0 -94 -9.5t-80 -33t-55.5 -63.5t-20.5 -103zM502 61q117 4 184.5 52.5t67.5 165.5q0 37 -20.5 64.5 t-55.5 50t-80 40t-96 33.5v-406z" />
<glyph unicode="%" horiz-adv-x="1114" d="M113 707v176q0 78 49 115.5t135 37.5t135 -37.5t49 -115.5v-176q0 -86 -48 -120t-136 -34t-136 34t-48 120zM141 0h80l754 1024h-80zM184 707q0 -14 1 -29.5t11.5 -28t33 -20.5t67.5 -8t67.5 8t33 20.5t11.5 27.5t1 30v176q0 10 -1 25.5t-11.5 28.5t-33 23.5t-67.5 10.5 t-67.5 -10.5t-33 -23.5t-11.5 -28.5t-1 -25.5v-176zM635 154v176q0 78 49 115.5t135 37.5t135.5 -37.5t49.5 -115.5v-176q0 -86 -48.5 -120t-136.5 -34t-136 34t-48 120zM707 154q0 -14 1 -29.5t11 -28t32.5 -20.5t67.5 -8t67.5 8t33 20.5t11.5 27.5t1 30v176q0 10 -1 25.5 t-11.5 28.5t-33 23.5t-67.5 10.5t-67.5 -10.5t-32.5 -23.5t-11 -28.5t-1 -25.5v-176z" />
<glyph unicode="&#x26;" horiz-adv-x="1044" d="M113 287q0 43 20.5 78.5t54 65.5t78.5 53.5t94 41.5q-47 57 -67.5 121t-20.5 135q0 61 9.5 107.5t36 79t76.5 49t130 16.5t129 -16.5t76 -49t36 -78.5t9 -108q0 -66 -26.5 -110.5t-71.5 -76.5t-101.5 -55.5t-117.5 -45.5q27 -31 52.5 -59.5t63 -67.5t91 -92.5 t135.5 -133.5q39 59 63.5 125t28.5 144h72q-4 -100 -36 -176t-79 -136l100 -98h-82l-65 57q-80 -49 -148.5 -58t-128.5 -9q-86 0 -161.5 5t-131 32.5t-87 88t-31.5 171.5zM184 287q0 -88 22.5 -134.5t66.5 -66.5t106.5 -22.5t142.5 -2.5q14 0 27.5 -1t28.5 -1q35 0 72.5 7.5 t94.5 35.5q-78 74 -132 126.5t-94 94.5t-69.5 75.5t-58.5 68.5q-90 -35 -148.5 -78t-58.5 -102zM344 782q0 -59 20.5 -114.5t57.5 -118.5q55 20 106.5 40.5t90 46.5t61 61.5t22.5 84.5t-3 83t-20 55.5t-54 32t-103 10.5q-68 0 -103.5 -10.5t-52 -32t-19.5 -55.5t-3 -83z" />
<glyph unicode="'" horiz-adv-x="303" d="M113 1102h77q-6 -47 -10 -88t-8 -86h-41z" />
<glyph unicode="(" horiz-adv-x="399" d="M113 524q0 61 7 138t19.5 160t31.5 163t44 148h72q-23 -70 -42.5 -151t-32.5 -163t-20.5 -160.5t-7.5 -142.5q0 -61 8.5 -140t21.5 -163t31.5 -168t39.5 -154h-70q-25 70 -44 153t-32.5 167t-19.5 166t-6 147z" />
<glyph unicode=")" horiz-adv-x="399" d="M113 1133h71q25 -68 44.5 -148t31.5 -163t19.5 -159.5t7.5 -138.5q0 -66 -6.5 -147.5t-19.5 -165.5t-32.5 -167t-44.5 -153h-69q20 70 37.5 154t32 168t22.5 163t8 140q0 63 -7 142t-20.5 161t-33 163t-41.5 151z" />
<glyph unicode="*" horiz-adv-x="749" d="M113 852l16 84l225 -64l-26 230h94l-27 -230l226 64l16 -84l-234 -23l160 -178l-74 -47l-114 193l-115 -193l-74 47l160 178z" />
<glyph unicode="+" horiz-adv-x="966" d="M113 356v72h336v330h71v-330h334v-72h-334v-333h-71v333h-336z" />
<glyph unicode="," horiz-adv-x="292" d="M113 -94v213h67v-185z" />
<glyph unicode="-" horiz-adv-x="823" d="M113 356v72h598v-72h-598z" />
<glyph unicode="." horiz-adv-x="331" d="M113 43q0 23 15 38t38 15t38 -15t15 -38t-15.5 -38t-37.5 -15q-23 0 -38 15t-15 38z" />
<glyph unicode="/" horiz-adv-x="708" d="M61 0l514 1133h72l-514 -1133h-72z" />
<glyph unicode="0" horiz-adv-x="929" d="M102 311v451q0 147 86 209.5t277 62.5q193 0 277.5 -62.5t84.5 -209.5v-451q0 -176 -83.5 -248.5t-278.5 -72.5q-193 0 -278 72.5t-85 248.5zM174 319q0 -90 23.5 -142t63.5 -77.5t92.5 -32t111.5 -6.5q57 0 110.5 6.5t93.5 32t63.5 77.5t23.5 142v437q0 76 -23.5 117.5 t-63.5 62t-93.5 24t-110.5 3.5t-110.5 -3.5t-93.5 -24t-63.5 -62.5t-23.5 -117v-437z" />
<glyph unicode="1" horiz-adv-x="550" d="M82 895l283 129h73v-1024h-71v952l-256 -118z" />
<glyph unicode="2" horiz-adv-x="847" d="M92 829q0 55 16.5 94.5t53.5 64t97 35.5t151 11q178 0 248.5 -49t70.5 -162v-86q0 -66 -42 -122t-104.5 -108t-135 -101.5t-135 -101.5t-104.5 -108.5t-42 -123.5h579v-72h-651v72q0 76 42 141.5t104.5 121.5t135.5 107.5t135 100.5t104 96t42 98v86q0 51 -18 79t-50 41 t-73 16.5t-86 3.5h-41q-43 0 -84 -3.5t-71.5 -15.5t-50 -38.5t-19.5 -76.5h-72z" />
<glyph unicode="3" horiz-adv-x="831" d="M82 227h72q2 -51 23.5 -82.5t55 -50t76.5 -26t90 -7.5q49 0 93.5 8.5t79 28t55 54t20.5 90.5v84q0 51 -19.5 81.5t-51 46t-74.5 19.5t-88 4h-95v72h95q47 0 89 10t74.5 32.5t51 58.5t18.5 87v86q0 53 -20.5 82t-55 41t-80 14.5t-92.5 2.5t-91 -1t-77.5 -13.5t-55 -40 t-21.5 -79.5h-72q0 55 16.5 94.5t53 64t97 35.5t150.5 11q178 0 249 -49t71 -162v-86q0 -66 -20.5 -120t-80.5 -99q61 -39 81 -86t20 -106v-84q0 -66 -16.5 -113t-53.5 -78t-98.5 -46t-151.5 -15q-94 0 -154.5 16.5t-96 47t-50 74.5t-16.5 99z" />
<glyph unicode="4" horiz-adv-x="862" d="M31 283v71l512 670h108v-670h150v-71h-150v-283h-71v283h-549zM117 354h463v598z" />
<glyph unicode="5" horiz-adv-x="851" d="M102 205h74q6 -45 28.5 -74t56.5 -44t75 -20.5t84 -5.5q49 0 93 8.5t79 28t55.5 54t20.5 90.5v188q0 53 -20.5 85t-55.5 48.5t-79 20.5t-93 4q-43 0 -84 -3t-74 -15.5t-55.5 -37t-30.5 -65.5h-74v557h609v-72h-537v-352q70 41 128 50t118 9q145 0 232 -56t87 -173v-188 q0 -131 -75.5 -191.5t-243.5 -60.5q-86 0 -144.5 13t-95.5 41t-55.5 68t-22.5 93z" />
<glyph unicode="6" horiz-adv-x="821" d="M92 242v143q0 43 10 74q20 55 42 111.5t47.5 123t57.5 147.5t73 183h71l-168 -446q57 29 106.5 31.5t78.5 2.5q145 0 232 -56t87 -171v-143q0 -131 -86 -191.5t-233 -60.5q-160 0 -239 66.5t-79 185.5zM164 242q0 -55 20.5 -90t54 -54.5t77.5 -28t94 -8.5q49 0 94 8.5 t78.5 28t54 54t20.5 90.5v143q0 53 -20.5 84t-55 47t-78.5 20.5t-93 4.5q-47 0 -92.5 -4.5t-79 -20.5t-54 -47t-20.5 -84v-143z" />
<glyph unicode="7" horiz-adv-x="706" d="M31 952v72h594v-72l-349 -952h-79l356 952h-522z" />
<glyph unicode="8" horiz-adv-x="862" d="M113 242v84q0 59 21.5 110t78.5 80q-59 37 -79.5 98.5t-20.5 122.5v86q0 115 72.5 163t244.5 48t246 -49t74 -162v-86q0 -66 -24 -125t-83 -94q59 -29 83 -81t24 -111v-84q0 -131 -72 -191.5t-248 -60.5q-94 0 -155.5 17.5t-97.5 49t-50 78.5t-14 107zM184 242 q0 -55 20.5 -90t54.5 -54.5t78 -28t93 -8.5t94 8.5t79 28t54.5 54t20.5 90.5v84q0 51 -19.5 80.5t-51.5 45t-73.5 19.5t-87.5 4h-16q-47 0 -92 -3t-79 -17.5t-54.5 -44t-20.5 -84.5v-84zM184 737q0 -53 20.5 -90t54.5 -59.5t78 -31.5t93 -9t94 9t79 31.5t54.5 59.5t20.5 90 v86q0 53 -20.5 82t-55.5 41t-79 14.5t-93 2.5q-47 0 -92 -2.5t-79 -14.5t-54.5 -40.5t-20.5 -82.5v-86z" />
<glyph unicode="9" horiz-adv-x="780" d="M51 629v143q0 131 86 191.5t234 60.5q160 0 238.5 -66.5t78.5 -185.5v-143q0 -43 -10 -74q-20 -55 -42 -111.5t-47.5 -123t-57 -147.5t-72.5 -183h-72l168 446q-57 -29 -106 -32t-78 -3q-145 0 -232.5 56.5t-87.5 171.5zM123 629q0 -53 20.5 -84t55 -47.5t79 -20.5 t93.5 -4q47 0 92 4t78.5 20.5t54 47t20.5 84.5v143q0 55 -20.5 90t-54 54.5t-77.5 27.5t-93 8t-94.5 -8t-79 -27.5t-54 -54.5t-20.5 -90v-143z" />
<glyph unicode=":" horiz-adv-x="331" d="M113 43q0 23 15 38t38 15t38 -15t15 -38t-15.5 -38t-37.5 -15q-23 0 -38 15t-15 38zM113 694q0 23 15 38.5t38 15.5t38 -15.5t15 -38.5t-15.5 -38t-37.5 -15q-23 0 -38 15t-15 38z" />
<glyph unicode=";" horiz-adv-x="331" d="M113 694q0 23 15 38.5t38 15.5t38 -15.5t15 -38.5t-15.5 -38t-37.5 -15q-23 0 -38 15t-15 38zM127 -94v213h68v-185z" />
<glyph unicode="&#x3c;" horiz-adv-x="874" d="M113 324v90l649 309v-72l-586 -280q160 -78 311.5 -152t274.5 -133v-72z" />
<glyph unicode="=" horiz-adv-x="825" d="M115 205v71h598v-71h-598zM115 483v72h598v-72h-598z" />
<glyph unicode="&#x3e;" horiz-adv-x="874" d="M113 14v72q123 59 274.5 133t310.5 152l-585 280v72l649 -309v-90z" />
<glyph unicode="?" horiz-adv-x="727" d="M113 1004q45 20 100 25t117 5q152 0 218 -54t66 -163q0 -51 -19.5 -87t-48 -63.5t-62 -49t-64.5 -47t-53.5 -57.5t-26.5 -77v-246h-72v246q0 55 20.5 92t51.5 65t65.5 50.5t65.5 47t51.5 54t20.5 72.5t-18.5 72t-48.5 45t-68.5 22.5t-79.5 6.5q-47 0 -99.5 -2.5 t-95.5 -18.5zM252 43q0 23 15.5 38t37.5 15q23 0 38 -15t15 -38t-15 -38t-38 -15t-38 15t-15 38z" />
<glyph unicode="@" horiz-adv-x="1093" d="M113 248v514q0 84 27.5 137t78.5 83t124 41t165 11h78q92 0 164.5 -11t124 -41t79 -83t27.5 -137v-762h-72v86q-20 -37 -63 -56.5t-88 -28.5t-81 -10t-42 -1q-154 0 -221.5 70.5t-67.5 189.5v190q0 115 84 168.5t227 53.5q6 0 36 -1.5t70 -7.5t80 -18t66 -37v164 q0 76 -29.5 117t-75.5 59t-103.5 21.5t-114.5 3.5h-78q-57 0 -114.5 -3.5t-103.5 -21.5t-76 -59t-30 -117v-514q0 -39 2 -72t11.5 -55.5t30 -35.5t57.5 -13h24v-72h-24q-66 0 -100.5 18.5t-50 52t-18.5 79t-3 98.5zM418 250q0 -104 61.5 -146.5t163.5 -42.5q57 0 106.5 14.5 t84 37t55 51.5t20.5 57v273q-18 33 -45.5 51t-61.5 28.5t-71 13.5t-74 3q-47 0 -91 -4t-76.5 -20.5t-52 -47.5t-19.5 -84v-184z" />
<glyph unicode="A" horiz-adv-x="978" d="M31 0l411 1024h95l411 -1024h-84l-106 279h-537l-106 -279h-84zM250 350h479l-240 602z" />
<glyph unicode="B" horiz-adv-x="952" d="M113 0v1024h508q125 0 177 -62.5t52 -213.5q0 -86 -18.5 -139.5t-61.5 -98.5q43 -45 61.5 -97.5t18.5 -138.5q0 -152 -52.5 -213t-176.5 -61h-508zM184 72h437q53 0 84.5 13t48 39t20.5 63.5t4 86.5q0 45 -4 82t-18.5 63.5t-43 41t-75.5 14.5h-453v-403zM184 549h437 q53 0 84.5 13t48 39t20.5 62.5t4 84.5q0 49 -4 86.5t-20.5 64.5t-48 40t-84.5 13h-437v-403z" />
<glyph unicode="C" horiz-adv-x="958" d="M102 401v222q0 135 40 216t103.5 125t144.5 57t161 13q72 0 152.5 -8t183.5 -47l-23 -64q-70 29 -143.5 38.5t-151.5 9.5q-55 0 -124.5 -5.5t-129 -37t-100.5 -100t-41 -195.5v-224q0 -127 41 -195.5t100.5 -101t129 -38t124.5 -5.5q78 0 152 9.5t143 38.5l23 -64 q-102 -41 -183 -48t-153 -7q-80 0 -161 13t-144.5 57t-103.5 125t-40 216z" />
<glyph unicode="D" horiz-adv-x="985" d="M113 0v1024h321q90 0 172 -16.5t143.5 -62.5t97.5 -126t36 -207v-200q0 -127 -36 -207t-97.5 -126t-143.5 -62.5t-172 -16.5h-321zM184 72h224q55 0 125.5 5t132 36.5t103.5 101.5t42 197v200q0 127 -42 197t-103.5 101.5t-132 36.5t-125.5 5h-224v-880z" />
<glyph unicode="E" horiz-adv-x="860" d="M113 0v1024h655v-72h-584v-397h584v-72h-584v-411h584v-72h-655z" />
<glyph unicode="F" horiz-adv-x="813" d="M113 0v1024h649v-72h-578v-360h508v-72h-508v-520h-71z" />
<glyph unicode="G" horiz-adv-x="987" d="M102 401v222q0 135 40 216t103.5 125t144.5 57t161 13q72 0 152.5 -8t183.5 -47l-23 -64q-70 29 -143.5 38.5t-151.5 9.5q-55 0 -124.5 -5.5t-129 -37t-100.5 -100t-41 -195.5v-224q0 -127 42 -196.5t103.5 -101t131 -37t124.5 -5.5q33 0 98.5 4.5t151.5 26.5v359h-209 v71h279v-477q-106 -41 -190 -48t-156 -7q-80 0 -160 13t-143.5 57t-103.5 125t-40 216z" />
<glyph unicode="H" horiz-adv-x="1001" d="M113 0v1024h71v-465h633v465h72v-1024h-72v487h-633v-487h-71z" />
<glyph unicode="I" horiz-adv-x="296" d="M113 0v1024h71v-1024h-71z" />
<glyph unicode="J" horiz-adv-x="710" d="M31 27l22 73q68 -27 127.5 -33t89.5 -6q45 0 93.5 4.5t86 28t62.5 73.5t25 144v713h71v-713q0 -104 -22.5 -167.5t-63.5 -97.5t-99 -45t-130 -11q-57 0 -117.5 4t-144.5 33z" />
<glyph unicode="K" horiz-adv-x="970" d="M113 0v1024h71v-494l621 494h96l-309 -266l336 -758h-80l-313 719l-351 -279v-440h-71z" />
<glyph unicode="L" horiz-adv-x="786" d="M113 0v1024h71v-952h541v-72h-612z" />
<glyph unicode="M" horiz-adv-x="1208" d="M113 0v1024h131l360 -952l361 952h131v-1024h-72v965l-373 -965h-94l-373 965v-965h-71z" />
<glyph unicode="N" horiz-adv-x="1044" d="M113 0v1024h118l629 -963v963h72v-1024h-119l-629 963v-963h-71z" />
<glyph unicode="O" horiz-adv-x="999" d="M102 311v449q0 150 107.5 212t290.5 62q182 0 289.5 -62.5t107.5 -211.5v-449q0 -88 -27.5 -149.5t-79 -99t-125 -55t-165.5 -17.5t-166 17.5t-125 55t-79 99t-28 149.5zM174 330q0 -90 29.5 -143.5t76 -81t104.5 -36t116 -8.5q57 0 115.5 8.5t104.5 36t75.5 81 t29.5 143.5v411q0 76 -29.5 121t-76.5 66.5t-104.5 28t-114.5 6.5t-114.5 -6.5t-105 -28t-77 -66.5t-29.5 -121v-411z" />
<glyph unicode="P" horiz-adv-x="886" d="M113 0v1024h475q127 0 177 -82t50 -225q0 -145 -50 -232.5t-177 -87.5h-404v-397h-71zM184 469h404q53 0 83.5 20.5t47 55.5t20.5 79t4 93q0 47 -4 90t-20.5 74.5t-47 51t-83.5 19.5h-404v-483z" />
<glyph unicode="Q" horiz-adv-x="999" d="M102 311v449q0 150 107.5 212t290.5 62q182 0 289.5 -62.5t107.5 -211.5v-449q0 -129 -58.5 -200.5t-162.5 -100.5q33 -27 65.5 -43t62.5 -25.5t53.5 -13.5t39.5 -6v-74q-23 0 -53.5 6.5t-68.5 21.5t-80 44t-85 76q-53 -6 -110 -6q-92 0 -166 17.5t-125 55t-79 99 t-28 149.5zM174 330q0 -90 29.5 -143.5t76 -81t105 -36t115.5 -8.5t115.5 8.5t104.5 36t75.5 81t29.5 143.5v411q0 76 -29.5 121t-76.5 66.5t-104.5 28t-114.5 6.5t-114.5 -6.5t-105 -28t-77 -66.5t-29.5 -121v-411z" />
<glyph unicode="R" horiz-adv-x="876" d="M113 0v1024h473q129 0 180 -77t51 -230q0 -145 -44 -214t-146 -95q45 -86 76.5 -148.5t55 -110t42 -82t35.5 -67.5h-78l-207 408h-367v-408h-71zM184 479h402q55 0 87 19.5t48 51.5t20 75t4 92q0 47 -4 90t-20 74.5t-48 51t-87 19.5h-402v-473z" />
<glyph unicode="S" horiz-adv-x="884" d="M82 754q0 139 82 209.5t242 70.5q80 0 165.5 -8t147.5 -31l-27 -67q-31 10 -68.5 17t-76.5 11.5t-76 5.5t-68 1q-49 0 -94 -9.5t-79.5 -33t-55 -63.5t-20.5 -103q0 -57 48 -93t119.5 -64t156.5 -52.5t157 -57t120 -82t48 -124.5q0 -86 -31 -142.5t-80 -89.5t-112.5 -46 t-128.5 -13q-98 0 -179.5 17.5t-171.5 72.5l41 61q72 -47 151 -63.5t157 -16.5q129 0 205.5 47.5t76.5 172.5q0 57 -48 94t-119.5 64.5t-156.5 52t-157 57.5t-120 81t-48 124z" />
<glyph unicode="T" horiz-adv-x="854" d="M57 952v72h740v-72h-338v-952h-72v952h-330z" />
<glyph unicode="U" horiz-adv-x="999" d="M102 311v713h72v-705q0 -90 29.5 -142t76 -77.5t104.5 -32t116 -6.5q57 0 115.5 6.5t104.5 32t75.5 77.5t29.5 142v705h72v-713q0 -176 -100.5 -248.5t-296.5 -72.5q-197 0 -297.5 72.5t-100.5 248.5z" />
<glyph unicode="V" horiz-adv-x="978" d="M31 1024h84l374 -952l375 952h84l-411 -1024h-95z" />
<glyph unicode="W" horiz-adv-x="1179" d="M31 1024h78l194 -952l229 618h115l230 -618l194 952h78q-51 -258 -105.5 -512t-107.5 -512h-111l-235 633l-236 -633h-110q-53 258 -107.5 512t-105.5 512z" />
<glyph unicode="X" horiz-adv-x="905" d="M31 0q92 131 185 262t192 254q-98 123 -187.5 250t-181.5 258h84l330 -461l329 461h84q-92 -131 -181 -258t-187 -250q98 -123 191 -254t185 -262h-83l-338 471l-338 -471h-84z" />
<glyph unicode="Y" horiz-adv-x="899" d="M31 1024h80l338 -481l339 481h80l-383 -549v-475h-71v475z" />
<glyph unicode="Z" horiz-adv-x="886" d="M92 0v72l615 880h-615v72h701v-72l-609 -880h611v-72h-703z" />
<glyph unicode="[" horiz-adv-x="397" d="M113 -109v1242h172v-72h-101v-1098h101v-72h-172z" />
<glyph unicode="\" horiz-adv-x="708" d="M61 1133h72l514 -1133h-72z" />
<glyph unicode="]" horiz-adv-x="397" d="M113 -37h100v1098h-100v72h172v-1242h-172v72z" />
<glyph unicode="^" horiz-adv-x="724" d="M113 518l204 506h91l204 -506h-67q-43 117 -91 225.5t-92 223.5q-43 -115 -91 -223.5t-91 -225.5h-67z" />
<glyph unicode="_" horiz-adv-x="739" d="M0 -102h739v-72h-739v72z" />
<glyph unicode="`" horiz-adv-x="370" d="M117 1102h82q16 -43 29.5 -87t29.5 -91h-47z" />
<glyph unicode="a" horiz-adv-x="858" d="M92 231q0 119 83 173.5t218 54.5q25 0 59.5 -2t72.5 -6.5t76 -14.5t73 -24v192q0 55 -19.5 86t-53.5 46.5t-77 18.5t-92 3t-92 -3t-77 -18.5t-53.5 -46.5t-19.5 -84h-71v8q0 117 78.5 166t234.5 49q160 0 236.5 -49t76.5 -166v-614h-71v88q-25 -37 -70 -57.5t-90 -29.5 t-80 -10t-41 -1q-109 0 -169 21.5t-89 55t-36 77.5t-7 87zM164 236q0 -43 4 -75t25.5 -54.5t68.5 -34t133 -11.5q61 0 112.5 13.5t88.5 37t57.5 53.5t20.5 60v45q0 43 -29 67.5t-71 35t-90 12.5t-89 2q-43 0 -85 -6t-74.5 -22.5t-52 -46t-19.5 -76.5z" />
<glyph unicode="b" horiz-adv-x="845" d="M113 0v1102h71v-348q33 29 71 44t72.5 22t64.5 8t48 1q147 0 230.5 -50t83.5 -165v-360q0 -121 -66.5 -192.5t-224.5 -71.5q-6 0 -39 1t-75 10t-87 29.5t-78 57.5v-88h-71zM184 211q0 -29 20.5 -56.5t57.5 -48t86 -33t107 -12.5q131 0 179 53.5t48 159.5v326 q0 53 -19.5 84t-53.5 47.5t-77 21.5t-92 5q-37 0 -74.5 -3t-71.5 -13.5t-62.5 -30t-47.5 -52.5v-448z" />
<glyph unicode="c" horiz-adv-x="768" d="M92 317v185q0 106 33 171.5t84 99.5t114.5 45t125.5 11q59 0 122.5 -6t145.5 -35l-17 -65q-33 12 -66.5 19.5t-64 10.5t-56.5 4t-42 1q-47 0 -100.5 -4t-99.5 -28t-76.5 -76t-30.5 -148v-185q0 -96 30.5 -148t76.5 -75.5t99.5 -28t100.5 -4.5q16 0 42 1t56.5 4.5 t64.5 10.5t66 19l17 -65q-82 -29 -145.5 -35t-122.5 -6q-61 0 -125 11t-115 45t-84 98.5t-33 172.5z" />
<glyph unicode="d" horiz-adv-x="845" d="M92 254v360q0 115 83 165t231 50q18 0 47.5 -1t64.5 -8t73 -22.5t71 -43.5v348h71v-1102h-71v88q-33 -37 -78 -57.5t-87 -29.5t-75 -10t-39 -1q-158 0 -224.5 71.5t-66.5 192.5zM164 274q0 -53 10 -93t37 -66.5t71 -40t109 -13.5q57 0 106.5 12.5t86.5 33t57.5 48 t20.5 56.5v448q-18 33 -47 52.5t-63 30t-71.5 13.5t-74.5 3q-49 0 -92.5 -5t-77 -21.5t-53 -47.5t-19.5 -84v-326z" />
<glyph unicode="e" horiz-adv-x="829" d="M92 317v256q0 133 88 194.5t238 61.5q166 0 245.5 -66.5t79.5 -189.5v-176h-579v-80q0 -96 31.5 -148t80 -75.5t104.5 -28t103 -4.5q14 0 40 1t58.5 4.5t68.5 10.5t71 19l16 -67q-84 -29 -150.5 -34t-125.5 -5q-74 0 -140.5 11t-117.5 45t-81 98.5t-30 172.5zM164 469 h508v88q0 55 -20.5 93t-56.5 61.5t-82 35t-95 11.5t-95.5 -11.5t-81 -35t-56 -61.5t-21.5 -93v-88z" />
<glyph unicode="f" horiz-adv-x="530" d="M53 748v71h148v47q0 78 9 128t29.5 80t55.5 41t86 11q20 0 59 -5t80 -23l-20 -62q-66 19 -117 19q-35 0 -56.5 -6.5t-33.5 -25.5t-16.5 -57t-4.5 -100v-47h240v-71h-240v-748h-71v748h-148z" />
<glyph unicode="g" horiz-adv-x="845" d="M92 205v360q0 121 66.5 192.5t224.5 71.5q6 0 39 -2t75 -11t87 -28.5t78 -56.5v88h71v-870q0 -109 -22.5 -173.5t-64.5 -98t-100.5 -45t-131.5 -11.5q-14 0 -43 1t-65 4t-78 11.5t-83 22.5l19 66q92 -25 145 -29t84 -4q45 0 93.5 2t87 24.5t63.5 74.5t25 155v117 q-33 -29 -71 -44.5t-73 -22.5t-64.5 -8t-47.5 -1q-147 0 -230.5 50t-83.5 165zM164 219q0 -53 19.5 -84t53 -47t77 -21.5t92.5 -5.5q37 0 74.5 3.5t71.5 13.5t62.5 29.5t47.5 52.5v448q0 29 -20.5 56.5t-57.5 48t-86 33t-107 12.5q-66 0 -109.5 -13.5t-70.5 -40t-37 -66.5 t-10 -93v-326z" />
<glyph unicode="h" horiz-adv-x="854" d="M113 0v1102h71v-381q27 41 69 62.5t83 31.5t77 12t52 2q160 0 228.5 -72.5t68.5 -195.5v-561h-72v545q0 109 -63.5 161t-169.5 52q-117 0 -195 -57.5t-78 -155.5v-545h-71z" />
<glyph unicode="i" horiz-adv-x="313" d="M102 1001q0 23 15.5 38.5t38.5 15.5t38 -15.5t15 -38.5t-15.5 -38t-37.5 -15q-23 0 -38.5 15t-15.5 38zM121 0v819h72v-819h-72z" />
<glyph unicode="j" horiz-adv-x="278" d="M-156 -326l39 56q35 -25 64.5 -31t58.5 -6q49 0 63.5 48t14.5 140v938h72v-938q0 -57 -4.5 -104t-18.5 -82t-45 -54.5t-82 -19.5q-33 0 -76 6t-86 47zM68 1001q0 23 15 38.5t38 15.5t38 -15.5t15 -38.5t-15.5 -38t-37.5 -15q-23 0 -38 15t-15 38z" />
<glyph unicode="k" horiz-adv-x="817" d="M113 0v1102h71v-660l428 377h107l-266 -233l323 -586h-84l-295 532l-213 -186v-346h-71z" />
<glyph unicode="l" horiz-adv-x="296" d="M113 0v1102h71v-1102h-71z" />
<glyph unicode="m" horiz-adv-x="1224" d="M113 0v819h71v-106q16 43 55.5 67.5t79 34.5t71.5 12t36 2q156 0 229 -104q25 39 61 60.5t69.5 30.5t59 11t27.5 2q78 0 128.5 -18t80 -53t41 -84t11.5 -111v-563h-72v549q0 106 -40 157.5t-149 51.5q-6 0 -27.5 -1t-50 -10.5t-61.5 -29t-61 -55.5q8 -41 9 -59.5t1 -53.5 v-549h-72v549q0 106 -36.5 157.5t-147.5 51.5q-59 0 -104.5 -18.5t-76 -48t-46 -67.5t-15.5 -75v-549h-71z" />
<glyph unicode="n" horiz-adv-x="854" d="M113 0v819h71v-98q27 41 69 62.5t83 31.5t77 12t52 2q160 0 228.5 -72.5t68.5 -195.5v-561h-72v545q0 109 -63.5 161t-169.5 52q-117 0 -195 -57.5t-78 -155.5v-545h-71z" />
<glyph unicode="o" horiz-adv-x="831" d="M92 246v368q0 117 82 166t242 49t241.5 -49t81.5 -166v-368q0 -135 -88 -195.5t-235 -60.5q-164 0 -244 66.5t-80 189.5zM164 256q0 -55 20.5 -92t56 -60.5t81 -33t94.5 -9.5t95 9.5t81 33t55.5 60.5t20.5 92v348q0 55 -20.5 86t-56.5 46.5t-81 18.5t-94 3t-94.5 -3 t-80 -18.5t-56 -46.5t-21.5 -86v-348z" />
<glyph unicode="p" horiz-adv-x="845" d="M113 -379v1198h71v-88q33 37 78 56.5t87 28.5t75 11t39 2q158 0 224.5 -71.5t66.5 -192.5v-360q0 -115 -83 -165t-231 -50q-18 0 -48 1t-64.5 8t-72.5 22.5t-71 44.5v-445h-71zM184 160q18 -33 47 -52.5t63 -29.5t71.5 -13.5t74.5 -3.5q49 0 92 5.5t77 21.5t53.5 47 t19.5 84v326q0 106 -48 159.5t-179 53.5q-57 0 -106.5 -12.5t-86.5 -33t-57.5 -48t-20.5 -56.5v-448z" />
<glyph unicode="q" horiz-adv-x="845" d="M92 205v360q0 121 66.5 192.5t224.5 71.5q6 0 39 -2t75 -11t87 -28.5t78 -56.5v88h71v-1198h-71v445q-33 -29 -71 -44.5t-73 -22.5t-64.5 -8t-47.5 -1q-147 0 -230.5 50t-83.5 165zM164 219q0 -53 19.5 -84t53 -47t77 -21.5t92.5 -5.5q37 0 74.5 3.5t71.5 13.5t62.5 29.5 t47.5 52.5v448q0 29 -20.5 56.5t-57.5 48t-86 33t-107 12.5q-66 0 -109.5 -13.5t-70.5 -40t-37 -66.5t-10 -93v-326z" />
<glyph unicode="r" horiz-adv-x="436" d="M113 -10v829h71v-98q31 41 65 62.5t65.5 30.5t59 11t48.5 4v-71q-104 -6 -171 -64.5t-67 -150.5v-553h-71z" />
<glyph unicode="s" horiz-adv-x="677" d="M51 608q0 111 65.5 166t192.5 55q61 0 133 -8t119 -24q-8 -23 -12 -36t-8 -30q-49 14 -117 20.5t-115 6.5q-86 0 -136 -30t-50 -120q0 -45 37 -73.5t93 -50t121.5 -42t122 -48t93.5 -69.5t37 -106q0 -68 -23.5 -112t-62.5 -70.5t-89.5 -36.5t-101.5 -10q-80 0 -159.5 12 t-131.5 59l35 58q59 -41 123 -49.5t129 -8.5q41 0 79 8.5t66.5 27t46 48t17.5 74.5q0 49 -37 78t-93 50.5t-121.5 38.5t-122 45t-93.5 69t-37 108z" />
<glyph unicode="t" horiz-adv-x="485" d="M20 748v71h152v246h72v-246h196v-71h-196v-500q0 -39 2 -72t11 -55.5t30.5 -35.5t60.5 -13h88v-72h-88q-66 0 -101.5 23.5t-52 60.5t-19.5 80t-3 84v500h-152z" />
<glyph unicode="u" horiz-adv-x="874" d="M113 258v561h71v-545q0 -109 63.5 -161t170.5 -52q117 0 194.5 57.5t77.5 155.5v545h72v-819h-72v98q-29 -41 -69.5 -62.5t-81.5 -31.5t-77 -12t-52 -2q-160 0 -228.5 72.5t-68.5 195.5z" />
<glyph unicode="v" horiz-adv-x="790" d="M20 819h82l293 -758l293 758h82l-319 -819h-111z" />
<glyph unicode="w" horiz-adv-x="1093" d="M57 819h76l150 -758q47 152 103 321t103 318h115q47 -150 103.5 -318.5t103.5 -320.5l150 758h75l-162 -819h-116q-23 72 -51.5 159t-57 175t-55.5 171t-47 150q-20 -68 -47 -150.5t-55.5 -170.5t-57.5 -175t-51 -159h-117z" />
<glyph unicode="x" horiz-adv-x="790" d="M51 819h86l258 -356l258 356h86l-295 -407l293 -412h-84l-258 354l-258 -354h-84l293 412z" />
<glyph unicode="y" horiz-adv-x="806" d="M31 819h80l292 -758l293 758h80l-465 -1198h-86l137 346z" />
<glyph unicode="z" horiz-adv-x="718" d="M72 0v68l487 680h-487v71h573v-67l-477 -680h479v-72h-575z" />
<glyph unicode="{" horiz-adv-x="520" d="M113 479v64q49 2 75.5 17t39 39t14.5 54.5t2 65.5v319q0 49 19.5 72t47.5 23h97v-64h-29q-37 0 -50.5 -7t-13.5 -48v-264q0 -82 -13 -146.5t-52 -93.5q39 -29 52 -95.5t13 -146.5v-258q0 -41 13.5 -48t50.5 -7h29v-64h-97q-29 0 -48 23t-19 72v282q0 37 -4 72t-17.5 63.5 t-40 48t-69.5 27.5z" />
<glyph unicode="|" horiz-adv-x="296" d="M113 -109v1242h71v-1242h-71z" />
<glyph unicode="}" horiz-adv-x="520" d="M113 -45h28q37 0 50.5 7t13.5 48v258q0 80 13 146.5t52 95.5q-39 29 -52 93.5t-13 146.5v264q0 41 -13.5 48t-50.5 7h-28v64h96q29 0 48 -23t19 -72v-319q0 -35 2.5 -65.5t14.5 -54.5t38.5 -39t76.5 -17v-64q-43 -8 -70 -27.5t-40 -48t-17.5 -63.5t-4.5 -72v-282 q0 -49 -19 -72t-48 -23h-96v64z" />
<glyph unicode="~" horiz-adv-x="940" d="M113 551q72 59 159 59q51 0 101.5 -18.5t99.5 -40t98.5 -39.5t98.5 -18q41 0 71.5 13t59.5 34q6 -10 16 -29.5t14 -30.5q-70 -59 -161 -59q-43 0 -94.5 18.5t-103.5 40t-103.5 40t-96.5 18.5t-73.5 -12.5t-57.5 -34.5z" />
<glyph unicode="&#xad;" horiz-adv-x="823" d="M113 356v72h598v-72h-598z" />
<glyph unicode="&#xbc;" horiz-adv-x="1105" d="M96 940l166 84h57v-621h-57v560l-141 -76zM242 0l491 1024h72l-492 -1024h-71zM565 186v56l281 379h78v-379h86v-56h-86v-186h-58v186h-301zM639 242h227v311z" />
<glyph unicode="&#xbd;" horiz-adv-x="1191" d="M96 940l166 84h57v-621h-57v560l-141 -76zM242 0l491 1024h72l-492 -1024h-71zM674 461v16q0 76 60.5 115t152.5 39t143 -39t51 -115v-49q0 -59 -52 -103t-114.5 -84t-114.5 -84t-52 -102h350v-55h-412v55q0 47 24.5 85t62.5 71t82 60.5t82 53t62.5 51t24.5 52.5v49 q0 47 -33 72.5t-104 25.5q-74 0 -115 -25.5t-41 -72.5v-16h-57z" />
<glyph unicode="&#xbe;" horiz-adv-x="1249" d="M96 580v12h58v-12q0 -41 15 -64.5t38.5 -36t51.5 -16.5t50 -4q23 0 50.5 4t51 16.5t39 36t15.5 64.5v34q0 23 -12.5 37.5t-32 23.5t-43 13t-43.5 4h-64v56h64q45 0 88 25.5t43 72.5v37q0 37 -15.5 56t-39 28.5t-51 10.5t-50.5 1t-49.5 -1t-50 -10.5t-39.5 -28.5t-16 -56 v-19h-58v19q0 76 54.5 113.5t158.5 37.5q213 0 213 -151v-37q0 -43 -20.5 -74t-46.5 -49q27 -16 47 -44t20 -65v-34q0 -86 -54 -131.5t-159 -45.5q-117 0 -165 49.5t-48 127.5zM385 0h72l491 1024h-71zM709 186h301v-186h57v186h86v56h-86v379h-78l-280 -379v-56zM782 242 l228 311v-311h-228z" />
<glyph unicode="&#xbf;" horiz-adv-x="727" d="M113 2q0 51 19.5 87t48 63.5t62 49t64.5 47t53.5 56.5t26.5 78v246h72v-246q0 -55 -20.5 -92t-51.5 -64.5t-65.5 -50t-65.5 -47.5t-51.5 -54.5t-20.5 -72.5t18.5 -71.5t48.5 -45t68.5 -22.5t79.5 -6q47 0 99.5 2t95.5 18l20 -61q-45 -20 -100 -25.5t-117 -5.5 q-152 0 -218 54.5t-66 162.5zM369 776q0 23 15 38t38 15t38 -15t15 -38t-15.5 -38t-37.5 -15q-23 0 -38 15.5t-15 37.5z" />
<glyph unicode="&#xff;" horiz-adv-x="1941" />
<glyph unicode="&#xe01;" horiz-adv-x="808" d="M90 0v690q37 51 82 79t87 41t78 16t56 3q117 0 181.5 -36.5t95 -81.5t37 -85t6.5 -46v-580h-72v569q0 70 -35 109t-80 56.5t-85 20.5t-48 3q-78 0 -138 -24.5t-93 -71.5v-662h-72z" />
<glyph unicode="&#xe02;" horiz-adv-x="716" d="M78 264v74q0 49 18.5 85t40 69.5t40 68.5t18.5 80q0 39 -1 60.5t-9.5 31.5t-24 12.5t-43.5 2.5h-39v71h26q59 0 92 -3t48.5 -19.5t18.5 -52t3 -103.5q0 -53 -18.5 -94t-40 -76t-39.5 -66.5t-18 -66.5v-66q0 -43 5 -81.5t25.5 -66.5t61 -45.5t112.5 -17.5t113 15.5 t60.5 41t24.5 62.5t5 80v559h72v-565q0 -61 -11.5 -109.5t-41 -83t-83 -53t-139.5 -18.5q-98 0 -153.5 25.5t-83 65.5t-33.5 88t-6 95z" />
<glyph unicode="&#xe03;" horiz-adv-x="727" d="M10 778l43 41l47 -49l60 49q43 0 67.5 -8t34.5 -27.5t12 -54.5t2 -88t-18 -94t-39.5 -76t-40 -66.5t-18.5 -66.5v-66q0 -43 5 -81.5t25.5 -67.5t61.5 -45.5t113 -16.5t112.5 14.5t60 41t24.5 63.5t5 80v559h72v-565q0 -61 -11.5 -109.5t-41 -83t-82.5 -53t-139 -18.5 q-98 0 -153.5 25.5t-83.5 65.5t-34 88t-6 95v74q0 49 18.5 85t40 69.5t40 68.5t18.5 80q0 53 -3 77.5t-24 35.5l-82 -64z" />
<glyph unicode="&#xe04;" horiz-adv-x="831" d="M82 0v584q0 137 84 191t244 54t242.5 -54t82.5 -191v-584h-71v598q0 55 -21.5 87t-57.5 48.5t-82 20.5t-93 4q-49 0 -95.5 -4t-82 -20.5t-57 -48.5t-21.5 -87v-205q55 35 108 40t94 5h64v-73h-64q-57 0 -116.5 -10.5t-85.5 -49.5v-305h-72z" />
<glyph unicode="&#xe05;" horiz-adv-x="839" d="M82 0v594q0 104 47 158.5t135 74.5l150 -67l147 69q78 -20 130 -77.5t52 -157.5v-594h-71v598q0 59 -31 102t-82 60q-10 -4 -45 -20.5t-100 -49.5l-150 68q-53 -16 -81.5 -57.5t-28.5 -102.5v-205q55 35 108 40t94 5h64v-73h-64q-57 0 -116.5 -10.5t-85.5 -49.5v-305h-72 z" />
<glyph unicode="&#xe06;" horiz-adv-x="817" d="M0 778l43 41l47 -49l60 49q43 0 67.5 -8t34.5 -27.5t12 -54.5t2 -88t-18.5 -94t-40 -76t-39.5 -66.5t-18 -66.5v-64q0 -98 76.5 -155.5t193.5 -57.5q104 0 166.5 53.5t62.5 159.5v545h72v-565q0 -121 -67.5 -192.5t-225.5 -71.5q-16 0 -47 2t-70 12t-81 31.5t-80 62.5 v-98h-72v338q0 49 18.5 85t40 69.5t40 68.5t18.5 80q0 53 -3.5 77.5t-23.5 35.5l-82 -64z" />
<glyph unicode="&#xe07;" horiz-adv-x="563" d="M10 55l41 60q45 -33 95.5 -43.5t84.5 -10.5q70 0 117 33t47 115v539h-106v71h178v-629q0 -201 -236 -200q-72 0 -129 16.5t-92 48.5z" />
<glyph unicode="&#xe08;" horiz-adv-x="759" d="M45 596v18q0 117 80 166t240 49q156 0 234.5 -49t78.5 -166v-395q0 -125 -53.5 -172t-143.5 -47h-194l-56 303h-88v72h154l51 -303h135q41 4 64.5 14t36 28.5t16.5 43t6 57.5v389q0 55 -19.5 86t-53 46.5t-77.5 18.5t-91 3q-49 0 -94.5 -3t-79 -18.5t-54 -46.5t-20.5 -86 v-8h-72z" />
<glyph unicode="&#xe09;" horiz-adv-x="800" d="M72 303v72h133v-113q0 -53 8 -91t28.5 -62.5t56.5 -36t91 -11.5q117 0 180.5 51.5t63.5 149.5v342q0 55 -19.5 86t-53.5 46.5t-77 18.5t-92 3t-93 -3t-78 -18.5t-53.5 -46.5t-19.5 -84h-71v8q0 117 77.5 166t237.5 49t237 -49t77 -166v-614h-72v98q-18 -41 -56 -62.5 t-78 -31.5t-74 -12t-46 -2q-78 0 -126 18.5t-74.5 53t-36 84t-9.5 108.5v49h-61z" />
<glyph unicode="&#xe0a;" horiz-adv-x="727" d="M78 264v76q0 49 18.5 85t40 69.5t40 68.5t18.5 80q0 39 -1 60.5t-9.5 31.5t-24 12.5t-43.5 2.5h-39v71h26q59 0 92 -3t48.5 -19.5t18.5 -52t3 -103.5q0 -53 -18.5 -94t-40 -76t-39.5 -66.5t-18 -66.5v-68q0 -43 4 -81.5t24.5 -67.5t61.5 -45.5t112 -16.5q74 0 115 14.5 t60.5 41t24.5 63.5t5 80v203q0 74 -44 106.5t-112 40.5v72q66 4 115 38t49 99h74q0 -23 -2 -44t-13.5 -42.5t-35 -43t-68.5 -42.5q41 -16 62.5 -37.5t32 -46t12.5 -51.5t2 -49v-209q0 -59 -11.5 -108.5t-41 -84t-84 -53t-140.5 -18.5q-98 0 -152.5 25.5t-82 65.5t-33.5 88 t-6 95z" />
<glyph unicode="&#xe0b;" horiz-adv-x="737" d="M10 778l43 41l47 -49l60 49q43 0 67.5 -8t34.5 -27.5t12 -54.5t2 -88t-18 -94t-39.5 -76t-40 -66.5t-18.5 -66.5v-66q0 -43 4 -81.5t24.5 -67.5t61.5 -45.5t112 -16.5q74 0 115 14.5t60.5 41t24.5 63.5t5 80v203q0 74 -44 106.5t-111 40.5v72q66 4 114.5 38t48.5 99h74 q0 -23 -2 -44t-13 -42.5t-35 -43t-69 -42.5q41 -16 62.5 -37.5t32 -46t12.5 -51.5t2 -49v-209q0 -59 -11.5 -108.5t-41 -84t-83.5 -53t-141 -18.5q-98 0 -152 25.5t-82 65.5t-34 88t-6 95v74q0 49 18.5 85t40 69.5t40 68.5t18.5 80q0 53 -3 77.5t-24 35.5l-82 -64z" />
<glyph unicode="&#xe0c;" horiz-adv-x="1302" d="M90 0v690q37 51 82 79t87 41t78 16t56 3q117 0 181.5 -36.5t95 -81.5t37 -85t6.5 -46v-279q0 -49 13 -92t41 -76t71 -52.5t102 -19.5q111 0 153 51.5t42 155.5v551h71v-565q0 -59 -13 -107.5t-44 -83t-82 -54t-127 -19.5l-26 2q-27 2 -64 12t-75 31.5t-62 62.5v-98h-72 v569q0 70 -35 109t-80 56.5t-85 20.5t-48 3q-78 0 -138 -24.5t-93 -71.5v-590h92v-72h-164z" />
<glyph unicode="&#xe0d;" horiz-adv-x="1302" d="M90 0v690q37 51 82 79t87 41t78 16t56 3q117 0 181.5 -36.5t95 -81.5t37 -85t6.5 -46v-312q0 -104 42 -155.5t152 -51.5q59 0 102.5 19.5t71 52.5t41 76t13.5 92v518h71v-813q0 -137 -73.5 -185t-217.5 -48q-41 0 -93 4t-93 10l16 68q41 -6 90.5 -8.5t79.5 -2.5 q49 0 90.5 4.5t70 20.5t44 48t15.5 87v94q-25 -41 -63 -62.5t-74.5 -31.5t-63.5 -12l-27 -2q-78 0 -129 19.5t-81.5 54t-43 83t-12.5 107.5v315q0 70 -35 109t-80 56.5t-85 20.5t-48 3q-78 0 -138 -24.5t-93 -71.5v-590h92v-72h-164z" />
<glyph unicode="&#xe0e;" horiz-adv-x="837" d="M31 0v72h88v618q37 51 82 79t87 41t77.5 16t56.5 3q117 0 181.5 -36.5t95 -81.5t36.5 -85t6 -46v-727q0 -18 -6 -60.5t-34.5 -85.5t-87 -75.5t-162.5 -32.5h-324v71h326q8 0 43.5 2t73.5 19.5t69 56.5t31 113v708q0 70 -35 109t-80 56.5t-85 20.5t-48 3 q-78 0 -138.5 -24.5t-93.5 -71.5v-662h-159z" />
<glyph unicode="&#xe0f;" horiz-adv-x="837" d="M31 0v72h88v618q37 51 82 79t87 41t77.5 16t56.5 3q117 0 181.5 -36.5t95 -81.5t36.5 -85t6 -46v-773q0 -98 -45 -144t-129 -64l-137 57l-141 -57h-162v71h174l129 56l131 -56q41 4 75 37t34 94v768q0 70 -35 109t-80 56.5t-85 20.5t-48 3q-78 0 -138.5 -24.5 t-93.5 -71.5v-662h-159z" />
<glyph unicode="&#xe10;" horiz-adv-x="759" d="M45 596v18q0 117 80 166t240 49q23 0 41 -1t36 -3l207 80l29 -61l-115 -45q115 -47 115 -185v-395q0 -125 -53.5 -172t-143.5 -47h-194l-56 303h-88v72h154l51 -303h135q41 4 64.5 14t36 28.5t16.5 43t6 57.5v389q0 55 -19.5 86t-53 46.5t-77.5 18.5t-91 3 q-49 0 -94.5 -3t-79 -18.5t-54 -46.5t-20.5 -86v-8h-72zM184 -129h316q25 0 44 1t32.5 9t21.5 26.5t8 51.5h72q0 -53 -12.5 -84t-36 -48t-56 -22.5t-73.5 -5.5h-316v72z" />
<glyph unicode="&#xe11;" horiz-adv-x="837" d="M-25 778l43 41l48 -49l59 49q72 0 92.5 -20.5t24.5 -81.5q37 43 72.5 65.5t69.5 32.5t64.5 12t55.5 2q76 0 123 -18t72.5 -53t33.5 -84t8 -109v-565h-71v565q0 51 -8.5 88t-29 60.5t-57 34t-92.5 10.5q-59 0 -115.5 -26.5t-99.5 -81t-69.5 -136.5t-26.5 -195v-319h-72 v319q0 96 18.5 174t51.5 140q0 53 -3 81.5t-24 39.5l-82 -64z" />
<glyph unicode="&#xe12;" horiz-adv-x="1333" d="M82 260v334q0 104 47 158.5t135 74.5l150 -67l147 69q78 -20 130 -77.5t52 -157.5v-293q0 -49 13.5 -92t41 -76t70.5 -52.5t103 -19.5q111 0 152.5 51.5t41.5 155.5v551h72v-565q0 -59 -13.5 -107.5t-44 -83t-81.5 -54t-127 -19.5l-27 2q-26 2 -63 12t-75 31.5t-63 62.5 v-98h-71v598q0 59 -31 102t-82 60q-10 -4 -45 -20.5t-100 -49.5l-150 68q-53 -16 -81.5 -57.5t-28.5 -102.5v-338q0 -41 2 -75.5t12 -59.5t31.5 -39t62.5 -14h51v-72h-51q-68 0 -103.5 24.5t-53 63.5t-20.5 84t-3 88z" />
<glyph unicode="&#xe13;" horiz-adv-x="1302" d="M90 0v690q37 51 82 79t87 41t78 16t56 3q117 0 181.5 -36.5t95 -81.5t37 -85t6.5 -46v-312q0 -104 42 -155.5t152 -51.5q59 0 102.5 19.5t71 52.5t41 76t13.5 92v518h71v-250v-569h-71v98q-25 -41 -63 -62.5t-74.5 -31.5t-63.5 -12l-27 -2q-78 0 -129 19.5t-81.5 54 t-43 83t-12.5 107.5v315q0 70 -35 109t-80 56.5t-85 20.5t-48 3q-78 0 -138 -24.5t-93 -71.5v-590h92v-72h-164z" />
<glyph unicode="&#xe14;" horiz-adv-x="831" d="M82 252v332q0 135 84 190t244 55t242.5 -55t82.5 -190v-584h-71v600q0 53 -23 85t-58.5 48.5t-80.5 20.5t-92 4q-49 0 -95.5 -4t-82 -20.5t-57 -48.5t-21.5 -85v-336q0 -41 2 -75.5t11 -61.5t30.5 -41t62.5 -14h49v-72h-49q-66 0 -101.5 24.5t-52 61.5t-20.5 81t-4 85z " />
<glyph unicode="&#xe15;" horiz-adv-x="839" d="M82 260v334q0 104 47 158.5t135 74.5l150 -67l147 69q78 -20 130 -77.5t52 -157.5v-594h-71v598q0 59 -31 102t-82 60q-10 -4 -45 -20.5t-100 -49.5l-150 68q-53 -16 -81.5 -57.5t-28.5 -102.5v-338q0 -41 2 -75.5t12 -59.5t31.5 -39t62.5 -14h51v-72h-51 q-68 0 -103.5 24.5t-53 63.5t-20.5 84t-3 88z" />
<glyph unicode="&#xe16;" horiz-adv-x="808" d="M90 0v690q37 51 82 79t87 41t78 16t56 3q117 0 181.5 -36.5t95 -81.5t37 -85t6.5 -46v-580h-72v569q0 70 -35 109t-80 56.5t-85 20.5t-48 3q-78 0 -138 -24.5t-93 -71.5v-590h92v-72h-164z" />
<glyph unicode="&#xe17;" horiz-adv-x="835" d="M96 0v819h72v-98q39 41 81 62.5t81 31.5t69.5 12t46.5 2q158 0 225.5 -72.5t67.5 -191.5v-565h-71v545q0 106 -62.5 159.5t-167.5 53.5q-117 0 -193.5 -57.5t-76.5 -155.5v-545h-72z" />
<glyph unicode="&#xe18;" horiz-adv-x="688" d="M61 74v237h72v-200q59 -29 120.5 -39.5t115.5 -10.5q41 0 76.5 3.5t62.5 16.5t42 41t15 75v110q0 33 -36.5 53.5t-92 36t-121 30.5t-121 40t-92 61.5t-36.5 96.5q0 68 22.5 107.5t59 61t84 28.5t96.5 7q61 0 138 -8t130 -24q-6 -14 -11 -30.5t-12 -33.5 q-51 12 -122.5 18.5t-122.5 6.5q-41 0 -76 -3t-60.5 -16.5t-40 -40t-14.5 -73.5q0 -43 37 -69t92.5 -44t121 -32.5t120.5 -37t92 -56.5t37 -89v-111q0 -59 -22.5 -97t-59.5 -59.5t-85 -30.5t-99 -9q-39 0 -82 5t-84 15t-79 25.5t-65 38.5z" />
<glyph unicode="&#xe19;" horiz-adv-x="821" d="M82 254v565h72v-545q0 -106 62.5 -159.5t166.5 -53.5q117 0 193.5 57.5t76.5 155.5v545h72v-819h-72v98q-39 -41 -82 -62.5t-80.5 -31.5t-68.5 -12t-47 -2q-158 0 -225.5 71.5t-67.5 192.5z" />
<glyph unicode="&#xe1a;" horiz-adv-x="802" d="M72 252v567h71v-559q0 -41 11.5 -77t39 -63.5t75.5 -43t122 -15.5q51 0 96 5.5t78 25t51.5 59t18.5 109.5v559h72v-567q0 -35 -6.5 -81t-36 -86t-93 -67.5t-180.5 -27.5t-181.5 27.5t-95 67.5t-36.5 86t-6 81z" />
<glyph unicode="&#xe1b;" horiz-adv-x="802" d="M72 252v567h71v-559q0 -41 11.5 -77t39 -63.5t75.5 -43t122 -15.5q51 0 96 5.5t78 25t51.5 59t18.5 109.5v825h72v-833q0 -35 -6.5 -81t-36 -86t-93 -67.5t-180.5 -27.5t-181.5 27.5t-95 67.5t-36.5 86t-6 81z" />
<glyph unicode="&#xe1c;" horiz-adv-x="989" d="M96 197v622h215v-71h-143v-543q0 -90 39 -117t108 -27q78 0 111 41t33 103v323h73v-323q0 -61 33 -102.5t111 -41.5q33 0 60.5 4.5t46 18.5t28.5 41t10 72v622h72v-622q0 -74 -19.5 -115t-50 -61.5t-69.5 -25.5t-76 -5q-37 2 -72 10q-29 8 -60.5 23.5t-51.5 48.5 q-18 -33 -49 -48.5t-60 -23.5q-35 -8 -72 -10q-39 0 -77.5 5t-69.5 25.5t-50.5 61.5t-19.5 115z" />
<glyph unicode="&#xe1d;" horiz-adv-x="989" d="M96 197v622h215v-71h-143v-543q0 -90 39 -117t108 -27q78 0 111 41t33 103v323h73v-323q0 -61 33 -102.5t111 -41.5q33 0 60.5 4.5t46 18.5t28.5 41t10 72v888h72v-888q0 -74 -19.5 -115t-50 -61.5t-69.5 -25.5t-76 -5q-37 2 -72 10q-29 8 -60.5 23.5t-51.5 48.5 q-18 -33 -49 -48.5t-60 -23.5q-35 -8 -72 -10q-39 0 -77.5 5t-69.5 25.5t-50.5 61.5t-19.5 115z" />
<glyph unicode="&#xe1e;" horiz-adv-x="989" d="M96 197v622h72v-614q0 -90 39 -117t108 -27q78 0 111 41t33 103v534h73v-534q0 -61 33 -102.5t111 -41.5q33 0 60.5 4.5t46 18.5t28.5 41t10 72v622h72v-622q0 -74 -19.5 -115t-50 -61.5t-69.5 -25.5t-76 -5q-37 2 -72 10q-29 8 -60.5 23.5t-51.5 48.5q-18 -33 -49 -48.5 t-60 -23.5q-35 -8 -72 -10q-39 0 -77.5 5t-69.5 25.5t-50.5 61.5t-19.5 115z" />
<glyph unicode="&#xe1f;" horiz-adv-x="989" d="M96 197v622h72v-614q0 -90 39 -117t108 -27q78 0 111 41t33 103v534h73v-534q0 -61 33 -102.5t111 -41.5q33 0 60.5 4.5t46 18.5t28.5 41t10 72v888h72v-888q0 -74 -19.5 -115t-50 -61.5t-69.5 -25.5t-76 -5q-37 2 -72 10q-29 8 -60.5 23.5t-51.5 48.5q-18 -33 -49 -48.5 t-60 -23.5q-35 -8 -72 -10q-39 0 -77.5 5t-69.5 25.5t-50.5 61.5t-19.5 115z" />
<glyph unicode="&#xe20;" horiz-adv-x="837" d="M31 0v72h88v618q37 51 82 79t87 41t77.5 16t56.5 3q117 0 181.5 -36.5t95 -81.5t36.5 -85t6 -46v-580h-71v569q0 70 -35 109t-80 56.5t-85 20.5t-48 3q-78 0 -138.5 -24.5t-93.5 -71.5v-662h-159z" />
<glyph unicode="&#xe21;" horiz-adv-x="835" d="M96 0v819h72v-545q0 -98 77 -155.5t193 -57.5q104 0 167 53.5t63 159.5v545h71v-565q0 -121 -67.5 -192.5t-225.5 -71.5q-16 0 -46.5 2t-69.5 12t-81 31.5t-81 62.5v-98h-72z" />
<glyph unicode="&#xe22;" horiz-adv-x="835" d="M66 618q0 104 48 152.5t138 48.5h139v-71h-57q-53 0 -90 -2.5t-60.5 -14.5t-35 -37.5t-11.5 -75.5q0 -43 15.5 -72.5t42 -47t59.5 -25.5t70 -8h67v-72h-61q-84 0 -132 -43t-48 -121q0 -35 4 -65.5t21.5 -53t49 -36t86.5 -13.5h211q80 4 110 41t36 103v614h71v-610 q0 -96 -53 -157.5t-164 -61.5h-221q-74 0 -118 18.5t-67.5 50t-30.5 75.5t-7 95q0 23 2 51.5t14 56.5t38 52.5t75 36.5q-53 12 -82 36.5t-42 52.5t-15 55.5t-2 47.5z" />
<glyph unicode="&#xe23;" horiz-adv-x="651" d="M41 61q8 10 18.5 27.5t22.5 36.5q55 -41 107.5 -52.5t117.5 -11.5q43 0 81 8.5t66.5 27t46 48t17.5 74.5q0 51 -33.5 81t-86 50.5t-112 38t-111.5 44t-86 67.5t-34 108q0 221 254 221q59 0 122 -7t110 -23l-21 -68q-49 16 -105.5 21.5t-105.5 5.5q-84 0 -133 -30 t-49 -120q0 -49 34 -78.5t86 -50t111.5 -39t111.5 -45t86 -68.5t34 -108q0 -117 -72 -173t-209 -56q-76 0 -148.5 14t-119.5 57z" />
<glyph unicode="&#xe24;" horiz-adv-x="808" d="M90 0v690q37 51 82 79t87 41t78 16t56 3q117 0 181.5 -36.5t95 -81.5t37 -85t6.5 -46v-981h-72v970q0 70 -35 109t-80 56.5t-85 20.5t-48 3q-78 0 -138 -24.5t-93 -71.5v-590h92v-72h-164z" />
<glyph unicode="&#xe25;" horiz-adv-x="796" d="M61 231q0 119 77 173.5t208 54.5q27 0 61.5 -1t72.5 -5t77 -13.5t72 -25.5v190q0 55 -19.5 86t-53.5 46.5t-77 18.5t-92 3t-93 -3t-78 -18.5t-53.5 -46.5t-19.5 -84h-71v8q0 117 77.5 166t237.5 49t236.5 -49t76.5 -166v-614h-71v270q0 43 -29 67.5t-71 35t-91 12.5 t-90 2q-43 0 -82 -6t-68.5 -22.5t-47 -46t-17.5 -76.5q0 -53 3 -86t19.5 -50.5t52.5 -22.5t103 -5v-72h-49q-76 0 -117 16.5t-59 46t-21.5 72.5t-3.5 96z" />
<glyph unicode="&#xe26;" horiz-adv-x="837" d="M31 0v72h88v618q37 51 82 79t87 41t77.5 16t56.5 3q117 0 181.5 -36.5t95 -81.5t36.5 -85t6 -46v-981h-71v970q0 70 -35 109t-80 56.5t-85 20.5t-48 3q-78 0 -138.5 -24.5t-93.5 -71.5v-662h-159z" />
<glyph unicode="&#xe27;" horiz-adv-x="704" d="M41 606v8q0 117 60.5 166t213.5 49q156 0 224.5 -49t68.5 -166v-372q0 -82 -16.5 -132.5t-50 -77t-84.5 -34.5t-123 -8q-23 0 -74 2t-96 16q4 14 10 32.5t12 35.5q45 -10 88 -12.5t60 -2.5q51 0 89 4.5t63.5 20.5t38 48t12.5 87v383q0 55 -15.5 86t-45.5 46.5t-70.5 18.5 t-90.5 3q-49 0 -87 -3t-63.5 -18.5t-38.5 -46.5t-13 -84h-72z" />
<glyph unicode="&#xe28;" horiz-adv-x="833" d="M82 0v584q0 137 84 191t244 54q25 0 47 -1t45 -3l207 80l28 -61l-123 -47q59 -29 90 -79t31 -134v-584h-71v598q0 55 -21.5 87t-57.5 48.5t-82 20.5t-93 4q-49 0 -95.5 -4t-82 -20.5t-57 -48.5t-21.5 -87v-205q55 35 108 40t94 5h64v-73h-64q-57 0 -116.5 -10.5 t-85.5 -49.5v-305h-72z" />
<glyph unicode="&#xe29;" horiz-adv-x="821" d="M72 252v567h71v-559q0 -41 11.5 -77t39 -63.5t75.5 -43t122 -15.5q51 0 96 5.5t78 25t51.5 59t18.5 109.5v162h-2h-258v139h71v-67h187h2v325h72v-325h73v-72h-73v-170q0 -35 -6.5 -81t-36 -86t-93 -67.5t-180.5 -27.5t-181.5 27.5t-95 67.5t-36.5 86t-6 81z" />
<glyph unicode="&#xe2a;" horiz-adv-x="798" d="M61 231q0 119 77 173.5t208 54.5q27 0 61.5 -1t72.5 -5t77 -13.5t72 -25.5v190q0 55 -19.5 86t-53.5 46.5t-77 18.5t-92 3t-93 -3t-78 -18.5t-53.5 -46.5t-19.5 -84h-71v8q0 117 77.5 166t237.5 49q23 0 42.5 -1t37.5 -3l207 80l28 -61l-116 -45q115 -45 114 -185v-614 h-71v270q0 43 -29 67.5t-71 35t-91 12.5t-90 2q-43 0 -82 -6t-68.5 -22.5t-47 -46t-17.5 -76.5q0 -53 3 -86t19.5 -50.5t52.5 -22.5t103 -5v-72h-49q-76 0 -117 16.5t-59 46t-21.5 72.5t-3.5 96z" />
<glyph unicode="&#xe2b;" horiz-adv-x="821" d="M96 0v819h72v-223h367q59 10 88.5 48t29.5 95v80h72v-80q0 -76 -22.5 -110.5t-63.5 -67.5q53 -49 69.5 -109.5t16.5 -107.5v-344h-72v334q0 29 -5 62.5t-19.5 62t-39 47t-63.5 18.5h-358v-524h-72z" />
<glyph unicode="&#xe2c;" horiz-adv-x="999" d="M96 197v622h72v-614q0 -90 39 -117t108 -27q78 0 111 41t33 103v534h73v-534q0 -61 33 -102.5t111 -41.5q33 0 60.5 4.5t46 18.5t28.5 41t10 72v573q0 74 -44 106.5t-111 41.5v71q66 4 114.5 38t48.5 99h74q0 -23 -2 -44t-13 -42.5t-35 -43t-69 -42.5q41 -16 62.5 -37.5 t32 -46t12.5 -51t2 -49.5v-573q0 -74 -19.5 -115t-50 -61.5t-69.5 -25.5t-76 -5q-37 2 -72 10q-29 8 -60.5 23.5t-51.5 48.5q-18 -33 -49 -48.5t-60 -23.5q-35 -8 -72 -10q-39 0 -77.5 5t-69.5 25.5t-50.5 61.5t-19.5 115z" />
<glyph unicode="&#xe2d;" horiz-adv-x="788" d="M76 246v174h180v-72h-109v-94q0 -55 19.5 -92t53.5 -59.5t79 -32t94 -9.5t93 9.5t77 32t52.5 59.5t19.5 92v354q0 51 -19.5 81t-53.5 45.5t-77 19.5t-92 4t-93 -4t-78 -19.5t-54.5 -45.5t-20.5 -81v-20h-71v26q0 117 85 166t232 49q145 0 229.5 -49t84.5 -166v-368 q0 -135 -83 -195.5t-231 -60.5q-166 0 -241.5 66.5t-75.5 189.5z" />
<glyph unicode="&#xe2e;" horiz-adv-x="788" d="M76 246v174h180v-72h-109v-94q0 -55 19.5 -92t53.5 -59.5t79 -32t94 -9.5t93 9.5t77 32t52.5 59.5t19.5 92v354q0 51 -19.5 81t-53.5 45.5t-77 19.5t-92 4t-93 -4t-78 -19.5t-54.5 -45.5t-20.5 -81v-20h-71v26q0 117 85 166t232 49q20 0 40 -1t38 -3l207 80l29 -61 l-119 -47q57 -23 88 -68t31 -115v-368q0 -135 -83 -195.5t-231 -60.5q-166 0 -241.5 66.5t-75.5 189.5z" />
<glyph unicode="&#xe2f;" horiz-adv-x="681" d="M31 801v18h71v-20q0 -45 5.5 -83t26 -65.5t61.5 -43t112 -15.5q74 0 116 17.5t61.5 47t24.5 68.5t5 84v10h72v-954h-72v717q-16 -23 -42 -35t-55.5 -18.5t-58 -7.5t-51.5 -1q-84 0 -138 21.5t-85 58.5t-42 88t-11 113z" />
<glyph unicode="&#xe30;" horiz-adv-x="440" d="M92 195v106h72v-65h186v-72h-235q-16 0 -19.5 11t-3.5 20zM92 565v107h72v-66h186v-71h-235q-16 0 -19.5 11t-3.5 19z" />
<glyph unicode="&#xe31;" d="M-487 993v146h71v-74h447v-72h-518z" />
<glyph unicode="&#xe32;" horiz-adv-x="575" d="M0 784q39 27 98.5 36t104.5 9q61 0 111.5 -11t87 -38.5t57 -75t20.5 -120.5v-584h-71v584q0 61 -19.5 96t-50.5 52.5t-66.5 21.5t-68.5 4q-29 0 -79 -3t-95 -26z" />
<glyph unicode="&#xe33;" horiz-adv-x="575" d="M-362 1057q0 47 32.5 82t79.5 35q49 0 83 -35t34 -82t-34 -81t-83 -34q-47 0 -79.5 34t-32.5 81zM-303 1057q0 -23 15 -39.5t38 -16.5q25 0 41 16.5t16 39.5t-16 40t-41 17q-23 0 -38 -17.5t-15 -39.5zM0 784q39 27 98.5 36t104.5 9q61 0 111.5 -11t87 -38.5t57 -75 t20.5 -120.5v-584h-71v584q0 61 -19.5 96t-50.5 52.5t-66.5 21.5t-68.5 4q-29 0 -79 -3t-95 -26z" />
<glyph unicode="&#xe34;" d="M-696 993v72h600v-72h-600z" />
<glyph unicode="&#xe35;" d="M-696 993v72h528v74h72v-146h-600z" />
<glyph unicode="&#xe36;" d="M-696 993v72h407q-4 16 -4 27q0 41 28.5 69.5t69.5 28.5t70 -28.5t29 -69.5t-29 -70t-70 -29h-501zM-231 1092q0 -14 11 -25.5t25 -11.5q16 0 27.5 11t11.5 26q0 16 -11 27t-28 11q-14 0 -25 -11t-11 -27z" />
<glyph unicode="&#xe37;" d="M-696 993v72h383v74h71v-74h74v74h72v-146h-600z" />
<glyph unicode="&#xe38;" d="M-238 -133h142v-207h-72v135h-70v72z" />
<glyph unicode="&#xe39;" d="M-465 -133h123v-78q0 -39 2 -59.5t10 -30.5t25.5 -12t50.5 -2q31 0 48.5 2t25.5 12t10 30.5t2 59.5v78h72v-68q0 -63 -6.5 -99t-23.5 -53.5t-48 -21.5t-80 -4t-81 5t-49 22.5t-23.5 52.5t-6.5 94h-51v72z" />
<glyph unicode="&#xe3a;" d="M-184 -178q0 18 13.5 31.5t29.5 13.5t30.5 -13.5t14.5 -31.5q0 -16 -14.5 -28.5t-30.5 -12.5t-29.5 12t-13.5 29z" />
<glyph unicode="&#xe3b;" />
<glyph unicode="&#xe3c;" />
<glyph unicode="&#xe3d;" />
<glyph unicode="&#xe3e;" />
<glyph unicode="&#xe3f;" horiz-adv-x="952" d="M113 0v1024h333v123h72v-123h103q125 0 177 -62t52 -214q0 -86 -18.5 -139.5t-61.5 -98.5q43 -45 61.5 -97.5t18.5 -138.5q0 -152 -52.5 -213t-176.5 -61h-103v-113h-72v113h-333zM184 72h262v403h-262v-403zM184 549h262v403h-262v-403zM518 72h103q53 0 84.5 13t48 39 t20.5 63.5t4 86.5q0 45 -4 82t-18.5 63.5t-43 41t-75.5 14.5h-119v-403zM518 549h103q53 0 84.5 13t48 39t20.5 62.5t4 84.5q0 49 -4 86.5t-20.5 64.5t-48 40t-84.5 13h-103v-403z" />
<glyph unicode="&#xe40;" horiz-adv-x="264" d="M96 0v819h72v-819h-72z" />
<glyph unicode="&#xe41;" horiz-adv-x="536" d="M102 0v819h72v-819h-72zM369 0v819h71v-819h-71z" />
<glyph unicode="&#xe42;" horiz-adv-x="350" d="M0 1118q0 23 3 49.5t17.5 50t46 39t89.5 15.5h284v-72h-284q-61 0 -72.5 -23.5t-11.5 -68.5q0 -29 22.5 -60.5t48 -65.5t48 -73t22.5 -82v-827h-72v827q0 37 -22.5 69t-48 65.5t-48 71.5t-22.5 85z" />
<glyph unicode="&#xe43;" horiz-adv-x="311" d="M-76 1212q55 59 164 60q98 0 147.5 -36t49.5 -122q0 -43 -13.5 -81t-29 -74.5t-27.5 -73.5t-12 -80v-805h-72v805q0 49 12.5 87t27.5 71.5t28.5 70.5t13.5 84t-33 64.5t-92 17.5q-31 0 -62.5 -9t-64.5 -34z" />
<glyph unicode="&#xe44;" horiz-adv-x="346" d="M-66 1200v72h285q57 0 89 -15.5t46.5 -39t17.5 -50t3 -49.5q0 -47 -22.5 -85t-48 -71.5t-48.5 -65.5t-23 -69v-827h-71v827q0 43 22.5 82t48 73t48 65.5t22.5 60.5q0 45 -11 68.5t-73 23.5h-285z" />
<glyph unicode="&#xe45;" horiz-adv-x="575" d="M0 784q39 27 98.5 36t104.5 9q61 0 111.5 -11t87 -38.5t57 -75t20.5 -120.5v-985h-71v985q0 61 -19.5 96t-50.5 52.5t-66.5 21.5t-68.5 4q-29 0 -79 -3t-95 -26z" />
<glyph unicode="&#xe46;" horiz-adv-x="729" d="M80 483v111q0 115 38 166t118 69l116 -51l115 51q86 -18 126 -69t40 -166v-727h-72v743q0 59 -22.5 94t-75.5 54l-113 -53l-106 53q-61 -18 -76.5 -53t-15.5 -95v-55h108v-72h-180z" />
<glyph unicode="&#xe47;" d="M-582 1159q0 88 36 116t108 28h399v-72h-387q-45 0 -64.5 -7t-19.5 -55v-16q0 -33 8 -50.5t20.5 -25.5t29 -10t32.5 -2l88 49l94 -51q47 16 58.5 35.5t11.5 46.5h72q0 -72 -37 -103.5t-98 -48.5l-101 54l-98 -54q-31 2 -57.5 9.5t-48 24.5t-34 49t-12.5 83z" />
<glyph unicode="&#xe48;" d="M-168 1300v160h72v-160h-72z" />
<glyph unicode="&#xe49;" d="M-319 1391v71h151v-90h205v-72h-277v91h-79z" />
<glyph unicode="&#xe4a;" d="M-586 1300v80q0 53 10.5 88t30 56.5t49 33t66.5 17.5l92 -45l78 45q39 -6 69.5 -15.5t51 -30t32 -58t11.5 -99.5h63v-72h-135v84q0 66 -18.5 88.5t-73.5 30.5l-78 -43l-92 43q-55 -8 -69.5 -30.5t-14.5 -88.5v-12h78v-72h-150z" />
<glyph unicode="&#xe4b;" d="M-262 1374v66h94v80h72v-80h94v-66h-94v-74h-72v74h-94z" />
<glyph unicode="&#xe4c;" d="M-240 1300v146h310v-72h-238v-74h-72z" />
<glyph unicode="&#xe4d;" d="M-326 1057q0 47 33 82t80 35q49 0 83 -35t34 -82t-34 -81t-83 -34q-47 0 -80 34t-33 81zM-266 1057q0 -23 15 -39.5t38 -16.5q25 0 41 16.5t16 39.5t-16 40t-41 17q-23 0 -38 -17.5t-15 -39.5z" />
<glyph unicode="&#xe4e;" />
<glyph unicode="&#xe4f;" horiz-adv-x="915" d="M113 430q0 74 26.5 137.5t72.5 110.5t108.5 73.5t134.5 26.5q74 0 137 -26.5t110.5 -73.5t74 -110.5t26.5 -137.5q0 -72 -26.5 -134.5t-74 -108.5t-111 -72.5t-136.5 -26.5q-72 0 -134.5 26.5t-108.5 72.5t-72.5 108.5t-26.5 134.5zM160 430q0 -61 22.5 -115.5 t62.5 -94.5t94.5 -62.5t115.5 -22.5q63 0 117.5 22.5t95.5 62.5t64.5 94.5t23.5 115.5q0 63 -23.5 117.5t-64.5 95.5t-95.5 64.5t-117.5 23.5q-61 0 -115.5 -23.5t-94.5 -64.5t-62.5 -95t-22.5 -118zM252 430q0 86 58.5 145.5t144.5 59.5q41 0 77.5 -16.5t64.5 -44t43 -64.5 t15 -80q0 -84 -58 -142.5t-142 -58.5q-86 0 -144.5 58.5t-58.5 142.5z" />
<glyph unicode="&#xe50;" horiz-adv-x="821" d="M82 252v139q0 137 88 200.5t240 63.5q168 0 248.5 -68.5t80.5 -195.5v-139q0 -135 -88 -198.5t-241 -63.5q-166 0 -247 69.5t-81 192.5zM154 252q0 -55 21.5 -92t56 -58.5t81.5 -31t97 -9.5q49 0 96 9.5t83 31t57.5 58.5t21.5 92v139q0 55 -21.5 93t-57.5 59.5t-83 31 t-96 9.5t-96.5 -9.5t-82 -31t-56 -59.5t-21.5 -93v-139z" />
<glyph unicode="&#xe51;" horiz-adv-x="768" d="M31 360v31q0 137 88 200.5t241 63.5q166 0 246 -68.5t80 -195.5v-155q0 -141 -73.5 -216t-221.5 -75q-41 0 -92 3t-94 9l14 74q41 -8 89 -11.5t83 -3.5q100 0 161.5 52.5t61.5 156.5v166q0 57 -21.5 94t-56 58.5t-80.5 31t-96 9.5q-51 0 -98 -9.5t-82 -31t-56.5 -58 t-21.5 -94.5v-31q0 -41 12.5 -63.5t36 -34.5t57.5 -15t77 -3v-72q-74 2 -122 11.5t-78 29.5t-42 56t-12 91z" />
<glyph unicode="&#xe52;" horiz-adv-x="851" d="M82 264v539h72v-520q0 -41 2 -80t12 -68t32.5 -46t63.5 -17h324q41 0 63.5 17t32.5 46t12 68t2 80v145q0 121 -102 156l-100 -56l-109 56q-55 -18 -71.5 -57.5t-16.5 -98.5v-16h-72v10q0 102 37 158.5t123 74.5l109 -57l100 57q82 -20 128 -77.5t46 -155.5v-158 q0 -43 -3 -90t-19.5 -86t-54.5 -63.5t-105 -24.5h-324q-68 0 -104.5 24.5t-54 63.5t-20.5 86t-3 90z" />
<glyph unicode="&#xe53;" horiz-adv-x="823" d="M82 262v160q0 102 47 157.5t133 75.5l150 -63l149 63q84 -20 132 -74.5t48 -158.5v-422h-71v432q0 63 -32 99t-79 53l-147 -64l-148 64q-53 -18 -81.5 -53t-28.5 -99v-170q0 -43 2 -77.5t12 -59.5t31.5 -39t62.5 -14h49v-72h-49q-68 0 -104.5 24.5t-53 63.5t-19.5 85 t-3 89z" />
<glyph unicode="&#xe54;" horiz-adv-x="851" d="M82 252v137q0 139 68.5 202.5t218.5 63.5h129q39 0 76.5 2t67.5 11.5t48.5 31t18.5 60.5v43h71v-51q0 -61 -28.5 -95t-71.5 -50.5t-92 -19.5t-90 -3h-129q-102 0 -158.5 -41t-56.5 -154v-137q0 -57 14 -94t42 -58.5t67.5 -30t91.5 -8.5q57 0 106 13.5t94 54.5 q-16 45 -18 87t-2 81v111h176v-72h-104q0 -72 5 -121t21.5 -81t50 -49t93.5 -24v-71q-59 4 -105.5 19.5t-87.5 51.5q-43 -45 -100.5 -58t-128.5 -13q-84 0 -138.5 18.5t-88 52t-47 81.5t-13.5 110z" />
<glyph unicode="&#xe55;" horiz-adv-x="851" d="M82 252v137q0 131 61.5 194.5t194.5 69.5q-16 23 -21.5 41.5t-5.5 34.5q0 49 34 83t81 34q51 0 85 -34t34 -83q0 -12 -5 -31.5t-24 -42.5q37 0 72 2t61.5 13.5t43 32t16.5 57.5v43h71v-51q0 -61 -28.5 -95t-71.5 -50.5t-92 -19.5t-90 -3h-129q-102 0 -158.5 -41 t-56.5 -154v-137q0 -57 14 -94t42 -58.5t67.5 -30t91.5 -8.5q57 0 106 13.5t94 54.5q-16 45 -18 87t-2 81v111h176v-72h-104q0 -72 5 -121t21.5 -81t50 -49t93.5 -24v-71q-59 4 -105.5 19.5t-87.5 51.5q-43 -45 -100.5 -58t-128.5 -13q-84 0 -138.5 18.5t-88 52t-47 81.5 t-13.5 110zM375 729q0 -23 14 -38t37 -15t37 15.5t14 37.5q0 18 -14 34.5t-37 16.5t-37 -16t-14 -35z" />
<glyph unicode="&#xe56;" horiz-adv-x="780" d="M41 803h72l51 -238q53 68 116.5 79t137.5 11q145 0 212.5 -80.5t67.5 -222.5v-100q0 -61 -12 -110.5t-43 -83t-83 -51t-134 -17.5q-113 0 -176.5 18.5t-95 52t-40 79.5t-8.5 102h72q0 -53 9.5 -88t36 -55.5t74.5 -29t128 -8.5q104 0 152.5 39t48.5 152v123 q0 104 -54.5 156.5t-154.5 52.5h-46t-64 -7.5t-66.5 -23.5t-55.5 -47h-84z" />
<glyph unicode="&#xe57;" horiz-adv-x="1019" d="M82 264v160q0 102 47 157.5t133 75.5l150 -63l149 63q84 -20 132 -74.5t48 -158.5v-350q33 0 56.5 2t39 16t22.5 42t7 81v588h72v-588q0 -49 -3 -89t-21.5 -67.5t-55.5 -42t-104 -14.5h-84v432q0 63 -32 99t-79 53l-147 -64l-148 64q-53 -18 -81.5 -53t-28.5 -99v-170 q0 -43 2 -77.5t12 -59.5t31.5 -39t62.5 -14h49v-72h-49q-68 0 -104.5 24.5t-53 63.5t-19.5 85t-3 89z" />
<glyph unicode="&#xe58;" horiz-adv-x="843" d="M82 227v164q0 137 70.5 200.5t218.5 63.5h129q39 0 76.5 2t67.5 11.5t48.5 31t18.5 60.5v43h71v-51q0 -61 -28.5 -95t-71.5 -50.5t-92 -19.5t-90 -3h-129q-102 0 -159.5 -40t-57.5 -153v-178q0 -63 41 -99t88 -53l133 58l137 -58q55 20 75.5 56.5t20.5 95.5v96h-106v72 h178v-154q0 -115 -42 -168t-120 -69l-143 61q-33 -14 -68 -30.5t-69 -30.5q-37 8 -73 26.5t-63.5 47t-44 68.5t-16.5 95z" />
<glyph unicode="&#xe59;" horiz-adv-x="860" d="M82 258v188q0 104 57.5 156.5t157.5 52.5q45 0 102.5 -19.5t89.5 -68.5q25 41 62 64.5t96 23.5q45 0 73 2t43 11.5t20 31t5 62.5v41h72v-41q0 -68 -18.5 -103.5t-47 -52t-67.5 -19.5t-78 -3q-25 0 -48 -9.5t-39.5 -26t-25 -40t2.5 -49.5q35 -78 65.5 -184.5t73.5 -274.5 h-72q-59 205 -100 322.5t-75 175t-64.5 72t-67.5 14.5q-49 0 -77.5 -10.5t-44 -30t-19.5 -46t-4 -59.5v-180q0 -41 2 -74.5t11 -58.5t30.5 -39t60.5 -14h51v-72h-51q-66 0 -101.5 24.5t-52 62.5t-19.5 84t-3 87z" />
<glyph unicode="&#xe5a;" horiz-adv-x="856" d="M31 801v18h71v-20q0 -45 5.5 -83t26 -65.5t61.5 -43t112 -15.5q74 0 116 17.5t61.5 47t24.5 68.5t5 84v10h72v-954h-72v717q-16 -23 -42 -35t-55.5 -18.5t-58 -7.5t-51.5 -1q-84 0 -138 21.5t-85 58.5t-42 88t-11 113zM688 -133v952h72v-952h-72z" />
<glyph unicode="&#xe5b;" />
<glyph unicode="&#x2000;" horiz-adv-x="787" />
<glyph unicode="&#x2001;" horiz-adv-x="1575" />
<glyph unicode="&#x2002;" horiz-adv-x="787" />
<glyph unicode="&#x2003;" horiz-adv-x="1575" />
<glyph unicode="&#x2004;" horiz-adv-x="525" />
<glyph unicode="&#x2005;" horiz-adv-x="393" />
<glyph unicode="&#x2006;" horiz-adv-x="262" />
<glyph unicode="&#x2007;" horiz-adv-x="262" />
<glyph unicode="&#x2008;" horiz-adv-x="196" />
<glyph unicode="&#x2009;" horiz-adv-x="315" />
<glyph unicode="&#x200a;" horiz-adv-x="87" />
<glyph unicode="&#x200b;" />
<glyph unicode="&#x2010;" horiz-adv-x="823" d="M113 356v72h598v-72h-598z" />
<glyph unicode="&#x2011;" horiz-adv-x="823" d="M113 356v72h598v-72h-598z" />
<glyph unicode="&#x2012;" horiz-adv-x="823" d="M113 356v72h598v-72h-598z" />
<glyph unicode="&#x2013;" horiz-adv-x="997" d="M113 356v72h772v-72h-772z" />
<glyph unicode="&#x2014;" horiz-adv-x="1173" d="M113 356v72h948v-72h-948z" />
<glyph unicode="&#x2018;" horiz-adv-x="368" d="M111 928l92 174h53l-61 -174h-84z" />
<glyph unicode="&#x2019;" horiz-adv-x="370" d="M113 928l61 174h84l-92 -174h-53z" />
<glyph unicode="&#x2022;" horiz-adv-x="481" d="M143 350q0 41 28 68.5t69 27.5t69.5 -27.5t28.5 -68.5t-28.5 -69.5t-69.5 -28.5t-69 28.5t-28 69.5z" />
<glyph unicode="&#x2026;" horiz-adv-x="757" d="M113 43q0 23 15 38t38 15t38 -15t15 -38t-15.5 -38t-37.5 -15q-23 0 -38 15t-15 38zM326 43q0 23 15 38t38 15t38 -15t15 -38t-15.5 -38t-37.5 -15q-23 0 -38 15t-15 38zM539 43q0 23 15 38t38 15t38 -15t15 -38t-15.5 -38t-37.5 -15q-23 0 -38 15t-15 38z" />
<glyph unicode="&#x202f;" horiz-adv-x="315" />
<glyph unicode="&#x205f;" horiz-adv-x="393" />
<glyph unicode="&#x25cc;" horiz-adv-x="1048" />
<glyph unicode="&#x25fc;" horiz-adv-x="819" d="M0 0v819h819v-819h-819z" />
<glyph unicode="&#xf700;" horiz-adv-x="780" d="M66 596v18q0 117 79.5 166t239.5 49q23 0 41 -1t37 -3l207 80l28 -61l-114 -45q115 -47 114 -185v-395q0 -125 -53 -172t-143 -47h-195l-55 303h-88v72h153l52 -303h135q41 4 64.5 14t35.5 28.5t16.5 43t6.5 57.5v389q0 55 -19.5 86t-53.5 46.5t-78 18.5t-91 3 q-49 0 -94 -3t-79 -18.5t-54.5 -46.5t-20.5 -86v-8h-71z" />
<glyph unicode="&#xf701;" d="M-731 993v72h483v-72h-483z" />
<glyph unicode="&#xf702;" d="M-731 993v72h412v74h71v-146h-483z" />
<glyph unicode="&#xf703;" d="M-731 993v72h291q-4 16 -4 27q0 41 28.5 69.5t69.5 28.5t69.5 -28.5t28.5 -69.5t-28.5 -70t-69.5 -29h-385zM-383 1092q0 -14 11.5 -25.5t25.5 -11.5q16 0 27.5 11t11.5 26q0 16 -11.5 27t-27.5 11q-14 0 -25.5 -11t-11.5 -27z" />
<glyph unicode="&#xf704;" d="M-731 993v72h266v74h72v-74h74v74h71v-146h-483z" />
<glyph unicode="&#xf705;" d="M-358 993v170h71v-170h-71z" />
<glyph unicode="&#xf706;" d="M-643 1094v71h151v-100h205v-72h-276v101h-80z" />
<glyph unicode="&#xf707;" d="M-731 993v80q0 53 10 88t29.5 56.5t49.5 33t67 17.5l92 -45l77 45q39 -6 70 -15.5t51.5 -30t31.5 -58.5t11 -99h31v-72h-102v84q0 66 -18.5 88.5t-74.5 30.5l-77 -43l-92 43q-55 -8 -69.5 -30.5t-14.5 -88.5v-12h49v-72h-121z" />
<glyph unicode="&#xf708;" d="M-547 1077v66h94v90h72v-90h94v-66h-94v-84h-72v84h-94z" />
<glyph unicode="&#xf709;" d="M-596 993v146h309v-72h-237v-74h-72z" />
<glyph unicode="&#xf70a;" d="M-168 993v170h72v-170h-72z" />
<glyph unicode="&#xf70b;" d="M-322 1094v71h152v-100h205v-72h-277v101h-80z" />
<glyph unicode="&#xf70c;" d="M-586 993v80q0 53 10.5 88t30 56.5t49 33t66.5 17.5l92 -45l78 45q39 -6 69.5 -15.5t51 -30t32 -58.5t11.5 -99h63v-72h-135v84q0 66 -18.5 88.5t-73.5 30.5l-78 -43l-92 43q-55 -8 -69.5 -30.5t-14.5 -88.5v-12h78v-72h-150z" />
<glyph unicode="&#xf70d;" d="M-262 1077v66h94v90h72v-90h94v-66h-94v-84h-72v84h-94z" />
<glyph unicode="&#xf70e;" d="M-309 993v146h309v-72h-238v-74h-71z" />
<glyph unicode="&#xf70f;" horiz-adv-x="1308" d="M90 0v690q37 51 82 79t87 41t78 16t56 3q117 0 181.5 -36.5t95 -81.5t37 -85t6.5 -46v-318q0 -104 54 -152.5t165 -48.5q109 0 159 48.5t50 152.5v557h71v-565q0 -152 -74.5 -208t-205.5 -56q-66 0 -119 12t-91 43t-59.5 82t-21.5 127v315q0 70 -35 109t-80 56.5 t-85 20.5t-48 3q-78 0 -138 -24.5t-93 -71.5v-590h92v-72h-164z" />
<glyph unicode="&#xf710;" d="M-737 1022v145h71v-80h369v-65h-440z" />
<glyph unicode="&#xf711;" d="M-516 1057q0 47 33 82t80 35q49 0 82.5 -35t33.5 -82t-33.5 -81t-82.5 -34q-47 0 -80 34t-33 81zM-457 1057q0 -23 15.5 -39.5t38.5 -16.5q25 0 41 16.5t16 39.5t-16.5 40t-40.5 17q-23 0 -38.5 -17.5t-15.5 -39.5z" />
<glyph unicode="&#xf712;" d="M-731 1159q0 88 36 116t107 28h400v-72h-387q-45 0 -64.5 -7t-19.5 -55v-16q0 -33 8 -50.5t20.5 -25.5t28.5 -10t33 -2l88 49l94 -51q47 16 58.5 35.5t11.5 46.5h71q0 -72 -36.5 -103.5t-98.5 -48.5l-100 54l-99 -54q-31 2 -57.5 9.5t-48 24.5t-33.5 49t-12 83z" />
<glyph unicode="&#xf713;" d="M-319 1300v160h71v-160h-71z" />
<glyph unicode="&#xf714;" d="M-471 1391v71h152v-90h204v-72h-276v91h-80z" />
<glyph unicode="&#xf715;" d="M-737 1300v80q0 53 10 88t29.5 56.5t49.5 33t66 17.5l93 -45l77 45q39 -6 70 -15.5t51.5 -30t31.5 -58t11 -99.5h64v-72h-135v84q0 66 -18.5 88.5t-74.5 30.5l-77 -43l-93 43q-55 -8 -69.5 -30.5t-14.5 -88.5v-12h78v-72h-149z" />
<glyph unicode="&#xf716;" d="M-414 1374v66h95v80h71v-80h94v-66h-94v-74h-71v74h-95z" />
<glyph unicode="&#xf717;" d="M-391 1300v146h309v-72h-237v-74h-72z" />
<glyph unicode="&#xf718;" d="M-252 -541h141v-207h-71v142h-70v65z" />
<glyph unicode="&#xf719;" d="M-479 -541h123v-77q0 -39 2 -59.5t10 -31t25.5 -12.5t50.5 -2q31 0 48 2t25.5 12.5t10.5 31t2 59.5v77h71v-67q0 -47 -6 -81t-23.5 -54.5t-48 -29.5t-79.5 -9q-100 0 -130 44t-30 134h-51v63z" />
<glyph unicode="&#xf71a;" d="M-199 -586q0 18 13.5 31.5t29.5 13.5t30.5 -13t14.5 -32q0 -16 -14 -29.5t-31 -13.5q-16 0 -29.5 13.5t-13.5 29.5z" />
<glyph unicode="&#xf71d;" horiz-adv-x="991" d="M96 197v622h72v-614q0 -90 39 -117t108 -27q78 0 111 41t33 103v534h73v-534q0 -61 33 -102.5t111 -41.5q33 0 60.5 4.5t46 18.5t28.5 41t10 72v266q0 74 -44 106.5t-111 40.5v72q66 4 114.5 38t48.5 99h74q0 -23 -2 -44t-13 -42.5t-35 -43t-69 -42.5q41 -16 62.5 -37.5 t32 -46t12.5 -51.5t2 -49v-266q0 -74 -19.5 -115t-50 -61.5t-69.5 -25.5t-76 -5q-37 2 -72 10q-29 8 -60.5 23.5t-51.5 48.5q-18 -33 -49 -48.5t-60 -23.5q-35 -8 -72 -10q-39 0 -77.5 5t-69.5 25.5t-50.5 61.5t-19.5 115z" />
<glyph horiz-adv-x="575" d="M-516 1057q0 47 33 82t80 35q49 0 82.5 -35t33.5 -82t-33.5 -81t-82.5 -34q-47 0 -80 34t-33 81zM-457 1057q0 -23 15.5 -39.5t38.5 -16.5q25 0 41 16.5t16 39.5t-16.5 40t-40.5 17q-23 0 -38.5 -17.5t-15.5 -39.5zM0 784q39 27 98.5 36t104.5 9q61 0 111.5 -11t87 -38.5 t57 -75t20.5 -120.5v-584h-71v584q0 61 -19.5 96t-50.5 52.5t-66.5 21.5t-68.5 4q-29 0 -79 -3t-95 -26z" />
<glyph />
<glyph />
<glyph />
<glyph horiz-adv-x="1257" d="M113 514q0 109 41 203t110.5 164.5t163 111.5t199.5 41q109 0 203 -41t164.5 -111.5t111.5 -164.5t41 -203q0 -106 -41 -199.5t-111.5 -163t-165 -110.5t-202.5 -41q-106 0 -199.5 41t-163 110.5t-110.5 163t-41 199.5zM348 373q0 -86 58.5 -137.5t150.5 -51.5 q23 0 45.5 1t42.5 5v111l-12 8q-14 -6 -24.5 -7t-22.5 -1q-33 0 -62.5 18.5t-29.5 65.5q0 16 7 27.5t31.5 19.5t70.5 16.5t122 20.5v-145q0 -74 20.5 -107t81.5 -33h19q29 0 47 11.5t18 44.5q0 35 -11 48t-38 13v272q0 53 -19.5 88t-45.5 58q10 4 19 4h20h19t19 -4h23v133 q-63 -8 -125.5 -23.5t-109.5 -42.5q-18 4 -35 4.5t-41 0.5q-47 0 -90 -6.5t-90 -22.5v-129h12q39 12 81 22.5t74 10.5q18 0 44 -1t50.5 -9.5t41 -27t16.5 -50.5l-168 -17q-37 -4 -74 -12t-67.5 -28.5t-49 -55.5t-18.5 -92z" />
</font>
</defs>
</svg>
