<?xml version="1.0" standalone="no"?>
<!DOCTYPE svg PUBLIC "-//W3C//DTD SVG 1.1//EN" "http://www.w3.org/Graphics/SVG/1.1/DTD/svg11.dtd" >
<svg xmlns="http://www.w3.org/2000/svg">
<metadata></metadata>
<defs>
<font id="superstorebold" horiz-adv-x="0" >
<font-face units-per-em="2048" ascent="1638" descent="-410" />
<missing-glyph horiz-adv-x="378" />
<glyph unicode="&#x3b;&#x3b;For&#x20;Education&#x20;Used&#x20;Only&#x3b;&#x3b;" horiz-adv-x="1269" d="M113 508q0 106 41 201.5t111.5 167t165.5 112.5t204 41q106 0 201.5 -41t167 -112.5t112.5 -167t41 -201.5q0 -109 -41 -204t-112.5 -165.5t-167 -111.5t-201.5 -41q-109 0 -204 41t-165.5 111.5t-111.5 165.5t-41 204zM248 508q0 -80 29.5 -150.5t82 -123t123 -82 t150.5 -29.5t150.5 29.5t122.5 82t83 123t31 150.5t-31 150.5t-83 123t-122.5 83t-150.5 30.5t-150.5 -30.5t-123 -83t-82 -123t-29.5 -150.5zM350 449v118q0 84 21.5 135.5t58.5 79t87 35.5t108 8q45 0 95 -6t134 -35l-35 -122q-66 23 -113 28.5t-67 5.5q-23 0 -49.5 -3 t-49 -16t-37 -39t-14.5 -71v-129q0 -45 14.5 -70.5t37 -39t49 -16.5t49.5 -3q20 0 65.5 5t108.5 38l39 -114q-76 -35 -129 -41.5t-98 -6.5q-57 0 -107.5 9.5t-87.5 37t-58.5 78t-21.5 134.5z" />
<glyph unicode="&#x3b;&#x3b;Registered&#x3b;&#x3b;" horiz-adv-x="1269" d="M113 508q0 106 41 201.5t111.5 167t165.5 112.5t204 41q106 0 201.5 -41t167 -112.5t112.5 -167t41 -201.5q0 -109 -41 -204t-112.5 -165.5t-167 -111.5t-201.5 -41q-109 0 -204 41t-165.5 111.5t-111.5 165.5t-41 204zM248 508q0 -80 29.5 -150.5t82 -123t123 -82 t150.5 -29.5t150.5 29.5t122.5 82t83 123t31 150.5t-31 150.5t-83 123t-122.5 83t-150.5 30.5t-150.5 -30.5t-123 -83t-82 -123t-29.5 -150.5zM430 242v567h285q72 0 118 -49t46 -135q0 -63 -29 -105.5t-68 -64.5l109 -213h-131l-101 198h-90v-198h-139zM569 571h117 q29 0 41 9.5t12 44.5q0 33 -12 43t-41 10h-117v-107z" />
<glyph unicode="&#x3b;&#x3b;Multiply&#x3b;&#x3b;" horiz-adv-x="876" d="M106 197l220 219l-220 219l111 110l219 -219l219 219l111 -110l-219 -219l219 -219l-111 -111l-219 219l-219 -219z" />
<glyph unicode="&#x3b;&#x3b;Divide&#x3b;&#x3b;" horiz-adv-x="1001" d="M113 330v157h776v-157h-776zM399 172q0 43 29 72.5t72 29.5t72.5 -29.5t29.5 -72.5t-29.5 -71.5t-72.5 -28.5t-72 28.5t-29 71.5zM399 643q0 43 29 72.5t72 29.5t72.5 -29.5t29.5 -72.5t-29.5 -71.5t-72.5 -28.5t-72 28.5t-29 71.5z" />
<glyph unicode="&#x2018;&#x2018;" horiz-adv-x="747" d="M113 821l137 281h137l-94 -281h-180zM360 821l138 281h137l-94 -281h-181z" />
<glyph unicode="&#x2019;&#x2019;" horiz-adv-x="747" d="M113 821l94 281h180l-137 -281h-137zM360 821l95 281h180l-137 -281h-138z" />
<glyph unicode="&#x3b;&#x3b;Trademark&#x3b;&#x3b;" horiz-adv-x="1482" d="M113 893v131h503v-131h-182v-533h-141v533h-180zM659 360v664h252l103 -569l108 569h248v-664h-139v553l-113 -553h-209l-108 553v-553h-142z" />
<glyph unicode="&#xe24;&#xe32;" horiz-adv-x="1419" d="M96 0v666q41 61 88 94t92.5 48t82 18t57.5 3q123 0 189.5 -39.5t98 -90t38 -94.5t6.5 -52v-954h-185v954q0 39 -21.5 60.5t-47 30.5t-49 11t-29.5 2q-41 0 -66.5 -10t-42.5 -20q-18 -12 -26 -29v-451h86v-147h-271zM778 723q47 53 110.5 74.5t141.5 21.5q129 0 211 -63.5 t82 -204.5v-952h-184v960q0 31 -11.5 50.5t-28 30.5t-36 14t-33.5 3q-25 0 -72 -7t-88 -46z" />
<glyph unicode="&#xe26;&#xe32;" horiz-adv-x="1435" d="M31 0v147h82v519q41 61 88 94t92 48t82 18t57 3q123 0 189.5 -39.5t98.5 -90t38 -94.5t6 -52v-954h-184v954q0 39 -21.5 60.5t-47.5 30.5t-49.5 11t-29.5 2q-41 0 -66.5 -10t-41.5 -20q-18 -12 -27 -29v-598h-266zM795 723l92 -119q41 39 88 46t72 7q14 0 33.5 -3t36 -14 t27.5 -30.5t11 -50.5v-960h184v952q0 141 -81.5 204.5t-210.5 63.5q-78 0 -141.5 -21.5t-110.5 -74.5z" />
<glyph unicode="&#xd;" horiz-adv-x="579" />
<glyph unicode=" "  horiz-adv-x="378" />
<glyph unicode="&#x09;" horiz-adv-x="378" />
<glyph unicode="&#xa0;" horiz-adv-x="378" />
<glyph unicode="!" horiz-adv-x="409" d="M102 90q0 43 29 73t72 30t72.5 -30t29.5 -73t-29.5 -71.5t-72.5 -28.5t-72 28.5t-29 71.5zM113 1024h184q-2 -104 -3 -193.5t-2 -176.5t-2 -177t-1 -196h-166q0 106 -1 196t-2 177t-3 176.5t-4 193.5z" />
<glyph unicode="&#x22;" horiz-adv-x="667" d="M113 1102h194l-33 -281h-129zM360 1102h195l-33 -281h-129z" />
<glyph unicode="#" horiz-adv-x="1261" d="M113 274v158h153l68 195h-115v157h166l82 240h188l-82 -240h281l80 240h188l-80 -240h107v-157h-158l-67 -195h120v-158h-172l-96 -274h-188l94 274h-276l-97 -274h-188l94 274h-102zM455 432h278l70 195h-279z" />
<glyph unicode="$" horiz-adv-x="997" d="M104 137l125 107q41 -35 84 -60.5t88 -36.5v308q-51 16 -99 37.5t-86 54.5t-60.5 78t-22.5 106q0 268 268 303v113h185v-115q68 -6 134 -23.5t118 -45.5l-84 -156q-35 16 -79 27.5t-89 15.5v-252q55 -18 108.5 -40.5t96.5 -56.5t68.5 -80.5t25.5 -109.5q0 -84 -24.5 -142 t-65.5 -96t-95.5 -57.5t-113.5 -25.5v-103h-185v103q-82 10 -159.5 41.5t-137.5 105.5zM317 731q0 -25 22.5 -42t61.5 -34v193q-35 -10 -59.5 -37t-24.5 -80zM586 147q47 16 80.5 62.5t33.5 101.5q0 35 -31.5 55.5t-82.5 36.5v-256z" />
<glyph unicode="%" horiz-adv-x="1304" d="M113 694v166q0 88 62.5 132t141.5 44q80 0 142.5 -44t62.5 -132v-166q0 -98 -59.5 -136t-145.5 -38q-43 0 -79.5 9.5t-64.5 29t-44 53t-16 82.5zM174 0h195l761 1024h-194zM276 700q0 -10 5.5 -20t35.5 -10q31 0 36 10t5 20v154q0 10 -5 21.5t-36 11.5t-36 -11.5 t-5 -21.5v-154zM782 174v166q0 88 62.5 132t142.5 44t142.5 -44t62.5 -132v-166q0 -98 -59.5 -136t-145.5 -38q-43 0 -80 9t-64.5 28.5t-44 53.5t-16.5 83zM946 180q0 -10 5 -20t36 -10t36 10t5 20v154q0 10 -5 21.5t-36 11.5t-36 -11.5t-5 -21.5v-154z" />
<glyph unicode="&#x26;" horiz-adv-x="1130" d="M113 313q0 94 55 147.5t133 88.5q-47 92 -47 201q0 72 12.5 125t44 88.5t85 53t136.5 17.5q82 0 136.5 -17.5t86 -53t44 -89t12.5 -124.5q0 -57 -20.5 -99.5t-54.5 -74t-78 -54t-91 -41.5q33 -37 80 -82t117 -112q12 35 19.5 82t7.5 116h184q0 -117 -20.5 -197.5 t-55.5 -133.5l150 -154h-226l-47 45q-59 -35 -124.5 -45t-119.5 -10q-76 0 -150.5 9t-135 42t-97 97t-36.5 175zM297 313q0 -55 15.5 -89t46 -50t73.5 -21.5t98 -5.5q29 0 60 2.5t53 16.5q-66 55 -132.5 121.5t-119.5 128.5q-43 -18 -68.5 -43t-25.5 -60zM438 750 q0 -39 8.5 -72t28.5 -68q61 23 106.5 54.5t45.5 85.5q0 35 -2 57t-11.5 34.5t-28 16.5t-53.5 4t-53 -4t-27.5 -16.5t-11.5 -34.5t-2 -57z" />
<glyph unicode="'" horiz-adv-x="419" d="M113 1102h194l-33 -281h-129z" />
<glyph unicode="(" horiz-adv-x="520" d="M113 524q0 59 6 138t20.5 162t35 163t48.5 146h185q-25 -68 -45.5 -151t-35 -167t-22.5 -163t-8 -136q0 -59 8 -138t22.5 -165t35 -170t45.5 -152h-185q-27 68 -47 152t-34.5 170t-21.5 167t-7 144z" />
<glyph unicode=")" horiz-adv-x="520" d="M113 -109q25 68 45 152t34.5 170t22.5 165t8 138q0 57 -8 136t-22.5 163t-35 167t-44.5 151h184q29 -66 49.5 -146t34.5 -163t20.5 -161.5t6.5 -138.5q0 -63 -7.5 -144t-21.5 -167t-34.5 -170t-47.5 -152h-184z" />
<glyph unicode="*" horiz-adv-x="811" d="M113 782l37 183l200 -70l-39 207h189l-39 -207l201 70l36 -183l-206 -8l151 -133l-149 -111l-88 177l-89 -177l-149 111l151 133z" />
<glyph unicode="+" horiz-adv-x="999" d="M113 330v157h295v306h184v-306h295v-157h-295v-307h-184v307h-295z" />
<glyph unicode="," horiz-adv-x="411" d="M113 119h186v-242l-186 -78v320z" />
<glyph unicode="-" horiz-adv-x="876" d="M113 330v157h651v-157h-651z" />
<glyph unicode="." horiz-adv-x="428" d="M113 90q0 43 28.5 73t71.5 30t72.5 -30t29.5 -73t-29.5 -71.5t-72.5 -28.5t-71.5 28.5t-28.5 71.5z" />
<glyph unicode="/" horiz-adv-x="829" d="M61 0l512 1133h195l-512 -1133h-195z" />
<glyph unicode="0" horiz-adv-x="958" d="M102 336v395q0 162 92.5 232.5t284.5 70.5q193 0 285 -70.5t92 -232.5v-395q0 -188 -92 -267t-285 -79t-285 78.5t-92 267.5zM287 319q0 -59 15 -92.5t42 -51t61.5 -23t73.5 -5.5t74 5.5t61.5 23t42 51t15.5 92.5v414q0 45 -15.5 70.5t-42 39t-61.5 16.5t-74 3t-73.5 -3 t-61.5 -16.5t-42 -39t-15 -70.5v-414z" />
<glyph unicode="1" horiz-adv-x="647" d="M82 879l268 145h185v-1024h-185v819l-190 -98z" />
<glyph unicode="2" horiz-adv-x="890" d="M92 0v143q0 76 37 138.5t91 115t118.5 95.5t119 80.5t91.5 71.5t37 67v75q0 25 -13.5 40.5t-35 23.5t-49 10t-56.5 2q-31 0 -58.5 -2t-49 -10t-33.5 -23.5t-12 -40.5v-59h-185v57q0 133 91 191.5t247 58.5q154 0 246 -58t92 -192v-73q0 -55 -34 -104.5t-85 -96.5 t-112.5 -91t-116.5 -87t-96 -86t-52 -88h514v-158h-696z" />
<glyph unicode="3" horiz-adv-x="870" d="M82 274v58h184v-74q0 -59 46 -85t108 -26q59 0 106 26t47 85v98q0 47 -43 65.5t-96 18.5h-147v158h147q27 0 52.5 4t45 17.5t30.5 37t11 60.5v76q0 25 -13 40t-34.5 23t-49 10t-56.5 2q-31 0 -58.5 -2t-49 -10t-34 -23.5t-12.5 -39.5v-60h-184v58q0 133 91 191t247 58 t247 -58t91 -191v-74q0 -61 -19.5 -108.5t-62.5 -82.5q43 -31 62.5 -73.5t19.5 -96.5v-82q0 -147 -91.5 -215.5t-246.5 -68.5q-174 0 -256 68.5t-82 215.5z" />
<glyph unicode="4" horiz-adv-x="860" d="M31 279v157l444 588h191v-588h133v-157h-133v-279h-185v279h-450zM238 436h243v322z" />
<glyph unicode="5" horiz-adv-x="892" d="M102 289h185q0 -78 47 -110t108 -32q59 0 106.5 26t47.5 85v182q0 25 -13.5 40.5t-35 23.5t-49 10t-56.5 2q-31 0 -58.5 -3t-49 -14.5t-34.5 -32t-13 -56.5h-185v614h658v-172h-473v-209q49 23 103 27t79 4q154 0 232.5 -56.5t78.5 -191.5v-152q0 -147 -91 -215.5 t-247 -68.5q-174 0 -257 75.5t-83 223.5z" />
<glyph unicode="6" horiz-adv-x="860" d="M92 274v125q0 49 17 93l200 532h197l-148 -383q16 4 33 5t37 1q154 0 247 -57.5t93 -190.5v-125q0 -147 -91 -215.5t-247 -68.5q-174 0 -256 75.5t-82 208.5zM276 258q0 -59 46.5 -85t107.5 -26q59 0 106.5 26t47.5 85v141q0 25 -13.5 40.5t-35 23.5t-49 10t-56.5 2 q-31 0 -58.5 -2t-49 -10t-34 -23.5t-12.5 -40.5v-141z" />
<glyph unicode="7" horiz-adv-x="761" d="M31 852v172h649v-172l-328 -852h-196l317 852h-442z" />
<glyph unicode="8" horiz-adv-x="905" d="M113 274v76q0 53 18.5 95t65.5 73q-49 35 -66.5 84t-17.5 109v73q0 133 92 191.5t248 58.5q154 0 247 -58t93 -192v-73q0 -61 -20.5 -108.5t-67.5 -82.5q47 -31 67.5 -74t20.5 -96v-76q0 -147 -92.5 -215.5t-247.5 -68.5q-174 0 -257 75.5t-83 208.5zM297 258 q0 -59 47 -85t109 -26q59 0 107 26t48 85v92q0 47 -44 63.5t-99 18.5h-12q-59 0 -107.5 -15.5t-48.5 -66.5v-92zM297 700q0 -59 48 -84.5t110 -25.5q59 0 106 25.5t47 84.5v93q0 47 -43 60t-98 15h-12q-31 0 -58.5 -2t-50 -10t-36 -23.5t-13.5 -39.5v-93z" />
<glyph unicode="9" horiz-adv-x="819" d="M51 625v125q0 147 91 215.5t247 68.5q174 0 256 -75.5t82 -208.5v-125q0 -49 -16 -93l-201 -532h-197l148 383q-16 -4 -33 -5t-37 -1q-154 0 -247 57.5t-93 190.5zM236 614q0 -25 13 -41t34.5 -24t49 -11t56.5 -3q59 0 106.5 14t47.5 65v138q0 59 -46 84.5t-108 25.5 q-59 0 -106 -25.5t-47 -84.5v-138z" />
<glyph unicode=":" horiz-adv-x="428" d="M113 90q0 43 28.5 73t71.5 30t72.5 -30t29.5 -73t-29.5 -71.5t-72.5 -28.5t-71.5 28.5t-28.5 71.5zM113 678q0 43 28.5 72.5t71.5 29.5t72.5 -29.5t29.5 -72.5t-29.5 -71.5t-72.5 -28.5t-71.5 28.5t-28.5 71.5z" />
<glyph unicode=";" horiz-adv-x="428" d="M113 678q0 43 28.5 72.5t71.5 29.5t72.5 -29.5t29.5 -72.5t-29.5 -71.5t-72.5 -28.5t-71.5 28.5t-28.5 71.5zM121 119h186v-242l-186 -78v320z" />
<glyph unicode="&#x3c;" horiz-adv-x="899" d="M113 285v237l673 289v-195l-516 -213l516 -213v-194z" />
<glyph unicode="=" horiz-adv-x="878" d="M115 178v158h651v-158h-651zM115 446v158h651v-158h-651z" />
<glyph unicode="&#x3e;" horiz-adv-x="899" d="M113 -4v194l516 213l-516 213v195l673 -289v-237z" />
<glyph unicode="?" horiz-adv-x="804" d="M113 973q63 35 132.5 48t137.5 13q166 0 237.5 -63.5t71.5 -190.5q0 -74 -38 -115.5t-83 -72.5t-82.5 -61.5t-37.5 -86.5v-178h-185v178q0 82 38 130.5t83 81t83 59t38 65.5q0 43 -39 62.5t-86 19.5q-45 0 -98.5 -9t-106.5 -36zM256 90q0 43 28.5 73t71.5 30t73 -30 t30 -73t-30 -71.5t-73 -28.5t-71.5 28.5t-28.5 71.5z" />
<glyph unicode="@" horiz-adv-x="1224" d="M113 281v450q0 162 107.5 232.5t297.5 70.5h189q190 0 297.5 -70.5t107.5 -232.5v-731h-184v78q-18 -33 -47 -51.5t-55.5 -26.5t-48 -9t-27.5 -1q-150 0 -225.5 69.5t-86.5 223.5v166q0 131 83 189t216 58q2 0 22.5 -1t49.5 -4t61.5 -12t57.5 -24v76q0 45 -19.5 71.5 t-51.5 40t-72 16.5t-78 3h-189q-39 0 -78 -3t-70.5 -16.5t-52 -40t-20.5 -71.5v-467q0 -43 1 -67.5t8 -34.5t21.5 -12.5t39.5 -2.5h28v-147h-71q-80 0 -122 26.5t-62.5 68.5t-23.5 91.5t-3 94.5zM623 266q0 -59 36.5 -89t98.5 -30q72 0 121 25t49 51v262q-18 27 -63.5 33 t-94.5 6q-29 0 -55.5 -2t-47 -10t-32.5 -23.5t-12 -39.5v-183z" />
<glyph unicode="A" horiz-adv-x="1011" d="M31 0l344 1024h260l346 -1024h-195l-92 285h-381l-92 -285h-190zM365 442h278l-139 435z" />
<glyph unicode="B" horiz-adv-x="980" d="M113 0v1024h508q133 0 195.5 -73.5t62.5 -229.5q0 -72 -13.5 -124t-54.5 -87q41 -35 54.5 -86t13.5 -123q0 -156 -62.5 -228.5t-195.5 -72.5h-508zM297 158h324q49 0 61 41t12 98q0 55 -10 93t-53 42h-334v-274zM297 590h324q49 0 61 36t12 95q0 57 -12 94t-61 37h-324 v-262z" />
<glyph unicode="C" horiz-adv-x="999" d="M102 414v196q0 137 35 221t96.5 129.5t144.5 59.5t177 14q14 0 50 -1t87 -8t111.5 -22.5t124.5 -44.5l-54 -153q-104 43 -183 50t-113 7q-39 0 -89.5 -5t-95.5 -28.5t-75.5 -70.5t-30.5 -131v-230q0 -94 30.5 -144t75.5 -73.5t95.5 -28t89.5 -4.5q18 0 47.5 1.5t68.5 7.5 t84 20t92 41l58 -151q-63 -29 -116.5 -44.5t-98.5 -22.5t-84 -8t-74 -1q-94 0 -177 14t-144.5 59.5t-96.5 128t-35 222.5z" />
<glyph unicode="D" horiz-adv-x="1007" d="M113 0v1024h342q94 0 176 -14.5t143.5 -59.5t96 -129t34.5 -221v-178q0 -137 -34.5 -220t-96 -128t-143.5 -59.5t-176 -14.5h-342zM297 158h133q39 0 90 4t95 27.5t75 73.5t31 145v192q0 94 -31 145.5t-75 75t-95 27.5t-90 4h-133v-694z" />
<glyph unicode="E" horiz-adv-x="901" d="M113 0v1024h696v-172h-512v-252h512v-158h-512v-284h512v-158h-696z" />
<glyph unicode="F" horiz-adv-x="854" d="M113 0v1024h690v-172h-506v-221h446v-158h-446v-473h-184z" />
<glyph unicode="G" horiz-adv-x="1017" d="M102 414v196q0 137 35 221t96.5 129.5t143.5 59.5t176 14q14 0 50 -1t87 -8t111.5 -22.5t124.5 -44.5l-54 -153q-104 43 -183 50t-114 7q-39 0 -89 -4t-94 -27.5t-74.5 -74.5t-30.5 -146v-213q0 -94 30.5 -144t74.5 -73.5t94.5 -28t88.5 -4.5q23 0 67 1.5t91 11.5v235 h-184v158h369v-492q-121 -53 -207 -62t-158 -9q-94 0 -176 14t-143.5 59.5t-96.5 128t-35 222.5z" />
<glyph unicode="H" horiz-adv-x="1024" d="M113 0v1024h184v-424h430v424h184v-1024h-184v442h-430v-442h-184z" />
<glyph unicode="I" horiz-adv-x="409" d="M113 0v1024h184v-1024h-184z" />
<glyph unicode="J" horiz-adv-x="772" d="M31 51l47 148q98 -39 154.5 -45.5t84.5 -6.5q29 0 59 3.5t54.5 19.5t39.5 51t15 101v702h185v-688q0 -113 -23.5 -181.5t-66.5 -105.5t-104.5 -48t-139.5 -11q-59 0 -131 7t-174 54z" />
<glyph unicode="K" horiz-adv-x="1079" d="M113 0v1024h184v-385l469 385h270l-368 -311l315 -713h-199l-262 596l-225 -180v-416h-184z" />
<glyph unicode="L" horiz-adv-x="841" d="M113 0v1024h184v-866h483v-158h-667z" />
<glyph unicode="M" horiz-adv-x="1257" d="M113 0v1024h338l178 -877l180 877h336v-1024h-184v852l-189 -852h-289l-186 852v-852h-184z" />
<glyph unicode="N" horiz-adv-x="1056" d="M113 0v1024h309l338 -877v877h184v-1024h-297l-350 852v-852h-184z" />
<glyph unicode="O" horiz-adv-x="1017" d="M102 336v395q0 162 107.5 232.5t298.5 70.5q190 0 298.5 -70.5t108.5 -232.5v-395q0 -188 -108.5 -267t-298.5 -79t-298 78.5t-108 267.5zM287 319q0 -59 19.5 -92.5t51 -51t71.5 -23t79 -5.5t79 5.5t71.5 23t52 51t20.5 92.5v404q0 45 -20.5 71.5t-52 39t-71.5 15.5 t-79 3t-79 -3t-71.5 -15.5t-51 -39t-19.5 -71.5v-404z" />
<glyph unicode="P" horiz-adv-x="919" d="M113 0v1024h475q133 0 196.5 -89t63.5 -245q0 -154 -63.5 -243t-196.5 -89h-291v-358h-184zM297 516h276q31 0 48.5 16.5t26.5 42t12.5 56.5t3.5 59q0 31 -3.5 59.5t-12.5 51t-26.5 37t-48.5 14.5h-276v-336z" />
<glyph unicode="Q" horiz-adv-x="1017" d="M102 336v395q0 162 107.5 232.5t298.5 70.5q190 0 298.5 -70.5t108.5 -232.5v-395q0 -111 -36.5 -180.5t-106.5 -110.5q29 -10 68 -17.5t75 -7.5v-153q-18 0 -61 7t-93 22.5t-97.5 39t-73.5 58.5q-20 -2 -39.5 -3t-42.5 -1q-190 0 -298 78.5t-108 267.5zM287 319 q0 -59 19.5 -92.5t51 -51t71.5 -23t79 -5.5t79 5.5t71.5 23t52 51t20.5 92.5v404q0 45 -20.5 71.5t-52 39t-71.5 15.5t-79 3t-79 -3t-71.5 -15.5t-51 -39t-19.5 -71.5v-404z" />
<glyph unicode="R" horiz-adv-x="948" d="M113 0v1024h477q133 0 195.5 -89t62.5 -245q0 -115 -33 -192.5t-104 -114.5l196 -383h-192l-185 358h-233v-358h-184zM297 516h278q31 0 48.5 16.5t26.5 42t11.5 56.5t2.5 59q0 31 -2.5 59.5t-11.5 51t-26.5 37t-48.5 14.5h-278v-336z" />
<glyph unicode="S" horiz-adv-x="944" d="M82 141l125 107q66 -57 143.5 -79t143.5 -22q33 0 65.5 11.5t59 32t43 50t16.5 66.5q0 39 -42 61.5t-105.5 41t-136 38t-136 53.5t-105.5 87t-42 139q0 154 87 230.5t257 76.5q41 0 89 -4t96 -12t93 -23.5t82 -36.5l-84 -155q-31 14 -66.5 23.5t-72.5 15.5t-73 8t-64 2 q-31 0 -59.5 -5t-51 -18.5t-36 -38t-13.5 -63.5q0 -35 42 -56.5t105.5 -41t136 -41t136 -57t105.5 -89t42 -135.5q0 -94 -30.5 -155.5t-82 -97.5t-118 -50t-135.5 -14q-53 0 -109.5 5t-111 20.5t-104.5 46t-89 79.5z" />
<glyph unicode="T" horiz-adv-x="890" d="M57 852v172h777v-172h-297v-852h-185v852h-295z" />
<glyph unicode="U" horiz-adv-x="1017" d="M102 336v688h185v-702q0 -59 19.5 -93t51 -52.5t71.5 -24t79 -5.5t79 5.5t71.5 24t52 52t20.5 93.5v702h184v-688q0 -188 -108.5 -267t-298.5 -79t-298 78.5t-108 267.5z" />
<glyph unicode="V" horiz-adv-x="1011" d="M31 1024h190l283 -877l282 877h195l-346 -1024h-260z" />
<glyph unicode="W" horiz-adv-x="1214" d="M31 1024h188l139 -877l115 582h272l111 -582l137 877h191l-178 -1024h-285l-113 555l-108 -555h-289z" />
<glyph unicode="X" horiz-adv-x="1026" d="M31 0l372 514l-372 510h223l258 -358l258 358h225l-374 -510l374 -514h-213l-270 369l-270 -369h-211z" />
<glyph unicode="Y" horiz-adv-x="1032" d="M31 1024h221l264 -387l264 387h221l-393 -563v-461h-184v459z" />
<glyph unicode="Z" horiz-adv-x="923" d="M92 0v143l504 709h-504v172h739v-143l-507 -723h507v-158h-739z" />
<glyph unicode="[" horiz-adv-x="495" d="M113 -109v1242h270v-158h-86v-926h86v-158h-270z" />
<glyph unicode="\" horiz-adv-x="829" d="M61 1133h195l512 -1133h-195z" />
<glyph unicode="]" horiz-adv-x="495" d="M113 49h86v926h-86v158h270v-1242h-270v158z" />
<glyph unicode="^" horiz-adv-x="843" d="M113 455l202 569h215l201 -569h-192l-117 397l-115 -397h-194z" />
<glyph unicode="_" horiz-adv-x="774" d="M0 -102h774v-158h-774v158z" />
<glyph unicode="`" horiz-adv-x="524" d="M117 1102h198l97 -283h-136z" />
<glyph unicode="a" horiz-adv-x="882" d="M92 258q0 68 23.5 113t64.5 70.5t99.5 36.5t130.5 11q35 0 78.5 -3t97.5 -23v121q0 49 -44 61t-100 12q-59 0 -102 -12t-43 -61v-52h-184v52q0 133 88 189t241 56q152 0 240 -56t88 -189v-584h-184v86q-16 -37 -44 -56.5t-55.5 -28.5t-49 -10t-27.5 -1 q-115 0 -179.5 23.5t-95.5 62.5t-37 86t-6 96zM276 262q0 -29 2.5 -50.5t14.5 -35.5t40 -21.5t79 -7.5q74 0 124 30t50 59v57q0 14 -18.5 22.5t-44 11.5t-56.5 4t-55 1q-53 0 -94.5 -13.5t-41.5 -56.5z" />
<glyph unicode="b" horiz-adv-x="876" d="M113 0v1085h184v-315q18 23 47 35t57.5 17t49 6t24.5 1q70 0 126 -13t97 -43t63.5 -77t22.5 -112v-308q0 -129 -70.5 -207.5t-238.5 -78.5q-6 0 -26.5 1t-47 9t-55.5 23.5t-49 46.5v-70h-184zM297 221q0 -27 49 -50.5t121 -23.5q61 0 97 29t36 86v322q0 49 -43 61 t-102 12q-4 0 -22.5 -1t-43 -5t-50.5 -15t-42 -30v-385z" />
<glyph unicode="c" horiz-adv-x="808" d="M92 332v155q0 111 29 178.5t78 104.5t114.5 48t141.5 11q59 0 126.5 -8t176.5 -47l-45 -162q-88 31 -149.5 38t-90.5 7q-31 0 -64.5 -3t-63.5 -18t-49.5 -50t-19.5 -99v-170q0 -63 19.5 -98t49.5 -50t63.5 -18.5t64.5 -3.5q29 0 88.5 7.5t143.5 50.5l51 -154 q-49 -23 -91 -35t-79 -18t-69 -7t-62 -1q-76 0 -141.5 11t-114.5 48t-78 104.5t-29 178.5z" />
<glyph unicode="d" horiz-adv-x="876" d="M92 276v308q0 131 85 188t224 57q2 0 23.5 -1t50.5 -6t57.5 -17t47.5 -35v315h184v-1085h-184v70q-23 -31 -50.5 -46.5t-54 -23.5t-47 -9t-27.5 -1q-168 0 -238.5 78.5t-70.5 207.5zM276 262q0 -57 36 -86t98 -29q72 0 121 24t49 50v385q-16 18 -42 29.5t-50.5 15.5 t-44 5t-21.5 1q-59 0 -102.5 -12t-43.5 -61v-322z" />
<glyph unicode="e" horiz-adv-x="862" d="M92 332v217q0 145 91 212.5t247 67.5q172 0 254 -74.5t82 -205.5v-197h-490v-35q0 -63 21.5 -98t52.5 -50t67 -18.5t66 -3.5q29 0 96.5 7.5t145.5 48.5l51 -152q-51 -23 -94 -35t-82 -18t-71.5 -7t-63.5 -1q-76 0 -143.5 11t-118.5 48t-81 104.5t-30 178.5zM276 522h306 v27q0 59 -46.5 83.5t-105.5 24.5q-61 0 -107.5 -24.5t-46.5 -83.5v-27z" />
<glyph unicode="f" horiz-adv-x="583" d="M53 662v157h125v19q0 74 9.5 128t34 90t67.5 53t112 17q29 0 72 -5t100 -36l-55 -131q-23 10 -41.5 14.5t-36.5 4.5q-29 0 -45 -12.5t-23 -31t-8.5 -43t-1.5 -48.5v-19h205v-157h-205v-662h-184v662h-125z" />
<glyph unicode="g" horiz-adv-x="876" d="M92 276v308q0 131 85 188t224 57q2 0 25 -1t51.5 -9t57 -23.5t45.5 -45.5v69h184v-852q0 -98 -23.5 -164.5t-66.5 -106.5t-105.5 -57.5t-138.5 -17.5q-61 0 -133 7t-174 55l49 149q86 -41 148.5 -47t89.5 -6q31 0 60.5 5t54 24.5t40 56.5t15.5 102v74 q-23 -18 -51.5 -29.5t-55.5 -15.5t-46 -5t-26 -1q-168 0 -238.5 78.5t-70.5 207.5zM276 262q0 -57 36 -86t98 -29q72 0 121 24t49 50v385q-16 18 -42 29.5t-50.5 15.5t-44 5t-21.5 1q-59 0 -102.5 -12t-43.5 -61v-322z" />
<glyph unicode="h" horiz-adv-x="876" d="M113 0v1102h184v-367q27 33 57.5 52.5t58 28.5t48 11t26.5 2q162 0 229.5 -78.5t67.5 -213.5v-537h-184v539q0 61 -36 89.5t-99 28.5q-72 0 -120 -29.5t-48 -88.5v-539h-184z" />
<glyph unicode="i" horiz-adv-x="409" d="M102 1061q0 43 29 72.5t72 29.5t72.5 -29.5t29.5 -72.5t-29.5 -71.5t-72.5 -28.5t-72 28.5t-29 71.5zM113 0v819h184v-819h-184z" />
<glyph unicode="j" horiz-adv-x="409" d="M-156 -315l64 129q35 -25 66.5 -30t60.5 -5t44 7t23.5 25.5t9.5 48t1 74.5v885h184v-946q0 -139 -66.5 -195.5t-195.5 -56.5q-53 0 -102.5 13.5t-88.5 50.5zM102 1061q0 43 29 72.5t72 29.5t72.5 -29.5t29.5 -72.5t-29.5 -71.5t-72.5 -28.5t-72 28.5t-29 71.5z" />
<glyph unicode="k" horiz-adv-x="901" d="M113 0v1102h184v-545l311 262h252l-317 -276l301 -543h-191l-243 426l-113 -100v-326h-184z" />
<glyph unicode="l" horiz-adv-x="409" d="M113 0v1102h184v-1102h-184z" />
<glyph unicode="m" horiz-adv-x="1191" d="M113 0v819h184v-84q18 35 44 54.5t50.5 28.5t43 10t20.5 1q66 0 107.5 -24.5t70.5 -81.5q14 39 45 61.5t61.5 31.5t53 11t24.5 2q84 0 139.5 -20.5t87 -58t44 -91t12.5 -118.5v-541h-185v541q0 59 -19 87.5t-79 28.5q-23 0 -59.5 -4t-59.5 -12q18 -41 19 -100v-541h-185 v541q0 59 -19 87.5t-77 28.5q-72 0 -105.5 -37.5t-33.5 -78.5v-541h-184z" />
<glyph unicode="n" horiz-adv-x="876" d="M113 0v819h184v-84q27 33 57.5 52.5t58 28.5t48 11t26.5 2q162 0 229.5 -78.5t67.5 -213.5v-537h-184v539q0 61 -36 89.5t-99 28.5q-72 0 -120 -29.5t-48 -88.5v-539h-184z" />
<glyph unicode="o" horiz-adv-x="856" d="M92 270v314q0 133 91 189t245 56q76 0 137.5 -13t105.5 -43t68.5 -77t24.5 -112v-314q0 -145 -91 -212.5t-245 -67.5q-174 0 -255 74.5t-81 205.5zM276 256q0 -59 45.5 -84t106.5 -25q59 0 105.5 25t46.5 84v328q0 25 -13.5 39t-35 22t-48 10t-55.5 2q-59 0 -105.5 -12 t-46.5 -61v-328z" />
<glyph unicode="p" horiz-adv-x="876" d="M113 -377v1196h184v-69q16 31 45 46t57.5 23t50 9t25.5 1q70 0 126 -13t97 -43t63.5 -77t22.5 -112v-308q0 -129 -70.5 -207.5t-238.5 -78.5q-6 0 -26.5 1t-46 5t-54.5 15.5t-51 29.5v-418h-184zM297 221q0 -27 49 -50.5t121 -23.5q61 0 97 29t36 86v322q0 49 -43 61 t-102 12q-4 0 -22.5 -1t-43 -5t-50.5 -15t-42 -30v-385z" />
<glyph unicode="q" horiz-adv-x="876" d="M92 276v308q0 131 85 188t224 57q2 0 25 -1t51.5 -9t57 -23.5t45.5 -45.5v69h184v-1196h-184v418q-23 -18 -51.5 -29.5t-55.5 -15.5t-46 -5t-26 -1q-168 0 -238.5 78.5t-70.5 207.5zM276 262q0 -57 36 -86t98 -29q72 0 121 24t49 50v385q-16 18 -42 29.5t-50.5 15.5 t-44 5t-21.5 1q-59 0 -102.5 -12t-43.5 -61v-322z" />
<glyph unicode="r" horiz-adv-x="516" d="M113 0v819h184v-80q23 33 51.5 51.5t58 27.5t54 10t41.5 1v-172q-86 0 -145.5 -29.5t-59.5 -86.5v-541h-184z" />
<glyph unicode="s" horiz-adv-x="729" d="M51 117l99 102q57 -45 116.5 -58.5t110.5 -13.5q47 0 82 19.5t35 81.5q0 27 -32 42t-79 30.5t-102.5 32t-102.5 45t-78.5 71.5t-31.5 111q0 125 73.5 187t212.5 62q66 0 143.5 -13t139.5 -48l-66 -152q-51 23 -112.5 32t-104.5 9q-47 0 -74.5 -18t-27.5 -59 q0 -29 31.5 -46.5t79 -32t102.5 -31.5t102 -44t79 -70t32 -108q0 -76 -25.5 -126t-67.5 -79t-95.5 -41t-110.5 -12q-86 0 -175 23.5t-153 103.5z" />
<glyph unicode="t" horiz-adv-x="552" d="M20 662v157h134v248h184v-248h170v-157h-170v-381q0 -45 7 -84t50 -39h113v-158h-143q-80 0 -122 26.5t-62.5 68.5t-23.5 91.5t-3 94.5v381h-134z" />
<glyph unicode="u" horiz-adv-x="892" d="M113 279v540h184v-555q0 -59 36 -88t97 -29q72 0 119 31t47 86v555h184v-819h-184v86q-18 -33 -46 -51.5t-56.5 -28.5t-54 -13t-38.5 -3q-154 0 -221 78.5t-67 210.5z" />
<glyph unicode="v" horiz-adv-x="833" d="M20 819h191l205 -672l209 672h188l-274 -819h-246z" />
<glyph unicode="w" horiz-adv-x="1103" d="M57 819h183l88 -672l94 572h260l96 -572l86 672h183l-136 -819h-258l-100 551l-94 -551h-266z" />
<glyph unicode="x" horiz-adv-x="897" d="M51 0l295 410l-295 409h209l189 -264l188 264h209l-301 -409l301 -410h-209l-188 264l-189 -264h-209z" />
<glyph unicode="y" horiz-adv-x="858" d="M31 819h190l191 -672l225 672h190l-440 -1198h-188l112 330z" />
<glyph unicode="z" horiz-adv-x="757" d="M72 0v158l385 499h-385v162h614v-162l-383 -499h383v-158h-614z" />
<glyph unicode="{" horiz-adv-x="608" d="M113 432v158q43 0 66.5 11t33.5 30.5t12 43t2 48.5v264q0 76 31 111t82 35h156v-158h-52q-33 0 -32 -37v-215q0 -72 -19.5 -125t-66.5 -88q47 -35 66.5 -87t19.5 -124v-213q0 -37 32 -37h52v-158h-156q-51 0 -82 35t-31 111v262q0 25 -2 48.5t-12 43t-33.5 30.5t-66.5 11 z" />
<glyph unicode="|" horiz-adv-x="409" d="M113 -109v1242h184v-1242h-184z" />
<glyph unicode="}" horiz-adv-x="608" d="M113 49h51q33 0 33 37v213q0 72 19.5 124t66.5 87q-47 35 -66.5 88t-19.5 125v215q0 37 -33 37h-51v158h155q51 0 82 -35t31 -111v-264q0 -25 2 -48.5t12.5 -43t34 -30.5t66.5 -11v-158q-43 0 -66.5 -11t-34 -30.5t-12.5 -43t-2 -48.5v-262q0 -76 -31 -111t-82 -35h-155 v158z" />
<glyph unicode="~" horiz-adv-x="1009" d="M113 553q55 47 106 74.5t111 27.5q51 0 96 -16t88 -34.5t83 -35t81 -16.5q33 0 62.5 19.5t68.5 50.5l88 -125q-55 -47 -107.5 -75t-111.5 -28q-49 0 -90 16.5t-82 35t-84 35t-92 16.5q-31 0 -60.5 -19.5t-70.5 -50.5z" />
<glyph unicode="&#xad;" horiz-adv-x="876" d="M113 330v157h651v-157h-651z" />
<glyph unicode="&#xbc;" horiz-adv-x="1366" d="M96 928l164 96h150v-645h-150v479l-108 -59zM332 0l491 1024h172l-489 -1024h-174zM756 147v123l278 375h154v-373h82v-125h-82v-147h-150v147h-282zM913 272h125v168z" />
<glyph unicode="&#xbd;" horiz-adv-x="1419" d="M96 928l164 96h150v-645h-150v479l-108 -59zM332 0l491 1024h172l-489 -1024h-174zM862 432v70q0 84 66.5 118.5t165.5 34.5q98 0 164.5 -34.5t66.5 -118.5v-70q0 -53 -35 -95t-84 -78t-99 -67.5t-81 -66.5h297v-125h-449v104q0 70 47.5 115t103.5 79t103.5 63.5 t47.5 70.5v64q0 23 -25 28.5t-57 5.5q-33 0 -56.5 -6t-23.5 -28v-64h-152z" />
<glyph unicode="&#xbe;" horiz-adv-x="1458" d="M96 575v43h152v-59q0 -31 24.5 -43t55.5 -12q33 0 57.5 12t24.5 43v59q0 20 -22.5 23.5t-51.5 3.5h-72v125h72q29 0 51.5 9t22.5 38v60q0 23 -25 27.5t-57 4.5q-31 0 -55.5 -5t-24.5 -27v-64h-152v47q0 88 66.5 131t165.5 43q98 0 164.5 -43t66.5 -131v-35 q0 -72 -57 -114q57 -37 57 -103v-33q0 -94 -66.5 -145t-164.5 -51q-111 0 -171.5 55t-60.5 141zM424 0h174l489 1024h-172zM848 147h282v-147h150v147h82v125h-82v373h-154l-278 -375v-123zM1006 272l124 168v-168h-124z" />
<glyph unicode="&#xbf;" horiz-adv-x="804" d="M113 39q0 74 37.5 116t83 72.5t83 61t37.5 86.5v178h185v-178q0 -82 -38 -130t-83 -81t-83 -59.5t-38 -65.5q0 -43 39 -62.5t86 -19.5q45 0 98 9t107 36l65 -156q-63 -35 -133 -48t-137 -13q-166 0 -237.5 63.5t-71.5 190.5zM346 729q0 43 30 71.5t73 28.5t71.5 -28.5 t28.5 -71.5t-28.5 -72.5t-71.5 -29.5t-73 29.5t-30 72.5z" />
<glyph unicode="&#xff;" horiz-adv-x="1941" />
<glyph unicode="&#xe01;" horiz-adv-x="837" d="M90 0v666q41 61 88 94t92 48t82 18t58 3q123 0 189.5 -39.5t98 -90t37.5 -94.5t6 -52v-553h-184v553q0 39 -21.5 60.5t-47 30.5t-49 11t-29.5 2q-41 0 -67 -10t-42 -20q-18 -12 -27 -29v-598h-184z" />
<glyph unicode="&#xe02;" horiz-adv-x="768" d="M78 662v157h94q74 0 114 -3t59.5 -23.5t22.5 -62.5t3 -122q0 -51 -15.5 -82.5t-34 -57.5t-34 -52.5t-15.5 -69.5v-74q0 -25 3.5 -48t13.5 -39.5t32.5 -27t61.5 -10.5t62.5 8.5t33.5 24t13.5 37t3.5 45.5v557h184v-540q0 -66 -12.5 -119.5t-45 -91t-90 -58t-149.5 -20.5 q-104 0 -163.5 26.5t-89.5 69.5t-36 96.5t-6 104.5v59q0 47 15.5 82t34 63.5t33.5 56t15 60.5q0 35 -2 44.5t-12 9.5h-94z" />
<glyph unicode="&#xe03;" horiz-adv-x="788" d="M10 713l105 106l45 -39q14 10 24.5 18.5t16.5 12.5q8 6 10 8q68 0 103.5 -11t53 -37t20.5 -66t3 -97q0 -51 -15.5 -82.5t-33.5 -57.5t-33.5 -52.5t-15.5 -69.5v-74q0 -25 3 -48t13 -39.5t33 -27t61 -10.5q39 0 62.5 8.5t34 24t13.5 37t3 45.5v557h184v-540 q0 -66 -12 -119.5t-45 -91t-90 -58t-150 -20.5q-104 0 -163.5 26.5t-89 69.5t-35.5 96.5t-6 104.5v59q0 47 15 82t33.5 63.5t34 56t15.5 60.5q0 18 -2 25l-55 -43z" />
<glyph unicode="&#xe04;" horiz-adv-x="851" d="M82 0v557q0 152 84 212t254 60q168 0 252 -60t84 -212v-557h-185v584q0 25 -13 39t-34.5 22t-48 10t-55.5 2q-31 0 -58.5 -2t-49 -10t-34 -22.5t-12.5 -38.5v-135q25 16 65 18t66 2h82v-158h-82q-16 0 -36.5 -1t-40 -3t-34 -6t-20.5 -10v-291h-184z" />
<glyph unicode="&#xe05;" horiz-adv-x="856" d="M82 0v563q0 119 56.5 182.5t160.5 83.5l123 -57l129 57q100 -20 154.5 -84.5t54.5 -181.5v-563h-185v598q0 27 -7 39t-23 20l-123 -47l-123 47q-33 -14 -33 -61v-147q25 16 65 18t66 2h82v-158h-82q-16 0 -36.5 -1t-40 -3t-34 -6t-20.5 -10v-291h-184z" />
<glyph unicode="&#xe06;" horiz-adv-x="860" d="M0 713l104 106l46 -39q14 10 24 18.5t16 12.5q8 6 11 8q68 0 103.5 -11t53 -37t20.5 -65.5t3 -97.5q0 -51 -15.5 -82.5t-34 -57.5t-33.5 -52.5t-15 -69.5v-82q0 -57 46 -87t117 -30q63 0 98.5 29t35.5 88v555h184v-540q0 -131 -67.5 -210t-221.5 -79q-18 0 -43.5 1 t-53.5 10t-52.5 28.5t-42.5 56.5v-86h-185v346q0 47 15.5 82t34 63.5t34 56t15.5 60.5q0 18 -2 25l-56 -43z" />
<glyph unicode="&#xe07;" horiz-adv-x="655" d="M10 84l88 121q39 -35 82 -46.5t76 -11.5q51 0 85 23t34 76v416h-101v157h285v-612q0 -53 -23.5 -93t-64.5 -68t-96.5 -42t-118.5 -14q-82 0 -147.5 25.5t-98.5 68.5z" />
<glyph unicode="&#xe08;" horiz-adv-x="784" d="M45 516v68q0 133 88 189t242 56q152 0 239.5 -56t87.5 -189v-336q0 -106 -62 -177t-167 -71h-215l-47 258h-86v158h248l41 -258h57q29 2 36 23.5t11 51.5v351q0 49 -44 61t-99 12q-59 0 -102.5 -12t-43.5 -61v-68h-184z" />
<glyph unicode="&#xe09;" horiz-adv-x="829" d="M72 268v158h237v-162q0 -29 2 -51.5t11.5 -36.5t30 -21.5t59.5 -7.5q137 0 137 117v320q0 49 -44 61t-102 12q-57 0 -100 -12t-43 -61v-68h-184v68q0 133 87 189t240 56q154 0 242 -56t88 -189v-584h-184v86q-18 -37 -43 -56.5t-50.5 -28.5t-51 -10t-44.5 -1 q-78 0 -125 19.5t-71.5 55t-31.5 87t-7 116.5h-53z" />
<glyph unicode="&#xe0a;" horiz-adv-x="788" d="M78 662v157h94q74 0 114 -3t59.5 -23.5t22.5 -62.5t3 -122q0 -51 -15.5 -82.5t-34 -57.5t-34 -52.5t-15.5 -69.5v-74q0 -51 21.5 -88t99.5 -37q80 0 101.5 32t21.5 83v195q0 35 -8 54t-49 19h-21v158h27q39 0 45 38t6 93h184q0 -29 -1 -58.5t-9 -57t-25.5 -53 t-48.5 -44.5q53 -18 68.5 -62t15.5 -87v-178q0 -66 -13 -119.5t-48 -91t-94.5 -58t-151.5 -20.5q-104 0 -165.5 26.5t-92.5 69.5t-39 96.5t-8 104.5v59q0 47 15.5 82t34 63.5t33.5 56t15 60.5q0 35 -2 44.5t-12 9.5h-94z" />
<glyph unicode="&#xe0b;" horiz-adv-x="788" d="M-10 713l104 106l45 -39q14 10 24.5 18.5t16.5 12.5q8 6 10 8q68 0 104 -11t53.5 -37t20.5 -65.5t3 -97.5q0 -51 -15.5 -82.5t-34 -57.5t-34 -52.5t-15.5 -69.5v-74q0 -51 21.5 -88t99.5 -37q80 0 101.5 32t21.5 83v195q0 35 -8 54t-49 19h-21v158h27q39 0 45 38t6 93 h184q0 -29 -1 -58.5t-9 -57t-25.5 -53t-48.5 -44.5q53 -18 68.5 -62t15.5 -87v-178q0 -66 -13 -119.5t-48 -91t-94.5 -58t-151.5 -20.5q-104 0 -165.5 26.5t-92.5 69.5t-39 96.5t-8 104.5v59q0 47 15.5 82t34 63.5t33.5 56t15 60.5q0 18 -2 25l-55 -43z" />
<glyph unicode="&#xe0c;" horiz-adv-x="1259" d="M90 0v666q41 61 88 94t92 48t82 18t58 3q123 0 189.5 -39.5t98 -90t37.5 -94.5t6 -52v-289q0 -55 32 -86t99 -31q59 0 83 29t24 88v555h184v-540q0 -131 -57 -210t-180 -79q-12 0 -36 1t-50.5 10t-53 28.5t-45.5 56.5v-86h-184v553q0 39 -21.5 60.5t-47 30.5t-49 11 t-29.5 2q-41 0 -67 -10t-42 -20q-18 -12 -27 -29v-451h86v-147h-270z" />
<glyph unicode="&#xe0d;" horiz-adv-x="1259" d="M90 0v666q41 61 88 94t92 48t82 18t58 3q123 0 189.5 -39.5t98 -90t37.5 -94.5t6 -52v-289q0 -57 25 -87t84 -30q68 0 98.5 32t30.5 85v555h184v-788q0 -147 -77.5 -217t-231.5 -70q-25 0 -56.5 1t-63.5 4t-60.5 8t-46.5 12l35 151q12 -6 37.5 -9t53 -5t55.5 -3t46 -1 q55 0 90 24.5t35 79.5v62q-10 -29 -31.5 -45.5t-46 -23.5t-47.5 -8t-35 -1q-141 0 -201.5 77.5t-60.5 208.5v277q0 39 -21.5 60.5t-47 30.5t-49 11t-29.5 2q-41 0 -67 -10t-42 -20q-18 -12 -27 -29v-451h86v-147h-270z" />
<glyph unicode="&#xe0e;" horiz-adv-x="860" d="M31 0v147h82v519q41 61 88 94t92 48t82 18t57 3q123 0 189.5 -39.5t98.5 -90t38 -94.5t6 -52v-696q0 -27 -6 -71t-37 -85t-94.5 -71.5t-175.5 -30.5h-347v157h349q4 0 24.5 2t43 11.5t41 31t18.5 62.5v690q0 39 -21.5 60.5t-47.5 30.5t-49.5 11t-29.5 2q-41 0 -66.5 -10 t-41.5 -20q-18 -12 -27 -29v-598h-266z" />
<glyph unicode="&#xe0f;" horiz-adv-x="860" d="M31 0v147h82v519q41 61 88 94t92 48t82 18t57 3q123 0 189.5 -39.5t98.5 -90t38 -94.5t6 -52v-707q0 -121 -56.5 -175t-160.5 -74l-115 57l-108 -55h-220v157h207l121 51l115 -49q16 8 24.5 20.5t8.5 39.5v735q0 39 -21.5 60.5t-47.5 30.5t-49.5 11t-29.5 2 q-41 0 -66.5 -10t-41.5 -20q-18 -12 -27 -29v-598h-266z" />
<glyph unicode="&#xe10;" horiz-adv-x="784" d="M45 516v68q0 133 88 189t242 56h18t19 -2l239 107l51 -137l-79 -31q80 -63 79 -182v-336q0 -106 -62 -177t-167 -71h-215l-47 258h-86v158h248l41 -258h57q29 2 36 23.5t11 51.5v351q0 49 -44 61t-99 12q-59 0 -102.5 -12t-43.5 -61v-68h-184zM145 -127h340q14 0 22.5 4 t8.5 25v49h186v-49q0 -109 -56 -148t-161 -39h-340v158z" />
<glyph unicode="&#xe11;" horiz-adv-x="880" d="M-25 713l105 106l45 -39q14 10 24.5 18.5t16.5 12.5q8 6 10 8q55 0 87 -7t47.5 -19.5t18.5 -27t5 -26.5q16 33 42.5 51.5t54.5 27.5t50.5 10t32.5 1q86 0 138.5 -20.5t82 -58t39.5 -91t10 -118.5v-541h-184v541q0 59 -20.5 87.5t-77.5 28.5q-39 0 -76 -20.5t-64.5 -61 t-45 -101t-17.5 -140.5v-334h-184v334q0 86 14 145.5t43 114.5v22.5t-2 16.5l-55 -43z" />
<glyph unicode="&#xe12;" horiz-adv-x="1277" d="M82 281v282q0 119 56.5 182.5t160.5 83.5l123 -57l129 57q100 -20 154.5 -84.5t54.5 -181.5v-299q0 -55 31.5 -86t99.5 -31q59 0 82.5 29t23.5 88v555h185v-540q0 -131 -57.5 -210t-180.5 -79q-12 0 -35.5 1t-50.5 10t-53.5 28.5t-44.5 56.5v-86h-185v598q0 27 -7 39 t-23 20l-123 -47l-123 47q-33 -14 -33 -61v-322q0 -23 1 -43t7.5 -36.5t20.5 -26.5t41 -10h61v-158h-84q-86 0 -133 26.5t-68.5 68.5t-25.5 91.5t-4 94.5z" />
<glyph unicode="&#xe13;" horiz-adv-x="1259" d="M90 0v666q41 61 88 94t92 48t82 18t58 3q123 0 189.5 -39.5t98 -90t37.5 -94.5t6 -52v-289q0 -59 23.5 -88t83.5 -29q68 0 99.5 31t31.5 86v555h184v-819h-184v86q-18 -37 -45 -56.5t-53.5 -28.5t-50 -10t-35.5 -1q-123 0 -180.5 78.5t-57.5 210.5v274q0 39 -21.5 60.5 t-47 30.5t-49 11t-29.5 2q-41 0 -67 -10t-42 -20q-18 -12 -27 -29v-451h86v-147h-270z" />
<glyph unicode="&#xe14;" horiz-adv-x="851" d="M82 281v276q0 152 84 212t254 60q168 0 252 -60t84 -212v-557h-185v584q0 25 -13 39t-34.5 22t-48 10t-55.5 2q-31 0 -58.5 -2t-49 -10t-34 -22.5t-12.5 -38.5v-310q0 -23 1 -43t7.5 -36.5t20.5 -26.5t41 -10h61v-158h-84q-86 0 -133 26.5t-68.5 68.5t-25.5 91.5t-4 94.5 z" />
<glyph unicode="&#xe15;" horiz-adv-x="856" d="M82 281v282q0 119 56.5 182.5t160.5 83.5l123 -57l129 57q100 -20 154.5 -84.5t54.5 -181.5v-563h-185v598q0 27 -7 39t-23 20l-123 -47l-123 47q-33 -14 -33 -61v-322q0 -23 1 -43t7.5 -36.5t20.5 -26.5t41 -10h61v-158h-84q-86 0 -133 26.5t-68.5 68.5t-25.5 91.5 t-4 94.5z" />
<glyph unicode="&#xe16;" horiz-adv-x="837" d="M90 0v666q41 61 88 94t92 48t82 18t58 3q123 0 189.5 -39.5t98 -90t37.5 -94.5t6 -52v-553h-184v553q0 39 -21.5 60.5t-47 30.5t-49 11t-29.5 2q-41 0 -67 -10t-42 -20q-18 -12 -27 -29v-451h86v-147h-270z" />
<glyph unicode="&#xe17;" horiz-adv-x="858" d="M96 0v819h185v-98q18 37 42.5 58.5t52 32.5t53.5 14t44 3q154 0 221.5 -78.5t67.5 -209.5v-541h-184v541q0 59 -35 87.5t-99 28.5q-72 0 -117.5 -29.5t-45.5 -86.5v-541h-185z" />
<glyph unicode="&#xe18;" horiz-adv-x="724" d="M61 104v215h185v-155q27 -8 64.5 -12.5t70.5 -4.5q45 0 76.5 9.5t31.5 46.5v108q0 12 -31.5 21.5t-78.5 21t-102.5 28.5t-102.5 44t-79 68t-32 100q0 125 69 180t216 55q33 0 73 -3t81 -10t81 -19.5t70 -28.5l-65 -152q-53 23 -123 32t-117 9t-73.5 -12t-26.5 -51 q0 -20 31.5 -34.5t79 -27t102.5 -28t102 -39t79 -60t32 -92.5v-96q0 -66 -24.5 -110t-64.5 -69.5t-93.5 -36.5t-108.5 -11q-43 0 -88 4t-87 16.5t-80 35t-67 58.5z" />
<glyph unicode="&#xe19;" horiz-adv-x="843" d="M82 279v540h184v-555q0 -59 35 -88t98 -29q72 0 118 30t46 87v555h185v-819h-185v86q-18 -37 -42.5 -56.5t-52.5 -28.5t-53.5 -10t-43.5 -1q-154 0 -221.5 78.5t-67.5 210.5z" />
<glyph unicode="&#xe1a;" horiz-adv-x="829" d="M72 276v543h184v-557q0 -47 28.5 -81t116.5 -34q31 0 57.5 3.5t47 15.5t32 34.5t11.5 61.5v557h184v-543q0 -39 -6 -89t-38 -94t-98.5 -73.5t-189.5 -29.5t-189.5 29.5t-97 73.5t-36.5 94.5t-6 88.5z" />
<glyph unicode="&#xe1b;" horiz-adv-x="829" d="M72 276v543h184v-557q0 -47 28.5 -81t116.5 -34q31 0 57.5 3.5t47 15.5t32 34.5t11.5 61.5v823h184v-809q0 -39 -6 -89t-38 -94t-98.5 -73.5t-189.5 -29.5t-189.5 29.5t-97 73.5t-36.5 94.5t-6 88.5z" />
<glyph unicode="&#xe1c;" horiz-adv-x="987" d="M96 227v592h307v-157h-122v-449q0 -39 15 -52.5t44 -13.5q35 0 49 18.5t14 47.5v309h181v-309q0 -29 14 -47.5t49 -18.5q29 0 44.5 13.5t15.5 52.5v606h184v-592q0 -84 -21.5 -131t-55.5 -70.5t-78 -29.5t-89 -6q-31 0 -57 8q-25 6 -50.5 20.5t-45.5 40.5 q-20 -27 -47 -41t-50 -20q-29 -8 -57 -8q-45 0 -89 6t-78 29.5t-55.5 70.5t-21.5 131z" />
<glyph unicode="&#xe1d;" horiz-adv-x="987" d="M96 227v592h307v-157h-122v-449q0 -39 15 -52.5t44 -13.5q35 0 49 18.5t14 47.5v309h181v-309q0 -29 14 -47.5t49 -18.5q29 0 44.5 13.5t15.5 52.5v872h184v-858q0 -84 -21.5 -131t-55.5 -70.5t-78 -29.5t-89 -6q-31 0 -57 8q-25 6 -50.5 20.5t-45.5 40.5 q-20 -27 -47 -41t-50 -20q-29 -8 -57 -8q-45 0 -89 6t-78 29.5t-55.5 70.5t-21.5 131z" />
<glyph unicode="&#xe1e;" horiz-adv-x="1015" d="M96 227v592h185v-606q0 -39 22.5 -52.5t50.5 -13.5q35 0 49.5 18.5t14.5 47.5v537h180v-537q0 -29 14.5 -47.5t49.5 -18.5q29 0 51 13.5t22 52.5v606h185v-592q0 -84 -24 -131t-60.5 -70.5t-82.5 -29.5t-91 -6q-31 0 -58 8q-25 6 -50.5 20t-45.5 41q-20 -27 -47 -41 t-49 -20q-29 -8 -58 -8q-45 0 -91 6t-83 29.5t-60.5 70.5t-23.5 131z" />
<glyph unicode="&#xe1f;" horiz-adv-x="1015" d="M96 227v592h185v-606q0 -39 22.5 -52.5t50.5 -13.5q35 0 49.5 18.5t14.5 47.5v537h180v-537q0 -29 14.5 -47.5t49.5 -18.5q29 0 51 13.5t22 52.5v872h185v-858q0 -84 -24 -131t-60.5 -70.5t-82.5 -29.5t-91 -6q-31 0 -58 8q-25 6 -50.5 20t-45.5 41q-20 -27 -47 -41 t-49 -20q-29 -8 -58 -8q-45 0 -91 6t-83 29.5t-60.5 70.5t-23.5 131z" />
<glyph unicode="&#xe20;" horiz-adv-x="860" d="M31 0v147h82v519q41 61 88 94t92 48t82 18t57 3q123 0 189.5 -39.5t98.5 -90t38 -94.5t6 -52v-553h-184v553q0 39 -21.5 60.5t-47.5 30.5t-49.5 11t-29.5 2q-41 0 -66.5 -10t-41.5 -20q-18 -12 -27 -29v-598h-266z" />
<glyph unicode="&#xe21;" horiz-adv-x="858" d="M96 0v819h185v-555q0 -57 46 -87t117 -30q63 0 98.5 29t35.5 88v555h184v-540q0 -131 -67.5 -210t-221.5 -79q-18 0 -44 1t-53.5 10t-52 28.5t-42.5 56.5v-86h-185z" />
<glyph unicode="&#xe22;" horiz-adv-x="854" d="M66 588q0 104 55 167.5t160 63.5h180v-157h-109q-57 0 -79.5 -14.5t-22.5 -59.5q0 -41 27.5 -61.5t64.5 -20.5h119v-158h-113q-43 0 -66.5 -26.5t-23.5 -65.5q0 -18 2 -37.5t9 -35t22.5 -26t42.5 -10.5h176q31 4 47 14.5t16 39.5v618h185v-637q0 -53 -19.5 -90 t-52.5 -59.5t-77 -32.5t-95 -10h-188q-72 0 -120 20.5t-78 56t-42 85t-12 104.5q0 43 18.5 86t57.5 78q-41 29 -62.5 74t-21.5 94z" />
<glyph unicode="&#xe23;" horiz-adv-x="710" d="M41 117l102 108q57 -45 105.5 -61.5t101.5 -16.5q45 0 80 30t35 71q0 27 -28.5 44t-73 33.5t-95.5 35t-95 46t-72.5 68.5t-28.5 105q0 125 72.5 187t207.5 62q66 0 138.5 -15t134.5 -50l-64 -148q-51 23 -108.5 32t-100.5 9q-45 0 -70.5 -18t-25.5 -59q0 -23 28.5 -40.5 t72.5 -34t95.5 -35.5t95.5 -48t72.5 -71t28.5 -103q0 -66 -25.5 -114t-66.5 -81t-95 -48t-110 -15q-31 0 -71.5 5t-83.5 18.5t-84 38t-72 65.5z" />
<glyph unicode="&#xe24;" horiz-adv-x="837" d="M90 0v666q41 61 88 94t92 48t82 18t58 3q123 0 189.5 -39.5t98 -90t37.5 -94.5t6 -52v-954h-184v954q0 39 -21.5 60.5t-47 30.5t-49 11t-29.5 2q-41 0 -67 -10t-42 -20q-18 -12 -27 -29v-451h86v-147h-270z" />
<glyph unicode="&#xe25;" horiz-adv-x="837" d="M61 229q0 68 24 113t64.5 70.5t99 37t130.5 11.5q37 0 87 -6t91 -23v152q0 49 -44 61t-101 12t-100.5 -12t-43.5 -61v-56h-184v56q0 133 87 189t241 56t241.5 -56t87.5 -189v-584h-184v264q0 14 -18.5 22.5t-45 11.5t-57 4t-55.5 1q-53 0 -94 -13.5t-41 -56.5 q0 -14 2 -27t11 -24.5t30.5 -17.5t62.5 -6h58v-158h-95q-90 0 -141 23.5t-75.5 58.5t-31 75t-6.5 72z" />
<glyph unicode="&#xe26;" horiz-adv-x="860" d="M31 0v147h82v519q41 61 88 94t92 48t82 18t57 3q123 0 189.5 -39.5t98.5 -90t38 -94.5t6 -52v-954h-184v954q0 39 -21.5 60.5t-47.5 30.5t-49.5 11t-29.5 2q-41 0 -66.5 -10t-41.5 -20q-18 -12 -27 -29v-598h-266z" />
<glyph unicode="&#xe27;" horiz-adv-x="739" d="M41 516v68q0 133 69.5 189t223.5 56t231.5 -56t77.5 -189v-316q0 -150 -69.5 -214t-223.5 -64q-12 0 -37.5 1t-57.5 4t-66.5 11t-67.5 25l59 145q57 -23 105.5 -26t64.5 -3q53 0 81 21.5t28 81.5v334q0 49 -35 61t-90 12q-53 0 -81 -12t-28 -61v-68h-184z" />
<glyph unicode="&#xe28;" horiz-adv-x="851" d="M82 0v557q0 152 84 212t254 60h23.5t23.5 -2l238 107l51 -137l-80 -33q80 -66 80 -207v-557h-185v584q0 25 -13 39t-34.5 22t-48 10t-55.5 2q-31 0 -58.5 -2t-49 -10t-34 -22.5t-12.5 -38.5v-135q25 16 65 18t66 2h82v-158h-82q-16 0 -36.5 -1t-40 -3t-34 -6t-20.5 -10 v-291h-184z" />
<glyph unicode="&#xe29;" horiz-adv-x="835" d="M72 276v543h184v-557q0 -47 28.5 -81t116.5 -34q31 0 57.5 3.5t47 15.5t32 34.5t11.5 61.5v98h-225v232h147v-74h78v301h184v-301h62v-158h-62v-84q0 -39 -6 -89t-38 -94t-98.5 -73.5t-189.5 -29.5t-189.5 29.5t-97 73.5t-36.5 94.5t-6 88.5z" />
<glyph unicode="&#xe2a;" horiz-adv-x="837" d="M61 229q0 68 24 113t64.5 70.5t99 37t130.5 11.5q37 0 87 -6t91 -23v152q0 49 -44 61t-101 12t-100.5 -12t-43.5 -61v-56h-184v56q0 133 87 189t241 56h18t19 -2l241 107l51 -137l-79 -31q80 -63 79 -182v-584h-184v264q0 14 -18.5 22.5t-45 11.5t-57 4t-55.5 1 q-53 0 -94 -13.5t-41 -56.5q0 -14 2 -27t11 -24.5t30.5 -17.5t62.5 -6h58v-158h-95q-90 0 -141 23.5t-75.5 58.5t-31 75t-6.5 72z" />
<glyph unicode="&#xe2b;" horiz-adv-x="849" d="M96 0v819h185v-194h241q23 0 35 8t12 55v131h185v-131q0 -35 -10.5 -76t-34.5 -71q29 -41 37 -94.5t8 -94.5v-352h-185v362q0 39 -2 60.5t-7 31t-13 11.5t-23 2h-243v-467h-185z" />
<glyph unicode="&#xe2c;" horiz-adv-x="1024" d="M96 227v592h185v-606q0 -39 22.5 -52.5t50.5 -13.5q35 0 49.5 18.5t14.5 47.5v449h180v-449q0 -29 14.5 -47.5t49.5 -18.5q29 0 51 13.5t22 52.5v500q0 37 -24.5 57.5t-67.5 20.5h-45v157h51q59 0 76.5 41t17.5 96h185q0 -59 -22.5 -123.5t-63.5 -99.5q78 -57 78 -149 v-486q0 -84 -24 -131t-60.5 -70.5t-82.5 -29.5t-91 -6q-31 0 -58 8q-25 6 -50.5 20.5t-45.5 40.5q-20 -27 -47 -41t-49 -20q-29 -8 -58 -8q-45 0 -91 6t-83 29.5t-60.5 70.5t-23.5 131z" />
<glyph unicode="&#xe2d;" horiz-adv-x="815" d="M76 270v187h272v-158h-88v-43q0 -59 42 -84t101 -25t102.5 25t43.5 84v328q0 49 -44 61t-102 12q-57 0 -100 -12t-43 -61v-41h-184v41q0 133 87 189t240 56q154 0 242 -56t88 -189v-314q0 -145 -88 -212.5t-242 -67.5q-174 0 -250.5 74.5t-76.5 205.5z" />
<glyph unicode="&#xe2e;" horiz-adv-x="815" d="M76 270v187h272v-158h-88v-43q0 -59 42 -84t101 -25t102.5 25t43.5 84v328q0 49 -44 61t-102 12q-57 0 -100 -12t-43 -61v-41h-184v41q0 133 87 189t240 56h19.5t19.5 -2l240 107l51 -137l-80 -31q80 -63 80 -182v-314q0 -145 -88 -212.5t-242 -67.5q-174 0 -250.5 74.5 t-76.5 205.5z" />
<glyph unicode="&#xe2f;" horiz-adv-x="718" d="M31 741v78h184v-78q0 -25 3 -48t13.5 -41.5t33 -30t61.5 -11.5t62.5 12.5t33.5 32t13 44t3 49.5v71h185v-952h-185v616q-23 -20 -50.5 -25t-61.5 -5q-90 0 -147.5 20.5t-90.5 58t-45 91t-12 118.5z" />
<glyph unicode="&#xe30;" horiz-adv-x="532" d="M92 203v149h184v-73h166v-158h-272q-35 4 -56.5 25.5t-21.5 56.5zM92 545v149h184v-73h166v-158h-272q-35 4 -56.5 25.5t-21.5 56.5z" />
<glyph unicode="&#xe31;" d="M-518 993v244h184v-86h334v-158h-518z" />
<glyph unicode="&#xe32;" horiz-adv-x="641" d="M0 723q47 53 110.5 74.5t141.5 21.5q129 0 211 -63.5t82 -204.5v-551h-185v559q0 31 -11 50.5t-27.5 30.5t-36 14t-33.5 3q-25 0 -72 -7t-88 -46z" />
<glyph unicode="&#xe33;" horiz-adv-x="641" d="M-414 1100q0 68 46 115t114 47q66 0 112 -47.5t46 -114.5q0 -66 -46 -112t-112 -46q-68 0 -114 46t-46 112zM-297 1100q0 -16 12.5 -28.5t30.5 -12.5q16 0 28.5 12t12.5 29q0 18 -12.5 30.5t-28.5 12.5q-18 0 -30.5 -12.5t-12.5 -30.5zM0 723q47 53 110.5 74.5 t141.5 21.5q129 0 211 -63.5t82 -204.5v-551h-185v559q0 31 -11 50.5t-27.5 30.5t-36 14t-33.5 3q-25 0 -72 -7t-88 -46z" />
<glyph unicode="&#xe34;" d="M-696 993v158h600v-158h-600z" />
<glyph unicode="&#xe35;" d="M-696 993v158h415v94h185v-252h-600z" />
<glyph unicode="&#xe36;" d="M-696 993v158h336q6 55 46 93t97 38q59 0 102 -43t43 -102t-43 -101.5t-102 -42.5h-479zM-256 1137q0 -16 11.5 -27.5t27.5 -11.5t28.5 11t12.5 28q0 16 -12.5 28.5t-28.5 12.5t-27.5 -12.5t-11.5 -28.5z" />
<glyph unicode="&#xe37;" d="M-696 993v158h157v94h185v-94h73v94h185v-252h-600z" />
<glyph unicode="&#xe38;" d="M-317 -133h221v-277h-160v127h-61v150z" />
<glyph unicode="&#xe39;" d="M-537 -133h207v-158q0 -20 12.5 -23t22.5 -3t24.5 3t14.5 23v158h160v-123q0 -43 -6.5 -79t-27 -61.5t-59 -39t-106.5 -13.5q-57 0 -95 13.5t-60.5 36t-32 52.5t-9.5 64h-45v150z" />
<glyph unicode="&#xe3a;" d="M-297 -233q0 41 29.5 70.5t70.5 29.5t71 -30t30 -70q0 -41 -30 -71t-71 -30t-70.5 30t-29.5 71z" />
<glyph unicode="&#xe3b;" />
<glyph unicode="&#xe3c;" />
<glyph unicode="&#xe3d;" />
<glyph unicode="&#xe3e;" />
<glyph unicode="&#xe3f;" horiz-adv-x="980" d="M113 0v1024h290v123h185v-123h33q133 0 195.5 -73.5t62.5 -229.5q0 -72 -13.5 -124t-54.5 -87q41 -35 54.5 -86t13.5 -123q0 -156 -62.5 -228.5t-195.5 -72.5h-33v-113h-185v113h-290zM297 158h106v274h-106v-274zM297 590h106v262h-106v-262zM588 158h33q49 0 61 41 t12 98q0 55 -10 93t-53 42h-43v-274zM588 590h33q49 0 61 36t12 95q0 57 -12 94t-61 37h-33v-262z" />
<glyph unicode="&#xe40;" horiz-adv-x="376" d="M96 0v819h185v-819h-185z" />
<glyph unicode="&#xe41;" horiz-adv-x="745" d="M102 0v819h185v-819h-185zM465 0v819h184v-819h-184z" />
<glyph unicode="&#xe42;" horiz-adv-x="378" d="M0 1083q0 31 3 64t21.5 60.5t59.5 46t115 18.5h270v-158h-246q-29 0 -34 -17.5t-5 -23.5q0 -35 18.5 -60.5t42 -52t42 -57.5t18.5 -76v-827h-184v827q0 31 -18.5 55.5t-42 52.5t-42 61.5t-18.5 86.5z" />
<glyph unicode="&#xe43;" horiz-adv-x="413" d="M-76 1155q88 117 238 117q63 0 107 -17.5t70 -46t37 -65.5t11 -74q0 -49 -10 -82t-22.5 -59.5t-25 -56t-16.5 -72.5v-799h-184v799q0 45 11.5 76.5t25.5 57t25.5 53.5t11.5 69q0 33 -15.5 46t-33.5 13q-20 0 -50 -14.5t-71 -55.5z" />
<glyph unicode="&#xe44;" horiz-adv-x="364" d="M-66 1114v158h261q74 0 114.5 -18.5t59 -46t21.5 -60.5t3 -64q0 -53 -18.5 -86.5t-42 -61.5t-42 -52.5t-18.5 -55.5v-827h-184v827q0 45 18.5 76t42 57.5t42 52t18.5 60.5q0 6 -5 23.5t-34 17.5h-236z" />
<glyph unicode="&#xe45;" horiz-adv-x="641" d="M0 723q47 53 110.5 74.5t141.5 21.5q129 0 211 -63.5t82 -204.5v-952h-185v960q0 31 -11 50.5t-27.5 30.5t-36 14t-33.5 3q-25 0 -72 -7t-88 -46z" />
<glyph unicode="&#xe46;" horiz-adv-x="765" d="M80 377v160q0 68 7 116.5t28.5 83.5t61.5 57.5t106 34.5l88 -55l88 55q51 -10 91 -27.5t66.5 -45t40 -68.5t13.5 -98v-723h-185v735q0 23 -5 36t-23 19l-86 -43l-82 43q-18 -6 -23.5 -19t-5.5 -36v-67h94v-158h-274z" />
<glyph unicode="&#xe47;" d="M-637 1208q0 57 9.5 95t28.5 58.5t53 29t83 8.5h414v-158h-385q-8 0 -18.5 -3t-10.5 -21v-46q0 -23 21 -34l75 51l84 -51q10 6 18.5 17t8.5 46h160q0 -59 -11.5 -95t-34 -58.5t-59.5 -34t-86 -19.5l-78 47l-77 -47q-51 10 -88 24.5t-60.5 39t-35 60.5t-11.5 91z" />
<glyph unicode="&#xe48;" d="M-264 1317v268h168v-268h-168z" />
<glyph unicode="&#xe49;" d="M-522 1427v158h241v-110h185v-158h-344v110h-82z" />
<glyph unicode="&#xe4a;" d="M-596 1317v133q0 57 10.5 96t33 63.5t59 40t90.5 25.5l55 -39l55 39q51 -10 89 -24.5t61.5 -40t35 -66.5t11.5 -104h37v-123h-205v166q0 14 -8.5 22t-16.5 13l-59 -37l-51 37q-8 -4 -16.5 -12.5t-8.5 -22.5v-43h76v-123h-248z" />
<glyph unicode="&#xe4b;" d="M-344 1405v143h88v92h160v-92h88v-143h-88v-88h-160v88h-88z" />
<glyph unicode="&#xe4c;" d="M-465 1317v231h399v-157h-215v-74h-184z" />
<glyph unicode="&#xe4d;" d="M-414 1100q0 68 46 115t114 47q66 0 112 -47.5t46 -114.5q0 -66 -46 -112t-112 -46q-68 0 -114 46t-46 112zM-297 1100q0 -16 12.5 -28.5t30.5 -12.5q16 0 28.5 12t12.5 29q0 18 -12.5 30.5t-28.5 12.5q-18 0 -30.5 -12.5t-12.5 -30.5z" />
<glyph unicode="&#xe4e;" />
<glyph unicode="&#xe4f;" horiz-adv-x="915" d="M113 430q0 74 26.5 137.5t72.5 110.5t108.5 73.5t134.5 26.5q74 0 137 -26.5t110.5 -73.5t74 -110.5t26.5 -137.5q0 -72 -26.5 -134.5t-74 -108.5t-111 -72.5t-136.5 -26.5q-72 0 -134.5 26.5t-108.5 72.5t-72.5 108.5t-26.5 134.5zM160 430q0 -61 22.5 -115.5 t62.5 -94.5t94.5 -62.5t115.5 -22.5q63 0 117.5 22.5t95.5 62.5t64.5 94.5t23.5 115.5q0 63 -23.5 117.5t-64.5 95.5t-95.5 64.5t-117.5 23.5q-61 0 -115.5 -23.5t-94.5 -64.5t-62.5 -95t-22.5 -118zM252 430q0 86 58.5 145.5t144.5 59.5q41 0 77.5 -16.5t64.5 -44t43 -64.5 t15 -80q0 -84 -58 -142.5t-142 -58.5q-86 0 -144.5 58.5t-58.5 142.5z" />
<glyph unicode="&#xe50;" horiz-adv-x="829" d="M82 264v117q0 141 90 207.5t244 66.5q168 0 250 -72.5t82 -201.5v-117q0 -141 -91.5 -207.5t-240.5 -66.5q-170 0 -252 72.5t-82 201.5zM266 254q0 -57 45 -82t105 -25q57 0 102 25t45 82v123q0 57 -45 81.5t-102 24.5q-59 0 -104.5 -24.5t-45.5 -81.5v-123z" />
<glyph unicode="&#xe51;" horiz-adv-x="782" d="M31 354v29q0 145 90 212t244 67q170 0 252.5 -75t82.5 -204v-107q0 -186 -81.5 -270t-235.5 -84q-23 0 -53.5 2t-63.5 6t-63.5 10.5t-55.5 14.5l48 147q53 -16 103 -19t85 -3q27 0 51.5 5t43 20.5t28.5 43t10 72.5v154q0 59 -46 83.5t-105 24.5t-104.5 -24.5t-45.5 -83.5 v-21q0 -39 38 -45t109 -6v-158q-94 0 -157.5 10.5t-102.5 34t-55 63.5t-16 101z" />
<glyph unicode="&#xe52;" horiz-adv-x="950" d="M82 274v529h184v-529q0 -45 8.5 -79.5t55.5 -34.5h291q45 0 54 34.5t9 79.5v154q0 41 -29 53l-69 -45l-84 47q-29 -12 -29 -53v-96h-164v43q0 84 16.5 136t44 82t63.5 44t73 23l76 -54l65 54q104 -20 162.5 -83t58.5 -178v-127q0 -45 -4 -93t-23.5 -88t-62.5 -66.5 t-121 -26.5h-366q-78 0 -120 26.5t-61.5 66.5t-23.5 88t-4 93z" />
<glyph unicode="&#xe53;" horiz-adv-x="833" d="M82 272v148q0 115 56.5 168t158.5 74l119 -62l129 62q98 -20 152.5 -75t54.5 -167v-420h-185v428q0 47 -28 55l-123 -49l-119 51q-31 -10 -31 -57v-156q0 -43 6.5 -78.5t42.5 -35.5h78v-158h-102q-78 0 -120 26.5t-61.5 66.5t-23.5 88t-4 91z" />
<glyph unicode="&#xe54;" horiz-adv-x="847" d="M82 264v117q0 143 73.5 208.5t225.5 65.5h104q45 0 80 6.5t35 45.5v81h184v-108q0 -72 -29.5 -112t-74.5 -58t-97.5 -22.5t-97.5 -4.5h-104q-55 0 -85 -23.5t-30 -82.5v-113q0 -117 115 -117q31 0 59.5 6.5t44.5 14.5q-12 25 -14 54.5t-2 58.5v127h270v-158h-86 q4 -37 30 -68.5t103 -34.5v-157q-88 0 -138 11t-85 34q-29 -25 -73 -35t-109 -10q-84 0 -141.5 19.5t-92 55t-50 86t-15.5 113.5z" />
<glyph unicode="&#xe55;" horiz-adv-x="847" d="M82 264v117q0 217 182 262q-25 33 -24 82q0 63 43 107.5t106 44.5t107.5 -44.5t44.5 -107.5q0 -37 -17 -70q33 2 54.5 12.5t21.5 39.5v81h184v-108q0 -72 -29.5 -112t-74.5 -58t-97.5 -22.5t-97.5 -4.5h-104q-55 0 -85 -23.5t-30 -82.5v-113q0 -117 115 -117 q31 0 59.5 6.5t44.5 14.5q-12 25 -14 54.5t-2 58.5v127h270v-158h-86q4 -37 30 -68.5t103 -34.5v-157q-88 0 -138 11t-85 34q-29 -25 -73 -35t-109 -10q-84 0 -141.5 19.5t-92 55t-50 86t-15.5 113.5zM352 727q0 -16 11.5 -26.5t25.5 -10.5q16 0 27.5 10.5t11.5 26.5 q0 14 -11.5 25.5t-27.5 11.5q-14 0 -25.5 -11.5t-11.5 -25.5z" />
<glyph unicode="&#xe56;" horiz-adv-x="806" d="M41 803h186l39 -185q41 33 91.5 38.5t72.5 5.5q154 0 224.5 -82t70.5 -230v-82q0 -66 -13.5 -117t-45 -86.5t-87 -55t-141.5 -19.5q-123 0 -189.5 23.5t-98 66.5t-36.5 102.5t-5 130.5h184v-57q0 -29 5 -49.5t20.5 -33.5t44 -19.5t75.5 -6.5q53 0 78 25t25 84v113 q0 115 -111 114q-12 0 -31.5 -1t-41 -7t-42 -19.5t-32.5 -37.5h-158z" />
<glyph unicode="&#xe57;" horiz-adv-x="1087" d="M82 272v148q0 115 56.5 168t158.5 74l119 -62l129 62q98 -20 152.5 -75t54.5 -167v-273q45 0 57 16.5t12 51.5v588h185v-570q0 -47 -8.5 -89t-34 -74.5t-72.5 -51t-125 -18.5h-199v428q0 47 -28 55l-123 -49l-119 51q-31 -10 -31 -57v-156q0 -43 6.5 -78.5t42.5 -35.5h78 v-158h-102q-78 0 -120 26.5t-61.5 66.5t-23.5 88t-4 91z" />
<glyph unicode="&#xe58;" horiz-adv-x="843" d="M82 246v135q0 143 71.5 208.5t225.5 65.5h104q45 0 80 6.5t35 45.5v81h184v-108q0 -72 -29.5 -112t-74.5 -58t-97.5 -22.5t-97.5 -4.5h-104q-55 0 -86 -24.5t-31 -81.5v-158q0 -23 12.5 -44t30.5 -28l105 60l114 -60q12 6 16.5 28t4.5 44v31h-86v158h268v-164 q0 -129 -46 -184.5t-155 -69.5l-116 57l-103 -57q-109 14 -167 70.5t-58 185.5z" />
<glyph unicode="&#xe59;" horiz-adv-x="847" d="M82 272v154q0 117 65.5 173t174.5 56q41 0 86 -12t73 -39q23 51 125 51q35 0 46.5 3.5t11.5 23.5v106h184v-106q0 -74 -21.5 -113t-51.5 -57t-61.5 -21.5t-54.5 -3.5q-29 0 -51 -8t-22 -35q0 -6 4 -22q25 -70 53.5 -171t69.5 -251h-168q-47 166 -81 262t-58.5 145.5 t-44 62.5t-39.5 13q-37 0 -46.5 -18.5t-9.5 -42.5v-150q0 -43 6.5 -78.5t42.5 -35.5h78v-158h-102q-78 0 -120 26.5t-61.5 66.5t-23.5 88t-4 91z" />
<glyph unicode="&#xe5a;" horiz-adv-x="1005" d="M31 741v78h184v-78q0 -25 3 -48t13.5 -41.5t33 -30t61.5 -11.5t62.5 12.5t33.5 32t13 44t3 49.5v71h185v-952h-185v616q-23 -20 -50.5 -25t-61.5 -5q-90 0 -147.5 20.5t-90.5 58t-45 91t-12 118.5zM725 -133v952h184v-952h-184z" />
<glyph unicode="&#xe5b;" />
<glyph unicode="&#x2000;" horiz-adv-x="837" />
<glyph unicode="&#x2001;" horiz-adv-x="1675" />
<glyph unicode="&#x2002;" horiz-adv-x="837" />
<glyph unicode="&#x2003;" horiz-adv-x="1675" />
<glyph unicode="&#x2004;" horiz-adv-x="558" />
<glyph unicode="&#x2005;" horiz-adv-x="418" />
<glyph unicode="&#x2006;" horiz-adv-x="279" />
<glyph unicode="&#x2007;" horiz-adv-x="279" />
<glyph unicode="&#x2008;" horiz-adv-x="209" />
<glyph unicode="&#x2009;" horiz-adv-x="335" />
<glyph unicode="&#x200a;" horiz-adv-x="93" />
<glyph unicode="&#x200b;" />
<glyph unicode="&#x2010;" horiz-adv-x="876" d="M113 330v157h651v-157h-651z" />
<glyph unicode="&#x2011;" horiz-adv-x="876" d="M113 330v157h651v-157h-651z" />
<glyph unicode="&#x2012;" horiz-adv-x="876" d="M113 330v157h651v-157h-651z" />
<glyph unicode="&#x2013;" horiz-adv-x="1028" d="M113 330v157h802v-157h-802z" />
<glyph unicode="&#x2014;" horiz-adv-x="1185" d="M113 330v157h960v-157h-960z" />
<glyph unicode="&#x2018;" horiz-adv-x="499" d="M113 821l137 281h137l-94 -281h-180z" />
<glyph unicode="&#x2019;" horiz-adv-x="499" d="M113 821l94 281h180l-137 -281h-137z" />
<glyph unicode="&#x2022;" horiz-adv-x="616" d="M143 416q0 70 48.5 118t115.5 48q35 0 64.5 -14.5t52 -39t36 -56.5t13.5 -64q0 -66 -48 -111t-118 -45q-68 0 -116 48t-48 116z" />
<glyph unicode="&#x2026;" horiz-adv-x="1239" d="M113 90q0 43 28.5 73t71.5 30t72.5 -30t29.5 -73t-29.5 -71.5t-72.5 -28.5t-71.5 28.5t-28.5 71.5zM518 90q0 43 28.5 73t71.5 30t73 -30t30 -73t-29.5 -71.5t-73.5 -28.5q-43 0 -71.5 28.5t-28.5 71.5zM924 90q0 43 28.5 73t71.5 30t72.5 -30t29.5 -73t-29.5 -71.5 t-72.5 -28.5t-71.5 28.5t-28.5 71.5z" />
<glyph unicode="&#x202f;" horiz-adv-x="335" />
<glyph unicode="&#x205f;" horiz-adv-x="418" />
<glyph unicode="&#x25cc;" horiz-adv-x="1048" />
<glyph unicode="&#x25fc;" horiz-adv-x="819" d="M0 0v819h819v-819h-819z" />
<glyph unicode="&#xf700;" horiz-adv-x="804" d="M66 516v68q0 133 88 189t241 56h18.5t18.5 -2l240 107l51 -137l-80 -31q80 -63 80 -182v-336q0 -106 -62.5 -177t-166.5 -71h-215l-48 258h-86v158h248l41 -258h58q29 2 36 23.5t11 51.5v351q0 49 -44 61t-100 12q-59 0 -102 -12t-43 -61v-68h-184z" />
<glyph unicode="&#xf701;" d="M-819 993v158h487v-158h-487z" />
<glyph unicode="&#xf702;" d="M-819 993v158h303v94h184v-252h-487z" />
<glyph unicode="&#xf703;" d="M-819 993v158h219q6 55 46 93t97 38q59 0 102.5 -43t43.5 -102t-43 -101.5t-103 -42.5h-362zM-496 1137q0 -16 11.5 -27.5t27.5 -11.5t28.5 11t12.5 28q0 16 -12 28.5t-29 12.5q-16 0 -27.5 -12.5t-11.5 -28.5z" />
<glyph unicode="&#xf704;" d="M-834 993v158h86v94h175v-94h57v94h184v-252h-502z" />
<glyph unicode="&#xf705;" d="M-518 993v252h160v-252h-160z" />
<glyph unicode="&#xf706;" d="M-784 1104v158h241v-111h185v-158h-344v111h-82z" />
<glyph unicode="&#xf707;" d="M-848 993v133q0 57 10.5 96.5t33 64t59 39.5t90.5 26l55 -39l55 39q51 -10 89 -24.5t61.5 -40t35 -66.5t11.5 -105h37v-123h-215v166q0 27 -15 35l-59 -37l-51 37q-14 -8 -15 -35v-43h66v-123h-248z" />
<glyph unicode="&#xf708;" d="M-694 1081v144h88v92h160v-92h88v-144h-88v-88h-160v88h-88z" />
<glyph unicode="&#xf709;" d="M-758 993v232h400v-158h-215v-74h-185z" />
<glyph unicode="&#xf70a;" d="M-256 993v252h160v-252h-160z" />
<glyph unicode="&#xf70b;" d="M-522 1104v158h241v-111h185v-158h-344v111h-82z" />
<glyph unicode="&#xf70c;" d="M-623 993v133q0 57 11.5 96.5t35 64t61.5 39.5t91 26l66 -39l65 39q51 -10 89 -24.5t61.5 -40t35 -66.5t11.5 -105h65v-123h-237v166q0 25 -17 35l-73 -37l-66 37q-16 -10 -16 -35v-43h65v-123h-248z" />
<glyph unicode="&#xf70d;" d="M-344 1081v144h88v92h160v-92h88v-144h-88v-88h-160v88h-88z" />
<glyph unicode="&#xf70e;" d="M-465 993v232h399v-158h-215v-74h-184z" />
<glyph unicode="&#xf70f;" horiz-adv-x="1257" d="M90 0v666q41 61 88 94t92 48t82 18t58 3q123 0 189.5 -39.5t98 -90t37.5 -94.5t6 -52v-289q0 -117 119 -117q61 0 89 29t28 88v555h184v-540q0 -82 -21.5 -137.5t-60.5 -89.5t-94 -48t-125 -14q-68 0 -124 14t-96 48t-61.5 89.5t-21.5 137.5v274q0 39 -21.5 60.5 t-47 30.5t-49 11t-29.5 2q-41 0 -67 -10t-42 -20q-18 -12 -27 -29v-451h86v-147h-270z" />
<glyph unicode="&#xf710;" d="M-758 993v244h185v-86h231v-158h-416z" />
<glyph unicode="&#xf711;" d="M-676 1100q0 68 46 115t114 47q66 0 112 -47.5t46 -114.5q0 -66 -46.5 -112t-111.5 -46q-68 0 -114 46t-46 112zM-559 1100q0 -16 12.5 -28.5t30.5 -12.5q16 0 28.5 12t12.5 29q0 18 -12.5 30.5t-28.5 12.5q-18 0 -30.5 -12.5t-12.5 -30.5z" />
<glyph unicode="&#xf712;" d="M-854 1208q0 57 9 95t28.5 58.5t53.5 29t83 8.5h414v-158h-385q-8 0 -18.5 -3t-10.5 -21v-46q0 -23 21 -34l75 51l84 -51q10 6 18.5 17t8.5 46h160q0 -59 -11.5 -95t-34 -58.5t-59.5 -34t-86 -19.5l-78 47l-77 -47q-51 10 -88 24.5t-60.5 39t-35 60.5t-11.5 91z" />
<glyph unicode="&#xf713;" d="M-500 1317v268h168v-268h-168z" />
<glyph unicode="&#xf714;" d="M-758 1427v158h242v-110h184v-158h-344v110h-82z" />
<glyph unicode="&#xf715;" d="M-831 1317v133q0 57 10 96t32.5 63.5t59.5 40t90 25.5l55 -39l56 39q51 -10 89 -24.5t61.5 -40t34.5 -66.5t11 -104h37v-123h-205v166q0 14 -8 22t-16 13l-60 -37l-51 37q-8 -4 -16 -12.5t-8 -22.5v-43h75v-123h-247z" />
<glyph unicode="&#xf716;" d="M-580 1405v143h88v92h160v-92h88v-143h-88v-88h-160v88h-88z" />
<glyph unicode="&#xf717;" d="M-702 1317v231h399v-157h-215v-74h-184z" />
<glyph unicode="&#xf718;" d="M-317 -498h221v-276h-160v127h-61v149z" />
<glyph unicode="&#xf719;" d="M-537 -498h207v-157q0 -20 12.5 -23.5t22.5 -3.5t24.5 3t14.5 24v157h160v-123q0 -43 -6.5 -78.5t-27 -61t-59 -39t-106.5 -13.5q-57 0 -95 13.5t-60.5 36t-32 52t-9.5 64.5h-45v149z" />
<glyph unicode="&#xf71a;" d="M-297 -598q0 41 29.5 70.5t70.5 29.5t71 -29.5t30 -70.5t-30 -70.5t-71 -29.5t-70.5 29.5t-29.5 70.5z" />
<glyph unicode="&#xf71d;" horiz-adv-x="1015" d="M96 227v541h185v-555q0 -39 22.5 -52.5t50.5 -13.5q35 0 49.5 18.5t14.5 47.5v231h180v-231q0 -29 14.5 -47.5t49.5 -18.5q29 0 51 13.5t22 52.5v233q0 37 -24.5 57.5t-67.5 20.5h-45v158h51q59 0 76.5 41t17.5 96h185q0 -59 -22.5 -123.5t-63.5 -99.5q78 -57 78 -150 v-219q0 -84 -24 -131t-60.5 -70.5t-82.5 -29.5t-91 -6q-31 0 -58 8q-25 6 -50.5 20.5t-45.5 40.5q-20 -27 -47 -41t-49 -20q-29 -8 -58 -8q-45 0 -91 6t-83 29.5t-60.5 70.5t-23.5 131z" />
<glyph horiz-adv-x="641" d="M-676 1100q0 68 46 115t114 47q66 0 112 -47.5t46 -114.5q0 -66 -46.5 -112t-111.5 -46q-68 0 -114 46t-46 112zM-559 1100q0 -16 12.5 -28.5t30.5 -12.5q16 0 28.5 12t12.5 29q0 18 -12.5 30.5t-28.5 12.5q-18 0 -30.5 -12.5t-12.5 -30.5zM0 723q47 53 110.5 74.5 t141.5 21.5q129 0 211 -63.5t82 -204.5v-551h-185v559q0 31 -11 50.5t-27.5 30.5t-36 14t-33.5 3q-25 0 -72 -7t-88 -46z" />
<glyph />
<glyph />
<glyph />
<glyph horiz-adv-x="1257" d="M113 514q0 109 41 203t110.5 164.5t163 111.5t199.5 41q109 0 203 -41t164.5 -111.5t111.5 -164.5t41 -203q0 -106 -41 -199.5t-111.5 -163t-165 -110.5t-202.5 -41q-106 0 -199.5 41t-163 110.5t-110.5 163t-41 199.5zM348 373q0 -86 58.5 -137.5t150.5 -51.5 q23 0 45.5 1t42.5 5v111l-12 8q-14 -6 -24.5 -7t-22.5 -1q-33 0 -62.5 18.5t-29.5 65.5q0 16 7 27.5t31.5 19.5t70.5 16.5t122 20.5v-145q0 -74 20.5 -107t81.5 -33h19q29 0 47 11.5t18 44.5q0 35 -11 48t-38 13v272q0 53 -19.5 88t-45.5 58q10 4 19 4h20h19t19 -4h23v133 q-63 -8 -125.5 -23.5t-109.5 -42.5q-18 4 -35 4.5t-41 0.5q-47 0 -90 -6.5t-90 -22.5v-129h12q39 12 81 22.5t74 10.5q18 0 44 -1t50.5 -9.5t41 -27t16.5 -50.5l-168 -17q-37 -4 -74 -12t-67.5 -28.5t-49 -55.5t-18.5 -92z" />
</font>
</defs>
</svg>
