<?xml version="1.0" standalone="no"?>
<!DOCTYPE svg PUBLIC "-//W3C//DTD SVG 1.1//EN" "http://www.w3.org/Graphics/SVG/1.1/DTD/svg11.dtd" >
<svg xmlns="http://www.w3.org/2000/svg">
<metadata></metadata>
<defs>
<font id="rsuregular" horiz-adv-x="0" >
<font-face units-per-em="2048" ascent="1638" descent="-410" />
<missing-glyph horiz-adv-x="569" />
<glyph unicode="&#xe2f;&#xe2f;" horiz-adv-x="1024" />
<glyph unicode="&#xe4f;&#x22;" horiz-adv-x="1064" d="M203 410q0 70 26.5 130t72.5 105t106.5 71.5t130.5 26.5t130 -26.5t105 -71.5t71.5 -105t26.5 -130t-26.5 -131.5t-71.5 -107.5t-105.5 -72.5t-129.5 -26.5q-70 0 -130.5 26.5t-106.5 72.5t-72.5 107.5t-26.5 131.5zM256 410q0 -59 21.5 -111.5t60.5 -90.5t90 -60.5 t111 -22.5q59 0 110 22.5t90 60.5t60.5 90.5t21.5 111.5q0 57 -21.5 109t-60.5 90t-90 60.5t-110 22.5t-110.5 -22.5t-90.5 -60.5t-60.5 -90t-21.5 -109zM344 408q0 41 15.5 76.5t42 61t61.5 41t74 15.5q41 0 76.5 -15.5t61 -42t41 -61t15.5 -73.5q0 -41 -15.5 -77 t-42 -61.5t-61 -41t-73.5 -15.5q-41 0 -77 15.5t-61.5 42t-41 61.5t-15.5 74z" />
<glyph unicode="&#xe24;&#xe32;" horiz-adv-x="1873" d="M113 27v888q0 27 24 37q80 41 175.5 65.5t195.5 29.5q131 0 221 -33t145.5 -84t79 -113.5t23.5 -122.5v-1075q0 -27 -27 -27h-108q-10 0 -18.5 5.5t-8.5 21.5v1045q0 72 -28.5 115.5t-71.5 67t-91.5 32t-84.5 8.5q-98 0 -165 -19.5t-85 -29.5q-10 -6 -13.5 -15.5 t-3.5 -17.5v-619q0 -27 27 -26h70q27 0 22 -25l-16 -108q-4 -27 -31 -27h-207q-25 0 -24 27zM1062 946q1 10 11 19q39 20 90 39q43 16 102.5 28t131.5 12q119 0 193.5 -32.5t116.5 -83.5t57.5 -110.5t15.5 -115.5v-1085q0 -27 -27 -27h-102q-25 0 -25 27v1102 q0 63 -25.5 101t-64.5 57.5t-86 25.5t-90 6q-41 2 -81 -6t-69 -18q-37 -12 -65 -27q-23 -10 -39 10l-41 60q-4 8 -3 18z" />
<glyph unicode="&#xe26;&#xe32;" horiz-adv-x="1871" d="M2 133q-4 27 23 27h69q27 0 27 26v729q0 27 24 37q80 41 175.5 66t195.5 29q131 0 221 -33t145.5 -84t79 -113.5t23.5 -122.5v-1075q0 -27 -24 -27h-111q-10 0 -18.5 5.5t-8.5 21.5v1045q0 72 -28.5 115.5t-71.5 67t-91 32t-85 8.5q-98 0 -165 -19.5t-85 -29.5 q-10 -6 -13 -15.5t-3 -17.5v-778q0 -27 -27 -27h-205q-27 0 -31 27zM1062 946q1 10 11 19q39 20 90 39q43 16 102.5 28t131.5 12q119 0 193.5 -32.5t116.5 -83.5t57.5 -110.5t15.5 -115.5v-1085q0 -27 -27 -27h-102q-25 0 -25 27v1102q0 63 -25.5 101t-64.5 57.5t-86 25.5 t-90 6q-41 2 -81 -6t-69 -18q-37 -12 -65 -27q-23 -10 -39 10l-41 60q-4 8 -3 18z" />
<glyph unicode="fi" horiz-adv-x="821" d="M14 786v58q0 37 25 37h80q-10 18 -20.5 43.5t-8.5 89.5q0 41 11.5 77.5t37 64.5t66.5 44.5t100 16.5q53 0 89 -7.5t55 -13.5q6 -4 6 -23.5t-4.5 -43t-10.5 -41t-12 -17.5q-27 6 -38 8t-40 2q-33 0 -57.5 -18.5t-24.5 -71.5q0 -43 14.5 -65.5t32.5 -44.5h445 q31 0 36 -10.5t5 -39.5v-774q0 -33 -4 -45t-29 -12h-115q-23 0 -27.5 12.5t-4.5 44.5v697h-304v-701q0 -53 -36 -53h-101q-18 0 -31.5 9t-13.5 32v713h-86q-23 0 -29 7t-6 25zM621 1092v59q0 29 7 38t36 9h104q25 0 29 -13.5t4 -41.5v-56q0 -29 -6.5 -39t-26.5 -10h-109 q-25 0 -31.5 9.5t-6.5 44.5z" />
<glyph unicode="fl" horiz-adv-x="819" d="M16 766v55q0 35 27 35h82q-10 20 -21.5 53t-9.5 97q0 39 11.5 77.5t37 68.5t65.5 48.5t99 18.5q53 0 89 -7.5t57 -15.5q6 -2 6 -21.5t-5 -43t-11.5 -41t-12.5 -17.5q-25 6 -37 8t-39 2q-35 0 -58.5 -24.5t-23.5 -75.5q0 -43 13.5 -73.5t31.5 -51.5h111q27 0 32 -8t5 -25 v-57q0 -16 -6 -26.5t-31 -10.5h-106v-676q0 -55 -39 -55h-99q-18 0 -32.5 10t-14.5 33v688h-84q-23 0 -30 7t-7 28zM623 55v1119q0 23 7 34t32 11h104q29 0 33 -11.5t4 -38.5v-1112q0 -31 -4 -44t-27 -13h-108q-27 0 -34 10t-7 45z" />
<glyph unicode="&#xd;" horiz-adv-x="399" />
<glyph unicode=" "  horiz-adv-x="569" />
<glyph unicode="&#x09;" horiz-adv-x="569" />
<glyph unicode="&#xa0;" horiz-adv-x="569" />
<glyph unicode="!" horiz-adv-x="409" d="M100 41v86q0 16 6.5 27.5t28.5 11.5h131q31 0 39 -6t8 -29v-84q0 -23 -6 -35t-35 -12h-127q-33 0 -39 12.5t-6 28.5zM119 1059q0 27 5 41t34 14h96q29 0 36 -12t5 -39l-21 -688q0 -29 -6 -38t-22 -9h-64q-29 0 -35 8t-8 41z" />
<glyph unicode="&#x22;" horiz-adv-x="616" d="M88 1343q-4 29 1 41.5t28 12.5h102q27 0 34 -14.5t3 -43.5l-27 -366q-2 -29 -11 -36t-25 -7h-43q-16 0 -23.5 10t-11.5 43zM360 1341q-2 29 4.5 42.5t30.5 13.5h103q23 0 28.5 -12.5t3.5 -43.5l-28 -360q-2 -33 -11.5 -42t-23.5 -9h-41q-18 0 -26.5 8t-12.5 37z" />
<glyph unicode="#" horiz-adv-x="942" d="M4 386q-8 7 0 38l6 43q4 23 16.5 27t41.5 4h118l54 225h-127q-23 0 -32 7t-5 36l10 43q4 25 14.5 29t40.5 4h119l70 311q6 27 15 37t42 10h74q23 0 23.5 -10t-3.5 -39l-69 -309h215l71 313q4 25 12.5 35t37.5 10h67q29 0 34 -10t-1 -39l-68 -309h115q33 0 40 -7.5 t3 -29.5l-8 -45q-4 -23 -16.5 -30t-43.5 -7h-114l-51 -225h120q29 0 36 -6.5t3 -26.5l-6 -39q-6 -27 -18.5 -37t-42.5 -10h-115l-74 -330q-8 -33 -16 -41t-33 -8h-78q-23 0 -26.5 12.5t4.5 42.5l73 324h-217l-75 -332q-6 -31 -14.5 -39t-26.5 -8h-74q-25 0 -33 10t0 43 l74 326h-125q-29 0 -37 7zM338 498h215l53 225h-217z" />
<glyph unicode="$" horiz-adv-x="1003" d="M102.5 82q-0.5 27 5 55.5t13.5 51t18 20.5q16 -6 41 -15.5t60.5 -19.5t83 -17t108.5 -7q55 0 104.5 8t86 27.5t58 52t21.5 79.5q0 39 -11 70t-38.5 57.5t-71.5 51t-110 51.5t-125 57.5t-105 72.5t-74 99.5t-28 136.5q0 106 74 192.5t238 108.5v121q0 27 10 37t41 10h116 q23 0 26 -11t3 -40v-108q49 -2 83 -6.5t56.5 -9.5t37 -10t24.5 -9q12 -4 13 -28.5t-6 -52.5t-19.5 -49.5t-24.5 -19.5q-31 10 -96.5 23.5t-134.5 13.5q-133 0 -184.5 -44t-51.5 -118q0 -72 54.5 -114.5t172.5 -89.5q166 -66 253 -156t87 -225q0 -76 -23.5 -132.5 t-64.5 -96.5t-96 -64.5t-119 -34.5v-117q0 -29 -5 -37t-28 -8h-116q-25 0 -35 10.5t-10 42.5v95q-127 4 -202 24.5t-103 40.5q-6 4 -6.5 31zM449 -201h88h-88z" />
<glyph unicode="%" horiz-adv-x="1310" d="M104 795v192q0 115 64.5 172.5t173.5 57.5q39 0 79 -10.5t72.5 -36t52 -67.5t19.5 -106v-202q0 -59 -19.5 -98.5t-51 -63t-71.5 -33.5t-81 -10q-109 0 -173.5 50t-64.5 155zM238 809q0 -43 25.5 -70.5t78.5 -27.5q51 0 72.5 29.5t21.5 64.5v162q0 51 -20.5 88t-71.5 37 q-63 0 -84.5 -36t-21.5 -95v-152zM295 11.5q-6 11.5 10 41.5l572 1112q14 27 24 36t41 9h74q23 0 24.5 -10t-14.5 -39l-573 -1114q-14 -29 -23.5 -38t-30.5 -9h-71q-27 0 -33 11.5zM752 186v191q0 117 64.5 174t172.5 57q39 0 79 -10t73 -35.5t52 -67.5t19 -106v-203 q0 -59 -19 -98t-51 -62.5t-72 -33.5t-81 -10q-109 0 -173 50t-64 154zM885 201q0 -41 25.5 -70t76.5 -29q53 0 74.5 31t21.5 64v161q0 49 -20.5 86t-71.5 37q-63 0 -84.5 -35.5t-21.5 -93.5v-151z" />
<glyph unicode="&#x26;" horiz-adv-x="1105" d="M63 305q0 78 35 135.5t78 96.5q51 45 115 77q16 10 4 27q-31 29 -53 66q-20 31 -36 72.5t-16 90.5q0 61 24 110.5t62.5 83.5t91 52.5t111.5 18.5q53 0 102.5 -17.5t87.5 -49.5t60.5 -77t22.5 -102q0 -66 -35 -118t-76 -87q-49 -41 -109 -74q-14 -10 -4 -24l240 -262 q4 -6 8 -10.5t6 -6.5l4 4q2 2 3.5 4t5.5 7l39 47q10 16 26 4l70 -62q14 -10 4 -28l-49 -60q-10 -18 2 -30l162 -179q4 -4 3 -9t-12 -5h-139q-8 0 -18.5 4t-14.5 10l-75 78q-12 12 -29 4q-41 -33 -90 -57q-43 -23 -100.5 -39t-127.5 -16q-72 0 -140 20.5t-122.5 61t-87.5 101 t-33 138.5zM227 317q0 -47 18.5 -83.5t50.5 -62.5t73 -39t86 -13q33 0 69.5 11t69.5 26q37 16 74 39q14 10 4 24l-264 297q-12 16 -29 4q-43 -27 -76 -59q-29 -29 -52.5 -66t-23.5 -78zM336 877q0 -29 13 -59t30 -54q20 -29 45 -55q12 -12 31 -7q41 25 75 56 q29 27 53.5 59.5t24.5 71.5q0 57 -39 91t-94 34q-59 0 -99 -38t-40 -99z" />
<glyph unicode="'" horiz-adv-x="385" d="M106 1346q0 29 4.5 40t26.5 11h101q29 0 35 -13.5t6 -44.5l-29 -366q-4 -27 -12.5 -35t-24.5 -8h-41q-16 0 -24.5 10t-12.5 45z" />
<glyph unicode="(" horiz-adv-x="507" d="M117 514q0 121 21.5 231.5t55 202.5t74.5 162t82 109q8 10 36 4t54.5 -19.5t44 -30t7.5 -26.5q-33 -35 -70 -102.5t-67.5 -153.5t-50 -184.5t-19.5 -192.5q0 -102 20.5 -202.5t50 -184.5t63.5 -148.5t62 -95.5q10 -12 -7 -28.5t-45 -30.5t-54.5 -21.5t-34.5 2.5 q-35 37 -74 106t-71.5 161t-55 203.5t-22.5 238.5z" />
<glyph unicode=")" horiz-adv-x="516" d="M29 1147q-10 10 7 26.5t43.5 30t53.5 19.5t37 -4q39 -39 81 -109t75.5 -162t55 -202.5t21.5 -231.5q0 -127 -22.5 -238.5t-55 -203.5t-72.5 -161t-73 -106q-8 -10 -34.5 -2.5t-54.5 21.5t-45 30.5t-7 28.5q29 31 62.5 95.5t63.5 148.5t50.5 184.5t20.5 202.5 q0 94 -19.5 192.5t-50.5 184.5t-68 153.5t-69 102.5z" />
<glyph unicode="*" horiz-adv-x="614" d="M25 977q-7 6 0 22l22 74q8 23 20.5 24t34.5 -10l158 -65l-14 172q-2 25 2 34t20 9h76q23 0 29 -11.5t4 -35.5l-17 -172l164 69q20 10 30.5 9.5t14.5 -17.5l25 -75q6 -23 -3 -31t-34 -12l-166 -41l115 -129q16 -18 18 -27.5t-14 -20.5l-61 -49q-18 -12 -28.5 -6t-25.5 29 l-88 147l-90 -149q-23 -39 -43 -21l-63 45q-16 14 -14.5 25.5t18.5 30.5l112 131l-170 39q-25 6 -32 12z" />
<glyph unicode="+" horiz-adv-x="1003" d="M104 537v75q0 29 10.5 34t39.5 5h268v271q0 25 7 36t32 11h76q29 0 33.5 -10.5t4.5 -38.5v-269h265q31 0 44 -4t13 -26v-82q0 -25 -14.5 -30t-46.5 -5h-261v-268q0 -33 -5 -45.5t-27 -12.5h-80q-29 0 -35 13.5t-6 46.5v266h-277q-25 0 -33 6t-8 27z" />
<glyph unicode="," horiz-adv-x="448" d="M92 -150q12 31 24.5 66t23 71t16.5 70.5t8 63.5q2 39 31 39h124q29 0 35 -9.5t2 -25.5q-23 -98 -80 -178t-129 -129q-10 -8 -21 -7t-20.5 7t-13.5 15t0 17z" />
<glyph unicode="-" horiz-adv-x="661" d="M37 498v80q0 29 11 32.5t40 3.5h469q33 0 47 -4t14 -26v-80q0 -27 -11 -34t-50 -7h-475q-45 0 -45 35z" />
<glyph unicode="." horiz-adv-x="448" d="M117 53v88q0 16 8 30.5t25 14.5h133q35 0 43 -10t8 -29v-88q0 -23 -4 -41t-35 -18h-127q-31 0 -41 15.5t-10 37.5z" />
<glyph unicode="/" horiz-adv-x="632" d="M8 10q-6 10 8 39l418 1034q10 25 20.5 34t41.5 9h104q23 0 23 -9t-11 -36l-419 -1038q-12 -29 -21.5 -36t-30.5 -7h-102q-25 0 -31 10z" />
<glyph unicode="0" horiz-adv-x="1046" d="M150 328v438q0 113 28.5 186.5t81.5 116.5t127 60.5t164 17.5q76 0 144.5 -15.5t120.5 -55.5t82 -110.5t30 -181.5v-422q0 -123 -32 -196.5t-84 -113.5t-119.5 -52t-141.5 -12q-72 0 -143.5 13t-129 50t-93 103.5t-35.5 173.5zM328 338q0 -109 62.5 -155t156.5 -46 q49 0 88 10.5t65.5 36t40 69.5t13.5 112v380q0 135 -45 192.5t-156 57.5q-72 0 -116 -15t-68.5 -48t-32.5 -81t-8 -116v-397z" />
<glyph unicode="1" horiz-adv-x="614" d="M123 954v66q0 18 10 27.5t43 19.5l107 39q29 10 40 13t31 3h97q27 0 29.5 -12t2.5 -41v-1022q0 -29 -4.5 -38t-27.5 -9h-109q-23 0 -30 12.5t-7 40.5v840q0 18 -6 25.5t-25 7.5h-116q-23 0 -29 14q-6 6 -6 14z" />
<glyph unicode="2" horiz-adv-x="1046" d="M143 37v74q0 92 30 167.5t76 135t102.5 102.5t107.5 72q49 27 95 56.5t83 61t59.5 63.5t22.5 67q0 78 -54.5 117.5t-158.5 39.5q-100 0 -162.5 -29.5t-97.5 -50.5q-10 -6 -23.5 13.5t-23 47t-11.5 54.5t9 33q18 10 45.5 23.5t68.5 25.5t96.5 20.5t131.5 8.5 q170 0 269 -69t99 -210q0 -70 -31.5 -126t-81 -103t-110.5 -86t-123 -72q-39 -23 -75.5 -50.5t-64.5 -62t-46.5 -76.5t-20.5 -96q0 -23 10.5 -28.5t34.5 -5.5h457q29 0 40 -5.5t11 -21.5v-100q1 -27 -28 -27h-703q-10 0 -21.5 7t-11.5 30z" />
<glyph unicode="3" horiz-adv-x="1005" d="M146.5 92q0.5 25 9 50.5t19.5 45t22 15.5q53 -23 121.5 -43.5t150.5 -20.5q100 0 159.5 45t59.5 131q0 43 -19.5 78t-53 59.5t-80 38t-97.5 17.5q-23 2 -34 4t-11 25v67q0 23 14.5 27t36.5 6q111 6 176.5 56t65.5 147q0 72 -59.5 119t-173.5 47q-66 0 -124.5 -20.5 t-101.5 -51.5q-10 -6 -20 11.5t-17.5 43t-9.5 50t6 30.5q18 14 42 27.5t59 25t83 18.5t113 7q180 0 274.5 -74t94.5 -207q0 -121 -59.5 -196.5t-151.5 -98.5q98 -29 158.5 -97t60.5 -179q0 -78 -28.5 -135.5t-77.5 -95t-113.5 -57t-138.5 -19.5q-119 0 -211 24.5t-135 48.5 q-10 6 -9.5 31z" />
<glyph unicode="4" horiz-adv-x="921" d="M70 244v71q0 18 4 30.5t12 27.5l471 696q8 14 22.5 32.5t34.5 18.5h105q23 0 24.5 -9t1.5 -30v-725h70q16 0 20.5 -5t4.5 -23v-72q0 -18 -5.5 -27.5t-21.5 -9.5h-68v-194q0 -14 -6 -19.5t-24 -5.5h-78q-23 0 -33 6t-10 25v188h-490q-18 0 -26 4t-8 21zM250 356h344v514z " />
<glyph unicode="5" horiz-adv-x="1003" d="M141 97.5q2 25.5 10.5 53t21.5 46t28 12.5q35 -16 102.5 -43t163.5 -27q106 0 158.5 58.5t52.5 136.5q0 72 -37 122t-109 85q-47 23 -118.5 39t-137.5 22q-27 4 -44 21.5t-17 50.5v418q0 23 11.5 29.5t23.5 6.5h571q29 0 29 -26v-101q0 -16 -11.5 -21t-39.5 -5h-379 q-27 0 -36 -6t-9 -29v-180q0 -12 7 -17.5t30 -9.5q63 -10 128.5 -29.5t116.5 -41.5q94 -43 155.5 -122t61.5 -208q0 -72 -28.5 -135.5t-78.5 -109.5t-122 -72.5t-158 -26.5t-146 10t-100 22.5t-62.5 25.5t-31.5 20q-8 6 -6 31.5z" />
<glyph unicode="6" horiz-adv-x="1026" d="M141 311v463q0 205 95.5 294t314.5 89q27 0 65.5 -4t77.5 -11t71 -14.5t46 -13.5q12 -6 12 -31.5t-6 -54.5t-17.5 -51.5t-23.5 -18.5q-10 2 -31.5 10.5t-52 16.5t-67.5 14.5t-74 6.5q-78 0 -124 -17.5t-69.5 -48.5t-31 -74t-7.5 -92v-43q0 -39 23 -20q41 27 92 45t119 18 q78 0 142.5 -21.5t110.5 -67.5t71.5 -117.5t25.5 -172.5q0 -92 -17.5 -164.5t-60.5 -124t-115 -79t-178 -27.5q-84 0 -154.5 18.5t-123.5 56.5t-83 96t-30 140zM319 348q0 -104 54.5 -150t156.5 -46q92 0 142.5 53t50.5 190q0 129 -49 179.5t-123 50.5q-78 0 -126 -18.5 t-83 -47.5q-23 -23 -23 -39v-172z" />
<glyph unicode="7" horiz-adv-x="1024" d="M143 997v86q0 20 6.5 28.5t28.5 8.5h664q39 0 48 -13t1 -40l-359 -1028q-6 -18 -14 -28.5t-24 -10.5h-109q-25 0 -35 6t0 31l316 893q10 35 -39 35h-453q-18 0 -24.5 12t-6.5 20z" />
<glyph unicode="8" horiz-adv-x="1024" d="M127 291q0 55 14.5 101t36 82t49 60.5t56.5 34.5q-53 25 -96.5 91.5t-43.5 164.5q0 68 23.5 127.5t70 103.5t114 69.5t153.5 25.5q100 0 173 -24.5t120 -68.5t69.5 -103.5t22.5 -127.5q0 -51 -15.5 -95t-38 -76.5t-52 -55t-56.5 -31.5q90 -31 136 -106.5t46 -175.5 q0 -72 -28.5 -127.5t-79.5 -92t-122 -55t-157 -18.5q-207 0 -301 78t-94 219zM299 317q0 -88 59.5 -132t163.5 -44q98 0 154.5 44t56.5 132q0 82 -57 139.5t-166 57.5q-55 0 -95 -16.5t-65.5 -43t-38 -62.5t-12.5 -75zM313 803q0 -74 54.5 -117t140.5 -43q98 0 154.5 44 t56.5 114q0 104 -57.5 153.5t-151.5 49.5q-90 0 -143.5 -50.5t-53.5 -150.5z" />
<glyph unicode="9" horiz-adv-x="1042" d="M143 750q0 90 17.5 163.5t60.5 125t114 79t177 27.5q84 0 155.5 -18.5t125 -56.5t83 -97.5t29.5 -138.5v-463q0 -102 -22.5 -176t-72.5 -120t-127.5 -67.5t-188.5 -21.5q-29 0 -74 5t-92 11t-87 14.5t-55 14.5q-12 6 -12 31.5t6 54t17.5 50t23.5 17.5q8 -2 38 -10t70 -16 t84 -14.5t81 -6.5q78 0 124 17.5t69.5 49.5t30.5 73.5t7 91.5v45q0 35 -23 20q-41 -29 -92 -47t-116 -18q-80 0 -144.5 21.5t-110.5 67.5t-71 118.5t-25 173.5zM322 750q0 -131 49 -181.5t123 -50.5q80 0 127 19.5t81 48.5q23 16 23 39v172q0 102 -54.5 148t-154.5 46 q-94 0 -144 -52t-50 -189z" />
<glyph unicode=":" horiz-adv-x="450" d="M115 51v88q0 16 8 30.5t24 14.5h138q35 0 42 -9t7 -28v-90q0 -20 -4 -38.5t-35 -18.5h-125q-33 0 -44 15.5t-11 35.5zM121 735v90q0 29 7 42.5t32 13.5h125q47 0 47 -47v-84q0 -25 -8.5 -37.5t-32.5 -12.5h-123q-29 0 -38 9.5t-9 25.5z" />
<glyph unicode=";" horiz-adv-x="462" d="M65.5 -163q-4.5 9 0.5 18q29 59 48 136t23 134q2 39 31 39h125q29 0 35 -9.5t2 -25.5q-23 -98 -80 -178t-129 -129q-10 -8 -21.5 -7t-20.5 7t-13.5 15zM119 721v90q0 18 6 33.5t29 15.5h137q31 0 38 -12t7 -33v-86q0 -18 -6 -35.5t-31 -17.5h-129q-35 0 -43 12t-8 33z " />
<glyph unicode="&#x3c;" horiz-adv-x="864" d="M123 528v84q0 29 10 37t39 21l516 196q31 12 44 10t13 -24v-80q0 -27 -13 -36t-46 -19l-399 -142l399 -139q33 -10 46 -19t13 -36v-80q0 -25 -13 -26t-44 12l-512 194q-29 10 -41 18.5t-12 28.5z" />
<glyph unicode="=" horiz-adv-x="923" d="M119 434v64q0 29 12 34t43 5h571q29 0 38.5 -4.5t9.5 -32.5v-58q0 -29 -13.5 -32.5t-42.5 -3.5h-567q-29 0 -40 6t-11 22zM123 705v59q0 27 13.5 31t41.5 4h567q29 0 40.5 -6.5t11.5 -22.5v-63q0 -29 -12.5 -34t-43.5 -5h-571q-27 0 -37 4t-10 33z" />
<glyph unicode="&#x3e;" horiz-adv-x="862" d="M121 299v80q0 27 13 36t46 19l400 139l-400 142q-33 10 -46 19t-13 36v80q0 23 13 25t44 -11l516 -196q29 -12 39 -20.5t10 -37.5v-84q0 -20 -12 -28.5t-41 -18.5l-512 -194q-31 -12 -44 -11.5t-13 25.5z" />
<glyph unicode="?" horiz-adv-x="720" d="M86 1098.5q-2 23.5 10 34.5q12 8 37 22t57.5 28.5t73.5 24t88 9.5q145 0 229.5 -71t84.5 -194q0 -86 -38 -150.5t-83 -117.5t-83 -100t-38 -97v-86q0 -41 -37 -41h-106q-20 0 -28.5 8.5t-6.5 30.5q-2 23 -2 45q0 20 2 43t6 41q14 51 52 96.5t78 90.5t71.5 92t31.5 104 q0 164 -155 164q-51 0 -105.5 -25.5t-83.5 -48.5q-10 -6 -22.5 9.5t-21.5 40t-11 48zM225 53v82q0 16 9.5 29.5t25.5 13.5h139q29 0 37 -9t8 -26v-84q0 -23 -4 -41t-34 -18h-125q-33 0 -44.5 15.5t-11.5 37.5z" />
<glyph unicode="@" horiz-adv-x="1271" d="M55 561q0 119 43 223.5t120 182t183.5 123t231.5 45.5t230.5 -42t182 -117t118.5 -180.5t42 -234.5q0 -166 -69.5 -243.5t-180.5 -77.5q-66 0 -117 26.5t-69 75.5q-25 -43 -80 -76t-125 -33q-45 0 -85 18.5t-70.5 57.5t-48 100.5t-17.5 147.5q0 154 55.5 244t161.5 90 q78 0 124 -25.5t73 -70.5v53q0 29 22 29h78q25 0 30 -9.5t5 -25.5v-418q0 -35 22.5 -66.5t69.5 -31.5q53 0 86 55t33 180q0 106 -34 195.5t-96.5 154t-149.5 100.5t-193 36q-104 0 -189.5 -37t-145.5 -102.5t-93 -153.5t-33 -193q0 -115 34 -205t95 -152.5t146 -96 t190 -33.5q49 0 97 7t91 17.5t76 22.5t51 22q10 4 20.5 -6t16.5 -26.5t5 -32t-11 -21.5q-59 -29 -153.5 -50t-194.5 -21q-137 0 -244.5 42t-181.5 118.5t-113 182t-39 232.5zM492 512q0 -78 29.5 -130t96.5 -52q31 0 55.5 14t42 33.5t26 39t8.5 32.5v196q0 18 -7.5 45 t-22.5 49.5t-42 39t-64 16.5q-66 0 -94 -47.5t-28 -139.5v-96z" />
<glyph unicode="A" horiz-adv-x="985" d="M40 7q-1 2 -1 5q0 10 8 37l328 1022q10 27 20.5 38t38.5 11h117q29 0 39 -11t20 -38l328 -1022q6 -18 6 -29t-6 -14q-12 -6 -35 -6h-110q-23 0 -27 7t-12 32l-70 215h-401l-68 -215q-8 -25 -14 -32t-27 -7h-115q-16 0 -19 7zM326 389h315l-156 512z" />
<glyph unicode="B" horiz-adv-x="921" d="M123 39v1028q0 27 4 40t29 13h299q207 0 310 -63.5t103 -218.5q0 -106 -44 -174t-126 -95q86 -27 137.5 -87t51.5 -189q0 -139 -86 -216t-299 -77h-346q-23 0 -28 8t-5 31zM293 668q0 -16 6 -22.5t27 -6.5h129q129 0 183 42t54 132q0 100 -61 139t-182 39h-127 q-18 -2 -23.5 -9t-5.5 -17v-297zM295 158q0 -10 6 -19.5t25 -9.5h127q129 0 193.5 37t64.5 139q0 98 -66.5 145.5t-185.5 47.5h-131q-33 0 -33 -31v-309z" />
<glyph unicode="C" horiz-adv-x="921" d="M102 328v430q0 80 18.5 150.5t70 122.5t142.5 83t236 31q137 0 201 -25.5t80 -40.5q3 -2 3 -9q0 -6 -2 -16q-5 -20 -15.5 -43.5t-21.5 -41t-17 -15.5q-29 12 -76 29.5t-135 17.5q-166 0 -234.5 -64.5t-68.5 -195.5v-397q0 -63 23.5 -105t61.5 -67t85 -35t94 -10 q111 0 170 22.5t88 32.5q8 2 17 -17.5t15.5 -46t9.5 -49t-3 -26.5q-35 -18 -118 -36.5t-194 -18.5q-217 0 -323.5 90t-106.5 250z" />
<glyph unicode="D" horiz-adv-x="1024" d="M123 53v1018q0 23 6 36t29 13h311q90 0 171 -15t141.5 -55t96 -110t35.5 -180v-412q0 -117 -39.5 -185.5t-98 -104t-127.5 -47t-126 -11.5h-358q-16 0 -28.5 12.5t-12.5 40.5zM299 182q0 -16 7 -25.5t36 -9.5h129q47 0 94 7.5t85 30t61.5 67.5t23.5 119v377 q0 125 -71.5 176t-192.5 51h-135q-25 0 -31 -7t-6 -24v-762z" />
<glyph unicode="E" horiz-adv-x="921" d="M154 43v1026q0 23 4 37t26 14h570q29 0 36 -4t7 -20v-90q0 -18 -19.5 -21.5t-54.5 -3.5h-358q-27 0 -35 -7t-8 -18v-264q0 -23 8 -30t28 -7h320q35 0 43 -5t4 -21l-10 -86q-4 -25 -28.5 -27t-47.5 -2h-268q-27 0 -36 -8t-9 -27v-301q0 -27 12 -30t35 -3h389q33 0 46 -6 t13 -24v-88q0 -16 -10.5 -21.5t-22.5 -5.5h-598q-16 0 -26 9t-10 34z" />
<glyph unicode="F" horiz-adv-x="839" d="M143 45v1026q0 23 4.5 36t26.5 13h549q29 0 36 -6t7 -18v-84q0 -20 -13 -26.5t-42 -6.5h-355q-29 0 -36 -7t-7 -18v-299q0 -23 8.5 -28.5t26.5 -5.5h311q35 0 43.5 -7.5t4.5 -21.5l-7 -86q-4 -23 -27.5 -26t-47.5 -3h-271q-23 0 -30 -8t-7 -29v-413q0 -27 -26 -27h-113 q-16 0 -25.5 9t-9.5 36z" />
<glyph unicode="G" horiz-adv-x="1024" d="M100 367v350q0 86 14.5 163.5t63.5 136t141.5 93.5t245.5 35q80 0 138.5 -10.5t99.5 -24.5t63.5 -28.5t30.5 -22.5q6 -6 0 -27.5t-17.5 -45t-25.5 -40t-23 -10.5q-29 20 -88 42.5t-168 22.5q-76 0 -130 -13t-90 -47t-53 -89t-17 -141v-328q0 -141 56 -200.5t194 -59.5 q111 0 165 40t54 154v144q0 12 -4.5 22.5t-26.5 10.5l-111 2q-16 0 -24 3t-8 21v78q0 10 3 18.5t19 8.5h250q47 0 59.5 -11.5t12.5 -52.5v-215q0 -63 -9.5 -126.5t-47.5 -115t-115.5 -84t-212.5 -32.5t-220.5 29.5t-133.5 81t-66.5 120t-18.5 148.5z" />
<glyph unicode="H" horiz-adv-x="1085" d="M131 57v1024q0 23 6 32t29 9h100q27 0 35 -10t8 -41v-385q0 -29 37 -29h412q27 0 26 27v397q0 41 45 41h99q29 0 33 -9t4 -30v-1034q0 -29 -6 -39t-29 -10h-107q-39 0 -39 45v436q0 23 -5 27t-25 4h-418q-16 0 -21.5 -4t-5.5 -21v-438q0 -29 -9 -39t-38 -10h-98 q-20 0 -26.5 13.5t-6.5 43.5z" />
<glyph unicode="I" horiz-adv-x="413" d="M117 43v1044q0 23 8 29t37 6h102q23 0 28 -9t5 -34v-1044q0 -18 -6 -26.5t-29 -8.5h-106q-23 0 -31 9t-8 34z" />
<glyph unicode="J" horiz-adv-x="512" d="M27 25q-3 9 -3 16q0 24 29 35q33 16 58.5 28.5t44.5 24.5q51 29 62 71t11 117v764q0 23 5.5 32t25.5 9h102q29 0 37.5 -10t8.5 -41v-821q0 -109 -31 -170.5t-117 -104.5q-45 -23 -89 -39t-69 -26q-7 -3 -13 -3q-17 0 -26 21z" />
<glyph unicode="K" horiz-adv-x="1024" d="M145 51v1020q0 31 10.5 40t32.5 9h103q25 0 30 -7t5 -36v-411l387 428q18 18 25 22t26 4h127q33 0 43 -6t-12 -27l-428 -469l460 -581q11 -14 11 -22q0 -15 -31 -15h-146q-20 0 -28 7t-25 28l-366 467l-43 -49v-414q0 -23 -5.5 -31t-27.5 -8h-105q-27 0 -35 10t-8 41z " />
<glyph unicode="L" horiz-adv-x="821" d="M133 53v1028q0 23 6 32t29 9h100q27 0 35 -11t8 -40v-901q0 -18 9.5 -24.5t27.5 -6.5h400q25 0 27.5 -6t2.5 -24v-80q0 -20 -8 -24.5t-31 -4.5h-573q-23 0 -28 11.5t-5 41.5z" />
<glyph unicode="M" horiz-adv-x="1310" d="M152 51v1020q0 31 10 40t31 9h106q16 0 28.5 -4t24.5 -24l291 -459q12 -16 23 0l284 454q20 33 51 33h117q27 0 30 -12t3 -39v-1028q0 -23 -6 -32t-31 -9h-92q-33 0 -42 10t-9 41v778q0 39 -23 2l-241 -399q-16 -25 -22.5 -33t-18.5 -8h-35q-16 0 -22.5 7.5t-22.5 35.5 l-228 389q-14 23 -20 20t-6 -22v-782q0 -18 -6.5 -28.5t-32.5 -10.5h-88q-23 0 -38 7t-15 44z" />
<glyph unicode="N" horiz-adv-x="1169" d="M152 45v1026q0 6 3 27.5t25 21.5h99q20 0 30 -2t16.5 -5t10.5 -10t10 -16l471 -759q16 -29 25.5 -25t9.5 49v719q0 15 4 33q4 16 18 16h3h108q23 0 28 -11t5 -40v-1016q0 -31 -6 -45q-5 -12 -24 -12h-5l-100 2q-23 0 -34 8t-26 31l-469 747q-18 29 -26.5 32t-8.5 -34 v-729q0 -31 -6 -42t-28 -11h-90q-12 0 -27.5 4t-15.5 41z" />
<glyph unicode="O" horiz-adv-x="1128" d="M147 311v451q0 207 99.5 296t322.5 89q88 0 166 -18.5t134.5 -61.5t89 -115.5t32.5 -183.5v-410q0 -135 -46 -209.5t-110.5 -109.5t-137.5 -42t-124 -7q-59 0 -133.5 9t-139 42t-109 97.5t-44.5 172.5zM324 350q0 -59 22.5 -99t58 -64.5t79.5 -35t89 -10.5q49 0 93.5 9.5 t76 35t51 71.5t19.5 122v377q0 127 -59.5 184t-175.5 57q-143 0 -198.5 -62.5t-55.5 -184.5v-400z" />
<glyph unicode="P" horiz-adv-x="976" d="M106 53v1028q0 23 7.5 31t31.5 8h330q223 0 324.5 -88t101.5 -266t-96 -271.5t-307 -93.5h-185q-16 0 -20 -5t-4 -25v-322q0 -31 -8.5 -40t-30.5 -9h-111q-27 0 -30 13.5t-3 39.5zM289 575q0 -20 6 -24t27 -4h194q86 0 144.5 52t58.5 175q0 55 -20.5 94t-54.5 64.5 t-80 37t-97 11.5h-150q-18 0 -23 -8t-5 -19v-379z" />
<glyph unicode="Q" horiz-adv-x="1128" d="M143 319v451q0 207 98.5 296t321.5 89q90 0 168 -18.5t134.5 -61.5t89 -115.5t32.5 -183.5v-409q0 -131 -38 -203t-101 -105q18 -23 63 -59.5t99 -58.5q27 -7 27 -30q0 -11 -5 -24l-31 -90q-10 -22 -29 -22q-8 0 -18 4q-20 6 -54 24.5t-74 48t-82 67.5t-76 83 q-29 -2 -53.5 -3t-45.5 -1q-59 0 -134 9t-139.5 42t-108.5 97.5t-44 172.5zM317 358q0 -59 22.5 -99t58.5 -64.5t81 -34.5t90 -10q49 0 92.5 9t75 34.5t51 72.5t19.5 121v377q0 127 -59.5 184.5t-176.5 57.5q-143 0 -198.5 -62.5t-55.5 -185.5v-400z" />
<glyph unicode="R" horiz-adv-x="1044" d="M143 55v1026q0 23 7.5 32t31.5 9h330q217 0 321.5 -86t104.5 -241q0 -59 -20.5 -108.5t-53.5 -85.5t-70.5 -59.5t-70.5 -31.5q-16 -4 -18.5 -6t4.5 -17l223 -432q13 -28 13 -40q0 -15 -27 -15h-130q-23 0 -28.5 10t-16.5 33l-206 410q-8 14 -27 14h-168q-12 0 -14 -4 t-2 -21v-393q0 -29 -8.5 -39t-30.5 -10h-111q-27 0 -30 13.5t-3 41.5zM326 643q0 -23 6 -27t26 -4h197q86 0 144.5 45t58.5 138q0 53 -20.5 89t-55.5 58.5t-81 31.5t-97 9h-150q-18 -2 -23 -10t-5 -19v-311z" />
<glyph unicode="S" horiz-adv-x="942" d="M86 81.5q0 24.5 4 52.5t12.5 48.5t18.5 18.5q33 -10 99.5 -33t189.5 -23q55 0 103 8.5t84 27t56.5 48t20.5 74.5q0 72 -49.5 119t-178.5 94q-63 25 -119.5 53.5t-98.5 68.5t-66.5 94t-24.5 128q0 59 22.5 112.5t72 92.5t125 61.5t180.5 22.5q74 0 123 -4t79.5 -9.5 t49 -10.5t30.5 -9t12 -28.5t-7 -51t-19 -48t-25 -17.5q-35 10 -99.5 22.5t-127.5 12.5q-131 0 -181 -40t-50 -106q0 -70 53 -110.5t170 -81.5q164 -63 242.5 -147.5t78.5 -211.5q0 -94 -36.5 -155.5t-97 -98.5t-138.5 -51t-160 -14q-141 0 -226 20.5t-116 42.5q-6 4 -6 28.5 z" />
<glyph unicode="T" horiz-adv-x="919" d="M33 1001v95q0 16 10 20t35 4h764q23 0 34 -2t11 -18v-99q0 -10 -5 -16t-28 -6h-268q-25 0 -32 -5t-7 -24v-899q0 -31 -6 -41t-33 -10h-105q-27 0 -29.5 8t-2.5 43v899q0 18 -7.5 23.5t-29.5 5.5h-266q-23 0 -29 6t-6 16z" />
<glyph unicode="U" horiz-adv-x="1005" d="M104 328v759q0 39 27 39h107q23 0 32 -10t9 -39v-692q0 -119 60 -182.5t159 -63.5q68 0 110.5 17.5t67 50.5t35 79t10.5 103v698q0 39 27 39h110q20 0 29.5 -10t9.5 -39v-723q0 -121 -38 -193.5t-96 -111.5t-128.5 -51t-136.5 -12q-68 0 -138.5 16t-127 55t-92.5 104.5 t-36 166.5z" />
<glyph unicode="V" horiz-adv-x="1017" d="M59 1071q-4 16 -4 27q1 13 7 17q12 7 30 7h111q23 0 28 -8t13 -33l272 -862l270 862q8 25 13.5 33t21.5 8h103q23 0 33 -6q5 -3 5 -10q0 -6 -4 -16l-335 -1055q-6 -18 -15.5 -26.5t-32.5 -8.5h-133q-27 0 -36 9t-13 28z" />
<glyph unicode="W" horiz-adv-x="1497" d="M47 1071q-6 18 -6 29.5t6 14.5q12 7 33 7h108q23 0 28 -8t15 -33l271 -862l166 477l-119 375q-12 37 -1 44t32 7h110q23 0 27 -8t14 -33l270 -864l273 864q8 25 13 33t22 8h100q23 0 33 -6q6 -4 6 -13q0 -6 -2 -13l-338 -1057q-6 -18 -14.5 -25.5t-32.5 -7.5h-125 q-27 0 -36 8t-15 29l-140 430l-153 -432q-6 -20 -14.5 -27.5t-32.5 -7.5h-117q-25 0 -34 9t-15 28z" />
<glyph unicode="X" horiz-adv-x="1064" d="M50 13q0 11 20 36l180 254q35 47 66.5 93t58.5 81q31 41 57 80l-352 518q-12 18 -12 29q0 16 28 16h121q25 0 40 -9t36 -42l250 -369l248 369q23 33 35 42t40 9h101q27 0 28.5 -11t-14.5 -34l-340 -502l360 -524q14 -23 14 -34q-1 -3 -1 -5q-4 -10 -29 -10h-129 q-23 0 -38 12.5t-32 36.5l-254 381l-12 -16q-12 -17 -31.5 -43.5t-44 -61.5t-49.5 -69q-59 -84 -137 -191q-23 -35 -33 -42t-26 -7h-115q-34 0 -34 13z" />
<glyph unicode="Y" horiz-adv-x="1003" d="M45 1117q8 5 29 5h125q16 0 24 -6t21 -26l266 -472l131 238q57 104 131 236q10 16 17.5 23t31.5 7h99q27 0 32 -7q2 -2 2 -5q0 -9 -12 -29l-176 -311q-33 -59 -64.5 -114.5t-57.5 -98.5t-33 -57l-21 -39v-426q0 -35 -37 -35h-113q-31 0 -30 31v432l-359 629q-9 13 -9 19 q0 4 3 6z" />
<glyph unicode="Z" horiz-adv-x="987" d="M66 18v48q0 14 9 30.5t19 32.5l537 848h-486q-35 0 -50 7t-11 30l4 80q2 14 7 21t34 7h702q14 0 25.5 -4t11.5 -14v-47q0 -10 -13 -35t-19 -35l-531 -842h533q35 0 47 -5t12 -21v-88q0 -16 -8 -23.5t-37 -7.5h-758q-29 0 -28 18z" />
<glyph unicode="[" horiz-adv-x="514" d="M102 -104v1337q0 23 6.5 29t34.5 6h285q27 0 33 -6.5t6 -22.5v-80q0 -31 -39 -31h-113q-20 0 -26 -7t-6 -23v-1071q0 -29 32 -29h121q20 0 25.5 -9t5.5 -24v-82q0 -16 -8 -21t-29 -5h-285q-25 0 -34 8t-9 31z" />
<glyph unicode="\" horiz-adv-x="630" d="M6 1117q0 9 23 9h104q31 0 41 -9t21 -34l417 -1034q14 -29 8 -39t-30 -10h-103q-20 0 -29 7t-22 36l-420 1038q-10 27 -10 36z" />
<glyph unicode="]" horiz-adv-x="514" d="M47 -33q0 14 5 23.5t26 9.5h121q33 0 32 29v1071q0 16 -6 23t-26 7h-113q-39 0 -39 31v80q0 16 6 22.5t33 6.5h285q29 0 35 -6.5t6 -28.5v-1337q0 -23 -9.5 -31t-33.5 -8h-285q-20 0 -28.5 5t-8.5 21v82z" />
<glyph unicode="^" horiz-adv-x="614" d="M40 907.5q-1 10.5 9 34.5l180 410q10 20 17.5 32.5t21.5 12.5h68q20 0 27.5 -9.5t17.5 -31.5l184 -414q10 -25 9 -35t-21 -10h-64q-23 0 -28.5 12.5t-16.5 34.5l-137 322l-139 -322q-8 -23 -15.5 -35t-27.5 -12h-64q-20 0 -21 10.5z" />
<glyph unicode="_" horiz-adv-x="817" d="M0 -78q0 29 10 34t39 5h705q33 0 48 -5t15 -28v-30q0 -27 -11 -34t-50 -7h-713q-25 0 -34 7t-9 25v33z" />
<glyph unicode="`" horiz-adv-x="614" d="M111.5 1328q1.5 11 35.5 11h115q20 0 29.5 -8t21.5 -24l148 -211q33 -43 -8 -43h-64q-16 0 -28.5 9t-22.5 21l-205 211q-23 23 -21.5 34z" />
<glyph unicode="a" horiz-adv-x="882" d="M55 416q0 209 66.5 328.5t210.5 119.5q106 0 169.5 -34.5t100.5 -94.5v68q0 39 29 39h90q35 0 41 -11.5t6 -35.5v-734q0 -31 -5 -46t-34 -15h-88q-18 0 -28.5 7t-10.5 38v66q-25 -51 -98.5 -89t-169.5 -38q-61 0 -112.5 23.5t-88.5 75.5t-57.5 134t-20.5 199zM233 354 q0 -117 44.5 -184.5t132.5 -67.5q43 0 75.5 18.5t55 44t35 52.5t12.5 43v287q0 25 -10.5 59.5t-32 65t-55 52t-82.5 21.5q-86 0 -130.5 -60t-44.5 -200v-131z" />
<glyph unicode="b" horiz-adv-x="940" d="M127 61v1055q0 25 7 36t42 11h88q18 0 24.5 -13t6.5 -38v-371q78 123 270 123q141 0 209 -119.5t68 -328.5q0 -117 -20.5 -200t-56.5 -135t-86.5 -75.5t-109.5 -23.5q-188 0 -274 106v-45q0 -31 -10.5 -37t-28.5 -6h-88q-29 0 -35 15.5t-6 45.5zM307 244q0 -16 12.5 -40 t35 -46.5t55 -39t73.5 -16.5q90 0 134.5 68t44.5 184v131q0 117 -43.5 188.5t-129.5 71.5q-49 0 -83.5 -18t-56 -47t-32 -62.5t-10.5 -64.5v-309z" />
<glyph unicode="c" horiz-adv-x="825" d="M74 418q0 123 26.5 208t77.5 139t125 77.5t168 23.5q104 0 179 -27.5t122 -88.5q3 -4 3 -8q-1 -10 -13 -25q-18 -21 -43 -37t-49.5 -24.5t-30.5 1.5q-25 39 -64.5 63.5t-105.5 24.5q-92 0 -151.5 -59t-59.5 -188v-154q0 -127 61.5 -183.5t149.5 -56.5q55 0 98 29t70 70 q6 12 29.5 9t49.5 -14q26 -10 44 -25q15 -12 15 -22q0 -2 -1 -4q-43 -78 -119.5 -120.5t-191.5 -42.5q-96 0 -169 20.5t-122 70.5t-73.5 134t-24.5 209z" />
<glyph unicode="d" horiz-adv-x="909" d="M96 416q0 209 66.5 328.5t210.5 119.5q96 0 159.5 -28.5t110.5 -94.5v371q0 51 29 51h90q35 0 42 -11t7 -36v-1055q0 -31 -6 -46t-35 -15h-88q-18 0 -28.5 6t-10.5 39v43q-47 -53 -112.5 -79.5t-161.5 -26.5q-61 0 -111.5 23.5t-86.5 75.5t-55.5 135t-19.5 200zM274 354 q0 -117 45.5 -184.5t133.5 -67.5q43 0 75.5 16.5t55 39t34 46t11.5 40.5v309q0 31 -10.5 64.5t-32 62.5t-55 47t-82.5 18q-86 0 -130.5 -71.5t-44.5 -188.5v-131z" />
<glyph unicode="e" horiz-adv-x="921" d="M98 420q0 225 89 337.5t278 112.5q174 0 264 -86t90 -245v-97q0 -35 -10 -51t-57 -16h-482q0 -137 66.5 -195.5t183.5 -58.5q102 0 161.5 13t82.5 20q45 18 45 -15v-78q0 -20 -10.5 -28t-42.5 -19q-10 -2 -36 -6t-59.5 -9t-72.5 -8t-76 -3q-213 0 -313.5 99t-100.5 333z M276 526q0 -16 2.5 -24t18.5 -8h334q12 0 14 7t2 23q-2 113 -43 173.5t-143 60.5q-49 0 -84 -18.5t-57.5 -50.5t-33 -74t-10.5 -89z" />
<glyph unicode="f" horiz-adv-x="565" d="M57 731v53q0 35 27 35h82q-10 18 -22 50q-9 27 -9 75v17q0 39 11.5 74.5t37 64t67.5 46t101 17.5q53 0 89 -6t55 -12q6 -4 6 -22.5t-4 -41t-10.5 -40t-12.5 -17.5q-27 6 -38 9t-40 3q-35 0 -66.5 -23.5t-31.5 -72.5q0 -41 14.5 -70.5t32.5 -50.5h111q27 0 32 -7t5 -24 v-55q0 -14 -6 -24.5t-31 -10.5h-109v-645q0 -53 -37 -53h-86q-18 0 -31.5 9t-13.5 32v657h-86q-23 0 -30 7.5t-7 25.5z" />
<glyph unicode="g" horiz-adv-x="874" d="M78 442q0 100 16.5 181.5t49 138.5t84 89t118.5 32q80 0 153.5 -24.5t123.5 -88.5q0 59 8 74.5t33 15.5h84q33 0 36.5 -15.5t3.5 -41.5v-666q0 -125 -18 -211t-57 -140t-101.5 -78.5t-148.5 -24.5q-117 0 -173.5 9t-84.5 13q-23 6 -35 12.5t-12 28.5v80q0 16 11 19t52 -7 q45 -10 101.5 -21.5t121.5 -11.5q90 0 133.5 58.5t47.5 193.5q0 8 -1 28.5t-1 29.5q-45 -59 -108.5 -87t-158.5 -28q-63 0 -114.5 23.5t-88 77t-56 137.5t-19.5 204zM256 367q0 -115 43 -180.5t133 -65.5q43 0 76 16.5t56.5 39t34.5 48t11 41.5v301q0 31 -10 65t-31.5 62.5 t-55.5 48t-83 19.5q-86 0 -130 -73t-44 -191v-131z" />
<glyph unicode="h" horiz-adv-x="880" d="M102 55v1043q0 23 7.5 36t31.5 13h99q16 0 24 -9.5t8 -39.5v-355q47 55 102.5 87t157.5 32q106 0 176 -60.5t70 -209.5v-520q0 -39 -5 -55.5t-28 -16.5h-102q-35 0 -35 57v498q0 61 -34.5 108.5t-120.5 47.5q-45 0 -79 -17.5t-57.5 -44t-35 -58.5t-11.5 -61v-475 q0 -31 -6 -43t-24 -12h-99q-25 0 -32 12.5t-7 42.5z" />
<glyph unicode="i" horiz-adv-x="372" d="M98 55v740q0 25 7.5 36t31.5 11h88q31 0 36 -10.5t5 -36.5v-740q0 -31 -5 -43t-30 -12h-98q-23 0 -29 12.5t-6 42.5zM98 1044v56q0 29 8.5 38t36.5 9h88q27 0 31 -14.5t4 -38.5v-54q0 -29 -7 -38t-28 -9h-92q-25 0 -33 8.5t-8 42.5z" />
<glyph unicode="j" horiz-adv-x="366" d="M-66 -278q0 18 4 40q5 23 11 40.5t14 17.5q16 -4 36.5 -7t43.5 -3q33 0 42 28.5t9 59.5v895q0 27 8.5 40t36.5 13h88q41 0 41 -51v-922q0 -41 -8 -78t-27.5 -63.5t-54.5 -42t-88 -15.5q-49 0 -89 8.5t-60 14.5q-7 2 -7 25zM98 1049v53q0 29 8.5 39t36.5 10h82 q31 0 33 -10.5t2 -36.5v-60q0 -29 -5 -38t-28 -9h-88q-25 0 -33 8.5t-8 43.5z" />
<glyph unicode="k" horiz-adv-x="759" d="M78 57v1061q0 23 8 35t33 12h86q29 0 34 -11t5 -36v-608l268 297q10 10 20.5 23.5t26.5 13.5h131q29 0 29 -10.5t-19 -32.5l-325 -363l352 -403q12 -15 12 -23q1 -2 -1 -4q-6 -8 -29 -8h-129q-16 0 -28.5 11.5t-31.5 31.5l-276 319v-303q0 -31 -5.5 -45t-27.5 -14h-86 q-29 0 -38 13.5t-9 43.5z" />
<glyph unicode="l" horiz-adv-x="339" d="M86 51v1071q0 20 8 30.5t33 10.5h88q29 0 34 -10t5 -37v-1061q0 -31 -5 -43t-28 -12h-92q-27 0 -35 9t-8 42z" />
<glyph unicode="m" horiz-adv-x="1333" d="M106 57v738q0 23 8.5 35t32.5 12h91q20 0 29 -16.5t9 -71.5q43 55 96.5 80.5t141.5 25.5q78 0 127 -30.5t84 -108.5q47 66 108.5 102.5t153.5 36.5q51 0 95 -13t76 -45t49.5 -83t17.5 -127v-520q0 -39 -6 -55.5t-29 -16.5h-94q-27 0 -34 13.5t-7 41.5v500q0 31 -5.5 58.5 t-20.5 49t-41.5 35t-69.5 13.5q-41 0 -69 -13.5t-48.5 -36t-31.5 -50t-17 -56.5v-483q0 -39 -7.5 -55.5t-29.5 -16.5h-99q-35 0 -34 55v500q0 31 -6.5 58.5t-21.5 49t-42 35t-70 13.5q-47 0 -79.5 -17.5t-52 -44t-28 -58.5t-8.5 -61v-471q0 -31 -5 -45t-27 -14h-88 q-29 0 -38.5 13.5t-9.5 43.5z" />
<glyph unicode="n" horiz-adv-x="862" d="M98 57v738q0 23 7.5 35t31.5 12h90q23 0 31 -22.5t8 -76.5q43 55 105.5 86t156.5 31q106 0 176 -59.5t70 -208.5v-520q0 -39 -7 -55.5t-30 -16.5h-92q-41 0 -41 55v500q0 61 -34.5 107.5t-120.5 46.5q-47 0 -82 -17.5t-57.5 -43t-33 -57.5t-10.5 -61v-471q0 -31 -5 -45 t-30 -14h-88q-27 0 -36 13.5t-9 43.5z" />
<glyph unicode="o" horiz-adv-x="925" d="M84 424q0 123 26.5 208t78 138t125 76.5t165.5 23.5q184 0 276.5 -102t92.5 -344q0 -211 -95.5 -322.5t-281.5 -111.5q-96 0 -169 20.5t-121 70.5t-72.5 134t-24.5 209zM264 350q0 -129 61.5 -184t149.5 -55q94 0 147.5 70.5t53.5 187.5v141q0 104 -45 172t-158 68 q-92 0 -150.5 -58.5t-58.5 -187.5v-154z" />
<glyph unicode="p" horiz-adv-x="921" d="M123 -258v1061q0 27 5 42t38 15h84q41 0 41 -45v-57q47 63 117.5 93t158.5 30q137 0 203 -119t66 -320q0 -121 -19.5 -204.5t-56.5 -137t-88.5 -77t-114.5 -23.5q-94 0 -157.5 25.5t-108.5 78.5v-362q0 -29 -7.5 -40t-23.5 -11h-92q-31 0 -38 11t-7 40zM303 262 q0 -16 12.5 -39.5t35 -46t55 -39t75.5 -16.5q90 0 133 65.5t43 180.5v131q0 119 -45 191.5t-129 72.5q-49 0 -82.5 -19.5t-55 -48t-32 -62.5t-10.5 -65v-305z" />
<glyph unicode="q" horiz-adv-x="901" d="M90 440q0 100 16.5 181t49 138.5t84 89.5t118.5 32q88 0 156 -29t123 -94v57q0 23 6 33t29 10h88q33 0 38 -11t5 -36v-1079q0 -23 -7 -33t-36 -10h-94q-16 0 -22.5 6t-6.5 29v380q-47 -57 -114.5 -80.5t-153.5 -23.5q-63 0 -114.5 23.5t-88.5 77t-56.5 136t-19.5 203.5z M268 367q0 -117 43 -181.5t133 -64.5q43 0 76 15.5t56.5 37t35 44t11.5 38.5v309q0 31 -10.5 65t-32 63.5t-55 49t-83.5 19.5q-84 0 -129 -74t-45 -190v-131z" />
<glyph unicode="r" horiz-adv-x="571" d="M84 57v738q0 23 7 35t32 12h90q16 0 27.5 -8.5t11.5 -30.5v-80q49 66 116.5 98.5t143.5 32.5q10 0 19.5 -2t7.5 -16l-4 -99q-6 -23 -25 -22q-35 0 -71 -8.5t-64 -24.5q-57 -33 -91 -73t-34 -79v-471q0 -31 -5 -45t-28 -14h-88q-29 0 -37 14.5t-8 42.5z" />
<glyph unicode="s" horiz-adv-x="684" d="M37 58q-1 8 -1 16q0 12 2 26q3 22 11 40t21 14q25 -8 74 -23.5t145 -15.5q80 0 124 25.5t44 84.5q0 47 -42 87t-126 81q-47 23 -87 47.5t-70 53t-47 65.5t-17 84q0 57 24.5 100t65.5 71t97 41t118 13q92 0 149.5 -10t73.5 -16q6 -4 5 -22.5t-7 -40t-16.5 -39t-20.5 -15.5 q-23 6 -74 15.5t-98 9.5q-147 0 -147 -101q0 -37 45 -68.5t110 -64.5q57 -29 102.5 -58.5t75 -64.5t45 -78t15.5 -98q0 -72 -26.5 -117t-68.5 -70.5t-96.5 -34.5t-109.5 -9q-123 0 -191.5 18.5t-93.5 30.5q-6 3 -8 23z" />
<glyph unicode="t" horiz-adv-x="552" d="M35 743v60q0 20 6 26.5t31 6.5h78v155q0 23 13 30t34 9l73 17q7 1 13 1q16 0 22 -8q8 -10 8 -32v-172h160q23 0 30 -9.5t7 -25.5v-60q0 -16 -6 -24t-33 -8h-152v-506q0 -84 70 -84q27 0 43.5 2t40.5 8q6 0 12.5 -17.5t8.5 -39t2 -41t-7 -21.5q-20 -6 -64 -12t-91 -6 q-59 0 -96 17.5t-58.5 46t-29 65.5t-7.5 76v514h-82q-16 0 -21 8t-5 24z" />
<glyph unicode="u" horiz-adv-x="903" d="M109 250v536q0 29 8 42.5t30 13.5h93q43 0 43 -58v-497q0 -63 33.5 -108.5t117.5 -45.5q47 0 82 16.5t57.5 43t33.5 58.5t11 60v471q0 31 5.5 45.5t29.5 14.5h88q27 0 35 -14.5t8 -43.5v-737q0 -23 -5.5 -35t-30.5 -12h-91q-23 0 -31 21.5t-8 74.5q-55 -59 -116.5 -85.5 t-147.5 -26.5q-49 0 -94 14t-79 46t-53 82t-19 124z" />
<glyph unicode="v" horiz-adv-x="837" d="M35 807q-3 8 -3 14q0 21 36 21h96q18 0 28.5 -10.5t14.5 -26.5l217 -608l229 608q4 10 15.5 23.5t25.5 13.5h80q25 0 29 -8q1 -2 1 -7q0 -9 -7 -26l-291 -754q-10 -31 -22.5 -39t-34.5 -8h-89q-25 0 -38 13.5t-19 29.5z" />
<glyph unicode="w" horiz-adv-x="1126" d="M33 809q-4 9 -4 15q0 8 6 12q10 8 31 8h94q18 0 27.5 -11.5t15.5 -27.5l168 -612l127 403l-64 213q-10 35 35 35h92q18 0 28.5 -11.5t16.5 -27.5l166 -612l174 612q6 12 17.5 25.5t25.5 13.5h76q27 0 31 -10q1 -3 1 -6q0 -9 -7 -25l-236 -756q-12 -31 -24.5 -39t-34.5 -8 h-72q-25 0 -38 13.5t-19 31.5l-99 352l-125 -350q-12 -31 -24 -39t-35 -8h-68q-25 0 -38 13.5t-19 31.5z" />
<glyph unicode="x" horiz-adv-x="737" d="M19 14q0 13 20 41l244 361l-238 381q-16 25 -15 36t33 11h111q20 0 31.5 -12.5t27.5 -38.5l142 -234l145 234q16 27 28.5 39t33.5 12h88q35 0 35 -11.5t-15 -35.5l-231 -361l239 -381q15 -26 15 -39q-1 -2 -1 -4q-4 -12 -26 -12h-102q-29 0 -40.5 11.5t-31.5 41.5 l-143 238l-166 -238q-20 -35 -31.5 -44t-34.5 -9h-92q-26 0 -26 14z" />
<glyph unicode="y" horiz-adv-x="821" d="M33 805q-4 9 -4 15q0 20 37 20h116q18 0 20.5 -10.5t6.5 -26.5l213 -578l215 578q6 10 17.5 23.5t25.5 13.5h84q27 0 31 -10q1 -2 1 -5q0 -10 -8 -26l-419 -1075q-10 -23 -22.5 -31t-33.5 -8h-55q-39 0 -25 34l105 279z" />
<glyph unicode="z" horiz-adv-x="778" d="M54 26q-1 4 -1 8q0 8 3 16q5 13 14 26l405 647h-364q-25 0 -33 4t-8 29v55q0 20 9 25.5t25 5.5h549q25 0 45.5 -11.5t-0.5 -42.5l-419 -669h411q23 0 33 -4t10 -31v-51q0 -23 -8 -28t-31 -5h-579q-29 0 -43.5 7t-17.5 19z" />
<glyph unicode="{" horiz-adv-x="614" d="M61 541v96q0 16 23 20q68 8 117 50.5t43 107.5l-23 227q-10 102 40 165t167 63h78q29 0 29 -27v-88q0 -23 -29 -22h-35q-37 0 -64.5 -24t-23.5 -75l25 -252q2 -37 -13.5 -69.5t-41 -58t-57.5 -42t-65 -20.5q33 -6 66 -25.5t58.5 -48.5t40 -65.5t12.5 -75.5l-23 -262 q-4 -61 17.5 -88t60.5 -27h49q14 0 18.5 -7t4.5 -16v-96q0 -23 -33 -22h-90q-90 0 -145.5 54t-45.5 175l23 262q4 63 -42 109.5t-118 56.5q-23 4 -23 25z" />
<glyph unicode="|" horiz-adv-x="589" d="M213 -358v1519q0 27 7 37t38 10h88q23 0 26 -10t3 -39v-1524q0 -29 -5 -37t-26 -8h-84q-29 0 -38 9.5t-9 42.5z" />
<glyph unicode="}" horiz-adv-x="616" d="M80 -23q0 8 4 15.5t18 7.5h50q39 0 60 26.5t17 88.5l-22 262q-2 39 12 75.5t40 65.5t58.5 48.5t65.5 25.5q-33 4 -64.5 20.5t-57 42t-41 58t-13.5 69.5l24 252q4 51 -23.5 75t-64.5 24h-34q-29 0 -29 22v88q0 27 29 27h77q117 0 167 -62.5t40 -165.5l-22 -227 q-6 -66 43 -107.5t116 -50.5q23 -4 23 -20v-96q0 -20 -23 -25q-72 -10 -117.5 -56t-41.5 -110l22 -262q8 -121 -46 -175t-144 -54h-90q-33 0 -33 22v96z" />
<glyph unicode="~" horiz-adv-x="714" d="M47 449q10 25 27.5 53t42 53t54.5 41t65 16q27 0 57.5 -14t61 -32.5t59 -33t51.5 -14.5q35 0 57.5 22.5t36.5 49.5q10 16 25 10l71 -27q19 -8 9 -26q-37 -72 -84.5 -124t-116.5 -52q-29 0 -58.5 15t-58.5 32.5t-55.5 33t-48.5 15.5q-29 0 -55.5 -19.5t-41.5 -44.5 q-6 -12 -11 -12t-13 4l-66 33q-14 2 -8 21z" />
<glyph unicode="&#xa1;" horiz-adv-x="555" d="M147 848v98q0 25 8.5 40t41.5 15h149q39 0 46 -14t7 -37v-100q0 -18 -7 -31.5t-34 -13.5h-155q-35 0 -45.5 7t-10.5 36zM170 -254l25 811q0 33 7 45t25 12h76q35 0 42 -9t9 -50l25 -805q0 -29 -6 -47t-41 -18h-115q-33 0 -41 15t-6 46z" />
<glyph unicode="&#xa2;" horiz-adv-x="854" d="M84 461q0 98 26.5 183t77 147.5t124 101.5t167.5 45v205h84v-205q68 -4 131.5 -14.5t110.5 -28.5v-143q-51 8 -117.5 14t-124.5 8v-627q57 2 124 7.5t118 15.5v-135q-41 -18 -106.5 -32.5t-135.5 -18.5v-205h-84v205q-94 6 -167.5 44t-124 100t-77 147t-26.5 186z M270 461q0 -127 49.5 -209t159.5 -100v616q-111 -18 -160 -99t-49 -208z" />
<glyph unicode="&#xa3;" horiz-adv-x="1122" d="M96 625v75q0 35 12.5 40t45.5 5h98q-6 63 -18.5 128t-12.5 131q0 88 26.5 160.5t78 124.5t128 82t179.5 30q137 0 216 -32t122 -64q12 -10 10 -40t-11 -60.5t-22.5 -52.5t-25.5 -13q-49 37 -113 59.5t-141 22.5q-111 0 -170.5 -62.5t-59.5 -185.5q0 -53 11.5 -114.5 t17.5 -113.5h184q37 0 54.5 -5t17.5 -31v-76q0 -31 -12.5 -39t-57.5 -8h-182q-4 -129 -23.5 -219.5t-44.5 -161.5q-4 -10 1.5 -16.5t25.5 -8.5q63 -2 129 -9t150 -7q72 0 139 10t88 21q29 8 34 -2.5t5 -30.5v-133q0 -16 -21.5 -26.5t-52.5 -16.5t-67.5 -8.5t-67.5 -2.5 q-47 0 -104.5 4.5t-112.5 10.5t-102.5 10t-71.5 4q-66 0 -108 -4t-83 -12q-29 -8 -38 9t4 52q47 135 75.5 262t32.5 275h-111q-29 0 -40 8t-11 31z" />
<glyph unicode="&#xa4;" horiz-adv-x="1351" d="M160 133l151 152q-41 55 -65.5 123.5t-24.5 146.5t24.5 146.5t65.5 123.5l-151 150l94 94l152 -149q55 41 123.5 64.5t146.5 23.5t145.5 -23.5t122.5 -64.5l154 149l94 -94l-152 -150q41 -55 65.5 -123.5t24.5 -146.5t-24.5 -146.5t-65.5 -123.5l152 -152l-94 -94 l-154 151q-55 -41 -122.5 -65.5t-145.5 -24.5t-146.5 25t-123.5 65l-152 -151zM356 555q0 -66 26 -124t69 -101t101 -68.5t124 -25.5t124 25.5t101 68.5t67.5 101t24.5 124t-24.5 124t-67.5 101t-101.5 67.5t-123.5 24.5q-66 0 -124 -24.5t-101 -67.5t-69 -101t-26 -124z " />
<glyph unicode="&#xa5;" horiz-adv-x="1196" d="M122 1274q9 6 30 6h153q18 0 27.5 -7t21.5 -30l267 -543q18 41 41 86q18 39 41.5 87.5t50.5 99.5q57 119 133 272q10 18 17 26.5t36 8.5h100q29 0 34 -8t-11 -37l-358 -709v-129h141q35 0 51 -4t16 -28v-70q0 -29 -12 -36t-53 -7h-143v-213q0 -23 -8.5 -31t-30.5 -8h-138 q-23 0 -27.5 7t-4.5 28v217h-154q-29 0 -39 7t-10 30v65q0 33 11 38t40 5h152v131l-369 717q-14 23 -5 29z" />
<glyph unicode="&#xa6;" horiz-adv-x="532" d="M188 360h156v-831h-156v831zM188 700v697h156v-697h-156z" />
<glyph unicode="&#xa7;" horiz-adv-x="1140" d="M221 446q0 55 20.5 101.5t55.5 80.5t80 53t96 24q-43 25 -84 55.5t-74.5 67t-54 78.5t-20.5 87q0 74 32.5 129.5t87 92t125 54t148.5 17.5q113 0 184.5 -12t91.5 -23q8 -4 6 -29.5t-10 -56t-20.5 -54.5t-24.5 -19q-49 14 -111.5 27.5t-121.5 13.5q-90 0 -137.5 -34 t-47.5 -100q0 -25 16.5 -47t44 -45.5t64.5 -46t76 -45.5q61 -35 118.5 -71.5t100.5 -82t68.5 -99.5t25.5 -126q0 -57 -16 -102t-43 -78t-60.5 -55.5t-70.5 -32.5q72 -53 122 -123t50 -156q0 -82 -33 -140t-86 -95t-121.5 -53.5t-138.5 -16.5q-131 0 -210 24.5t-109 41.5 q-8 4 -10.5 30.5t0.5 56.5t12.5 52.5t25.5 15.5q31 -10 92.5 -30.5t165.5 -20.5q106 0 157.5 40t51.5 104q0 63 -55 115.5t-160 103.5q-59 29 -113.5 60.5t-95.5 70.5t-65.5 88t-24.5 110zM403 453q0 -27 15.5 -56.5t43 -56.5t66.5 -44t86 -20q72 -4 116 31t44 117 q0 31 -12 60.5t-37 53t-60.5 39t-84.5 17.5q-86 6 -131.5 -37t-45.5 -104z" />
<glyph unicode="&#xa8;" horiz-adv-x="681" d="M78 1135v104q0 20 5 33.5t30 13.5h104q27 0 35 -13t8 -34v-96q0 -18 -7 -29.5t-30 -11.5h-102q-29 0 -36 6t-7 27zM430 1149v96q0 41 35 41h102q31 0 38 -8t7 -31v-100q0 -18 -6 -31.5t-28 -13.5h-97q-35 0 -43 13t-8 34z" />
<glyph unicode="&#xa9;" horiz-adv-x="1507" d="M90 645q0 135 52.5 252t143.5 203t213 136t263 50t263 -50t213 -136t143.5 -203t52.5 -252t-52.5 -252t-143.5 -204t-213 -137t-263 -50t-263 50t-213 137t-143.5 204t-52.5 252zM193 645q0 -117 45 -218t121.5 -175t181 -117t221.5 -43q119 0 222 43t180 117t122 175 t45 218t-45 218.5t-122 175t-180 115.5t-222 42q-117 0 -221.5 -42t-181 -115.5t-121.5 -175t-45 -218.5zM518 502v252q0 47 12.5 89t44 72.5t86 49t140.5 18.5q82 0 118.5 -15.5t47.5 -23.5q2 -2 -1 -16.5t-9.5 -29.5t-13.5 -27.5t-9 -12.5q-16 8 -44 18.5t-81 10.5 q-82 0 -123 -33t-41 -109v-231q0 -121 143 -121q66 0 101 13.5t51 19.5q4 0 9 -13.5t9.5 -29.5t5.5 -30.5t-3 -16.5q-20 -12 -68.5 -23.5t-114.5 -11.5q-127 0 -193.5 54.5t-66.5 146.5z" />
<glyph unicode="&#xaa;" horiz-adv-x="819" d="M129 977q0 86 55.5 141.5t182.5 55.5h151v40q0 119 -115 119q-53 0 -115.5 -3t-103.5 -9v90q37 16 101.5 26.5t126.5 10.5q98 0 165.5 -50t67.5 -161v-334q0 -33 25 -33h69v-61q-16 -12 -42.5 -20.5t-63.5 -8.5q-35 0 -66.5 17.5t-40.5 46.5q-41 -33 -85 -50.5t-97 -17.5 q-43 0 -82 14.5t-68.5 40t-47 62.5t-17.5 84zM258 979q0 -33 29.5 -60.5t81.5 -27.5q39 0 72.5 8t76.5 35v143h-112q-82 0 -115 -27.5t-33 -70.5z" />
<glyph unicode="&#xab;" horiz-adv-x="1003" d="M61 461l301 461h181l-303 -461l303 -461h-181zM477 461l301 461h180l-303 -461l303 -461h-180z" />
<glyph unicode="&#xac;" horiz-adv-x="1196" d="M113 694v168h968v-604h-168v436h-800z" />
<glyph unicode="&#xad;" horiz-adv-x="661" d="M37 498v80q0 29 11 32.5t40 3.5h469q33 0 47 -4t14 -26v-80q0 -27 -11 -34t-50 -7h-475q-45 0 -45 35z" />
<glyph unicode="&#xae;" horiz-adv-x="1507" d="M80 641q0 135 52 252t143.5 204t213 137t263.5 50q141 0 263 -50t213 -137t143 -204t52 -252t-52 -252t-143 -203t-213 -136t-263 -50t-263 50t-213.5 136t-143.5 203t-52 252zM182 641q0 -117 45 -217t122 -175t181.5 -117t221.5 -42q119 0 222 42t180 117t122 175 t45 217t-45 218.5t-122 176t-180 116.5t-222 42q-117 0 -221.5 -42t-181.5 -116.5t-122 -176t-45 -218.5zM528 348v600q0 16 3.5 20.5t19.5 4.5h215q127 0 187.5 -54.5t60.5 -144.5q0 -41 -15.5 -71.5t-36 -51t-42 -33t-35.5 -16.5q-8 -4 -10.5 -5t2.5 -7l157 -246 q21 -33 -8 -33h-98q-10 0 -15.5 8.5t-11.5 18.5l-153 231q-4 8 -17 9h-63q-10 0 -11.5 -3.5t-1.5 -13.5v-219q0 -29 -22 -29h-88q-14 0 -15.5 9.5t-1.5 25.5zM655 692q0 -16 19 -16h108q43 0 72 23.5t29 78.5q0 101 -123 101h-88q-10 2 -13.5 -4.5t-3.5 -12.5v-170z" />
<glyph unicode="&#xaf;" horiz-adv-x="681" d="M2 1110v150h678v-150h-678z" />
<glyph unicode="&#xb0;" horiz-adv-x="811" d="M127 1214q0 57 21.5 107.5t59.5 88.5t88 59.5t107 21.5t107.5 -21.5t88.5 -59.5t59.5 -88t21.5 -108q0 -57 -21.5 -107t-59.5 -88t-88 -59.5t-108 -21.5q-57 0 -107 21.5t-88 59.5t-59.5 88t-21.5 107zM236 1214q0 -72 48 -121t119 -49q72 0 121 49.5t49 120.5 q0 72 -49 120t-121 48t-119.5 -48t-47.5 -120z" />
<glyph unicode="&#xb1;" horiz-adv-x="1196" d="M115 0v168h966v-168h-966zM115 639v168h399v399h168v-399h399v-168h-399v-399h-168v399h-399z" />
<glyph unicode="&#xb2;" horiz-adv-x="794" d="M164 680v78q63 66 121.5 127t102.5 117.5t69.5 108.5t25.5 99q0 66 -24.5 92.5t-104.5 26.5q-43 0 -91 -3t-89 -13v90q41 12 89 18t97 6q119 0 174.5 -54t55.5 -152q0 -92 -69.5 -204t-201.5 -235h312v-102h-467z" />
<glyph unicode="&#xb3;" horiz-adv-x="757" d="M164 680v88q41 -2 78 -4q33 -2 65.5 -3t54.5 -1q59 0 92 34.5t33 94.5q0 121 -129 121h-88v90h70q129 0 129 119q0 45 -23.5 74.5t-89.5 29.5q-29 0 -80 -3t-94 -9v84q47 12 102.5 16t96.5 4q94 0 144 -50t50 -136q0 -119 -98 -166v-2q51 -16 84 -60.5t33 -109.5 q0 -102 -56.5 -167t-164.5 -65q-39 0 -100.5 4.5t-108.5 16.5z" />
<glyph unicode="&#xb4;" horiz-adv-x="681" d="M225 1038l137 301h205l-207 -301h-135z" />
<glyph unicode="&#xb5;" horiz-adv-x="1048" d="M119 -410v1332h186v-549q0 -106 54.5 -166t142.5 -60q53 0 101 9.5t112 44.5v721h184v-760q0 -47 35 -47h94v-84q-49 -43 -151 -43q-47 0 -94.5 24.5t-57.5 63.5q-57 -45 -110.5 -66.5t-118.5 -21.5q-63 0 -123 26.5t-82 75.5v-500h-172z" />
<glyph unicode="&#xb6;" horiz-adv-x="821" d="M33 926q0 102 36.5 180t104.5 129t161 76.5t204 25.5h145q35 0 47 -10t12 -33v-1390q0 -29 -3 -43.5t-27 -14.5h-72q-23 0 -23 17v1343q0 6 -1 13.5t-13 7.5h-51q-18 0 -18 -21v-1343q0 -16 -23 -17h-61q-23 0 -31 6.5t-8 26.5v625q0 27 -11.5 36t-27.5 9 q-55 0 -115.5 21.5t-110 66.5t-82 116.5t-32.5 172.5z" />
<glyph unicode="&#xb7;" horiz-adv-x="532" d="M143 707q0 51 36 86.5t87 35.5t87 -35.5t36 -86.5t-36 -87t-87 -36t-87 35.5t-36 87.5z" />
<glyph unicode="&#xb8;" horiz-adv-x="681" d="M183 -333q5 11 14.5 21.5t19.5 15.5t14 -1q10 -14 34 -24.5t54 -10.5q41 0 67 13.5t26 48.5q0 37 -21.5 49t-62.5 12h-13.5t-13.5 -2q-10 -2 -13 -2t-3 10v154h94v-94q59 0 98 -30.5t39 -96.5q0 -70 -54 -105t-136 -35q-53 0 -83 12.5t-59 45.5q-6 8 -1 19z" />
<glyph unicode="&#xb9;" horiz-adv-x="761" d="M164 680v88h164v559l-148 -43v86l158 47h96v-649h164v-88h-434z" />
<glyph unicode="&#xba;" horiz-adv-x="819" d="M109 1118q0 70 19 130.5t57 104.5t93.5 68.5t127.5 24.5q76 0 133 -24.5t95 -67.5t57.5 -103.5t19.5 -132.5q0 -154 -75 -248t-230 -94q-74 0 -130.5 25.5t-93.5 72t-55 108.5t-18 136zM240 1118q0 -102 35.5 -164.5t130.5 -62.5q100 0 138 60.5t38 164.5q0 94 -40 155.5 t-136 61.5q-92 0 -129 -61.5t-37 -153.5z" />
<glyph unicode="&#xbb;" horiz-adv-x="1003" d="M45 0l303 461l-303 461h180l301 -461l-301 -461h-180zM461 0l303 461l-303 461h180l301 -461l-301 -461h-180z" />
<glyph unicode="&#xbc;" horiz-adv-x="1634" d="M164 680v88h164v559l-148 -43v86l158 47h96v-649h164v-88h-434zM293 -55l932 1470h137l-932 -1470h-137zM973 168v47l332 533h100v-486h65v-94h-65v-168h-107v168h-325zM1116 262h182v287h-2z" />
<glyph unicode="&#xbd;" horiz-adv-x="1699" d="M164 680v88h164v559l-148 -43v86l158 47h96v-649h164v-88h-434zM293 -55l932 1470h137l-932 -1470h-137zM1069 0v78q63 66 121.5 127t102.5 117.5t70 108.5t26 99q0 66 -25 92.5t-104 26.5q-43 0 -91.5 -3t-89.5 -13v90q41 12 89.5 18.5t97.5 6.5q119 0 174 -54.5 t55 -152.5q0 -92 -69.5 -204t-200.5 -235h311v-102h-467z" />
<glyph unicode="&#xbe;" horiz-adv-x="1634" d="M164 680v88q41 -2 78 -4q33 -2 65.5 -3t54.5 -1q59 0 92 34.5t33 94.5q0 121 -129 121h-88v90h70q129 0 129 119q0 45 -23.5 74.5t-89.5 29.5q-29 0 -80 -3t-94 -9v84q47 12 102.5 16t96.5 4q94 0 144 -50t50 -136q0 -119 -98 -166v-2q51 -16 84 -60.5t33 -109.5 q0 -102 -56.5 -167t-164.5 -65q-39 0 -100.5 4.5t-108.5 16.5zM303 -55l932 1470h137l-932 -1470h-137zM973 168v47l332 533h100v-486h65v-94h-65v-168h-107v168h-325zM1116 262h182v287h-2z" />
<glyph unicode="&#xbf;" horiz-adv-x="868" d="M141 20q0 86 38 151t83 118t83 100t38 96v86q0 41 37 41h106q20 0 28.5 -8t6.5 -31q2 -25 2 -47q0 -20 -2 -41.5t-6 -40.5q-14 -53 -52 -97t-78 -89t-71.5 -92t-31.5 -105q0 -164 155 -163q51 0 105.5 25.5t83.5 47.5q8 6 21 -9t22.5 -39.5t11.5 -49.5t-10 -33 q-12 -10 -37 -23.5t-57.5 -27.5t-73.5 -23.5t-88 -9.5q-145 0 -229.5 70.5t-84.5 193.5zM362 829v84q0 23 4.5 41.5t34.5 18.5h125q33 0 44.5 -15.5t11.5 -37.5v-82q0 -16 -9.5 -29.5t-25.5 -13.5h-139q-29 0 -37.5 9t-8.5 25z" />
<glyph unicode="&#xc0;" horiz-adv-x="1218" d="M73 10q-5 10 7 53l389 1274q10 31 23.5 45.5t46.5 14.5h155q35 0 47.5 -14.5t24.5 -45.5l387 -1274q14 -47 1 -55t-40 -8h-151q-29 0 -33 10t-15 39l-81 268h-474l-79 -268q-10 -29 -18.5 -39t-31.5 -10h-137q-16 0 -21 10zM312 1804.5q1 12.5 40 12.5h133q25 0 34 -9.5 t24 -31.5l174 -244q35 -49 -8 -49h-76q-18 0 -32.5 9t-29.5 24l-233 247q-27 29 -26 41.5zM412 485h370l-186 639z" />
<glyph unicode="&#xc1;" horiz-adv-x="1218" d="M62.5 10q-5.5 10 7.5 53l389 1272q10 33 23.5 47.5t47.5 14.5h154q35 0 47 -14.5t25 -47.5l387 -1272q14 -47 0.5 -55t-39.5 -8h-152q-29 0 -33 10t-14 39l-82 268h-475l-80 -268q-10 -29 -17 -39t-30 -10h-137q-16 0 -21.5 10zM401 487h371l-184 637zM522 1534l174 242 q14 23 23.5 32t34.5 9h133q41 0 42 -12.5t-24 -41.5l-237 -245q-14 -16 -28.5 -25.5t-33.5 -9.5h-74q-41 0 -10 51z" />
<glyph unicode="&#xc2;" horiz-adv-x="1218" d="M71 10q-5 10 7 53l389 1272q10 35 23.5 48.5t46.5 13.5h155q35 0 47.5 -13.5t24.5 -48.5l387 -1272q14 -47 0 -55t-41 -8h-149q-29 0 -33 10t-15 39l-82 268h-475l-80 -268q-8 -29 -16 -39t-31 -10h-137q-16 0 -21 10zM346 1532l174 244q10 16 20.5 28.5t32.5 12.5h76 q25 0 35 -12.5t23 -28.5l174 -244q37 -49 -13 -49h-69q-18 0 -27.5 3t-23.5 19l-136 181l-135 -181q-14 -16 -24.5 -19t-24.5 -3h-74q-45 0 -8 49zM410 487h370l-184 637z" />
<glyph unicode="&#xc3;" horiz-adv-x="1218" d="M75 10q-5 10 7 53l389 1276q10 33 23.5 46.5t46.5 13.5h157q35 0 47.5 -13.5t24.5 -46.5l387 -1276q6 -23 6 -36t-6 -19t-16.5 -7t-22.5 -1h-151q-29 0 -33 10t-14 39l-82 268h-476l-79 -268q-10 -29 -18.5 -39t-31.5 -10h-137q-16 0 -21 10zM281 1608q12 27 31.5 59.5 t46 59t59.5 45t69 18.5q33 0 68 -17.5t69.5 -37t66.5 -37t57 -17.5q41 0 68.5 25t43.5 53q8 20 27 13l78 -27q14 -4 8 -29q-43 -84 -97.5 -137t-132.5 -53q-33 0 -65.5 16.5t-64 35.5t-61.5 35.5t-56 16.5q-31 0 -62 -21.5t-47 -49.5q-8 -12 -14 -14.5t-15 1.5l-71 37 q-16 8 -6 25zM414 487h372l-186 639z" />
<glyph unicode="&#xc4;" horiz-adv-x="1218" d="M68.5 8q-5.5 10 7.5 53l391 1280q10 33 23.5 46.5t46.5 13.5h157q35 0 47.5 -13.5t24.5 -46.5l389 -1280q6 -23 6 -36t-6 -19t-16.5 -7t-22.5 -1h-151q-29 0 -34 10t-16 39l-81 270h-476l-82 -270q-10 -29 -18 -39t-31 -10h-137q-16 0 -21.5 10zM291 1585v123q0 23 7 38 t36 15h123q31 0 41 -15t10 -38v-113q0 -23 -9.5 -36t-35.5 -13h-121q-33 0 -42 8.5t-9 30.5zM410 487h372l-186 641zM705 1602v112q0 47 40 47h119q35 0 44.5 -10t9.5 -33v-119q0 -23 -7.5 -38t-33.5 -15h-111q-41 0 -51 16.5t-10 39.5z" />
<glyph unicode="&#xc5;" horiz-adv-x="1218" d="M62.5 14.5q-5.5 10.5 7.5 53.5l387 1269q10 35 23.5 48.5t45.5 13.5h160q33 0 46 -13.5t24 -48.5l387 -1269q14 -47 -0.5 -55.5t-40.5 -8.5h-150q-29 0 -33 10.5t-14 38.5l-82 266h-475l-80 -266q-10 -29 -17 -39t-30 -10h-137q-16 0 -21.5 10.5zM381 1698q0 45 18.5 86 t49 70.5t71.5 47t88 17.5t89 -17.5t73 -47t49.5 -70.5t18.5 -86t-18.5 -85t-49.5 -71t-73 -48t-89 -17t-88 17t-71.5 48t-49 71t-18.5 85zM399 492h373l-184 634zM492 1698q0 -47 32.5 -85t83.5 -38t85 38t34 85t-32.5 86t-86.5 39q-49 0 -82.5 -39t-33.5 -86z" />
<glyph unicode="&#xc6;" horiz-adv-x="1712" d="M84 53l608 1288q16 33 26.5 47.5t43.5 14.5h780q35 0 43 -5t8 -26v-112q0 -23 -23.5 -27t-64.5 -4h-426q-33 0 -41 -9.5t-8 -21.5v-332q0 -29 9.5 -37t31.5 -8h379q41 0 51 -7t6 -26l-14 -108q-4 -29 -31.5 -32t-56.5 -3h-318q-31 0 -43 -10t-12 -35v-377q0 -33 15.5 -37 t39.5 -4h465q39 0 54.5 -7t15.5 -30v-110q0 -20 -12.5 -27.5t-28.5 -7.5h-725q-18 0 -31.5 12.5t-13.5 42.5v226q0 37 -35 36h-358l-127 -268q-10 -29 -23.5 -39t-34.5 -10h-127q-43 0 -22 53zM487 487h289q23 0 29 10.5t6 26.5v672z" />
<glyph unicode="&#xc7;" horiz-adv-x="1204" d="M162 397v533q0 100 24.5 187t88 152.5t173 103.5t281.5 38q82 0 139.5 -9t97.5 -22.5t62.5 -27t32.5 -21.5q6 -6 0 -31.5t-17.5 -54t-24.5 -50t-20 -19.5q-35 16 -91 36.5t-160 20.5q-193 0 -274 -80t-81 -242v-491q0 -78 28 -130t72 -83t99 -44t113 -13q63 0 112 8 t86 19t62.5 22.5t44.5 17.5q8 2 18 -21.5t17.5 -55t9.5 -59.5t-4 -34q-35 -23 -123 -44t-205 -26v-53q70 0 115 -38t45 -111q0 -80 -63.5 -120t-157.5 -40q-61 0 -96.5 14.5t-67.5 51.5q-8 8 -2 22t17 25.5t23.5 17.5t16.5 0q12 -16 38.5 -28.5t61.5 -12.5q47 0 78 16.5 t31 53.5q0 43 -25.5 58t-70.5 15q-10 0 -17.5 -1t-15.5 -3q-10 -2 -15.5 -1t-5.5 12v122q-217 16 -333.5 127t-116.5 293z" />
<glyph unicode="&#xc8;" horiz-adv-x="1064" d="M139 55v1278q0 29 5.5 46.5t31.5 17.5h690q35 0 43.5 -4t8.5 -25v-115q0 -23 -23 -26.5t-64 -3.5h-425q-31 0 -40.5 -10.5t-9.5 -20.5v-330q0 -27 9.5 -35t31.5 -8h379q41 0 51.5 -8t6.5 -27l-13 -106q-4 -31 -32.5 -34t-57.5 -3h-317q-31 0 -42.5 -9t-11.5 -34v-375 q0 -35 15.5 -39t40.5 -4h463q37 0 53 -6t16 -29v-110q0 -20 -12 -27.5t-27 -7.5h-727q-18 0 -30.5 12.5t-12.5 42.5zM281.5 1804.5q1.5 12.5 40.5 12.5h133q25 0 35 -10.5t24 -30.5l176 -244q37 -49 -10 -49h-74q-20 0 -35.5 10t-27.5 25l-236 245q-27 29 -25.5 41.5z" />
<glyph unicode="&#xc9;" horiz-adv-x="1064" d="M152 55v1278q0 29 5 46.5t31 17.5h691q35 0 43 -5.5t8 -25.5v-113q0 -23 -23.5 -26.5t-64.5 -3.5h-424q-31 0 -40 -9.5t-9 -21.5v-330q0 -29 10 -36t33 -7h376q41 0 51.5 -8t6.5 -27l-12 -106q-4 -31 -33 -34t-58 -3h-317q-53 0 -53 -43v-375q0 -33 15 -37t40 -4h463 q37 0 53.5 -7t16.5 -30v-110q0 -20 -12.5 -27.5t-28.5 -7.5h-725q-18 0 -30.5 12.5t-12.5 42.5zM446 1532l177 244q14 20 23 30.5t34 10.5h133q41 0 42 -12.5t-24 -41.5l-237 -245q-12 -16 -27.5 -25.5t-34.5 -9.5h-73q-45 0 -13 49z" />
<glyph unicode="&#xca;" horiz-adv-x="1064" d="M158 55v1278q0 29 5 46.5t32 17.5h690q35 0 43 -5.5t8 -25.5v-113q0 -23 -23.5 -26.5t-64.5 -3.5h-424q-31 0 -40 -9.5t-9 -21.5v-330q0 -29 10 -36t33 -7h377q41 0 51 -8t6 -27l-12 -106q-4 -31 -33 -34t-57 -3h-318q-53 0 -53 -43v-375q0 -33 15.5 -37t39.5 -4h463 q37 0 53.5 -7t16.5 -30v-110q0 -20 -12.5 -27.5t-28.5 -7.5h-725q-18 0 -30.5 12.5t-12.5 42.5zM287 1532l174 244q12 16 21.5 28.5t31.5 12.5h78q23 0 33 -12.5t22 -28.5l174 -244q37 -49 -10 -49h-72q-16 0 -26.5 3t-22.5 19l-135 181l-135 -181q-16 -16 -25.5 -19 t-25.5 -3h-72q-47 0 -10 49z" />
<glyph unicode="&#xcb;" horiz-adv-x="1064" d="M152 55v1282q0 29 5 46.5t31 17.5h693q35 0 43 -5t8 -26v-113q0 -23 -23.5 -26.5t-64.5 -3.5h-426q-31 0 -40 -9.5t-9 -21.5v-332q0 -29 10 -36t33 -7h379q41 0 51 -8t6 -27l-12 -106q-4 -31 -34 -34t-57 -3h-319q-53 0 -53 -43v-377q0 -33 15 -38t40 -5h463 q39 0 55.5 -6t16.5 -29v-110q0 -20 -12.5 -27.5t-28.5 -7.5h-727q-18 0 -30.5 12.5t-12.5 42.5zM227 1583v123q0 23 7.5 38t35.5 15h121q31 0 41 -15t10 -38v-113q0 -23 -9 -35t-36 -12h-118q-33 0 -42.5 7.5t-9.5 29.5zM641 1599v113q0 47 41 47h119q35 0 44 -10t9 -33 v-119q0 -23 -7 -37t-36 -14h-111q-41 0 -50 15.5t-9 37.5z" />
<glyph unicode="&#xcc;" horiz-adv-x="512" d="M-44 1804.5q1 12.5 40 12.5h133q25 0 35 -10.5t24 -30.5l174 -244q35 -49 -10 -49h-73q-18 0 -34 9t-28 26l-235 245q-27 29 -26 41.5zM150 53v1303q0 27 10 34t43 7h141q25 0 31 -11.5t6 -42.5v-1300q0 -23 -7 -33t-32 -10h-147q-27 0 -36 11.5t-9 41.5z" />
<glyph unicode="&#xcd;" horiz-adv-x="512" d="M147 53v1303q0 27 10.5 34t41.5 7h141q27 0 33 -11.5t6 -42.5v-1300q0 -23 -7 -33t-34 -10h-148q-25 0 -34 11.5t-9 41.5zM172 1532l176 244q14 20 23.5 30.5t34.5 10.5h133q41 0 42 -12.5t-26 -41.5l-236 -245q-14 -16 -28.5 -25.5t-32.5 -9.5h-74q-45 0 -12 49z" />
<glyph unicode="&#xce;" horiz-adv-x="512" d="M-8 1532l174 244q10 16 20.5 28.5t32.5 12.5h76q25 0 35 -12.5t22 -28.5l174 -244q37 -49 -12 -49h-70q-16 0 -26 3t-23 19l-135 181l-137 -181q-14 -16 -23.5 -19t-25.5 -3h-72q-47 0 -10 49zM141 53v1303q0 27 10.5 34t41.5 7h141q27 0 33 -11.5t6 -42.5v-1300 q0 -23 -7.5 -33t-33.5 -10h-148q-25 0 -34 11.5t-9 41.5z" />
<glyph unicode="&#xcf;" horiz-adv-x="512" d="M-63 1583v123q0 23 7 38t36 15h120q31 0 41.5 -15t10.5 -38v-113q0 -23 -9.5 -36t-36.5 -13h-118q-33 0 -42 8.5t-9 30.5zM137 45v1311q0 29 10.5 36t42.5 7h144q27 0 33 -11.5t6 -41.5v-1309q0 -25 -7.5 -35t-33.5 -10h-150q-27 0 -36 11t-9 42zM350 1597v115 q0 47 43 47h119q35 0 44 -10t9 -33v-119q0 -23 -7 -38t-36 -15h-110q-41 0 -51.5 15.5t-10.5 37.5z" />
<glyph unicode="&#xd0;" horiz-adv-x="1232" d="M-2 664v96q0 35 12.5 39t46.5 4h54v532q0 29 6 46.5t35 17.5h387q106 0 205.5 -18.5t175 -69.5t120.5 -139.5t45 -225.5v-510q0 -145 -49 -232t-122.5 -132t-157.5 -58.5t-154 -13.5h-442q-20 0 -34.5 14.5t-14.5 51.5v559h-60q-53 0 -53 39zM338 227q0 -20 9 -31.5 t40 -11.5h156q55 0 110.5 9.5t100.5 38t72.5 84t27.5 147.5v469q0 156 -84 220.5t-229 64.5h-160q-29 0 -36 -9.5t-7 -29.5v-375h151q37 0 53.5 -4t16.5 -33v-94q0 -29 -12 -38t-58 -9h-151v-398z" />
<glyph unicode="&#xd1;" horiz-adv-x="1353" d="M150 57v1280q0 2 1 12.5t4 21.5t10 19.5t19 8.5h133q47 0 56.5 -9.5t25.5 -31.5l559 -948q20 -35 29.5 -31t9.5 59v899q0 23 6.5 43.5t24.5 18.5h148q25 0 31.5 -15.5t6.5 -48.5v-1269q0 -39 -7 -55.5t-36 -14.5l-137 2q-27 0 -40 9t-29 38l-555 932q-23 39 -33 42 t-10 -42v-911q0 -39 -6.5 -52.5t-34.5 -13.5h-125h-17.5t-16.5 5t-12 17.5t-5 34.5zM348 1606q12 27 31.5 59.5t46.5 59t60.5 45t70.5 18.5q33 0 67.5 -17.5t68.5 -37t66 -37t58 -17.5q41 0 68.5 25t44.5 53q6 20 26 12l76 -24q18 -9 8 -29q-41 -86 -96 -139t-131 -53 q-33 0 -65.5 16t-65.5 36.5t-62.5 37t-56.5 16.5q-31 0 -61.5 -22.5t-46.5 -51.5q-10 -20 -29 -10l-70 35q-18 8 -8 25z" />
<glyph unicode="&#xd2;" horiz-adv-x="1398" d="M190 379v553q0 252 125 361.5t383 109.5q104 0 197.5 -21.5t162 -76t109.5 -143.5t41 -224v-500q0 -111 -25.5 -187.5t-68.5 -126.5t-97 -78t-109.5 -41t-109 -16t-93.5 -3q-70 0 -159 11t-168 52t-133.5 119t-54.5 211zM412 428q0 -72 26.5 -121t67.5 -78.5t93 -43 t106 -13.5q57 0 107 11.5t88 42t59.5 88t21.5 149.5v463q0 154 -68.5 223.5t-203.5 69.5q-166 0 -231.5 -77t-65.5 -224v-490zM451.5 1782q1.5 12 37.5 12h134q23 0 33 -9t24 -30l170 -239q35 -49 -8 -50h-74q-18 0 -32.5 9.5t-26.5 25.5l-234 242q-25 27 -23.5 39z" />
<glyph unicode="&#xd3;" horiz-adv-x="1398" d="M182 373v563q0 256 127 367.5t389 111.5q106 0 200.5 -22.5t165.5 -76.5t112 -145.5t41 -228.5v-510q0 -111 -27 -188.5t-70 -129t-98 -80t-111.5 -41.5t-111 -16.5t-94.5 -3.5q-72 0 -162 12.5t-170 53.5t-135.5 120t-55.5 214zM408 424q0 -74 26.5 -124t68.5 -81 t95 -44t107 -13q57 0 108 11t90 43t61.5 90.5t22.5 152.5v469q0 158 -70.5 228.5t-207.5 70.5q-84 0 -142.5 -19.5t-93.5 -58.5t-50 -96.5t-15 -132.5v-496zM582 1528l176 244q14 20 23.5 30t33.5 10h133q41 0 42 -12t-25 -41l-236 -246q-12 -14 -27.5 -24t-33.5 -10h-74 q-47 0 -12 49z" />
<glyph unicode="&#xd4;" horiz-adv-x="1398" d="M184 381v561q0 256 127 366.5t391 110.5q104 0 198.5 -22.5t165.5 -75.5t113 -144.5t42 -228.5v-508q0 -168 -57.5 -261t-138.5 -137t-169 -53t-149 -9q-72 0 -162 12t-170 53t-135.5 121t-55.5 215zM410 430q0 -74 26.5 -124t68.5 -80.5t95 -44t107 -13.5q57 0 108 11 t90 44t60.5 91.5t21.5 152.5v467q0 156 -68.5 227.5t-207.5 71.5q-84 0 -142.5 -19.5t-93.5 -58.5t-50 -96.5t-15 -130.5v-498zM444 1534l177 244q10 16 20 28.5t33 12.5h74q25 0 35 -12.5t22 -28.5l174 -244q37 -49 -12 -49h-70q-16 0 -26.5 3t-22.5 19l-135 181l-135 -181 q-14 -16 -24.5 -19t-25.5 -3h-73q-47 0 -11 49z" />
<glyph unicode="&#xd5;" horiz-adv-x="1398" d="M182 375v563q0 256 126 366.5t390 110.5q106 0 200.5 -22.5t165.5 -76.5t112 -144.5t41 -227.5v-510q0 -111 -27 -188.5t-70 -128.5t-98 -80t-111.5 -42t-111 -16.5t-94.5 -3.5q-72 0 -162 12.5t-170 53.5t-135.5 120t-55.5 214zM360 1604q12 27 32 58.5t46.5 58t60 45 t70.5 18.5q33 0 68 -17.5t68.5 -37t65.5 -37t56 -17.5q41 0 69 24.5t44 53.5q8 20 27 12l77 -24q17 -9 7 -29q-41 -84 -95.5 -137t-130.5 -53q-33 0 -65.5 16t-64 35.5t-61.5 36t-56 16.5q-33 0 -63 -22.5t-46 -51.5q-12 -20 -29 -10l-71 35q-14 8 -9 27zM408 426 q0 -74 26.5 -124t68.5 -81t95 -44t107 -13q57 0 108 11t90 43t61.5 90.5t22.5 152.5v469q0 158 -70.5 228.5t-207.5 70.5q-84 0 -142.5 -19.5t-93.5 -58.5t-50 -96.5t-15 -132.5v-496z" />
<glyph unicode="&#xd6;" horiz-adv-x="1398" d="M180 377v563q0 256 126 366.5t390 110.5q106 0 200.5 -22.5t165.5 -76.5t111.5 -144.5t40.5 -227.5v-510q0 -111 -26.5 -188.5t-69.5 -128.5t-98 -80t-111.5 -42t-111 -16.5t-95.5 -3.5q-72 0 -161.5 12.5t-169.5 53.5t-135.5 120t-55.5 214zM387 1577v123q0 23 7 38 t36 15h121q31 0 40 -15.5t9 -37.5v-113q0 -23 -8 -35t-35 -12h-119q-33 0 -42 7t-9 30zM406 428q0 -74 26.5 -124t68.5 -80.5t95 -44t106 -13.5q57 0 108.5 11t89.5 43t60.5 90.5t22.5 152.5v469q0 156 -69.5 227.5t-206.5 71.5q-84 0 -142.5 -19.5t-93.5 -58.5t-50 -96.5 t-15 -132.5v-496zM797 1593v113q0 47 43 47h116q37 0 45.5 -10t8.5 -33v-119q0 -23 -6.5 -37t-34.5 -14h-111q-41 0 -51 15.5t-10 37.5z" />
<glyph unicode="&#xd7;" horiz-adv-x="1021" d="M180.5 325.5q5.5 14.5 28.5 36.5l186 189l-194 194q-16 16 -18.5 26.5t12.5 27.5l53 53q23 20 33 16t30 -24l189 -189l192 191q16 16 29.5 19t30.5 -13l55 -53q20 -23 16 -33t-24 -31l-191 -188l189 -189q23 -23 28.5 -34t-10.5 -27l-57 -57q-18 -18 -32.5 -11t-37.5 29 l-184 184l-189 -190q-23 -23 -35 -28t-28 12l-57 55q-20 20 -14.5 34.5z" />
<glyph unicode="&#xd8;" horiz-adv-x="1398" d="M182 16.5q-4 12.5 29 53.5l65 84q-45 66 -67.5 163t-22.5 232q0 160 37 271.5t103.5 181t161 101.5t210.5 32q170 0 279 -70l14 18q25 35 41.5 46.5t54.5 11.5h95q27 0 24.5 -13.5t-30.5 -48.5l-95 -121q94 -141 95 -407q0 -279 -129 -424t-359 -145q-92 0 -169 16 t-136 53q-23 -31 -37 -39t-37 -8h-90q-33 0 -37 12.5zM430 453q0 -47 6 -91l426 553q-61 61 -172 62q-113 0 -186.5 -78t-73.5 -246v-200zM506 213q35 -39 83 -56.5t103 -17.5q117 0 183.5 92.5t66.5 245.5v187q0 29 -2 53t-6 49q-119 -156 -213 -277q-41 -53 -79 -102 t-69 -88q-37 -45 -67 -86z" />
<glyph unicode="&#xd9;" horiz-adv-x="1327" d="M182 403v947q0 47 33 49h145q25 0 36.5 -13.5t11.5 -50.5v-860q0 -147 70.5 -226t187.5 -79q80 0 131 21.5t80.5 61.5t41 97.5t11.5 128.5v871q0 27 6 37t25 12h147q25 0 37 -13.5t12 -50.5v-899q0 -150 -48 -240t-121 -138t-159 -63t-163 -15q-80 0 -166 19t-157 68.5 t-116 131.5t-45 204zM433 1804.5q1 12.5 40 12.5h131q25 0 35 -10.5t25 -30.5l174 -244q35 -47 -11 -47h-73q-18 0 -33.5 9t-28.5 24l-235 245q-25 29 -24 41.5z" />
<glyph unicode="&#xda;" horiz-adv-x="1327" d="M182 403v947q0 29 7.5 38t25.5 11h145q25 0 37.5 -12.5t12.5 -49.5v-860q0 -147 70.5 -227t187.5 -80q80 0 130 21.5t79.5 61.5t41 98.5t11.5 129.5v869q0 29 7 38t26 11h149q25 0 36 -12.5t11 -49.5v-901q0 -150 -48 -240t-120.5 -138t-160 -63t-162.5 -15 q-82 0 -168 19t-157 68.5t-116 131.5t-45 204zM541 1536l176 242q14 20 23.5 30.5t33.5 10.5h133q41 0 42 -12.5t-25 -41.5l-236 -245q-12 -14 -27.5 -24.5t-33.5 -10.5h-74q-45 0 -12 51z" />
<glyph unicode="&#xdb;" horiz-adv-x="1327" d="M184 401v942q0 47 33 50h143q25 0 36.5 -13.5t11.5 -50.5v-854q0 -147 71.5 -226t186.5 -79q80 0 130 21.5t79.5 61.5t41 97.5t11.5 128.5v864q0 47 33 50h147q25 0 36 -13.5t11 -50.5v-895q0 -150 -48 -239t-120 -137t-159 -63t-162 -15q-80 0 -165 19t-156 67.5 t-116 130.5t-45 204zM386 1491q-1 14 15 37l174 241q10 16 20.5 28.5t33.5 12.5h76q23 0 33 -12t22 -29l174 -241q16 -23 15 -37t-27 -14h-70q-16 0 -26.5 3t-22.5 21l-135 178l-136 -178q-14 -18 -23 -21t-26 -3h-71q-25 0 -26 14z" />
<glyph unicode="&#xdc;" horiz-adv-x="1327" d="M180 399v951q0 29 6.5 38t24.5 11h145q25 0 37.5 -12.5t12.5 -51.5v-862q0 -147 71.5 -228t188.5 -81q80 0 131 21.5t80.5 62.5t41 99.5t11.5 129.5v873q0 29 7 38t26 11h149q25 0 36 -12.5t11 -51.5v-903q0 -152 -48 -242t-120.5 -138t-160 -63.5t-164.5 -15.5 q-82 0 -168 19.5t-157 69t-116 131t-45 206.5zM358 1581v123q0 23 7.5 38t35.5 15h123q29 0 39 -15.5t10 -37.5v-113q0 -23 -9 -36t-34 -13h-118q-35 0 -44.5 8.5t-9.5 30.5zM770 1595v115q0 47 43 47h119q35 0 44 -10t9 -33v-119q0 -23 -7 -38t-36 -15h-111q-41 0 -51 15.5 t-10 37.5z" />
<glyph unicode="&#xdd;" horiz-adv-x="1196" d="M55.5 1393q10.5 6 32.5 6h166q20 0 29.5 -8.5t23.5 -32.5l316 -586l155 295q68 129 158 293q12 20 19.5 29.5t35.5 9.5h119q29 0 36 -9t-11 -42q-117 -217 -209 -387q-39 -74 -77 -143.5t-66.5 -124t-46.5 -87.5l-17 -33v-532q0 -41 -45 -41h-150q-23 0 -30 8t-7 31v536 l-426 785q-16 27 -5.5 33zM561 1534l174 244q14 20 23.5 30.5t34.5 10.5h135q41 0 42 -12.5t-26 -41.5l-237 -247q-12 -14 -27.5 -24.5t-34.5 -10.5h-74q-47 0 -10 51z" />
<glyph unicode="&#xde;" horiz-adv-x="1193" d="M143 0v1319h203v-213h227q238 0 362 -106.5t124 -342.5q0 -219 -122 -332.5t-339 -113.5h-54.5t-66.5 1t-69.5 2t-63.5 3v-217h-201zM344 385q55 -4 127 -5t115 -1q147 0 214.5 67.5t67.5 212.5q0 154 -68.5 218.5t-226.5 64.5h-229v-557z" />
<glyph unicode="&#xdf;" horiz-adv-x="1232" d="M-2 887v65q0 41 31 41h102v125q0 51 19.5 103.5t63.5 95.5t114.5 69.5t173.5 26.5q162 0 262 -71.5t100 -213.5q0 -55 -20.5 -96t-45 -75.5t-45 -71.5t-20.5 -84q0 -53 51.5 -96t122.5 -82q61 -33 115.5 -69t93.5 -79t61.5 -94.5t22.5 -114.5q0 -80 -32.5 -135t-85 -89 t-118 -49.5t-128.5 -15.5q-141 0 -214 23t-102 39q-8 2 -10 27.5t1 53t12 48t24 14.5q14 -4 31.5 -12t45 -16.5t67.5 -13.5t95 -5q92 0 143.5 36t51.5 101q0 53 -50 103.5t-143 99.5q-55 29 -104 57.5t-87 64.5t-60.5 80t-22.5 101q0 47 22.5 87t50 79t51.5 78t24 86 q0 76 -45.5 112.5t-110.5 36.5q-74 0 -111 -50t-37 -122v-1024q0 -63 -45 -63h-120q-23 0 -38.5 11t-15.5 38v801h-100q-25 0 -33 8t-8 31z" />
<glyph unicode="&#xe0;" horiz-adv-x="974" d="M96 455q0 227 78 357t225 130q111 0 176.5 -37t102.5 -102v74q0 43 31 43h110q35 0 42 -11.5t7 -40.5v-800q0 -35 -6 -51.5t-35 -16.5h-108q-18 0 -29.5 8t-11.5 41v74q-12 -29 -39 -53.5t-62.5 -45t-79.5 -31.5t-94 -11q-63 0 -118.5 25.5t-97.5 82.5t-66.5 147.5 t-24.5 217.5zM285.5 1307q1.5 12 36.5 12h118q23 0 32 -9.5t20 -27.5l155 -219q31 -43 -8 -43h-68q-29 0 -53 31l-211 221q-23 23 -21.5 35zM299 385q0 -127 45 -199.5t137 -72.5q43 0 77 19.5t58.5 47t37 56t12.5 47.5v313q0 29 -10.5 65.5t-33 70.5t-58.5 57.5t-85 23.5 q-88 0 -134 -65.5t-46 -217.5v-145z" />
<glyph unicode="&#xe1;" horiz-adv-x="974" d="M94 453q0 227 78 357t225 130q109 0 174.5 -38t102.5 -103v75q0 43 31 44h110q35 0 42 -12.5t7 -39.5v-798q0 -35 -6 -51.5t-35 -16.5h-108q-18 0 -29.5 8t-11.5 41v72q-12 -27 -39 -52.5t-62.5 -45t-79.5 -30.5t-94 -11q-61 0 -117.5 25.5t-97.5 82.5t-65.5 146.5 t-24.5 216.5zM295 385q0 -127 46 -200.5t138 -73.5q43 0 77 19.5t57.5 47t36 57t12.5 48.5v311q0 29 -10.5 65.5t-33 70.5t-58.5 57.5t-85 23.5q-88 0 -134 -65.5t-46 -217.5v-143zM406 1061l155 217q12 18 20.5 27.5t30.5 9.5h119q35 0 36 -12.5t-22 -34.5l-210 -221 q-12 -12 -25.5 -21.5t-30.5 -9.5h-63q-41 0 -10 45z" />
<glyph unicode="&#xe2;" horiz-adv-x="974" d="M94 453q0 227 78 358t225 131q111 0 176.5 -38t102.5 -103v76q0 18 7 30.5t24 12.5h108q37 0 44 -12.5t7 -41.5v-798q0 -35 -7 -51.5t-36 -16.5h-106q-20 0 -30.5 8t-10.5 41v72q-12 -27 -39 -52.5t-62.5 -45t-79.5 -30.5t-94 -11q-63 0 -118.5 25.5t-97.5 82.5 t-66.5 146.5t-24.5 216.5zM276 1063l154 217q10 16 19.5 26.5t29.5 10.5h68q23 0 32 -10.5t19 -26.5l156 -217q33 -45 -11 -45h-63q-16 0 -24.5 2t-18.5 18l-123 160l-119 -160q-12 -16 -21 -18t-24 -2h-63q-43 0 -11 45zM297 385q0 -125 45 -199.5t135 -74.5q43 0 78 20.5 t58.5 48t36 57t12.5 48.5v311q0 27 -10.5 64.5t-33 71.5t-58.5 57.5t-87 23.5q-86 0 -131 -65.5t-45 -219.5v-143z" />
<glyph unicode="&#xe3;" horiz-adv-x="974" d="M96 453q0 229 78 361t225 132q111 0 176.5 -39t102.5 -104v76q0 18 7 30.5t24 12.5h112q35 0 42 -12.5t7 -39.5v-802q0 -35 -6 -51.5t-35 -16.5h-110q-18 0 -29.5 8t-11.5 41v74q-27 -55 -101.5 -98t-173.5 -43q-63 0 -118.5 25.5t-97.5 82.5t-66.5 146.5t-24.5 216.5z M195 1130q10 25 28.5 52.5t43 52.5t53 41t63.5 16q27 0 57.5 -15t61 -33.5t59.5 -34t51 -15.5q37 0 61.5 22.5t41.5 49.5q6 18 22 10l72 -23q16 -8 6 -26q-37 -74 -87 -122t-118 -48q-31 0 -60.5 14t-57 32.5t-54 33t-49.5 14.5q-29 0 -56.5 -20.5t-41.5 -45.5 q-6 -12 -11.5 -13t-13.5 3l-63 33q-14 6 -8 22zM299 385q0 -125 45 -198.5t135 -73.5q43 0 78 20.5t58.5 48t36 56t12.5 47.5v311q0 29 -10.5 66.5t-33 71.5t-58.5 57.5t-87 23.5q-86 0 -131 -66.5t-45 -220.5v-143z" />
<glyph unicode="&#xe4;" horiz-adv-x="974" d="M92 457q0 227 78 358t227 131q111 0 176.5 -38t102.5 -103v76q0 43 31 43h110q37 0 44 -12.5t7 -39.5v-804q0 -35 -7 -51.5t-36 -16.5h-106q-20 0 -31.5 8t-11.5 43v72q-25 -55 -100.5 -98t-176.5 -43q-63 0 -118.5 26.5t-97.5 84t-66.5 147.5t-24.5 217zM221 1110v109 q0 23 6 36t31 13h111q29 0 37 -13.5t8 -35.5v-101q0 -20 -8.5 -31.5t-30.5 -11.5h-107q-31 0 -39 6t-8 29zM295 387q0 -125 46 -199.5t138 -74.5q43 0 77 20.5t58.5 48t37 57t12.5 48.5v311q0 29 -10.5 66.5t-33 71.5t-58.5 57.5t-87 23.5q-88 0 -134 -65.5t-46 -219.5v-145 zM590 1122v103q0 43 37 43h106q33 0 41 -8.5t8 -30.5v-109q0 -18 -7 -31.5t-32 -13.5h-100q-35 0 -44 13.5t-9 33.5z" />
<glyph unicode="&#xe5;" horiz-adv-x="974" d="M96 455q0 229 78 360t225 131q111 0 176.5 -39t102.5 -104v76q0 43 31 43h112q35 0 42 -12.5t7 -39.5v-802q0 -35 -6 -51.5t-35 -16.5h-110q-18 0 -29.5 8t-11.5 41v74q-27 -55 -101.5 -98t-173.5 -43q-63 0 -118.5 25.5t-97.5 82.5t-66.5 147.5t-24.5 217.5zM299 385 q0 -125 45 -198.5t137 -73.5q43 0 77 20.5t57.5 48t36 56t12.5 45.5v313q0 29 -10.5 66.5t-33 71.5t-58.5 57.5t-85 23.5q-86 0 -132 -66.5t-46 -220.5v-143zM311 1210q0 41 16.5 78t44 63.5t64.5 42t78 15.5t79 -15.5t65.5 -42t44 -63.5t16.5 -78t-16.5 -76.5t-44 -62.5 t-65.5 -42t-79 -15t-78 15t-64.5 42t-44 62.5t-16.5 76.5zM412 1210q0 -41 28.5 -75.5t73.5 -34.5t76 34.5t31 75.5t-30 76t-77 35q-43 0 -72.5 -35t-29.5 -76z" />
<glyph unicode="&#xe6;" horiz-adv-x="1454" d="M53 455q0 227 77 358t224 131q111 0 178.5 -39t104.5 -104v76q0 43 31 43h92q25 0 34 -5.5t13 -17.5q88 47 211 47q180 0 277.5 -90t97.5 -270v-103q0 -39 -11.5 -56t-58.5 -17h-508q0 -147 68.5 -215t191.5 -68q104 0 166 15.5t86 23.5q47 18 47 -17v-86q0 -23 -11 -32 t-46 -19q-8 -4 -35 -8t-61.5 -9t-75.5 -8t-80 -3q-160 0 -258 53q-4 -16 -11.5 -25.5t-27.5 -9.5h-90q-20 0 -30.5 8t-10.5 43v72q-27 -55 -102.5 -98t-176.5 -43q-61 0 -117.5 25.5t-97.5 82.5t-65.5 147.5t-24.5 217.5zM256 387q0 -125 45 -199.5t137 -74.5q43 0 78 19.5 t58.5 47t36 56t12.5 47.5v315q0 29 -10.5 65.5t-33 70.5t-58.5 56.5t-87 22.5q-88 0 -133 -65.5t-45 -217.5v-143zM819 563q0 -18 3 -26.5t20 -8.5h348q12 0 15 7.5t3 25.5q-4 125 -46 192.5t-148 67.5q-51 0 -88 -20.5t-60.5 -56t-35 -83t-11.5 -98.5z" />
<glyph unicode="&#xe7;" horiz-adv-x="854" d="M68 451q0 129 29.5 219t84 145t130 81t169.5 26q104 0 178 -29t123 -94q8 -12 -9 -33t-42.5 -38t-50.5 -26.5t-31 0.5q-25 41 -64.5 67t-105.5 26q-92 0 -151.5 -62.5t-59.5 -197.5v-162q0 -133 61.5 -191.5t149.5 -58.5q55 0 97 29.5t71 74.5q6 12 29.5 8t49.5 -15 t44 -26.5t14 -25.5q-41 -76 -111.5 -121t-174.5 -51v-49q61 0 100 -32t39 -97q0 -70 -55.5 -105t-137.5 -35q-51 0 -81.5 12.5t-59.5 45.5q-6 8 -1 19.5t14.5 21.5t20.5 15t15 1q10 -16 33 -26.5t51 -10.5q41 0 68.5 13.5t27.5 48.5q0 37 -22.5 49t-60.5 12h-29 q-10 -2 -13.5 -2t-3.5 8v113q-80 6 -142 33.5t-105 81t-65.5 136.5t-22.5 202z" />
<glyph unicode="&#xe8;" horiz-adv-x="940" d="M82 453q0 248 99.5 368.5t291.5 120.5q178 0 275.5 -92t97.5 -266v-105q0 -37 -11.5 -54t-58.5 -17h-502q0 -147 68 -212t186 -65q104 0 167 14.5t85 22.5q47 18 47 -14v-84q0 -23 -11 -32t-44 -20q-8 -4 -34.5 -9t-62.5 -9t-77 -7t-78 -3q-217 0 -327.5 106.5 t-110.5 356.5zM245.5 1301q0.5 12 35.5 12h118q20 0 29.5 -9.5t22.5 -25.5l155 -217q31 -43 -10 -43h-66q-16 0 -29.5 9t-23.5 20l-209 219q-23 23 -22.5 35zM279 567q0 -16 2 -24t20 -8h340q12 0 15 7t3 23q-2 125 -44 189.5t-146 64.5q-51 0 -87 -19.5t-58.5 -54 t-33.5 -81t-11 -97.5z" />
<glyph unicode="&#xe9;" horiz-adv-x="940" d="M86 455q0 244 99.5 365.5t291.5 121.5q178 0 275.5 -93t97.5 -265v-103q0 -39 -11.5 -56t-58.5 -17h-501q0 -147 67.5 -212t188.5 -65q104 0 164.5 15.5t82.5 23.5q25 10 37 4t12 -20v-84q0 -23 -11 -32t-46 -20q-8 -4 -33.5 -8t-61.5 -9t-76 -8t-79 -3 q-217 0 -327.5 106.5t-110.5 358.5zM285 569q0 -18 2 -25t20 -7h340q12 0 15.5 6t3.5 24q-4 123 -45 187.5t-148 64.5q-51 0 -86 -20.5t-57.5 -54t-33.5 -78.5t-11 -97zM367 1061l155 215q12 18 20.5 27.5t30.5 9.5h117q37 0 38 -12.5t-21 -34.5l-211 -217q-25 -31 -54 -31 h-65q-39 0 -10 43z" />
<glyph unicode="&#xea;" horiz-adv-x="940" d="M86 455q0 246 99.5 367.5t293.5 121.5q176 0 274.5 -94t98.5 -264v-105q0 -37 -11.5 -55t-58.5 -18h-503q0 -147 68.5 -212t187.5 -65q104 0 166.5 14.5t84.5 22.5q47 18 48 -14v-84q0 -23 -11.5 -32t-46.5 -20q-8 -4 -34.5 -8t-61.5 -9t-76 -8t-78 -3 q-219 0 -329.5 106.5t-110.5 358.5zM234 1030q-1 12 16 33l156 217q10 14 18 24.5t27 10.5h69q23 0 31 -10.5t20 -24.5l152 -217q16 -20 14 -32.5t-24 -12.5h-62q-14 0 -23.5 2t-19.5 18l-121 162l-120 -162q-12 -16 -21.5 -18t-21.5 -2h-66q-23 0 -24 12zM285 569 q0 -18 2 -25t18 -7h342q12 0 15.5 7t3.5 23q-4 123 -45 188.5t-146 65.5q-51 0 -87 -20.5t-59.5 -54t-33.5 -79.5t-10 -98z" />
<glyph unicode="&#xeb;" horiz-adv-x="940" d="M84 453q0 248 99.5 368.5t293.5 120.5q180 0 277.5 -92t97.5 -264v-107q0 -39 -11.5 -56t-58.5 -17h-506q0 -147 69 -213t190 -66q104 0 166.5 15.5t84.5 23.5q23 10 35.5 4t12.5 -20v-84q0 -23 -11.5 -32t-44.5 -20q-10 -4 -35.5 -8t-61.5 -9t-77 -8t-78 -3 q-219 0 -330.5 106.5t-111.5 360.5zM207 1106v106q0 23 6 36.5t31 13.5h108q29 0 37 -13.5t8 -36.5v-98q0 -20 -8 -31.5t-31 -11.5h-106q-29 0 -37 6t-8 29zM283 569q0 -18 2 -26t20 -8h344q12 0 15.5 8t3.5 24q-4 123 -46 188.5t-147 65.5q-51 0 -87 -20.5t-59.5 -55 t-34.5 -79.5t-11 -97zM571 1120v99q0 43 39 43h107q29 0 37 -8.5t8 -30.5v-105q0 -20 -7 -33.5t-30 -13.5h-98q-35 0 -45.5 13.5t-10.5 35.5z" />
<glyph unicode="&#xec;" horiz-adv-x="446" d="M-78 1311q0 12 35 12h121q23 0 32 -9t21 -28l156 -219q31 -43 -8 -43h-68q-29 0 -53 31l-213 221q-23 23 -23 35zM129 59v811q0 27 7 39.5t34 12.5h109q31 0 35.5 -11.5t4.5 -40.5v-811q0 -33 -5 -46t-29 -13h-119q-23 0 -30 13.5t-7 45.5z" />
<glyph unicode="&#xed;" horiz-adv-x="446" d="M123 57v813q0 27 7 39.5t34 12.5h108q31 0 36 -11.5t5 -40.5v-813q0 -33 -5 -46t-29 -13h-119q-23 0 -30 13.5t-7 45.5zM156 1069l157 219q14 18 22.5 27.5t31.5 9.5h120q35 0 36 -12.5t-21 -34.5l-215 -221q-10 -14 -23.5 -23.5t-30.5 -9.5h-67q-41 0 -10 45z" />
<glyph unicode="&#xee;" horiz-adv-x="446" d="M-16 1071l155 217q10 16 19.5 27.5t27.5 11.5h72q23 0 31 -11t20 -28l156 -217q33 -45 -10 -45h-64q-16 0 -24.5 2t-20.5 19l-123 159l-121 -159q-14 -16 -23 -18.5t-22 -2.5h-65q-41 0 -8 45zM125 59v813q0 27 8 39.5t33 12.5h110q31 0 36 -11.5t5 -40.5v-813 q0 -33 -5 -46t-29 -13h-121q-23 0 -30 13.5t-7 45.5z" />
<glyph unicode="&#xef;" horiz-adv-x="446" d="M-57 1108v109q0 23 6 36t31 13h110q27 0 35 -13.5t8 -35.5v-101q0 -18 -8 -30.5t-31 -12.5h-106q-29 0 -37 7t-8 28zM129 59v811q0 27 7 39.5t34 12.5h109q31 0 35.5 -11.5t4.5 -40.5v-811q0 -35 -5 -47t-27 -12h-123q-23 0 -29 12.5t-6 46.5zM311 1122v101q0 43 37 43 h107q33 0 40 -8.5t7 -30.5v-107q0 -20 -6.5 -33.5t-30.5 -13.5h-98q-37 0 -46.5 13.5t-9.5 35.5z" />
<glyph unicode="&#xf0;" horiz-adv-x="1015" d="M76 479q0 250 123 373t325 123q49 0 102.5 -18.5t88.5 -53.5q-27 59 -59.5 110.5t-71.5 94.5l-58 -57q-18 -18 -25 -19.5t-22 12.5l-57 58q-14 14 -7 20t29 29l48 51q-16 14 -34 27.5l-34 25.5q-10 8 -20.5 22.5t10.5 35.5l75 88q12 14 25.5 2t26.5 -23 q18 -14 35.5 -29.5t33.5 -29.5l41 41q27 25 35 29t19 -7l59 -61q12 -12 7 -22.5t-30 -34.5l-39 -39q63 -74 109.5 -152t75 -169t42 -195.5t13.5 -229.5q0 -244 -112.5 -371.5t-313.5 -127.5q-104 0 -186 23.5t-138.5 80.5t-86 153.5t-29.5 239.5zM289 395q0 -74 18.5 -126 t49 -85.5t72.5 -49t89 -15.5q104 0 161.5 81t57.5 216v164q0 119 -49 187.5t-170 68.5q-98 0 -163.5 -69t-65.5 -198v-174z" />
<glyph unicode="&#xf1;" horiz-adv-x="1024" d="M141 61v807q0 27 7.5 40.5t33.5 13.5h111q23 0 32 -25t9 -84q43 59 108.5 94t165.5 35q55 0 104.5 -15.5t86.5 -50t58.5 -91t21.5 -138.5v-571q0 -41 -8.5 -59.5t-30.5 -18.5h-111q-45 0 -45 61v547q0 68 -36 119t-126 51q-49 0 -86 -18.5t-59.5 -48t-33.5 -64.5t-11 -65 v-517q0 -35 -5 -50t-30 -15h-109q-29 0 -38 14.5t-9 48.5zM207 1135q10 25 27.5 52t42 52t53 41t63.5 16q29 0 60.5 -15t62.5 -33.5t59.5 -34t53.5 -15.5q35 0 60.5 22.5t39.5 49.5q8 18 25 10l67 -23q16 -8 6 -26q-37 -74 -86 -122t-116 -48q-31 0 -60.5 14.5t-58.5 32.5 t-55.5 32.5t-51.5 14.5q-29 0 -55.5 -20.5t-40.5 -44.5q-8 -12 -13 -13.5t-14 2.5l-63 33q-16 6 -6 23z" />
<glyph unicode="&#xf2;" horiz-adv-x="991" d="M78 451q0 135 30.5 228t86 151.5t134.5 84t175 25.5t171 -26.5t126 -85t77.5 -151.5t26.5 -226q0 -231 -107.5 -352.5t-301.5 -121.5q-98 0 -176 23t-132.5 77t-82 145t-27.5 229zM275 1306q1 11 36 11h121q23 0 31 -9.5t20 -25.5l154 -221q33 -45 -8 -45h-68 q-16 0 -29.5 9t-23.5 22l-209 223q-25 25 -24 36zM281 371q0 -72 17 -121t47 -82t70 -47.5t85 -14.5q98 0 153.5 78t55.5 207v154q0 117 -47.5 191.5t-163.5 74.5q-92 0 -154.5 -65.5t-62.5 -208.5v-166z" />
<glyph unicode="&#xf3;" horiz-adv-x="991" d="M78 453q0 133 30.5 226t87 151.5t135.5 84t175 25.5q94 0 168 -26.5t125 -85t77.5 -150.5t26.5 -223q0 -233 -106.5 -355.5t-298.5 -122.5q-100 0 -178 23t-132.5 78t-82 146t-27.5 229zM283 371q0 -139 63.5 -200.5t155.5 -61.5q98 0 153.5 77.5t55.5 204.5v158 q0 111 -47.5 185.5t-163.5 74.5q-94 0 -155.5 -64.5t-61.5 -205.5v-168zM387 1061l158 219q14 18 21 27.5t30 9.5h121q35 0 37 -12.5t-21 -34.5l-213 -221q-27 -31 -55 -31h-68q-39 0 -10 43z" />
<glyph unicode="&#xf4;" horiz-adv-x="991" d="M78 451q0 135 30.5 228t87 151.5t135.5 85t175 26.5q190 0 294.5 -112.5t104.5 -376.5q0 -231 -107.5 -353.5t-299.5 -122.5q-100 0 -178 23t-132.5 77t-82 145t-27.5 229zM264 1065l156 217q10 16 19.5 26.5t27.5 10.5h70q23 0 30.5 -10.5t20.5 -26.5l155 -217 q35 -45 -10 -45h-63q-16 0 -24.5 2t-20.5 18l-121 160l-121 -160q-14 -16 -23.5 -18t-21.5 -2h-66q-41 0 -8 45zM281 371q0 -70 17 -120t47 -82t70 -46t85 -14q98 0 153.5 76.5t55.5 205.5v156q0 117 -47.5 190.5t-163.5 73.5q-94 0 -155.5 -65.5t-61.5 -206.5v-168z" />
<glyph unicode="&#xf5;" horiz-adv-x="991" d="M86 453q0 135 30.5 228t87 151.5t135.5 84t177 25.5q94 0 168 -26.5t125 -85t77.5 -151.5t26.5 -224q0 -233 -107.5 -355.5t-299.5 -122.5q-100 0 -178 23t-132.5 78t-82 146t-27.5 229zM197 1130q10 25 28.5 52.5t42 52.5t53 41t62.5 16q31 0 62.5 -15t62.5 -33.5 t59.5 -34t50.5 -15.5q35 0 61 22.5t40 49.5q8 18 24 10l68 -23q16 -8 6 -26q-37 -74 -86 -122t-117 -48q-29 0 -58.5 14t-58 32.5t-55 33t-51.5 14.5q-29 0 -56.5 -20.5t-41.5 -45.5q-10 -16 -27 -10l-61 33q-14 6 -8 22zM289 373q0 -141 64.5 -202.5t156.5 -61.5 q98 0 153.5 77.5t55.5 206.5v156q0 113 -47 187.5t-164 74.5q-96 0 -157.5 -64.5t-61.5 -205.5v-168z" />
<glyph unicode="&#xf6;" horiz-adv-x="991" d="M80 455q0 133 30.5 226t86 151.5t134.5 84t175 25.5q190 0 294.5 -111.5t104.5 -375.5q0 -229 -107.5 -351t-299.5 -122q-98 0 -176 22.5t-132.5 77.5t-82 146t-27.5 227zM223 1104v110q0 20 6.5 34t32.5 14h109q27 0 35 -13.5t8 -34.5v-102q0 -18 -7.5 -30.5 t-29.5 -12.5h-107q-29 0 -38 7t-9 28zM283 373q0 -70 17 -119t47 -81t69 -46t84 -14q98 0 153.5 77.5t55.5 202.5v156q0 115 -46.5 188.5t-162.5 73.5q-92 0 -154.5 -64.5t-62.5 -205.5v-168zM590 1118v101q0 43 37 43h106q33 0 41 -8.5t8 -30.5v-107q0 -20 -7 -33.5 t-32 -13.5h-98q-37 0 -46 13.5t-9 35.5z" />
<glyph unicode="&#xf7;" horiz-adv-x="1196" d="M309 580v79q0 29 11.5 33t39.5 4h469q33 0 47.5 -4t14.5 -26v-80q0 -27 -11.5 -34t-50.5 -7h-475q-45 0 -45 35zM512 389q0 37 26.5 63.5t63.5 26.5q35 0 61.5 -26.5t26.5 -63.5q0 -35 -26.5 -61.5t-61.5 -26.5q-37 0 -63.5 26.5t-26.5 61.5zM512 842q0 37 26.5 63.5 t63.5 26.5q35 0 61.5 -26.5t26.5 -63.5q0 -35 -26.5 -61.5t-61.5 -26.5q-37 0 -63.5 26.5t-26.5 61.5z" />
<glyph unicode="&#xf8;" horiz-adv-x="991" d="M66 471q0 98 27.5 184t80.5 149.5t133 99.5t182 36q141 0 244 -63l55 94h123l-96 -162q111 -127 111 -338q0 -109 -27 -199t-81 -154.5t-136 -100t-193 -35.5q-43 0 -79.5 6t-71.5 16l-53 -88h-123l82 137q-90 63 -134 171t-44 247zM252 471q0 -90 18.5 -159.5 t61.5 -110.5l311 526q-62 49 -156 49q-66 0 -109.5 -22.5t-72.5 -63.5t-41 -97t-12 -122zM424 152q31 -6 63 -7q143 0 197.5 87t54.5 237q0 92 -28 166z" />
<glyph unicode="&#xf9;" horiz-adv-x="1024" d="M139 274v590q0 33 8.5 46.5t30.5 13.5h113q45 0 45 -62v-547q0 -70 35 -119t125 -49q47 0 82.5 18.5t59.5 47.5t36 62.5t12 66.5v516q0 35 5 50.5t30 15.5h108q29 0 37 -14.5t8 -49.5v-807q0 -25 -6 -39t-32 -14h-111q-23 0 -32 23.5t-9 82.5q-57 -66 -119.5 -94 t-152.5 -28q-51 0 -100.5 15t-87.5 50t-61.5 90.5t-23.5 134.5zM269 1313q1 12 36 12h119q23 0 32 -9t23 -28l154 -219q33 -45 -8 -45h-68q-16 0 -29.5 9t-23.5 22l-213 221q-23 25 -22 37z" />
<glyph unicode="&#xfa;" horiz-adv-x="1028" d="M139 276v586q0 33 8.5 47.5t30.5 14.5h113q45 0 45 -62v-545q0 -72 35 -121t125 -49q49 0 84.5 18.5t59.5 47.5t36 63.5t12 65.5v516q0 35 4 50.5t29 15.5h106q29 0 38 -15.5t9 -48.5v-807q0 -25 -7 -39t-31 -14h-109q-23 0 -32 23.5t-9 82.5q-57 -66 -120.5 -94 t-153.5 -28q-51 0 -100.5 15t-87.5 51t-61.5 91.5t-23.5 134.5zM412 1069l157 219q12 18 20.5 27.5t31.5 9.5h120q35 0 36 -12.5t-21 -34.5l-213 -223q-10 -12 -24.5 -21.5t-31.5 -9.5h-65q-43 0 -10 45z" />
<glyph unicode="&#xfb;" horiz-adv-x="1026" d="M143 274v590q0 31 8.5 45.5t30.5 14.5h113q43 0 43 -62v-547q0 -68 36 -119t124 -51q49 0 84.5 18.5t60.5 48.5t37 64.5t12 65.5v516q0 35 4 50.5t29 15.5h109q29 0 37 -14.5t8 -49.5v-807q0 -27 -6.5 -40t-32.5 -13h-109q-23 0 -32 23.5t-9 82.5q-59 -66 -121.5 -94 t-152.5 -28q-51 0 -100.5 15t-87.5 50t-61.5 90.5t-23.5 134.5zM259 1036.5q-1 12.5 15 32.5l156 221q10 14 19.5 24.5t27.5 10.5h70q23 0 31 -10l20 -25l156 -221q16 -20 14 -32.5t-25 -12.5h-61q-16 0 -25.5 2t-21.5 18l-121 162l-121 -162q-12 -16 -21.5 -18t-25.5 -2 h-63q-23 0 -24 12.5z" />
<glyph unicode="&#xfc;" horiz-adv-x="1077" d="M168 274v590q0 33 8 47.5t31 14.5h112q43 0 43 -64v-547q0 -70 35 -119t125 -49q49 0 86 18.5t60.5 47.5t36 63.5t12.5 65.5v518q0 35 5 50.5t30 15.5h106q29 0 38 -15.5t9 -48.5v-809q0 -25 -7 -39t-32 -14h-110q-23 0 -32 23.5t-9 82.5q-57 -66 -121 -94t-156 -28 q-51 0 -99 15t-86 50t-61.5 90.5t-23.5 134.5zM256 1114v109q0 23 6 36t33 13h108q29 0 37.5 -13.5t8.5 -35.5v-101q0 -20 -8.5 -32.5t-30.5 -12.5h-107q-29 0 -38 7.5t-9 29.5zM627 1128v101q0 43 39 43h106q33 0 40 -8.5t7 -30.5v-107q0 -20 -6 -34.5t-31 -14.5h-100 q-35 0 -45 14.5t-10 36.5z" />
<glyph unicode="&#xfd;" horiz-adv-x="917" d="M45 891q-10 23 1 31t36 8h119q20 0 30.5 -12.5t14.5 -28.5l223 -637l227 637q6 14 17.5 27.5t25.5 13.5h105q29 0 33 -8.5t-7 -36.5l-440 -1186q-10 -27 -22.5 -36t-34.5 -9h-90q-45 0 -27 41l109 305zM397 1075l156 219q14 20 22.5 29.5t30.5 9.5h121q35 0 36 -12 t-22 -39l-213 -219q-10 -12 -24.5 -21.5t-30.5 -9.5h-65q-45 0 -11 43z" />
<glyph unicode="&#xfe;" horiz-adv-x="1128" d="M121 -215v1325q0 29 10 36t43 7h141q27 0 33 -11.5t6 -43.5v-137q0 -16 5.5 -26.5t37.5 -10.5h187q532 0 532 -453q0 -227 -125 -345t-381 -118h-221q-23 0 -28 -7t-5 -32v-194q0 -25 -8 -35t-35 -10h-147q-27 0 -36 11t-9 44zM123 -371h182h-182zM356 229 q0 -25 8.5 -30.5t32.5 -5.5h234q106 0 176 67t70 219q0 70 -25 120t-66 83t-96 47t-117 14h-180q-23 -2 -30 -12t-7 -20v-482z" />
<glyph unicode="&#xff;" horiz-adv-x="917" d="M47 883q-10 23 1 31t34 8h121q18 0 28.5 -12.5t16.5 -30.5l221 -629l225 629q6 14 17.5 28.5t25.5 14.5h105q29 0 33 -9.5t-7 -35.5l-438 -1180q-10 -25 -22.5 -34t-34.5 -9h-92q-39 0 -25 39l111 305zM184 1110v109q0 20 6.5 34.5t32.5 14.5h111q29 0 37 -14.5t8 -34.5 v-101q0 -20 -8.5 -31.5t-32.5 -11.5h-107q-29 0 -38 7.5t-9 27.5zM555 1124v101q0 43 39 43h106q31 0 39.5 -8.5t8.5 -30.5v-107q0 -20 -7.5 -33.5t-31.5 -13.5h-99q-35 0 -45 13.5t-10 35.5z" />
<glyph unicode="&#x131;" horiz-adv-x="448" d="M133 0v920h182v-920h-182z" />
<glyph unicode="&#x141;" horiz-adv-x="1003" d="M5 636q9 11 38 30q31 18 55 32q10 6 20.5 11.5t18.5 9.5q8 6 19 10v619q0 27 8 38t35 11h137q31 0 41 -13.5t10 -50.5v-471l94 53q33 18 49.5 24.5t28.5 -17.5l49 -80q12 -27 5 -41.5t-46 -36.5l-180 -107v-448q0 -23 10.5 -29t32.5 -6h471q29 0 33 -8t4 -31v-98 q0 -27 -10 -32t-35 -5h-696q-29 0 -35 13.5t-6 54.5v456l-31 -16q-25 -14 -39 -13t-27 21l-47 80q-16 29 -7 40z" />
<glyph unicode="&#x142;" horiz-adv-x="595" d="M12 600q8 10 37 29l135 76v583q0 25 7.5 37t35.5 12h113q33 0 38 -12t5 -41v-471l53 31q31 18 47.5 23t26.5 -17l45 -76q12 -25 6 -38t-43 -36q-39 -23 -67 -38q-14 -8 -25.5 -14.5t-22.5 -12.5q-10 -8 -20 -12v-560q0 -35 -5 -49t-30 -14h-121q-29 0 -36 10t-7 49v453 l-59 -33q-23 -14 -36 -13t-23 19l-46 76q-16 29 -8 39z" />
<glyph unicode="&#x152;" horiz-adv-x="1533" d="M96 317v484q0 221 109.5 316t335.5 95q70 0 136 -17t107 -48q0 47 29 47h594q29 0 37 -4t8 -21v-98q0 -18 -20.5 -21t-55.5 -3h-364q-27 0 -35 -8.5t-8 -18.5v-285q0 -23 8 -30t29 -7h323q35 0 44 -6t5 -22l-10 -92q-4 -27 -29.5 -29t-48.5 -2h-272q-45 0 -45 -39v-322 q0 -29 13 -31.5t34 -2.5h397q33 0 46.5 -6.5t13.5 -24.5v-96q0 -16 -10.5 -22.5t-22.5 -6.5h-623q-23 0 -28 18.5t-5 42.5q-23 -25 -53 -40t-65 -25t-68 -14.5t-57 -4.5q-61 0 -138 10.5t-147 46.5t-117 103.5t-47 183.5zM289 360q0 -61 22.5 -104t59.5 -69.5t83 -38 t91 -11.5q43 0 83 7.5t71.5 26.5t53 55t29.5 93v547q-14 98 -73.5 142.5t-159.5 44.5q-145 0 -202.5 -67.5t-57.5 -197.5v-428z" />
<glyph unicode="&#x153;" horiz-adv-x="1435" d="M61 436q0 217 75 342t216 125q106 0 170 -36t99 -99v72q0 41 30 41h88q25 0 34 -5.5t11 -17.5q82 45 203 45q172 0 266.5 -85t94.5 -259v-98q0 -37 -11.5 -54.5t-56.5 -17.5h-487q0 -143 65.5 -206.5t181.5 -63.5q102 0 161 14t81 23q23 8 35 3t12 -18v-82q0 -23 -11 -31 t-44 -18q-8 -4 -34 -8t-59.5 -9t-72.5 -8t-76 -3q-152 0 -248 51q-2 -33 -36 -33h-89q-18 0 -28 7t-10 40v70q-25 -53 -97.5 -94t-167.5 -41q-61 0 -114.5 24.5t-93 79.5t-63.5 141t-24 209zM256 371q0 -123 44 -194t130 -71q43 0 76 19.5t55.5 46.5t34.5 54.5t12 45.5v299 q0 27 -10 63t-31.5 68.5t-55.5 55t-83 22.5q-86 0 -129 -63.5t-43 -208.5v-137zM799 539q0 -16 2 -24.5t18 -8.5h332q12 0 14 7.5t2 23.5q-2 123 -42 186t-142 63q-49 0 -84 -19t-57.5 -53t-32.5 -79t-10 -96z" />
<glyph unicode="&#x160;" horiz-adv-x="978" d="M86 83q0 26 4 55.5t12.5 52t18.5 20.5q16 -6 40.5 -16.5t60.5 -20.5t83 -17t109 -7q57 0 106 8t86 28.5t57.5 53t20.5 79.5q0 39 -11 70t-39 57.5t-72 51t-109 51.5q-66 27 -125.5 57.5t-104.5 72.5t-72.5 99.5t-27.5 136.5q0 63 25.5 120t78 99t131 66.5t185.5 24.5 q76 0 125 -4t80.5 -10.5t50 -12.5t30.5 -10t13.5 -29.5t-6 -54.5t-20.5 -51.5t-25 -18.5q-35 10 -100.5 23.5t-131.5 13.5q-133 0 -183 -43t-50 -113q0 -74 54 -117.5t173 -88.5q166 -66 254 -156t88 -225q0 -100 -40 -167t-104.5 -106t-146.5 -55t-164 -16 q-145 0 -231 22.5t-117 44.5q-6 6 -6 32zM283 1524q-31 43 10 43h61q14 0 21.5 -1t19.5 -18l117 -155l117 155q10 14 20 16.5t23 2.5h61q41 0 8 -43l-149 -209q-10 -14 -18.5 -24.5t-26.5 -10.5h-66q-23 0 -31 10t-18 25z" />
<glyph unicode="&#x161;" horiz-adv-x="808" d="M102.5 65.5q-2.5 22.5 0.5 46t11.5 41t20.5 13.5q25 -8 73 -24.5t144 -16.5q80 0 124 25.5t44 89.5q0 51 -42 93t-124 85q-47 25 -90 49.5t-74.5 55t-51 69.5t-19.5 88q0 59 26.5 103t70.5 73t102.5 43t119.5 14q92 0 148.5 -10t72.5 -18q6 -4 4.5 -23.5t-8 -42 t-16.5 -40t-21 -15.5q-20 6 -71 16.5t-98 10.5q-72 0 -110 -27t-38 -80q0 -39 46 -71.5t110 -67.5q57 -31 104 -61.5t80 -67.5t50.5 -81.5t17.5 -101.5q0 -76 -29 -123t-74 -73.5t-101 -36.5t-112 -10q-121 0 -189.5 19.5t-92.5 31.5q-6 2 -8.5 24.5zM172 1229q-33 43 10 43 h60q16 0 23 -1t20 -18l116 -155l117 155q10 14 20.5 16.5t22.5 2.5h62q41 0 8 -43l-150 -209q-10 -14 -18 -24.5t-27 -10.5h-65q-23 0 -31 10.5t-18 24.5z" />
<glyph unicode="&#x178;" horiz-adv-x="962" d="M12 1193q8 5 29 5h141q16 0 25.5 -6t21.5 -27l271 -503q18 39 41 79q18 35 41.5 80t50.5 92q57 111 133 252q10 18 17.5 25.5t31.5 7.5h103q25 0 30.5 -7t-10.5 -34q-98 -186 -178 -332q-35 -61 -66.5 -121.5t-57.5 -106.5t-40 -75l-14 -28v-459q0 -35 -39 -35h-129 q-18 0 -24.5 7t-6.5 26v461l-367 671q-12 23 -4 28zM231 1354v106q0 18 6.5 31.5t30.5 13.5h105q27 0 35 -13t8 -32v-98q0 -18 -8.5 -29.5t-30.5 -11.5h-101q-29 0 -37 7t-8 26zM584 1368v96q0 41 37 41h100q31 0 39 -8t8 -29v-102q0 -18 -7 -31.5t-30 -13.5h-94 q-35 0 -44 13.5t-9 33.5z" />
<glyph unicode="&#x17d;" horiz-adv-x="901" d="M31 20v50q0 14 9 31.5t19 35.5l545 910h-493q-35 0 -50.5 8t-11.5 30l4 84q2 16 7.5 23.5t33.5 7.5h731q14 0 25.5 -5t11.5 -15v-50q0 -12 -14 -37.5t-21 -37.5l-538 -901h526q35 0 47 -4.5t12 -22.5v-96q0 -16 -8 -23.5t-37 -7.5h-772q-27 0 -26 20zM248 1518 q-31 43 10 43h61q14 0 21.5 -2.5t19.5 -18.5l117 -154l117 154q10 16 20.5 18.5t22.5 2.5h61q41 0 9 -43l-150 -209q-10 -14 -18.5 -24.5t-26.5 -10.5h-66q-23 0 -30.5 10t-18.5 25z" />
<glyph unicode="&#x17e;" horiz-adv-x="714" d="M17 22.5q-3 10.5 2.5 24.5t15.5 31l401 678h-362q-25 0 -32 4t-7 31v57q0 23 9 28t26 5h559q45 0 56 -11.5t-9 -46.5l-418 -698h393q23 0 33 -4t10 -33v-53q0 -23 -8 -29t-33 -6h-573q-29 0 -44.5 6t-18.5 16.5zM152 1223q-35 41 10 41h59q16 0 23.5 -1t19.5 -18 l117 -153l117 153q10 14 19 16.5t22 2.5h63q39 0 8 -41l-149 -211q-10 -14 -18.5 -24.5t-26.5 -10.5h-66q-23 0 -31 10t-18 25z" />
<glyph unicode="&#x192;" horiz-adv-x="614" d="M43 -163.5q0 20.5 3 43t9 41t15 16.5q29 -6 41 -9.5t39 -3.5q35 0 57 26.5t22 76.5v698h-84q-23 0 -29.5 7t-6.5 28v55q0 35 26 35h82q-10 20 -20.5 53t-10.5 96q0 39 11.5 78t38 69t66.5 48t99 18q53 0 91 -7t59 -15q6 -2 5 -21.5t-5 -43t-9 -41t-12 -17.5q-27 6 -40 8 t-39 2q-35 0 -57.5 -24.5t-22.5 -75.5q0 -43 13 -74t34 -51h106q27 0 34 -8t7 -25v-57q0 -16 -8 -26.5t-33 -10.5h-104v-719q0 -98 -52.5 -156.5t-170.5 -58.5q-51 0 -89 6t-59 17q-6 2 -6 22.5z" />
<glyph unicode="&#x2c6;" horiz-adv-x="681" d="M88 1083l162 228q10 14 20.5 25.5t30.5 11.5h70q23 0 33 -11.5t22 -25.5l162 -228q33 -47 -13 -47h-65q-16 0 -25.5 2t-19.5 19l-127 168l-127 -168q-12 -16 -22.5 -18.5t-22.5 -2.5h-68q-43 0 -10 47z" />
<glyph unicode="&#x2c7;" horiz-adv-x="681" d="M94 1298q-33 47 12 48h66q16 0 25.5 -2.5t19.5 -18.5l127 -168l127 168q12 16 22.5 18.5t22.5 2.5h68q43 0 10 -48l-162 -227q-10 -14 -20.5 -25.5t-30.5 -11.5h-70q-23 0 -33 11.5t-22 25.5z" />
<glyph unicode="&#x2d8;" horiz-adv-x="681" d="M112 1306.5q1 12.5 23 12.5h58q25 0 32 -21q16 -59 44 -100t79 -41q53 0 80 42t43 99q10 20 35 21h59q23 0 22 -14.5t-5 -26.5q-31 -100 -86.5 -162.5t-147.5 -62.5q-49 0 -87 18.5t-66.5 49t-48 72.5t-31.5 89q-4 12 -3 24.5z" />
<glyph unicode="&#x2d9;" horiz-adv-x="681" d="M246 1192q0 41 27.5 67.5t68.5 26.5t67.5 -26.5t26.5 -67.5t-26.5 -68.5t-67.5 -27.5t-68.5 27.5t-27.5 68.5z" />
<glyph unicode="&#x2da;" horiz-adv-x="681" d="M152 1225q0 39 15 73.5t40.5 60t60.5 41t74 15.5t74 -15.5t60.5 -41t40.5 -60t15 -73.5t-15 -74t-40.5 -60.5t-60.5 -41t-74 -15.5t-74 15.5t-60.5 41t-40.5 60.5t-15 74zM240 1225q0 -41 30.5 -72t71.5 -31t70.5 31t29.5 72t-29.5 70.5t-70.5 29.5t-71.5 -29.5 t-30.5 -70.5z" />
<glyph unicode="&#x2db;" horiz-adv-x="681" d="M158 -238q0 37 18.5 73t50 72t72.5 67.5t84 58.5h119q-31 -23 -68 -54.5t-68.5 -68.5t-52 -75t-20.5 -71q0 -41 26.5 -59t73.5 -18q29 0 57.5 10t43.5 27q6 6 18 -0.5t23.5 -18.5t16.5 -26.5t-3 -24.5q-31 -35 -76 -53.5t-88 -18.5q-41 0 -81 8.5t-72.5 29t-53 55 t-20.5 87.5z" />
<glyph unicode="&#x2dc;" horiz-adv-x="681" d="M31 1133q10 25 27.5 53t42 53t54 41t64.5 16q27 0 57.5 -14t61.5 -32.5t59.5 -33t51.5 -14.5q35 0 57 22.5t37 49.5q10 16 24 10l72 -27q18 -8 8 -26q-37 -72 -84 -124t-117 -52q-29 0 -58.5 15t-58 32.5t-55 33t-49.5 15.5q-29 0 -55.5 -19.5t-40.5 -44.5 q-6 -12 -11 -12t-14 4l-65 33q-14 2 -8 21z" />
<glyph unicode="&#x2dd;" horiz-adv-x="681" d="M4 1038l137 301h205l-229 -301h-113zM332 1038l137 301h205l-230 -301h-112z" />
<glyph unicode="&#x3a9;" horiz-adv-x="1331" d="M156 0v137h170q-45 37 -78 93.5t-53.5 128t-29.5 156.5t-9 177q0 182 27.5 317.5t88 224.5t157.5 133t237 44q139 0 236 -44t157.5 -133t88.5 -224.5t28 -317.5q0 -92 -9.5 -177t-30 -156.5t-53 -128t-77.5 -93.5h170v-137h-400v131q72 47 114 88t64.5 99.5t29.5 144.5 t7 225q0 168 -18.5 275.5t-57 168t-101 83t-148.5 22.5t-148.5 -22.5t-101.5 -83t-57.5 -168t-18.5 -275.5q0 -139 7 -225t29.5 -144.5t64.5 -99.5t114 -88v-131h-399z" />
<glyph unicode="&#x3c0;" horiz-adv-x="1210" d="M207 0v1008h797v-1008h-166v852h-461v-852h-170z" />
<glyph unicode="&#xe00;" horiz-adv-x="399" />
<glyph unicode="&#xe01;" horiz-adv-x="1077" d="M115 27v888q0 27 24 37q80 41 175.5 66t195.5 29q131 0 221 -33t145.5 -84t79 -113.5t23.5 -122.5v-667q0 -27 -27 -27h-108q-10 0 -18.5 5t-8.5 22v637q0 72 -28.5 115.5t-71.5 67t-91 32t-85 8.5q-98 0 -165 -19.5t-85 -29.5q-10 -6 -13.5 -15.5t-3.5 -17.5v-778 q0 -27 -24 -27h-109q-27 0 -26 27z" />
<glyph unicode="&#xe02;" horiz-adv-x="933" d="M63 342v211q0 59 37 97t76 69q29 25 51.5 47t22.5 51v45q0 27 -27 27h-133q-27 0 -22 26l12 89q4 27 31 26h274q27 0 27 -26v-191q0 -63 -36 -103t-75 -75q-31 -25 -54.5 -49.5t-23.5 -59.5v-157q0 -72 20.5 -115t52.5 -66.5t71 -32t75 -8.5q100 0 147.5 18.5t63.5 29.5 q4 4 6.5 9t2.5 25v389v386q0 27 26 26h107q27 0 26 -26v-881q0 -27 -22 -39q-53 -27 -107 -47q-47 -16 -104.5 -30.5t-112.5 -14.5q-129 0 -210 32.5t-126 83t-60.5 113t-15.5 121.5z" />
<glyph unicode="&#xe03;" horiz-adv-x="937" d="M23 915l12 89q2 10 16.5 18t24.5 8q27 0 45 -18l41 -45q16 -18 35 0l43 45q23 18 45 18h116q27 0 27 -26v-213q0 -33 -10 -57.5t-27.5 -44t-38 -35t-41.5 -29.5q-35 -23 -59.5 -46.5t-24.5 -58.5v-151q0 -72 20.5 -115t52.5 -66.5t72 -32t77 -8.5q98 0 145 18.5t63 29.5 q4 4 6.5 9t2.5 25v775q0 27 26 26h107q27 0 26 -26v-881q0 -27 -22 -39q-53 -27 -107 -47q-47 -16 -104 -30.5t-113 -14.5q-129 0 -210 32.5t-125 83t-59 113t-15 121.5v203q0 43 19.5 70.5t47 50t59 43t58.5 47.5q29 31 40 52t9 38v16q0 27 -20 27q-10 0 -21.5 -5 t-19.5 -12l-45 -41q-8 -6 -19.5 -6t-19.5 6q0 -2 -6 5q-10 6 -43 36q-16 16 -64 17q-27 0 -22 26z" />
<glyph unicode="&#xe04;" horiz-adv-x="1126" d="M102 27v759q0 23 4.5 35.5t8.5 20.5q29 51 77 90t107 64.5t127.5 38t140.5 12.5q90 0 173 -26t145.5 -72t100.5 -110.5t38 -144.5v-667q0 -27 -27 -27h-108q-27 0 -27 27v637q0 55 -23.5 100t-63.5 77.5t-93 50t-115 17.5q-84 0 -163.5 -24.5t-120.5 -71.5 q-6 -6 -12.5 -17.5t-6.5 -35.5v-180q0 -23 3 -21t5 4q25 23 56.5 29t52.5 6h149q27 0 31 -25l14 -79q4 -25 -22 -25h-182q-35 0 -56.5 -12.5t-33 -29.5t-14.5 -37.5t-3 -37.5v-325q0 -27 -26 -27h-109q-27 0 -27 27z" />
<glyph unicode="&#xe05;" horiz-adv-x="1159" d="M115 27v702q0 129 80 213q41 45 108.5 68.5t147.5 27.5q29 0 33.5 -5t13.5 -13l59 -68q18 -18 37 0l61 68q16 16 27.5 17t17.5 1q82 -4 149.5 -27.5t108.5 -68.5q78 -82 78 -213v-702q0 -27 -26 -27h-105q-27 0 -26 27v702q-2 23 -9.5 46.5t-24 44t-46 34.5t-74.5 20 q-14 2 -23.5 -1t-23.5 -13l-84 -74q-20 -16 -41 0q-2 2 -13.5 12.5t-24.5 23t-25.5 23.5t-16.5 15q-14 10 -24.5 13.5t-22.5 0.5q-45 -6 -73.5 -20t-46 -34.5t-24 -44t-6.5 -46.5v-149q0 -23 3.5 -21t7.5 4q23 23 54.5 29t53.5 6h148q27 0 30 -27l15 -77q4 -25 -23 -25h-182 q-35 0 -56.5 -12.5t-32.5 -29.5t-14.5 -37.5t-3.5 -37.5v-325q0 -27 -26 -27h-109q-27 0 -26 27z" />
<glyph unicode="&#xe06;" horiz-adv-x="1089" d="M72 915l12 89q2 10 17.5 18t25.5 8q27 0 43 -20l41 -45q18 -18 37 0l43 45q8 10 20.5 15t22.5 5h119q27 0 26 -26v-179v-26q0 -59 -35.5 -92t-76.5 -60q-35 -23 -61.5 -46t-26.5 -64v-19q0 -8 2 -16q4 -72 31.5 -135.5t75.5 -111.5t116.5 -75.5t154.5 -27.5q61 0 90 19 t35 28q33 45 33 137v668q0 27 27 26h108q25 0 25 -26v-668q0 -57 -10.5 -100t-22.5 -72t-22 -44l-11 -16q-27 -39 -86 -73.5t-157 -38.5q-74 0 -135.5 21.5t-108.5 53t-82 67.5t-53 63q-4 4 -7 8t-3 -10v-168q0 -27 -27 -27h-107q-27 0 -26 27v528q0 41 19.5 67.5t47 48 t59 40t58.5 45.5q29 29 40 49t11 37v22q0 14 -7 19.5t-17.5 4.5t-20.5 -6t-16 -12l-45 -39q-18 -18 -41 0l-6 7q-4 4 -14.5 11t-26.5 23q-8 6 -24.5 11.5t-41.5 5.5q-27 0 -22 26z" />
<glyph unicode="&#xe07;" horiz-adv-x="942" d="M39 952q-8 25 18 33l103 29q25 8 33 -19q68 -229 120 -409q23 -78 45.5 -153t41 -134t29.5 -97t13 -42q2 -16 19 -21q8 -2 14 -2q45 0 92 13.5t85 55.5t61.5 119.5t23.5 206.5q0 80 -12 137.5t-26.5 94.5t-26.5 54l-13 18q-18 20 -54 39.5t-103 23.5q-10 2 -12.5 10.5 t-4.5 16.5l-16 86q-2 10 1 18t19 8q202 -2 304 -127q37 -47 69.5 -143t32.5 -238q0 -102 -18.5 -194t-64.5 -164t-124 -118t-199 -54h-141q-27 0 -33 25z" />
<glyph unicode="&#xe08;" horiz-adv-x="903" d="M4 918q-10 16 8 32q23 18 76 34.5t112.5 29t117 19.5t90.5 7q45 0 96 -5t100 -18t94 -39t78 -65q102 -127 103 -383q0 -258 -101 -391q-104 -139 -305 -139h-2h-65q-10 0 -20.5 7t-14.5 18v2l-66 206l-67 211q-4 10 -14.5 17.5t-20.5 7.5h-49q-27 0 -23 25l12 77 q4 27 31 27h133q10 0 20.5 -7t14.5 -20q12 -31 31.5 -88t41 -118.5t41 -118t29.5 -88.5q2 -6 6.5 -13.5t14.5 -5.5q31 4 62.5 16.5t58 39t47 69.5t33.5 109q12 63 12 157q0 41 -3 77t-7 65q-12 76 -44 122t-75 71.5t-90 33.5t-90 8q-51 0 -101.5 -7t-95.5 -16.5t-81 -21.5 t-56 -20q-10 -4 -18.5 2t-12.5 12z" />
<glyph unicode="&#xe09;" horiz-adv-x="1048" d="M10 494l13 77q4 27 30 27h172q27 0 27 -27v-241q0 -76 16.5 -109t18.5 -35q6 -8 29.5 -26.5t84.5 -18.5q82 0 146.5 34t108.5 88t68 122t26 133v26.5t-2 28.5q0 16 -3 33q-2 14 -3 29.5t-3 28.5q-12 78 -44.5 125t-78 72.5t-93.5 33.5t-91 8q-51 0 -100 -7t-92 -16.5 t-77 -21.5t-54 -20q-20 -4 -31 14l-43 61q-10 20 6 33q20 10 60 25.5t93.5 31t118 26.5t136.5 11q49 0 102 -8t101 -24.5t89 -41t68 -57.5q94 -121 100 -360v-2v-27v-493q0 -27 -24 -27h-115q-27 0 -27 27v145q0 23 -10 8q-18 -27 -47 -59.5t-70 -63t-96 -52t-127 -23.5 q-100 4 -153.5 38.5t-81.5 71.5q-66 88 -66 238v112q0 10 -4 18.5t-22 8.5h-33q-27 0 -23 25z" />
<glyph unicode="&#xe0a;" horiz-adv-x="952" d="M82 344v209q0 59 36 98t77 70q29 25 50 47.5t21 50.5v45q0 27 -26 27h-131q-27 0 -23 27l12 88q4 27 31 26h274q25 0 25 -26v-191q0 -66 -36 -104.5t-75 -73.5q-29 -25 -52 -50.5t-23 -58.5v-157q0 -72 20.5 -115t52 -66.5t70.5 -31.5t76 -8q98 0 145 17t64 30q4 4 6 10 t2 24v326q0 57 -31 81t-65 40q-10 4 -16.5 14t-4.5 21q0 4 2 10q2 4 2 9t2 9q4 18 16.5 25.5t20.5 11.5q37 18 70 48t33 79v101q0 27 26 30l109 19q25 6 24 -21v-96q0 -66 -25.5 -113t-76.5 -86q-12 -10 -11 -14t3 -6q82 -78 82 -195v-399q0 -16 -6.5 -24.5t-16.5 -16.5 q-53 -25 -106 -45q-47 -16 -104.5 -30.5t-112.5 -14.5q-129 0 -210 32.5t-125 83t-59.5 113t-15.5 121.5z" />
<glyph unicode="&#xe0b;" horiz-adv-x="956" d="M39 915l12 89q2 10 16.5 18t24.5 8t23.5 -5t21.5 -15l41 -45q16 -18 35 0l43 47q18 18 45 18h117q27 0 26 -26v-213q0 -33 -10 -57.5t-27.5 -44t-38 -35t-40.5 -29.5q-33 -23 -57.5 -47.5t-24.5 -59.5v-149q0 -72 20.5 -115t52 -66.5t70.5 -32t76 -8.5q98 0 145 17.5 t64 30.5q4 4 7 9t3 25v326q0 29 -8 47.5t-21.5 30.5t-32 22.5t-36.5 20.5q-10 4 -16.5 14t-4.5 21q0 4 2 10q2 4 2 9t2 9q4 18 16.5 25.5t22.5 11.5q31 14 66 45t35 82v101q0 27 26 30l109 19q25 6 24 -21v-96q0 -66 -25.5 -113t-76.5 -86q-12 -10 -11 -14t3 -6 q82 -78 82 -195v-399q0 -16 -6.5 -24.5t-16.5 -16.5q-53 -25 -106 -45q-47 -16 -104.5 -30.5t-112.5 -14.5q-129 0 -210 32.5t-125 83t-59.5 113t-15.5 121.5v203q0 43 19.5 70.5t47 50t59.5 43t58 47.5q31 29 41.5 51t10.5 39q0 16 -3.5 29.5t-19.5 13.5q-8 0 -19.5 -5 t-21.5 -12l-45 -41q-8 -6 -19.5 -7t-19.5 7l-6 7q-4 4 -14.5 11t-26.5 23q-10 6 -25.5 11.5t-40.5 5.5q-27 0 -22 26z" />
<glyph unicode="&#xe0c;" horiz-adv-x="1654" d="M82 27v886q0 10 7 21.5t17 15.5q78 41 174.5 67.5t196.5 26.5q131 0 221 -32.5t145.5 -83.5t79 -113.5t23.5 -122.5v-178q0 -74 23.5 -141.5t67.5 -117.5t105.5 -81t137.5 -31q29 0 56.5 9.5t47.5 35.5q31 45 31 140v676q0 27 27 26h106q25 0 25 -26v-629 q0 -117 -15.5 -174.5t-44.5 -100.5q-25 -37 -81 -75.5t-144 -40.5q-66 0 -120 21.5t-96 52t-71.5 64.5t-46.5 60q-8 8 -8 -10v-145q0 -27 -26 -27h-109q-27 0 -27 27v635q0 72 -28.5 115.5t-71.5 67t-91 32t-85 8.5q-100 0 -166 -19.5t-84 -29.5q-10 -4 -13 -14.5t-3 -18.5 v-617q0 -27 26 -26h72q25 0 20 -27l-14 -106q-4 -27 -31 -27h-206q-27 0 -27 27z" />
<glyph unicode="&#xe0d;" horiz-adv-x="1660" d="M92 27v886q0 27 25 37q80 41 175 65.5t195 28.5q131 0 221.5 -32.5t145.5 -83.5t78.5 -113.5t23.5 -122.5v-463q0 -20 2.5 -25t6.5 -9q16 -12 79.5 -31t163.5 -19q37 0 76 8.5t72 32t53.5 67.5t20.5 116v632q0 27 26 27h107q25 0 24 -27v-663q0 -59 -15.5 -121.5 t-60.5 -114t-124.5 -84t-210.5 -32.5q-57 0 -120 14t-116 31q-63 20 -123 47q-23 12 -22 39v545q0 72 -29 115.5t-72 67t-91 32t-85 8.5q-98 0 -164.5 -19.5t-85.5 -29.5q-10 -6 -13 -15.5t-3 -17.5v-617q0 -27 27 -26h71q27 0 23 -27l-17 -106q-4 -27 -30 -27h-207 q-27 0 -27 27zM956 -117q0 6 2.5 18.5t24.5 6.5q47 -12 94 -25.5t131 -13.5q25 0 61 2t76.5 12.5t82.5 33t77 63.5q8 8 19 8q4 0 8 -4l18 -19l29 -28q16 -16 6 -31q-25 -35 -57.5 -69t-76.5 -62.5t-103.5 -46t-137.5 -17.5q-76 0 -142.5 13.5t-94.5 23.5q-8 4 -10 7t-5 7 q-2 4 -2 9v112z" />
<glyph unicode="&#xe0e;" horiz-adv-x="1083" d="M16 133q-4 25 23 25h70q27 0 26 26v729q0 27 25 37q80 41 175 65.5t195 28.5q131 0 221.5 -32.5t145.5 -83.5t78.5 -113.5t23.5 -122.5v-882q0 -53 -22.5 -94.5t-50.5 -69.5q-33 -33 -72 -58q-10 -6 -21.5 -5t-19.5 5q-45 20 -91 39t-128 31q-25 2 -60.5 5t-77.5 -2 t-86 -22.5t-85 -52.5q-10 -8 -19 -4l-8 4q-8 10 -16 19q-6 8 -13.5 17t-11.5 16q-14 18 -2 32q29 31 65.5 60.5t85 51t109 32t137.5 0.5q57 -8 108.5 -22.5t86.5 -29.5q14 -6 22.5 12.5t8.5 59.5v828q0 72 -29 115.5t-72 67t-91 32t-85 8.5q-98 0 -164.5 -19.5t-85.5 -29.5 q-10 -6 -13 -15.5t-3 -17.5v-778q0 -25 -27 -25h-205q-27 0 -30 25z" />
<glyph unicode="&#xe0f;" horiz-adv-x="1083" d="M14 133q-4 25 23 25h69q27 0 27 26v729q0 27 25 37q80 41 175 65.5t195 28.5q131 0 221.5 -32.5t145.5 -83.5t78.5 -113.5t23.5 -122.5v-882q0 -53 -22.5 -94.5t-50.5 -69.5q-33 -33 -72 -58q-10 -4 -23.5 -3t-23.5 5q-4 0 -23 11q-16 8 -49 26.5t-90 53.5q-4 4 -10 6 t-17 -4q-84 -57 -159.5 -80t-175.5 -23h-31q-27 0 -23 27l13 71q4 10 20 9.5t33 1.5q51 4 102 20.5t99 46.5q53 39 92 88q10 16 20 16.5t19 -3.5q41 -23 77 -43q31 -16 57.5 -31.5t35.5 -20.5q16 -8 28.5 5.5t12.5 66.5v828q0 72 -29 115.5t-72 67t-91 32t-85 8.5 q-98 0 -164.5 -19.5t-85.5 -29.5q-10 -6 -13 -15.5t-3 -17.5v-778q0 -25 -27 -25h-205q-27 0 -30 25z" />
<glyph unicode="&#xe10;" horiz-adv-x="933" d="M47 784q0 80 38 132.5t97.5 83t132 43t140.5 12.5q49 -2 106 -11.5t105 -19.5q55 -12 112 -31q27 -10 19 -32l-19 -91q-2 -10 -10 -15t-18 -1q-45 16 -97 29q-45 10 -101 19t-118 9q-78 0 -123 -14t-67.5 -33.5t-28.5 -41t-6 -34.5q0 -61 39 -83.5t94 -32.5 q10 -2 61.5 -12.5t109.5 -21.5t106.5 -20.5t54.5 -11.5q111 -29 153.5 -94.5t42.5 -149.5v-116q-2 -39 -10 -80t-41 -76t-98.5 -59.5t-181.5 -30.5h-21.5h-33h-31h-17.5q-35 0 -53 23q-8 8 -14 22l-74 229q-8 27 -35 27h-51q-25 0 -21 25q4 31 7.5 48t4.5 25.5t2 10.5l1 2 q10 18 28 18h134q10 0 20 -7t14 -17q12 -35 21.5 -61t19 -50.5t18.5 -54t23 -72.5q2 -4 8.5 -12.5t22.5 -3.5q111 -2 164 27.5t53 70.5v117q0 39 -17.5 60.5t-52.5 31.5q-4 2 -58 13t-120.5 24.5t-126 24.5t-75.5 16q-37 6 -78 21t-75 44t-56.5 73t-22.5 109zM98 -377l15 72 q0 8 26 8h6q10 0 19 2q53 4 104 20.5t99 49.5q53 35 90 86q10 16 21 16t18 -4q43 -23 79 -43q31 -16 59 -31.5t36 -19.5q14 -8 26.5 5t12.5 66v13q0 16 8 21t18 5h109q27 0 26 -26v-37q-2 -53 -23.5 -94t-49.5 -70q-33 -33 -72 -57q-10 -4 -23.5 -3t-23.5 5h-2l-162 90 q-4 4 -9 6t-16 -4q-84 -57 -160.5 -79.5t-176.5 -22.5h-29h-2q-27 0 -23 26z" />
<glyph unicode="&#xe11;" horiz-adv-x="1097" d="M6 905q0 4 4 35t8 51q2 16 23 25q8 4 20 4q25 0 43 -19l41 -45q18 -20 37 -2l43 47q6 8 19.5 13.5t23.5 5.5h113q25 0 25 -27v-69q0 -16 4 -16.5t16 14.5q14 14 37.5 35.5t56.5 40t75 31.5t93 13q63 0 109.5 -18t77 -40.5t46 -41t15.5 -20.5q59 -88 59 -224v-671 q0 -27 -26 -27h-107q-27 0 -26 27v671q0 23 -7.5 54.5t-26 60.5t-48 49.5t-74.5 20.5t-87 -16.5t-79 -39t-64.5 -46t-41.5 -38.5q-53 -59 -82 -139t-27 -164v-413q0 -27 -27 -27h-108q-27 0 -27 27v417q0 63 16.5 117.5t36.5 95.5q23 47 54 88q29 35 37 57.5t8 39.5 q0 10 -2 23.5t-19 13.5q-10 0 -21 -5.5t-20 -11.5l-45 -41q-20 -14 -41 0l-6 6q-4 4 -14 11.5t-27 23.5q-8 6 -24.5 11.5t-40.5 5.5q-27 0 -23 26z" />
<glyph unicode="&#xe12;" horiz-adv-x="1716" d="M84 310v82v93v252q0 129 80 213q41 45 108.5 68.5t149.5 28.5q6 0 19.5 -2.5t25.5 -16.5l7 -7t7 -8t14.5 -17.5t30.5 -34.5q18 -18 37 0l62 67q16 16 27.5 17.5t17.5 1.5q82 -4 149.5 -28t108.5 -69q78 -82 78 -213v-215q0 -72 23.5 -137.5t67.5 -117.5t106.5 -82.5 t137.5 -30.5q27 0 56.5 8t46.5 37q33 49 33 137v668q0 27 24 26h107q27 0 26 -26v-619q0 -59 -4 -101t-11 -74t-19.5 -55.5t-26.5 -45.5q-25 -37 -81 -75t-142 -42q-66 0 -120 21.5t-96 52t-72 65.5t-46 62q-10 6 -10 -13v-153q0 -27 -27 -27h-105q-27 0 -26 25v712 q-2 23 -9.5 46.5t-23.5 44t-46 35t-75 20.5q-6 2 -18 1t-29 -16q-8 -6 -21.5 -18t-27.5 -24.5t-24 -21.5l-11 -9q-20 -18 -39 0l-10 8t-23.5 20.5t-26.5 24.5t-22 20q-16 14 -28.5 15.5t-18.5 -0.5q-45 -6 -73.5 -20.5t-46 -35t-23.5 -44t-6 -46.5v-483q0 -23 5 -45.5 t23 -40.5q6 -6 18.5 -12t37.5 -6h45q10 0 22 2q27 0 27 -27l2 -100q0 -27 -27 -31l-24 -4q-10 -2 -22.5 -2h-22.5q-104 0 -170 69q-29 29 -44.5 58.5t-21.5 56.5q-8 31 -8 59l-1 21q-1 22 -1 58z" />
<glyph unicode="&#xe13;" horiz-adv-x="1660" d="M88 27v888q0 27 25 37q80 41 175 65.5t195 29.5q131 0 221.5 -33t145.5 -84t78.5 -113.5t23.5 -122.5v-366q0 -94 31 -138q6 -10 28.5 -28.5t75.5 -18.5q76 0 136.5 31t102.5 83t66.5 118.5t28.5 138.5v492q0 16 8.5 20t18.5 4h108q25 0 25 -24v-979q0 -27 -25 -27h-108 q-10 0 -18.5 5t-8.5 22v145q0 8 -2 11t-6 -1q-18 -27 -48 -60.5t-72 -64t-95 -52t-119 -21.5q-88 2 -145 40.5t-82 75.5q-16 23 -27.5 46.5t-18.5 55t-11 73.5t-4 100v289q0 72 -29 115.5t-72 67t-91 32t-85 8.5q-98 0 -164.5 -19.5t-85.5 -29.5q-10 -6 -13 -15.5t-3 -17.5 v-619q0 -27 26 -26h70q27 0 23 -27l-17 -106q-2 -27 -28 -27h-207q-27 0 -27 27z" />
<glyph unicode="&#xe14;" horiz-adv-x="1114" d="M92 229v564q0 16 5 30.5t9 22.5q27 53 75 92t108.5 64.5t129 38t138.5 12.5q90 0 173 -26t145.5 -72t100.5 -111.5t38 -143.5v-673q0 -27 -27 -27h-108q-25 0 -25 27v643q0 55 -23.5 100t-63.5 78t-94.5 50t-115.5 17q-84 0 -164 -24.5t-121 -71.5q-6 -6 -12 -17t-6 -36 v-514q0 -23 5 -45.5t24 -40.5q6 -6 18 -12.5t37 -6.5h45q10 0 23 3q27 0 26 -27l2 -100q0 -27 -26 -31q-12 -2 -25 -4q-10 -2 -22.5 -2h-22.5q-102 0 -172 69q-29 29 -42 58.5t-22 56.5q-8 31 -10 59z" />
<glyph unicode="&#xe15;" horiz-adv-x="1126" d="M106 229v506q0 131 78 213q43 45 109.5 68.5t148.5 27.5q8 0 18.5 -2t26.5 -18q14 -16 26.5 -29.5t35.5 -36.5q16 -18 35 0l24 25q10 10 20.5 21.5t18.5 21.5q14 16 25.5 17t19.5 1q82 -4 148.5 -27.5t109.5 -68.5q78 -82 78 -213v-708q0 -27 -27 -27h-104q-27 0 -27 27 v708q-2 23 -9 46.5t-23.5 44t-46 34.5t-74.5 21q-6 2 -18.5 1t-28.5 -16l-86 -73q-8 -8 -19.5 -8.5t-19.5 8.5q-4 4 -15.5 14t-23.5 21.5t-23.5 21.5t-17.5 16q-16 14 -28.5 15.5t-18.5 -0.5q-45 -6 -74 -20.5t-46 -35t-23.5 -44t-6.5 -46.5v-483q0 -23 5.5 -45.5 t23.5 -40.5q6 -6 18.5 -12.5t36.5 -6.5h45q10 0 23 3q23 0 26 -27v-100q2 -10 -6 -19.5t-18 -11.5q-12 -2 -25 -4q-10 -2 -22.5 -2h-22.5q-106 0 -172 69q-29 29 -42 58.5t-21 56.5q-8 31 -11 59z" />
<glyph unicode="&#xe16;" horiz-adv-x="1093" d="M115 27v888q0 27 24 37q80 41 175.5 65.5t195.5 29.5q131 0 221 -33t145.5 -84t79 -113.5t23.5 -122.5v-667q0 -27 -27 -27h-108q-10 0 -18.5 5t-8.5 22v637q0 72 -28.5 115.5t-71.5 67t-91 32t-85 8.5q-98 0 -165 -19.5t-85 -29.5q-10 -6 -13.5 -15.5t-3.5 -17.5v-619 q0 -27 27 -26h70q27 0 22 -25l-16 -108q-4 -27 -31 -27h-207q-25 0 -24 27z" />
<glyph unicode="&#xe17;" horiz-adv-x="1083" d="M111 27v972q0 25 26 25h107q27 0 26 -25v-161q0 -16 3 -12.5t8 8.5q18 27 53 62.5t82 67t108.5 53t134.5 21.5q98 -2 158 -37.5t86 -72.5q0 -2 10.5 -16.5t22.5 -44t22.5 -72.5t10.5 -101v-667q0 -27 -25 -27h-108q-27 0 -27 27v667q0 45 -8 80t-25 57q-6 8 -34.5 28 t-90.5 20q-86 0 -154.5 -28t-116.5 -76t-76 -111.5t-32 -135.5l-1 -22q-1 -23 -1 -57.5v-79.5v-93v-249q0 -27 -24 -27h-109q-27 0 -26 27z" />
<glyph unicode="&#xe18;" horiz-adv-x="1034" d="M111 270v154q0 23 26 31l107 18q25 4 24 -22v-140q0 -49 27 -86q23 -33 76 -59.5t157 -26.5q57 0 106.5 7.5t86.5 20.5t57.5 33.5t20.5 45.5v114q0 72 -70 95q-4 0 -51 9t-109.5 21.5t-126 24.5t-100.5 20q-39 6 -80 21.5t-74.5 44.5t-55 73t-21.5 109q0 80 37.5 131.5 t96 82t131.5 44t140 13.5q51 -2 108.5 -11.5t104.5 -19.5q55 -12 111 -31q16 -6 19 -14t1 -19l-18 -90q-6 -23 -31 -16q-45 16 -96 29q-43 10 -99.5 19t-117.5 9q-78 0 -123 -14t-67.5 -33.5t-29 -41t-6.5 -34.5q0 -61 39 -84.5t92 -31.5q27 -4 82.5 -14.5t110.5 -22 t100.5 -19.5t51.5 -10q109 -29 151.5 -94.5t42.5 -149.5v-114q0 -41 -13.5 -85t-55.5 -81t-123.5 -60.5t-219.5 -23.5q-137 0 -220 33.5t-127 80t-58 93.5t-14 71z" />
<glyph unicode="&#xe19;" horiz-adv-x="1114" d="M121 332v672q0 27 26 26h107q27 0 27 -26v-672q0 -90 34 -137q6 -8 34 -26.5t91 -18.5q86 0 155 27.5t117 74.5t75.5 111.5t31.5 136.5v504q0 27 27 26h108q25 0 25 -26v-977q0 -27 -25 -27h-108q-27 0 -27 27v163q0 16 -3 11.5t-5 -8.5q-18 -27 -53 -62t-83 -66.5 t-109.5 -53t-135.5 -21.5q-96 2 -155.5 37.5t-88.5 72.5l-10 16q-10 15 -22.5 43.5t-22.5 71.5t-10 101z" />
<glyph unicode="&#xe1a;" horiz-adv-x="1136" d="M143 115v889q0 27 27 26h109q27 0 26 -26v-779q0 -8 2 -17t12 -15q18 -10 85 -30t167 -20q37 0 85.5 8.5t90 32t71.5 67.5t30 116v634q0 16 7 21.5t17 5.5h109q27 0 27 -27v-665q0 -59 -23.5 -121.5t-79 -114t-145.5 -84t-221 -32.5q-98 0 -194.5 26.5t-176.5 67.5 q-10 4 -17.5 15t-7.5 22z" />
<glyph unicode="&#xe1b;" horiz-adv-x="1132" d="M131 115v889q0 27 27 26h108q27 0 27 -26v-779q0 -8 2 -17t12 -15q18 -10 85 -30t167 -20q37 0 85 8.5t90 32t72 67.5t30 116v944q0 16 7 21t17 5h109q27 0 26 -26v-975q0 -59 -23.5 -121.5t-78.5 -114t-145.5 -84t-221.5 -32.5q-98 0 -194 26.5t-176 67.5 q-10 4 -17.5 15t-7.5 22z" />
<glyph unicode="&#xe1c;" horiz-adv-x="1267" d="M154 248v756q0 27 26 26h207q25 0 29 -26l16 -107q4 -27 -22 -27h-70q-27 0 -27 -26v-541v-36.5t11.5 -50.5t36 -44t73.5 -18q51 0 80 26.5t41 68.5t14 91t4 94q0 27 27 31l64 8q27 4 26 -22v-37q2 -47 8.5 -94.5t20.5 -84t40.5 -59t71.5 -22.5q49 0 74 18t35 44t10 50.5 v36.5v701q0 16 8.5 21t18.5 5h108q27 0 27 -26v-756q0 -39 -8 -83t-32.5 -82t-70 -63.5t-118.5 -25.5q-55 0 -95 13t-69 32.5t-47.5 41t-26.5 38.5q-10 14 -13 14t-11 -14q-10 -16 -28 -38t-46.5 -41.5t-68.5 -32.5t-95 -13q-74 0 -119 25.5t-69.5 63.5t-32.5 82t-8 83z" />
<glyph unicode="&#xe1d;" horiz-adv-x="1257" d="M156 248v756q0 27 26 26h207q25 0 29 -24l16 -109q4 -27 -22 -27h-70q-27 0 -27 -24v-541v-37.5t11.5 -51.5t36 -44t73.5 -18q51 0 80 25.5t41 66.5t14 91t4 97q0 27 27 31l64 10q25 4 24 -22v-11q0 -4 1 -12t1 -16q2 -47 8.5 -94.5t20.5 -84t40.5 -59t72.5 -22.5 q49 0 73.5 18t34.5 44t10 51.5v37.5v1008q0 16 8.5 20t18.5 4h108q25 0 25 -24v-1065q0 -39 -8 -83t-31.5 -82t-69 -63.5t-118.5 -25.5q-55 0 -95 13t-69 32.5t-47.5 41t-26.5 38.5q-10 14 -13 14t-11 -14q-10 -16 -27.5 -38t-46.5 -41.5t-70 -32.5t-96 -13q-74 0 -119 25.5 t-68.5 63.5t-31.5 82t-8 83z" />
<glyph unicode="&#xe1e;" horiz-adv-x="1333" d="M127 1004q-4 27 23 26h108q23 0 31 -26l96 -682l2 -50q0 -10 2 -11t6 9l15 52l225 442q4 10 16.5 17t22.5 7h6q10 0 22.5 -7t16.5 -17l227 -442l15 -52q2 -10 4 -9t2 11l2 50l98 682q4 27 29 26h108q27 0 23 -26l-133 -979q-4 -25 -29 -25h-88q-25 0 -39 23l-125 235 l-123 236q-14 20 -24 0l-125 -236l-125 -235q-12 -23 -39 -23h-88q-25 0 -29 25z" />
<glyph unicode="&#xe1f;" horiz-adv-x="1333" d="M127 1006q-4 25 23 24h106q27 0 31 -24l98 -682l2 -52q0 -23 6 0q2 8 4 17l4 16t7 19l118 231l109 211q10 23 37 22h8q27 0 39 -22l225 -442l14 -52q4 -10 6.5 -10t2.5 10v52l143 976q4 27 31 27h104q27 0 23 -27l-174 -1273q-4 -27 -29 -27h-88q-10 0 -22.5 6t-16.5 17 l-250 471q-10 25 -24 0l-248 -471q-14 -23 -39 -23h-88q-10 0 -19.5 7t-11.5 18z" />
<glyph unicode="&#xe20;" horiz-adv-x="1087" d="M14 133q-4 27 23 27h69q27 0 27 26v729q0 27 25 37q80 41 175 66t195 29q131 0 221.5 -33t145.5 -84t78.5 -113.5t23.5 -122.5v-667q0 -27 -24 -27h-111q-10 0 -18 5t-8 22v637q0 72 -29 115.5t-72 67t-91 32t-85 8.5q-98 0 -164.5 -19.5t-85.5 -29.5q-10 -6 -13 -15.5 t-3 -17.5v-778q0 -27 -27 -27h-205q-27 0 -30 27z" />
<glyph unicode="&#xe21;" horiz-adv-x="1089" d="M127 27v977q0 26 27 26h108q27 0 27 -26v-500q4 -72 31.5 -136.5t75.5 -111.5t117 -74.5t155 -27.5q63 0 90.5 18t34.5 27q35 47 34 139v666q0 27 27 26h107q27 0 26 -26v-666q0 -57 -10 -101t-22.5 -73t-22.5 -44l-10 -16q-29 -37 -88.5 -72.5t-155.5 -37.5 q-74 0 -136.5 21.5t-109.5 53t-82 66.5t-53 62q-4 4 -7 9t-3 -11v-168q0 -27 -25 -27h-108q-27 0 -27 27z" />
<glyph unicode="&#xe22;" horiz-adv-x="1052" d="M106 332q0 82 35 135t60 76q12 12 12 16t-12 19q-23 23 -53.5 73.5t-30.5 124.5t29.5 126t84.5 89q57 39 125 47.5t121 -6.5q8 -4 18.5 -9t10.5 -28q-2 -23 -2 -38v-37q0 -20 -10.5 -22.5t-16.5 -2.5q-86 6 -148.5 -29t-68.5 -96q-6 -55 19.5 -88t62.5 -49.5t76 -21.5 t61 -5q16 0 15 -16q0 -6 -5.5 -36t-9.5 -50q-2 -12 -8 -13.5t-10 -1.5q-84 8 -145.5 -25.5t-61.5 -121.5q0 -33 15.5 -66.5t46 -61.5t78.5 -45t114 -17q72 0 136.5 6t109.5 16q8 2 17 7t9 26v797q0 27 27 26h108q27 0 27 -26v-910q0 -10 -5 -17t-9 -11q-6 -6 -13 -9 q-109 -41 -210 -53t-199 -12q-180 0 -291 94q-53 45 -81 111.5t-28 134.5z" />
<glyph unicode="&#xe23;" horiz-adv-x="847" d="M78 772v10q2 76 37 126t89 81t121.5 43t139.5 12q41 0 85 -8t82 -18t68.5 -20.5t44.5 -16.5q10 -4 10.5 -13.5t-1.5 -19.5l-19 -88q-4 -23 -28 -12q-23 12 -81.5 30.5t-138.5 22.5q-29 0 -71.5 -2t-81.5 -14.5t-66.5 -37t-27.5 -69.5q0 -61 57 -96t172 -74 q94 -31 157.5 -66.5t101.5 -76.5t53.5 -87t15.5 -97q0 -43 -20.5 -94.5t-66.5 -96.5t-119 -74.5t-177 -29.5q-53 0 -102.5 9t-90.5 22.5t-71.5 27.5t-45.5 23q-25 16 -20 41l18 100q2 10 9.5 13t15.5 -1q33 -18 101.5 -50t166.5 -32q129 0 184.5 40t55.5 102q0 63 -48 104 t-165 78q-29 8 -85 28.5t-114.5 57.5t-101.5 91t-43 132z" />
<glyph unicode="&#xe24;" horiz-adv-x="1077" d="M113 27v888q0 27 24 37q80 41 175.5 65.5t195.5 29.5q131 0 221 -33t145.5 -84t79 -113.5t23.5 -122.5v-1075q0 -27 -27 -27h-108q-10 0 -18.5 5.5t-8.5 21.5v1045q0 72 -28.5 115.5t-71.5 67t-91.5 32t-84.5 8.5q-98 0 -165 -19.5t-85 -29.5q-10 -6 -13.5 -15.5 t-3.5 -17.5v-619q0 -27 27 -26h70q27 0 22 -25l-16 -108q-4 -27 -31 -27h-207q-25 0 -24 27z" />
<glyph unicode="&#xe25;" horiz-adv-x="1007" d="M53 227v80q0 63 26.5 117.5t76.5 95.5q102 82 282 82h279q27 0 26 27v106q0 16 -5 43t-30.5 53.5t-79 45t-147.5 18.5q-104 0 -172.5 -22.5t-103.5 -38.5q-10 -4 -20.5 0t-14.5 12l-49 74q-6 8 -6 18t8 14q18 10 52 25.5t81 31t107.5 25.5t132.5 10q51 0 108.5 -7 t109.5 -27.5t95 -55.5t68 -90q29 -61 28 -129v-708q0 -27 -26 -27h-109q-27 0 -27 27v419q0 27 -26 27h-266q-111 0 -174.5 -38t-63.5 -105v-47q0 -18 1 -34t1 -20q0 -35 21.5 -60.5t62.5 -25.5h43q10 0 23 2q27 0 26 -24l2 -101q0 -25 -24 -28q-20 -2 -35 -4 q-6 -2 -13.5 -2h-11.5h-10q-109 0 -172 67q-29 29 -44 58.5t-22 56.5q-8 31 -8 59z" />
<glyph unicode="&#xe26;" horiz-adv-x="1083" d="M14 133q-4 27 23 27h69q27 0 27 26v729q0 27 25 37q80 41 175 66t195 29q131 0 221.5 -33t145.5 -84t78.5 -113.5t23.5 -122.5v-1075q0 -27 -24 -27h-111q-10 0 -18 5.5t-8 21.5v1045q0 72 -29 115.5t-72 67t-91 32t-85 8.5q-98 0 -164.5 -19.5t-85.5 -29.5 q-10 -6 -13 -15.5t-3 -17.5v-778q0 -27 -27 -27h-205q-27 0 -30 27z" />
<glyph unicode="&#xe27;" horiz-adv-x="837" d="M12 924q-14 20 8 37q6 4 35 18t75 30.5t111.5 29t145.5 12.5q199 0 305 -131q51 -66 77 -162t26 -230q0 -262 -103 -397q-104 -141 -305 -141q-49 0 -99 7t-100 17q-10 2 -16 12.5t-2 20.5l23 76q6 20 26 20q78 -16 152 -16q82 0 134 35t79.5 92t38 129t10.5 145 q0 68 -8.5 136.5t-36 124t-79.5 90t-138 34.5q-68 0 -140.5 -14t-136.5 -47q-27 -12 -41 10z" />
<glyph unicode="&#xe28;" horiz-adv-x="1157" d="M96 27v759q0 16 5 30.5t10 23.5q27 53 74.5 92t108 64.5t129.5 38t138 12.5q80 0 153.5 -20.5t135.5 -57.5q6 -4 19.5 -9.5t31.5 -1.5q27 6 52.5 17.5t43.5 21.5q20 12 41 29q4 4 13.5 7t23.5 -9l34 -34t40 -42q16 -14 7 -22t-15 -13q-35 -29 -75 -43t-85 -22q-8 0 -4 -6 q41 -70 41 -148v-667q0 -27 -27 -27h-108q-25 0 -25 27v637q0 55 -23.5 100t-63.5 77.5t-94 50t-116 17.5q-84 0 -165 -24.5t-120 -71.5q-6 -8 -12 -18.5t-6 -34.5v-180q0 -23 3 -21t7 4q23 23 54.5 29t52.5 6h149q27 0 31 -27l14 -77q4 -25 -22 -25h-182q-35 0 -56.5 -12.5 t-33 -29.5t-14.5 -37.5t-3 -37.5v-325q0 -27 -27 -27h-108q-27 0 -27 27z" />
<glyph unicode="&#xe29;" horiz-adv-x="1146" d="M127 115v889q0 27 27 26h106q27 0 27 -26v-779q0 -8 3 -18t13 -14q18 -10 84 -30t166 -20q37 0 85 8.5t91 32t71.5 67.5t28.5 116v94q0 18 -16 18h-156q-27 0 -22 25l14 78q4 25 31 24h133q16 0 16 19v379q0 27 27 26h109q25 0 24 -26v-383q2 -14 19 -15h86q27 0 22 -24 l-14 -78q-4 -25 -31 -25h-63q-16 0 -19 -14v-129q0 -59 -23.5 -121.5t-79 -114t-144.5 -84t-220 -32.5h-14q-61 2 -125 17t-115 32q-61 20 -116 45q-4 0 -5 2q-20 10 -20 35z" />
<glyph unicode="&#xe2a;" horiz-adv-x="1128" d="M53 227v78q0 133 105 215q100 82 280 82h281q25 0 24 27v106q0 16 -5 43t-30.5 53.5t-79 45t-147.5 18.5q-104 0 -172.5 -22.5t-103.5 -38.5q-10 -4 -20.5 -1t-14.5 13l-49 72q-6 8 -6 18t8 14q18 10 52 25.5t82 31t108.5 26.5t132.5 11q80 0 152.5 -15t123.5 -48 q4 -4 18.5 -10t34.5 0q35 12 70 30q20 12 41 29q4 4 13.5 8t23.5 -10l74 -74q16 -16 7 -23t-16 -11q-27 -20 -59 -37q-23 -10 -46.5 -17.5t-47.5 -11.5q-2 0 -2 -6q2 -4 11 -38t9 -75v-710q0 -25 -26 -25h-109q-27 0 -27 25v421q0 27 -24 27h-268q-111 0 -174.5 -39 t-63.5 -106v-45q0 -16 1 -33t1 -21q0 -35 22.5 -60.5t61.5 -25.5h43q10 0 23 2q27 0 26 -24l2 -101q0 -25 -24 -28q-20 -2 -35 -4q-6 -2 -13.5 -2h-11.5h-10q-109 0 -172 67q-29 29 -42 58.5t-22 56.5q-8 31 -10 59z" />
<glyph unicode="&#xe2b;" horiz-adv-x="1075" d="M135 25v979q0 27 27 26h108q25 0 25 -26v-279q0 -27 27 -23q45 2 92 11q41 8 87 24.5t91 46.5q66 47 107.5 104.5t54.5 129.5q2 10 10 11t18 1h111q18 0 20 -9t2 -15q-6 -41 -18 -78q-59 -147 -205 -242q-10 -8 -14 -15t2 -24l289 -624q10 -23 -17 -23h-121q-27 0 -36 23 l-133 284l-127 273q-4 8 -9.5 15t-19.5 3q-45 -12 -92 -19.5t-97 -11.5q-10 0 -16 -9t-6 -19v-514q0 -25 -25 -25h-108q-27 0 -27 25z" />
<glyph unicode="&#xe2c;" horiz-adv-x="1353" d="M129 1004q-4 27 23 26h108q27 0 31 -26l98 -680v-52q0 -10 2 -10t6 10l13 52l120 231l107 211q4 10 16.5 16t22.5 6h6q27 0 39 -22l227 -442l15 -52q6 -23 6 0l2 52q18 137 35 245q6 45 13 90.5t12 81t8 58t3 24.5q6 33 -16 60.5t-59 50.5q-12 6 -21 14q-8 6 -14 15.5 t-4 23.5q2 10 2 17.5t2 13.5q4 10 10 14t10 6q10 4 21.5 9.5t15.5 7.5q39 23 59.5 54.5t22.5 82.5v78q0 27 16 30q12 2 30 5.5t35 6.5t30.5 6t19.5 3q16 4 22.5 -3t6.5 -34v-65q0 -63 -26.5 -119t-76.5 -94q-4 -4 -9 -9.5t3 -13.5q39 -37 62.5 -86t17.5 -100q0 -2 -5 -37 t-12 -89.5t-16.5 -123t-19.5 -139.5q-23 -168 -51 -381q-4 -27 -31 -27h-88q-25 0 -39 23l-248 473q-6 12 -13 10t-11 -14l-250 -469q-12 -23 -39 -23h-88q-4 0 -8 5t-10.5 35t-17.5 90t-27.5 172t-41 283t-57.5 419z" />
<glyph unicode="&#xe2d;" horiz-adv-x="987" d="M70 78v502q0 27 26 26h230q27 0 30 -26l13 -76q4 -27 -23 -27h-94q-25 0 -25 -26v-269q0 -18 7.5 -24t17.5 -11q25 -6 49 -10q23 -4 47.5 -6t46.5 -2q172 0 268.5 101.5t96.5 283.5q0 109 -35 184.5t-89 122.5t-120.5 67.5t-132.5 20.5q-53 0 -99 -8t-81 -18 q-39 -10 -74 -25q-25 -6 -27 16q-4 14 -9 50.5t-9 56.5q-2 16 4 20.5t10 4.5q66 20 129.5 30.5t128.5 10.5h13q125 0 227 -39t176 -112t114 -174t40 -224q0 -117 -36 -211t-102.5 -161t-161 -101.5t-212.5 -34.5q-82 0 -166 14t-154 39q-4 2 -14 8t-10 27z" />
<glyph unicode="&#xe2e;" horiz-adv-x="1021" d="M80 74v504q0 25 26 24h230q25 0 31 -24l10 -78q4 -27 -23 -27h-92q-27 0 -26 -27v-270q0 -16 8 -22.5t18 -8.5q25 -6 49 -10q47 -10 92 -10q174 0 269.5 102.5t95.5 282.5q0 111 -35 185.5t-88 121.5t-120.5 67.5t-131.5 20.5q-53 0 -100 -7t-82 -17q-41 -10 -74 -25 q-23 -8 -26 14q-2 14 -7.5 50t-9.5 57q-4 16 3 20t9 4q61 20 129 31.5t144 11.5q86 0 159.5 -18t135.5 -53q8 -4 19.5 -9.5t33.5 -0.5q27 8 53.5 18t44.5 20q10 8 20.5 14.5t20.5 16.5q4 4 13.5 7t23.5 -11q10 -8 34 -33t40 -41q16 -14 7 -22t-15 -12q-27 -20 -60 -37 q-37 -16 -86 -27q-8 0 -2 -8q55 -70 85 -159t30 -193q0 -119 -36 -213.5t-102.5 -161t-160.5 -101t-213 -34.5q-82 0 -167 14t-155 39q-4 2 -13 8t-9 27z" />
<glyph unicode="&#xe2f;" horiz-adv-x="1112" d="M133 731v78q4 29 12 57q8 25 21.5 52.5t40.5 50.5q33 29 75 43t78 20q43 8 89 6q10 -2 18 -10t6 -18v-84q-4 -27 -29 -27h-22q-10 0 -21.5 -1t-21.5 -3q-29 -4 -45.5 -18.5t-25.5 -30t-13 -30.5t-4 -23q-2 -4 -1 -16.5t3 -28.5q2 -18 2 -39q12 -141 233 -142q33 -2 68 4 q29 4 61.5 12.5t61.5 24.5q6 2 15 13.5t9 31.5l5 353q0 25 26 24h107q27 0 26 -24v-983q1 -77 -26 -132q-31 -59 -80 -98q-51 -41 -130 -61.5t-171 -20.5q-23 0 -67 5t-79 24q-16 8 -6 29l37 84q6 8 11 10t18 0q16 -2 31.5 -2h25.5h23q94 0 146 19.5t75.5 45t28 53t4.5 44.5 v417q0 25 -21 25q-33 -8 -70 -16q-31 -6 -67.5 -10.5t-71.5 -4.5q-80 0 -154.5 20.5t-125.5 61.5q-104 82 -105 215z" />
<glyph unicode="&#xe30;" horiz-adv-x="579" d="M74 152v151q0 27 26 31l72 14q27 4 27 -22v-29q0 -25 26 -25h226q27 0 22 -26l-18 -94q-4 -27 -31 -27h-324q-27 0 -26 27zM74 702v154q0 27 26 31l72 12q27 4 27 -20v-29q0 -27 26 -27h226q27 0 22 -24l-18 -97q-4 -25 -31 -24h-324q-27 0 -26 24z" />
<glyph unicode="&#xe31;" d="M-508 1212v140q0 10 8 18t19 10l71 11q10 4 18.5 -2.5t8.5 -16.5v-24q0 -25 27 -25h467q27 0 22 -25l-16 -86q-6 -25 -31 -24h-567q-10 0 -18.5 7t-8.5 17z" />
<glyph unicode="&#xe32;" horiz-adv-x="815" d="M27 924q-16 18 6 34q39 20 90 39q43 16 103 28.5t132 12.5q119 0 194 -32.5t116 -83t56 -110.5t15 -116v-669q0 -27 -26 -27h-101q-27 0 -26 27v688q0 63 -25.5 100t-63.5 56.5t-85 25.5t-90 8q-43 0 -82 -7t-70 -17q-37 -10 -66 -27q-10 -6 -21 -3t-17 11z" />
<glyph unicode="&#xe33;" horiz-adv-x="780" d="M-408 1305q0 72 49 121t121 49t121 -49.5t49 -120.5q0 -70 -49 -119t-121 -49t-121 49t-49 119zM-305 1307q0 -29 19 -49.5t48 -20.5t48.5 20.5t19.5 49.5t-19.5 48t-48.5 19t-48 -19.5t-19 -47.5zM1 940q1 10 11 18q39 20 90 39q43 16 103.5 28.5t132.5 12.5 q119 0 193.5 -32.5t115.5 -84t56.5 -110.5t15.5 -115v-671q0 -25 -27 -25h-100q-27 0 -27 25v688q0 63 -25.5 101t-63.5 57.5t-85 25.5t-90 6q-43 2 -82 -5t-69 -17q-37 -10 -66 -27q-10 -6 -21.5 -4t-17.5 12l-39 60q-6 8 -5 18z" />
<glyph unicode="&#xe34;" d="M-872 1214l16 93q4 27 31 26h682q27 0 22 -26l-16 -93q-4 -27 -31 -26h-682q-27 0 -22 26z" />
<glyph unicode="&#xe35;" d="M-881 1212l17 97q4 25 30 24h529q27 0 26 27v84q0 27 27 26h105q27 0 26 -26v-230q0 -27 -26 -26h-713q-27 0 -21 24z" />
<glyph unicode="&#xe36;" d="M-991 1214l16 93q4 27 31 26h457q14 0 15 5t1 10q-2 4 -2 10q0 72 50 121t120 49q72 0 121 -49t49 -121q0 -33 -13.5 -63.5t-36 -54t-53 -38t-67.5 -14.5h-666q-27 0 -22 26zM-371 1358q0 -29 19.5 -48.5t48.5 -19.5t48 19.5t19 48.5t-19 48t-48 19t-48.5 -19.5 t-19.5 -47.5z" />
<glyph unicode="&#xe37;" d="M-895 1214l16 93q4 27 31 26h395q27 0 27 27v82q0 27 27 26h73q27 0 27 -26v-82q0 -27 27 -27h26q27 0 27 27v82q0 27 24 26h107q27 0 27 -26v-230q0 -25 -27 -24h-786q-10 0 -17.5 8t-3.5 18z" />
<glyph unicode="&#xe38;" d="M-381 -260l14 82q4 25 31 24h211q27 0 27 -24v-354q0 -27 -27 -27h-104q-27 0 -27 27v221q0 27 -27 26h-77q-25 0 -21 25z" />
<glyph unicode="&#xe39;" d="M-707 -260l15 80q4 27 30 26h189q27 0 27 -26v-176q4 -37 28.5 -61.5t69.5 -24.5q102 0 102 106v156q0 27 27 26h84q27 0 26 -26v-156q0 -100 -59 -158.5t-180 -58.5q-96 0 -159.5 51t-67.5 156v35q0 25 -27 24h-82q-27 0 -23 27z" />
<glyph unicode="&#xe3a;" d="M-352 -324q0 55 42 96.5t99 41.5t98 -41.5t41 -96.5t-41 -95t-98 -40t-99 40t-42 95z" />
<glyph unicode="&#xe3f;" horiz-adv-x="1105" d="M143 41v1100q0 29 4.5 43t28.5 14h221v127q0 29 7.5 38t37.5 9h121q23 0 26 -10t3 -39v-129q166 -14 254 -83t88 -216q0 -115 -53.5 -186.5t-135.5 -100.5q43 -14 81 -35.5t66 -56.5t44 -85t16 -118q0 -141 -84 -222t-276 -91v-123q0 -29 -3 -39t-26 -10h-121 q-31 0 -38 10t-7 37v123h-219q-23 0 -29 10t-6 33zM332 715q0 -16 6 -23.5t27 -7.5h133q129 0 185 44t56 142q0 106 -62.5 148.5t-184.5 42.5h-130q-18 -2 -24 -11.5t-6 -19.5v-315zM336 168q0 -10 5 -20.5t24 -10.5h129q131 0 197.5 40t66.5 149q0 104 -67.5 154t-188.5 50 h-133q-20 0 -26.5 -7t-6.5 -23v-332z" />
<glyph unicode="&#xe40;" horiz-adv-x="411" d="M121 25v979q0 27 26 26h109q25 0 25 -26v-979q0 -25 -25 -25h-109q-27 0 -26 25z" />
<glyph unicode="&#xe41;" horiz-adv-x="753" d="M127 25v979q0 27 25 26h108q27 0 27 -26v-979q0 -25 -27 -25h-108q-25 0 -25 25zM485 25v979q0 27 27 26h106q27 0 27 -26v-979q0 -25 -27 -25h-106q-27 0 -27 25z" />
<glyph unicode="&#xe42;" horiz-adv-x="454" d="M-72 1442q0 53 18.5 90t47.5 60.5t64.5 34.5t70.5 11h367q27 0 22 -26l-12 -80q-4 -27 -31 -27h-360q-23 0 -38.5 -14t-15.5 -49t20.5 -57.5t65.5 -43.5q8 -4 35 -20t54.5 -53t49 -99.5t21.5 -158.5v-983q0 -27 -26 -27h-109q-25 0 -25 27v1032q0 55 -13 89t-32.5 54.5 t-40 30.5t-32.5 20q-49 35 -75 79t-26 110z" />
<glyph unicode="&#xe43;" horiz-adv-x="475" d="M-82 1556q-4 16 3 24.5t18 12.5q41 14 92 26.5t102 16.5q55 4 116 1t116 -19q6 -2 28.5 -13.5t48 -34t45 -59t19.5 -88.5q0 -66 -25.5 -110.5t-74.5 -79.5q-12 -10 -33 -20.5t-40.5 -31t-32.5 -54t-13 -89.5v-1011q0 -27 -25 -27h-108q-27 0 -27 27v964q0 94 21.5 156.5 t49 99.5t53 53.5t36.5 20.5q45 20 65.5 42.5t20.5 59.5q0 18 -7.5 35t-31 30t-68.5 21.5t-121 8.5q-49 0 -101 -13.5t-85 -25.5q-10 -4 -19.5 -1t-11.5 19q-2 8 -5 25.5t-5 33.5z" />
<glyph unicode="&#xe44;" horiz-adv-x="466" d="M-66 1530l15 82q4 27 31 26h512q27 0 26 -26v-82q0 -119 -98 -187q-12 -10 -32.5 -20t-39 -30.5t-32 -54.5t-13.5 -87v-1124q0 -27 -24 -27h-107q-27 0 -27 27v1077q0 94 17.5 151.5t42 91t51.5 49t45 25.5q31 20 52.5 29.5t29.5 30.5q2 4 2 14t-14 10h-414 q-10 -2 -17.5 6.5t-5.5 18.5z" />
<glyph unicode="&#xe45;" horiz-adv-x="780" d="M1 944q1 10 11 19q39 20 90 38q43 16 102.5 28.5t131.5 12.5q119 0 193.5 -32.5t116.5 -84t57.5 -110.5t15.5 -115v-1073q0 -27 -27 -26h-102q-25 0 -25 26v1090q0 63 -25.5 101t-64.5 57.5t-86 25.5t-90 6q-41 2 -81 -6t-68 -18q-37 -12 -66 -27q-23 -10 -39 10l-41 60 q-4 8 -3 18z" />
<glyph unicode="&#xe46;" horiz-adv-x="1052" d="M117 743q0 84 24.5 136.5t46.5 76.5q39 45 88.5 69t120.5 28q6 0 17.5 -3t29.5 -24q10 -14 23.5 -28.5t19.5 -22.5q23 -29 45 0q6 8 19.5 22.5t26.5 28.5q16 18 29.5 22.5t19.5 4.5q72 -4 121 -28t88 -69q70 -82 69 -213v-1126q0 -27 -26 -27h-93q-27 0 -26 27v1126 q0 23 -2 46.5t-13.5 44t-34 35t-63.5 20.5q-18 2 -29.5 -6.5t-23.5 -18.5q-16 -16 -32.5 -31.5t-26.5 -23.5q-16 -12 -25.5 -13t-26.5 13l-25.5 25.5t-31.5 29.5q-12 10 -21.5 19.5t-31.5 5.5q-41 -6 -62.5 -22.5t-32 -38t-12.5 -48t-2 -53.5q0 -55 30 -82t50 -31 q4 -2 14.5 -7t8.5 -21q-4 -16 -6.5 -35t-4.5 -29q-4 -29 -28 -28q-45 4 -83 25.5t-66.5 54t-45 76.5t-16.5 93z" />
<glyph unicode="&#xe47;" d="M-858 1358q0 76 54 131t175 55h391q18 0 19 -18q0 -20 -5 -42t-9 -44q-6 -14 -25 -19h-401q-39 0 -51.5 -17.5t-12.5 -39.5q0 -25 10.5 -45.5t50.5 -20.5h60q35 0 57.5 11.5t34.5 25.5q8 8 18.5 16.5t28.5 4.5l201 -47q10 -4 17 -13.5t7 -19.5v-74q0 -25 -24 -18 q-68 18 -117 32.5t-67 18.5q-18 6 -28.5 -1l-25.5 -17q-16 -14 -45.5 -27.5t-75.5 -13.5h-57q-31 0 -62.5 10t-57 32.5t-43 57.5t-17.5 82z" />
<glyph unicode="&#xe48;" d="M-281 1583v225q0 27 27 27h107q27 0 26 -27v-225q0 -27 -26 -27h-107q-27 0 -27 27z" />
<glyph unicode="&#xe49;" d="M-635 1710l25 88q2 8 10 15.5t18 7.5h152q10 0 17 -7.5t7 -17.5v-82q0 -23 25 -22h289q10 0 16 -7.5t4 -17.5l-14 -88q-8 -23 -29 -23h-381q-10 0 -17 6.5t-7 16.5v84q0 10 -7.5 17.5t-17.5 7.5h-71q-10 0 -16.5 6t-2.5 16z" />
<glyph unicode="&#xe4a;" d="M-698 1610q0 70 45 112q43 45 118 52q20 2 33 -14.5t29 -41.5q14 -14 27 0q20 25 32.5 40.5t30.5 15.5q94 -6 139 -52q12 -10 22.5 -28.5t14.5 -34.5q4 -18 14 -4q4 12 8.5 28.5t4.5 36.5q0 14 -1 25.5t-1 19.5q-2 8 -2 15q-2 8 2 15t14 7q33 6 50.5 10.5t27.5 6.5l12 2 q23 4 23 -19v-20q0 -33 -8 -66q-6 -29 -20.5 -57.5t-41.5 -50.5q-29 -20 -55.5 -30.5t-49 -16t-39 -5.5h-20.5q-23 4 -24 23v16q0 23 -11.5 51.5t-58.5 36.5q-14 4 -30.5 -9t-30.5 -29q-4 -6 -13.5 -6.5t-15.5 6.5q-16 16 -30.5 29.5t-31.5 8.5q-33 -6 -41 -24.5t-10 -38.5 v-43q0 -20 -22 -21h-66q-23 0 -22 23z" />
<glyph unicode="&#xe4b;" d="M-389 1698v51q0 27 27 27h65q27 0 27 26v58q0 27 26 26h97q27 0 26 -26v-58q0 -27 27 -26h65q27 0 27 -27v-51q0 -27 -27 -27h-65q-27 0 -27 -26v-62q0 -27 -26 -27h-97q-27 0 -26 27v62q0 27 -27 26h-65q-27 0 -27 27z" />
<glyph unicode="&#xe4c;" d="M-479 1550v133q0 27 26 27h365q10 0 17 -7t3 -17l-18 -78q-4 -27 -31 -27h-219q-18 0 -18 -18v-35q0 -27 -27 -23l-72 15q-27 4 -26 30z" />
<glyph unicode="&#xe4d;" d="M-432 1315q0 39 15.5 73.5t41 61.5t60 42t75.5 15q39 0 75 -15t61.5 -42t41 -61.5t15.5 -73.5q0 -41 -15.5 -76t-41 -60.5t-61.5 -41t-75 -15.5q-41 0 -75.5 15.5t-60 41t-41 60.5t-15.5 76zM-317 1315q0 -33 22.5 -55.5t54.5 -22.5q33 0 55.5 22.5t22.5 55.5 q0 31 -22.5 53.5t-55.5 22.5t-55 -22.5t-22 -53.5z" />
<glyph unicode="&#xe4e;" />
<glyph unicode="&#xe4f;" horiz-adv-x="1064" d="M207 410q0 68 26.5 128t71.5 105t105.5 71.5t128.5 26.5t128 -26.5t105 -71.5t71.5 -105t26.5 -128q0 -70 -26.5 -130.5t-71.5 -105.5t-105.5 -71.5t-127.5 -26.5q-68 0 -128.5 26.5t-105.5 71.5t-71.5 105.5t-26.5 130.5zM258 410q0 -59 21.5 -110.5t60.5 -89.5 t89 -60.5t110 -22.5q57 0 108 22.5t90 60.5t60.5 89.5t21.5 110.5q0 57 -21.5 108t-60.5 89t-90 60.5t-108 22.5q-59 0 -109.5 -22.5t-89.5 -60.5t-60.5 -89t-21.5 -108zM346 408q0 41 15.5 75.5t41 61t60.5 41t74 14.5q41 0 76.5 -15.5t61 -41t41 -60t15.5 -73.5 q0 -41 -15.5 -77t-42 -61.5t-61 -41t-73.5 -15.5q-41 0 -76 15.5t-61.5 42t-41 61.5t-14.5 74z" />
<glyph unicode="&#xe50;" horiz-adv-x="1060" d="M135 346v107q0 80 29 144.5t81 110.5t124.5 71.5t162.5 25.5q76 0 149 -20.5t130 -63.5t93 -109.5t36 -158.5v-107q0 -160 -104.5 -256t-303.5 -96q-90 0 -162.5 25.5t-124.5 71.5t-81 110.5t-29 144.5zM295 377q0 -111 57 -178.5t180 -67.5q109 0 177.5 61.5t68.5 184.5 v45q0 111 -52 178.5t-194 67.5q-123 0 -180 -68t-57 -178v-45z" />
<glyph unicode="&#xe51;" horiz-adv-x="1114" d="M135 268v289q47 121 155.5 177.5t258.5 56.5q90 0 166 -21.5t130 -57.5t85 -83t31 -99v-348q0 -55 -19.5 -114.5t-66 -108.5t-122 -83t-188.5 -42q-6 -2 -16 2t-14 23q-4 20 -8.5 43.5t-6.5 34.5q-4 18 8.5 22t14.5 4q37 0 82 9.5t85 33t66.5 66.5t26.5 112l-2 322 q0 66 -64.5 107.5t-187.5 41.5q-96 0 -160.5 -32.5t-93.5 -92.5v-264q0 -39 20.5 -71.5t65.5 -32.5h68q10 2 18 -6.5t8 -18.5l2 -100q0 -27 -26 -31q-20 -2 -35 -4q-6 -2 -13.5 -2h-11.5h-10q-55 0 -100 21.5t-77 57.5t-50.5 85t-18.5 104z" />
<glyph unicode="&#xe52;" horiz-adv-x="1234" d="M143 246v700q0 27 25 31l106 18q25 6 25 -20v-729q0 -45 25.5 -65.5t85.5 -20.5h424q41 0 73.5 19.5t34.5 66.5v237v13.5t-2 15.5q0 18 -3 37.5t-14.5 35t-33 28t-58.5 16.5q-18 0 -34 -11q-8 -6 -17 -10l-80 -69q-18 -14 -38 2l-74 65q-8 6 -17 12q-16 10 -36 11 q-35 -6 -58 -19q-4 -2 -18.5 -6t-30.5 21q-8 14 -20.5 35.5t-18.5 33.5q-10 16 -3 29.5t13 17.5q33 23 71 35t91 15q10 0 18.5 -4.5t16.5 -8.5l16 -12l54 -59q18 -18 34 0l58 59q6 6 14 12q16 12 37 13q76 -4 123 -27t88 -68q78 -82 78 -213v-237q0 -109 -68 -172 q-29 -29 -58.5 -44.5t-56.5 -21.5q-31 -8 -59 -8h-471q-49 0 -93 19.5t-77 53t-52.5 78t-19.5 95.5z" />
<glyph unicode="&#xe53;" horiz-adv-x="1198" d="M164 252v233q0 131 78 213q43 45 98 69t133 28q10 0 18.5 -5.5t16.5 -9.5l16 -12q6 -8 15 -16q6 -8 13 -16.5t17 -18.5q18 -20 24.5 -20.5t24.5 20.5q10 10 19.5 18t15.5 17q8 8 15 16l16 12q8 4 16.5 9.5t18.5 5.5q78 -4 134 -28t99 -69q78 -82 78 -213v-458 q0 -27 -26 -27h-107q-25 0 -25 27v458q0 23 -4 46.5t-16 44t-36.5 35t-70.5 20.5q-6 2 -20 0t-33 -21q-18 -16 -39.5 -34.5t-31.5 -26.5q-16 -16 -26.5 -16.5t-27.5 16.5q-10 10 -29.5 26.5t-35.5 32.5q-23 20 -35 22.5t-18 0.5q-45 -6 -70 -20.5t-37 -35t-14 -44t-2 -46.5 v-235q0 -12 5 -40t23 -46q2 -4 15.5 -12.5t40.5 -8.5h45q10 0 22 2q27 0 27 -24l2 -103q0 -25 -27 -28l-24 -4q-10 -2 -22.5 -2h-22.5q-57 0 -101.5 20.5t-70.5 46.5q-27 29 -42.5 60.5t-22.5 61.5t-8 51.5t-1 27.5z" />
<glyph unicode="&#xe54;" horiz-adv-x="1142" d="M131 383q0 90 24.5 165t68.5 129t108.5 85t144.5 31h268q41 0 67 1t41 11t20.5 32.5t5.5 63.5v55q0 14 26 23l109 18q27 4 26 -22v-94q0 -55 -20.5 -99.5t-54 -74t-74.5 -45t-84 -17.5h-299q-111 0 -176.5 -69.5t-65.5 -192.5q0 -98 33 -164.5t92 -66.5h117q20 0 61 20 q8 6 16.5 16.5t8.5 34.5q0 63 20.5 109.5t53 80t75.5 56.5t86 37q8 2 17.5 0t13.5 -19q4 -16 7 -39.5t7 -35.5q4 -20 -6 -25.5t-16 -9.5q-43 -14 -75 -44t-32 -83q0 -20 2.5 -36.5t24.5 -25.5q6 -2 41 -8t76 -14q47 -8 104 -21q25 -4 25 -30l-8 -86q-4 -27 -29 -21l-123 25 q-47 10 -88 17t-49 9q-16 4 -30.5 -3t-22.5 -11q-27 -16 -53.5 -25.5t-49 -13.5t-38 -5t-21.5 -1h-141q-51 0 -94.5 31.5t-74 85t-48 122t-17.5 144.5z" />
<glyph unicode="&#xe55;" horiz-adv-x="1153" d="M141 383q0 170 83 281.5t227 126.5q-8 16 -13.5 35.5t-5.5 39.5q0 68 48 116t116 48q70 0 118 -48t48 -116q0 -20 -5 -38.5t-14 -34.5h13q41 0 67.5 1t42 11t20.5 31.5t5 64.5v55q0 14 27 23l108 18q27 4 27 -22v-94q0 -55 -20.5 -99.5t-54.5 -74t-75 -45t-84 -17.5h-301 q-111 0 -175 -69.5t-64 -192.5q0 -98 32.5 -164.5t91.5 -66.5h117q8 0 25.5 5t34.5 15q10 4 18 15.5t8 35.5q0 61 20.5 108.5t53.5 81t76 56.5t86 37q6 2 16 0t14 -19q4 -16 7.5 -39.5t5.5 -35.5q4 -20 -5.5 -25.5t-15.5 -9.5q-43 -16 -74.5 -46t-31.5 -83v-27q0 -27 26 -33 q6 -2 41 -8t76 -14q47 -8 105 -21q27 -4 22 -30l-8 -86q0 -10 -8 -17.5t-19 -3.5q-68 14 -123 25q-47 10 -89 17t-50 9q-16 4 -30.5 -3t-20.5 -11q-53 -33 -102.5 -39t-61.5 -6h-139q-51 0 -94 31.5t-75 85t-49.5 122t-17.5 144.5zM530 858q0 -29 19.5 -47t46.5 -18 q29 0 47.5 18t18.5 47t-18.5 47.5t-47.5 18.5q-27 0 -46.5 -18.5t-19.5 -47.5z" />
<glyph unicode="&#xe56;" horiz-adv-x="1134" d="M121 881v94q0 27 26 22l109 -18q23 -6 27 -27v-55q0 -41 5 -62.5t20.5 -30.5t41 -10t66.5 -1h268q74 0 137.5 -27t109.5 -76t72.5 -120.5t26.5 -161.5t-24.5 -165t-68.5 -129.5t-108.5 -84t-144.5 -29.5h-176q-6 0 -28.5 1t-51.5 8t-61.5 22.5t-59.5 42.5q-70 70 -69 172 v17t2 28q0 16 2 37q4 27 28 30l105 19q27 4 26 -21q-2 -31 -2 -53v-70q0 -27 6.5 -39t12.5 -18q16 -16 39.5 -21t40.5 -8h155q111 0 175.5 64.5t64.5 200.5q0 66 -17.5 110.5t-50 72.5t-76.5 39t-96 11h-299q-43 2 -84 17.5t-74.5 45t-54 73.5t-20.5 100z" />
<glyph unicode="&#xe57;" horiz-adv-x="1464" d="M137 250v233q0 131 78 213q43 45 97.5 68.5t133.5 28.5q10 0 17.5 -5.5t15.5 -9.5l17 -12q6 -8 14 -16q6 -8 14 -16.5t19 -18.5q18 -20 24 -20.5t25 20.5q10 10 17 18t16 17l16 16l16 12q8 4 16.5 9.5t18.5 5.5q78 -4 134.5 -28t97.5 -69q78 -82 77 -213v-344 q0 -12 9 -16q4 -2 10 -2q57 0 89 39t32 96v692q0 23 26 31l109 18q27 4 27 -22v-701q0 -57 -17.5 -107t-50.5 -87t-83 -58.5t-114 -21.5h-168q-27 0 -26 27l2 456q-2 23 -5 46.5t-15.5 44t-38 35t-70.5 20.5q-6 2 -19.5 0t-31.5 -21q-18 -16 -40 -33.5t-32 -27.5 q-16 -16 -26.5 -16.5t-26.5 16.5q-10 10 -29.5 27.5t-38.5 31.5q-23 20 -34 22.5t-17 0.5q-45 -6 -69.5 -20.5t-37 -35t-15.5 -44t-3 -46.5v-235q0 -39 19.5 -73t66.5 -34h43q10 0 23 2q10 2 18 -6t8 -18l2 -103q0 -25 -24 -28q-12 -2 -25 -4q-10 -2 -22.5 -2h-22.5 q-55 0 -100 20.5t-77 57t-50.5 86t-18.5 104.5z" />
<glyph unicode="&#xe58;" horiz-adv-x="1140" d="M145 395q0 35 4.5 66t10.5 59q18 80 58 140.5t99 95.5q76 47 175 47h268q41 0 67.5 1t42 11t20.5 31.5t5 64.5v56q0 16 27 20l108 21q27 4 27 -23v-94q0 -55 -20.5 -99t-54.5 -74t-75 -45.5t-84 -17.5h-301q-145 0 -205 -110q-35 -63 -34 -150q0 -76 13 -122t35.5 -72.5 t52.5 -37.5t60 -13q20 -2 30.5 4t23.5 16q18 16 39.5 35.5t31.5 27.5q27 23 54 -2q8 -8 28.5 -25.5t36.5 -33.5q10 -10 22.5 -17.5t30.5 -4.5q43 6 68 20t37 33.5t15 42t3 45.5q0 8 -2 20.5t-6 26.5q-2 6 -2 18.5t18 26.5q10 8 28 20.5t34 22.5q18 12 27.5 6t13.5 -14 q16 -39 21 -73t5 -50q0 -131 -77 -213q-41 -41 -90.5 -64.5t-118.5 -29.5q-10 -2 -18.5 3t-14.5 9q-8 6 -14 12l-19 19q-8 8 -15 16t-13 16q-27 29 -52 0q-8 -8 -15 -16t-15 -16l-19 -19q-6 -6 -14 -12q-6 -4 -16.5 -9t-20.5 -3q-78 4 -133 26.5t-98 67.5q-29 31 -61 111.5 t-32 201.5z" />
<glyph unicode="&#xe59;" horiz-adv-x="1144" d="M135 252v231q0 131 78 213q43 45 121 68.5t164 28.5q6 0 17 -5.5t22 -21.5l24 -49q12 -23 20.5 -16.5t20.5 16.5q16 14 39 26q37 23 76 34t90 11h62.5t46 9.5t27.5 32t9 67.5v55q4 20 27 27l108 18q27 4 27 -22v-96q0 -55 -20.5 -99.5t-54 -74t-74.5 -46t-84 -16.5h-64 q-55 0 -90 -17.5t-61 -52.5q-4 -6 -9.5 -18t5.5 -35q2 -6 14 -30.5t30.5 -60.5t41 -80t45.5 -89q53 -106 118 -235q10 -25 -14 -25h-102q-25 0 -39 25q-80 156 -144 280q-29 53 -54.5 104.5t-47 93.5t-35.5 69.5t-16 31.5q-10 18 -21.5 21.5t-17.5 3.5q-45 -6 -69.5 -20.5 t-37 -35t-15.5 -44t-3 -46.5v-235q0 -10 6 -39t25 -47q4 -6 17 -12.5t38 -6.5h35q12 0 30 2q27 0 27 -26l2 -101q0 -27 -24 -30l-33 -4q-12 -2 -22.5 -2h-14.5q-106 0 -172 69q-29 27 -43 59.5t-21.5 61.5t-8.5 51.5t-1 28.5z" />
<glyph unicode="&#xe5b;" horiz-adv-x="1699" />
<glyph unicode="&#x2000;" horiz-adv-x="959" />
<glyph unicode="&#x2001;" horiz-adv-x="1919" />
<glyph unicode="&#x2002;" horiz-adv-x="959" />
<glyph unicode="&#x2003;" horiz-adv-x="1919" />
<glyph unicode="&#x2004;" horiz-adv-x="639" />
<glyph unicode="&#x2005;" horiz-adv-x="479" />
<glyph unicode="&#x2006;" horiz-adv-x="319" />
<glyph unicode="&#x2007;" horiz-adv-x="319" />
<glyph unicode="&#x2008;" horiz-adv-x="239" />
<glyph unicode="&#x2009;" horiz-adv-x="383" />
<glyph unicode="&#x200a;" horiz-adv-x="106" />
<glyph unicode="&#x2010;" horiz-adv-x="661" d="M37 498v80q0 29 11 32.5t40 3.5h469q33 0 47 -4t14 -26v-80q0 -27 -11 -34t-50 -7h-475q-45 0 -45 35z" />
<glyph unicode="&#x2011;" horiz-adv-x="661" d="M37 498v80q0 29 11 32.5t40 3.5h469q33 0 47 -4t14 -26v-80q0 -27 -11 -34t-50 -7h-475q-45 0 -45 35z" />
<glyph unicode="&#x2012;" horiz-adv-x="661" d="M37 498v80q0 29 11 32.5t40 3.5h469q33 0 47 -4t14 -26v-80q0 -27 -11 -34t-50 -7h-475q-45 0 -45 35z" />
<glyph unicode="&#x2013;" horiz-adv-x="968" d="M0 465v80q0 31 10 35t39 4h860q31 0 45.5 -4.5t14.5 -26.5v-82q0 -25 -11.5 -33t-48.5 -8h-866q-25 0 -34 7t-9 28z" />
<glyph unicode="&#x2014;" horiz-adv-x="1574" d="M0 465v80q0 29 10 34t39 5h1462q33 0 48.5 -4.5t15.5 -28.5v-80q0 -27 -12.5 -34t-51.5 -7h-1466q-45 0 -45 35z" />
<glyph unicode="&#x2018;" horiz-adv-x="409" d="M76 958q23 98 80 178.5t129 129.5q10 8 21 6t20.5 -8.5t13.5 -14.5t0 -16q-29 -59 -48.5 -136t-23.5 -134q-2 -39 -30 -39h-125q-29 0 -35 9t-2 25z" />
<glyph unicode="&#x2019;" horiz-adv-x="409" d="M74 943q-4 9 0 18q29 59 48 136t23 134q2 39 31 39h125q29 0 35 -9.5t2 -25.5q-23 -98 -80 -178t-129 -129q-10 -8 -21.5 -7t-20.5 7t-13 15z" />
<glyph unicode="&#x201a;" horiz-adv-x="411" d="M59 -145q29 59 48.5 136t23.5 134q2 18 8 28.5t25 10.5h123q29 0 35 -10.5t2 -26.5q-23 -98 -80.5 -177t-128.5 -128q-10 -8 -21.5 -7t-21 7t-13.5 15t0 18z" />
<glyph unicode="&#x201c;" horiz-adv-x="718" d="M70 958q23 98 80 178.5t129 129.5q10 8 21 6t20.5 -8.5t13.5 -14.5t0 -16q-12 -31 -24.5 -65.5t-23 -71.5t-16.5 -72t-8 -61q-2 -20 -8 -30.5t-23 -10.5h-125q-29 0 -34.5 10t-1.5 26zM389 958q23 98 80 178.5t129 129.5q10 8 21.5 6t20.5 -8.5t13 -14.5t0 -16 q-12 -31 -24.5 -65.5t-22.5 -71.5t-16 -72t-8 -61q-2 -20 -8.5 -30.5t-22.5 -10.5h-125q-29 0 -35 10t-2 26z" />
<glyph unicode="&#x201d;" horiz-adv-x="714" d="M74 945q-4 9 0 18q12 31 24.5 65.5t22.5 71.5t16 70.5t8 62.5q2 20 8.5 30.5t22.5 10.5h125q29 0 35 -10.5t2 -26.5q-23 -98 -80 -178t-129 -129q-10 -8 -21.5 -7t-20.5 7t-13 15zM393 945q-4 9 0 18q12 31 24.5 65.5t23 71.5t16.5 70.5t8 62.5q2 20 8 30.5t23 10.5h125 q29 0 34.5 -10.5t1.5 -26.5q-23 -98 -80 -178t-128 -129q-10 -8 -21.5 -7t-21 7t-13.5 15z" />
<glyph unicode="&#x201e;" horiz-adv-x="714" d="M72 -143q29 59 48 136t23 134q2 18 8.5 28.5t22.5 10.5h125q29 0 35 -10.5t2 -26.5q-23 -98 -80 -177t-129 -128q-10 -8 -21.5 -7t-20.5 7t-13 15t0 18zM391 -143q29 59 48.5 136t23.5 134q2 18 8 28.5t23 10.5h124q29 0 35 -10.5t2 -26.5q-23 -98 -80 -177t-129 -128 q-10 -8 -21 -7t-20.5 7t-13.5 15t0 18z" />
<glyph unicode="&#x2020;" horiz-adv-x="1024" d="M205 647v66q0 31 11 35t40 4h174v215q0 25 8 37t33 12h80q25 0 29 -11.5t4 -37.5v-215h174q31 0 44 -4.5t13 -26.5v-70q0 -27 -14.5 -32t-46.5 -5h-170v-434q0 -31 -6.5 -39t-24.5 -8h-82q-23 0 -32 9.5t-9 41.5v430h-182q-25 0 -34 7.5t-9 25.5z" />
<glyph unicode="&#x2021;" horiz-adv-x="1024" d="M205 356v68q0 29 11 35t42 6h176v115h-184q-25 0 -34 7t-9 27v64q0 31 11 36t40 5h176v190q0 25 7.5 37t31.5 12h80q25 0 29 -10t4 -39v-190h174q33 0 45 -5t12 -28v-68q0 -29 -14.5 -33.5t-46.5 -4.5h-170v-115h178q29 0 38 -5t9 -32v-63q0 -29 -13.5 -33t-41.5 -4h-170 v-203q0 -33 -5.5 -40t-25.5 -7h-80q-25 0 -33 9t-8 42v199h-180q-29 0 -39 6t-10 22zM414 -287h188h-188z" />
<glyph unicode="&#x2022;" horiz-adv-x="724" d="M172 616q0 78 54.5 132.5t131.5 54.5q78 0 132.5 -54.5t54.5 -132.5t-54.5 -132t-132.5 -54t-132 54.5t-54 131.5z" />
<glyph unicode="&#x2026;" horiz-adv-x="2048" d="M143 53v88q0 16 8.5 30.5t24.5 14.5h135q35 0 43 -10t8 -29v-88q0 -23 -4 -41t-34 -18h-127q-31 0 -42.5 15.5t-11.5 37.5zM545 53v88q0 16 8 30.5t25 14.5h135q35 0 43 -10t8 -29v-88q0 -23 -4 -41t-35 -18h-127q-31 0 -42 15.5t-11 37.5zM940 53v88q0 16 8 30.5 t25 14.5h135q35 0 43 -10t8 -29v-88q0 -23 -5 -41t-36 -18h-125q-31 0 -42 15.5t-11 37.5z" />
<glyph unicode="&#x202f;" horiz-adv-x="383" />
<glyph unicode="&#x2030;" horiz-adv-x="1822" d="M82 795v192q0 115 64.5 172.5t170.5 57.5q41 0 81 -10.5t72 -36t51.5 -67.5t19.5 -106v-202q0 -59 -19.5 -98.5t-51.5 -63t-72 -33.5t-81 -10q-106 0 -170.5 50t-64.5 155zM213 809q0 -43 25.5 -70.5t78.5 -27.5q51 0 73 29.5t22 64.5v162q0 51 -20.5 88t-72.5 37 q-63 0 -84.5 -36t-21.5 -95v-152zM270 11.5q-6 11.5 11 41.5l571 1112q16 27 25.5 36t40.5 9h75q23 0 24 -10t-16 -39l-573 -1114q-14 -29 -23.5 -38t-27.5 -9h-74q-27 0 -33 11.5zM727 186v191q0 117 64.5 174t173.5 57q39 0 78.5 -10t72.5 -35.5t52.5 -67.5t19.5 -106 v-203q0 -59 -19.5 -98t-51.5 -62.5t-71.5 -33.5t-80.5 -10q-109 0 -173.5 50t-64.5 154zM860 201q0 -41 25.5 -70t79.5 -29q51 0 72.5 31t21.5 64v161q0 49 -20.5 86t-71.5 37q-63 0 -85 -35.5t-22 -93.5v-151zM1282 186v191q0 117 64.5 174t171.5 57q39 0 78.5 -10 t72.5 -35.5t52.5 -67.5t19.5 -106v-203q0 -59 -19.5 -98t-51.5 -62.5t-71.5 -33.5t-80.5 -10q-106 0 -171 50t-65 154zM1415 201q0 -41 25.5 -70t77.5 -29q51 0 73.5 31t22.5 64v161q0 49 -20.5 86t-71.5 37q-66 0 -86.5 -35.5t-20.5 -93.5v-151z" />
<glyph unicode="&#x2039;" horiz-adv-x="552" d="M82 461l244 358q10 16 20 22.5t25 -3.5l82 -45q14 -10 13 -19.5t-13 -28.5l-199 -284l209 -289q20 -29 -4 -41l-82 -45q-27 -14 -45 20z" />
<glyph unicode="&#x203a;" horiz-adv-x="552" d="M83 772.5q-1 9.5 13 20.5l82 45q14 10 24.5 4t20.5 -23l244 -358l-250 -355q-18 -35 -45 -20l-82 45q-25 12 -4 41l209 289l-199 284q-12 18 -13 27.5z" />
<glyph unicode="&#x2044;" horiz-adv-x="864" d="M-102 -338l931 2021h138l-932 -2021h-137z" />
<glyph unicode="&#x205f;" horiz-adv-x="479" />
<glyph unicode="&#x20ac;" horiz-adv-x="919" d="M0 436v62q0 31 10 36t39 5h33v102h-37q-45 0 -45 35v61q0 29 10 34t39 5h33v39q0 121 31.5 199t89 124t134.5 64.5t169 18.5q74 0 125 -7.5t86 -17.5t55.5 -22.5t32.5 -20.5q6 -6 0 -28.5t-16.5 -47t-21.5 -43t-17 -16.5q-29 10 -50.5 19.5t-48 15.5t-60.5 10t-83 4 q-74 0 -118 -16.5t-68.5 -50t-32.5 -86t-8 -123.5v-15h237q33 0 48.5 -4t15.5 -27v-63q0 -27 -11.5 -34t-50.5 -7h-239v-102h237q33 0 48.5 -4.5t15.5 -28.5v-64q0 -27 -11.5 -34t-50.5 -7h-239v-55q0 -115 61 -165t166 -50q98 0 159.5 24.5t90.5 34.5q8 2 17 -18t15.5 -48 t9.5 -52.5t-3 -28.5q-35 -23 -117 -42t-186 -19q-68 0 -140.5 14t-133 54t-99.5 110.5t-39 185.5v55h-37q-45 0 -45 35z" />
<glyph unicode="&#x2122;" horiz-adv-x="1607" d="M174 1305v57q0 14 27 14h448q29 0 29 -12v-59q-1 -13 -21 -13h-153q-16 0 -19.5 -3t-3.5 -15v-508q0 -18 -4 -24.5t-20 -6.5h-66q-16 0 -20 5t-4 26v508q0 12 -3.5 15t-17.5 3h-153q-12 0 -15.5 3t-3.5 10zM752 766v582q0 29 24 28h72q20 0 31 -16l172 -270q6 -8 12 -3 l170 271q8 18 29 18h77q16 0 18.5 -7t2.5 -23v-586q0 -25 -23 -25h-63q-18 0 -24.5 6.5t-6.5 24.5v438q0 12 -2 12.5t-10 -10.5l-144 -235q-10 -16 -13 -20.5t-11 -4.5h-21q-10 0 -13 4t-13 21l-133 229q-16 27 -17 -2v-440q0 -10 -3 -16.5t-19 -6.5h-62q-12 0 -21 4t-9 27z " />
<glyph unicode="&#x2202;" horiz-adv-x="1015" d="M82 494q0 225 108.5 351t315.5 126q37 0 76 -8.5t73.5 -22.5t63.5 -33.5t45 -44.5v142q0 139 -56.5 211.5t-203.5 72.5q-51 0 -91 -3t-75 -7t-66.5 -11t-66.5 -16v144q78 31 150.5 42t152.5 11q207 0 316.5 -120t109.5 -337v-497q0 -244 -103.5 -378t-310.5 -134 q-217 0 -327.5 137t-110.5 375zM268 494q0 -158 58.5 -253.5t193.5 -95.5q74 0 121 26t74.5 72t39 110.5t11.5 140.5q0 61 -14.5 117.5t-45 100.5t-76.5 69.5t-110 25.5q-129 0 -190.5 -80t-61.5 -233z" />
<glyph unicode="&#x2206;" horiz-adv-x="1234" d="M16 0l537 1458h129l535 -1458h-1201zM221 135h793l-396 1100z" />
<glyph unicode="&#x220f;" horiz-adv-x="1425" d="M211 -451v2007h1003v-2007h-184v1831h-637v-1831h-182z" />
<glyph unicode="&#x2211;" horiz-adv-x="1112" d="M102 -133l414 801l-412 757v131h904v-184h-674l381 -674v-71l-381 -721h676v-172h-908v133z" />
<glyph unicode="&#x2212;" horiz-adv-x="1196" d="M115 639v168h966v-168h-966z" />
<glyph unicode="&#x221a;" horiz-adv-x="1150" d="M16 1008h162l236 -729l377 1179h299v-139h-183l-432 -1319h-125z" />
<glyph unicode="&#x221e;" horiz-adv-x="1654" d="M137 547q0 70 23.5 129t66.5 103t103.5 69.5t134.5 25.5q102 0 186 -53t176 -164q92 111 174 164t191 53q74 0 133 -25.5t102 -69.5t66 -103t23 -129t-23 -129.5t-66 -103.5t-102 -68.5t-133 -24.5q-53 0 -100.5 12.5t-90.5 39t-86 66.5t-88 95q-90 -111 -174 -163 t-188 -52q-74 0 -134.5 25.5t-103.5 69.5t-66.5 103.5t-23.5 129.5zM279 545q0 -86 53 -138.5t137 -52.5q76 0 134 52.5t130 138.5q-72 86 -130 139t-134 53q-84 0 -137 -53t-53 -139zM920 545q72 -86 131 -138.5t135 -52.5q84 0 136 52.5t52 138.5t-52 138t-136 52 q-76 0 -135.5 -52t-130.5 -138z" />
<glyph unicode="&#x222b;" horiz-adv-x="694" d="M0 -242h145q57 0 84 24.5t27 80.5v1192q0 133 73.5 205.5t217.5 72.5q63 0 147 -18v-125h-145q-57 0 -84 -24.5t-27 -80.5v-1191q0 -133 -73.5 -206t-217.5 -73q-66 0 -147 18v125z" />
<glyph unicode="&#x2248;" horiz-adv-x="1103" d="M100 360q43 43 77 71t63.5 43t59.5 21.5t65 6.5q45 0 100 -19.5t115 -46.5q43 -20 80.5 -33.5t78.5 -13.5q20 0 39 3t38.5 12.5t42 27t52.5 47.5l93 -92q-43 -43 -77 -70.5t-63.5 -43t-59.5 -20.5t-65 -5q-53 0 -105 19.5t-112 45.5q-43 20 -81 33.5t-79 13.5 q-23 0 -40 -3t-36.5 -12t-42 -26.5t-53.5 -48.5zM100 723q43 43 77 70.5t63.5 43t59.5 21.5t65 6q45 0 100 -19.5t115 -45.5q43 -20 80.5 -33.5t78.5 -13.5q20 0 39 3t38.5 12t42 26.5t52.5 48.5l93 -92q-43 -43 -77 -71t-63.5 -43t-59.5 -20.5t-65 -5.5q-53 0 -105 19.5 t-112 46.5q-43 20 -81 33.5t-79 13.5q-23 0 -40 -3t-36.5 -12.5t-42 -26.5t-53.5 -48z" />
<glyph unicode="&#x2260;" horiz-adv-x="1099" d="M106 164l138 145h-138v135h259l202 211h-461v138h582l213 227l92 -84l-137 -143h137v-138h-258l-200 -211h458v-135h-581l-211 -227z" />
<glyph unicode="&#x2264;" horiz-adv-x="1196" d="M115 0v168h966v-168h-966zM164 641v168l835 414v-179l-634 -319l634 -319v-179z" />
<glyph unicode="&#x2265;" horiz-adv-x="1196" d="M115 0v168h966v-168h-966zM164 227v179l635 319l-635 319v179l835 -414v-168z" />
<glyph unicode="&#x25ca;" horiz-adv-x="1329" d="M137 721l529 745l526 -745l-526 -746zM303 721l363 -522l360 522l-360 518z" />
<glyph unicode="&#x25fc;" horiz-adv-x="839" d="M0 0v840h840v-840h-840z" />
<glyph unicode="&#xf700;" horiz-adv-x="933" d="M47 784q0 78 35 130.5t91 83t128 44t143 13.5h11q49 -2 106 -11.5t105 -19.5q55 -12 112 -31q27 -10 19 -32l-19 -91q-2 -10 -10 -15t-18 -1q-45 16 -97 29q-45 10 -101 19t-118 9q-78 0 -123 -14t-67.5 -33.5t-28.5 -41t-6 -34.5q0 -61 39 -83.5t94 -32.5 q10 -2 61.5 -12.5t109.5 -21.5t106.5 -20.5t54.5 -11.5q111 -29 153.5 -94.5t42.5 -149.5v-116q-2 -39 -10 -80t-41 -76t-98.5 -59.5t-181.5 -30.5h-21.5h-33h-31h-17.5q-23 0 -35 6t-20 17q-8 8 -12 22l-74 229q-8 27 -35 27h-51q-25 0 -21 25q4 31 7.5 48t4.5 25.5t2 10.5 l1 2q2 10 10 14t18 4h134q10 0 20 -7t14 -17q10 -31 19.5 -57.5t18.5 -53.5t19.5 -57.5t24.5 -69.5q2 -4 8.5 -10t22.5 -6q111 -2 164 27.5t53 70.5v117q0 39 -17.5 60.5t-52.5 31.5q-4 2 -58 13t-120.5 24.5t-126 24.5t-75.5 16q-37 6 -78 21t-75 44t-56.5 73t-22.5 109z " />
<glyph unicode="&#xf701;" d="M-1135 1214l17 93q4 27 31 26h681q27 0 23 -26l-16 -93q-4 -27 -31 -26h-682q-27 0 -23 26z" />
<glyph unicode="&#xf702;" d="M-1149 1212l16 97q4 25 31 24h529q27 0 26 27v84q0 27 27 26h104q27 0 27 -26v-230q0 -27 -27 -26h-712q-27 0 -21 24z" />
<glyph unicode="&#xf703;" d="M-1227 1214l17 93q4 27 30 26h457q14 0 15 5t1 10q-2 4 -2 10q0 72 50 121t120 49q72 0 121 -49t49 -121q0 -33 -13 -63.5t-35.5 -54t-53.5 -38t-68 -14.5h-665q-27 0 -23 26zM-606 1358q0 -29 19 -48.5t48 -19.5t48.5 19.5t19.5 48.5t-19.5 48t-48.5 19t-48 -19.5 t-19 -47.5z" />
<glyph unicode="&#xf704;" d="M-1225 1214l17 93q4 27 30 26h396q27 0 26 27v82q0 27 27 26h74q27 0 26 -26v-82q0 -27 27 -27h27q27 0 26 27v82q0 27 25 26h106q27 0 27 -26v-230q0 -25 -27 -24h-786q-10 0 -17.5 8t-3.5 18z" />
<glyph unicode="&#xf705;" d="M-649 1233v266q0 27 26 27h107q27 0 27 -27v-266q0 -27 -27 -27h-107q-27 0 -26 27z" />
<glyph unicode="&#xf706;" d="M-985 1397l27 96q4 10 13 17.5t19 7.5h166q27 0 27 -27v-88q0 -27 26 -27h318q27 0 22 -26l-16 -97q-6 -25 -31 -24h-417q-27 0 -27 24v93q0 27 -27 26h-80q-10 0 -17 7t-3 18z" />
<glyph unicode="&#xf707;" d="M-1012 1282q0 70 45 113q43 45 119 51q20 2 32.5 -14.5t29.5 -40.5q14 -14 26 0q20 25 32.5 40t31.5 15q94 -6 139 -51q12 -10 22.5 -28.5t14.5 -35.5q4 -18 14 -4q4 12 8 28.5t4 37.5q0 14 -1 25.5t-1 19.5q-2 8 -2 14q-2 8 2 15.5t15 7.5q33 6 50 10t28 6l12 2 q23 4 22 -18v-21q0 -33 -8 -65q-6 -29 -20.5 -57.5t-40.5 -51.5q-29 -20 -55.5 -30.5t-49 -15.5t-39 -5h-20.5q-23 4 -25 22v17q0 23 -11 51.5t-58 36.5q-14 4 -30.5 -9.5t-31.5 -29.5q-4 -6 -13 -6t-15 6q-16 16 -30.5 29.5t-31.5 9.5q-33 -6 -41 -24.5t-10 -39.5v-43 q0 -20 -23 -20h-65q-23 0 -23 22z" />
<glyph unicode="&#xf708;" d="M-801 1368v51q0 27 27 27h65q27 0 27 27v57q0 27 27 26h96q27 0 27 -26v-57q0 -27 26 -27h66q27 0 26 -27v-51q0 -27 -26 -27h-66q-27 0 -26 -26v-62q0 -27 -27 -26h-96q-27 0 -27 26v62q0 27 -27 26h-65q-27 0 -27 27z" />
<glyph unicode="&#xf709;" d="M-793 1364v152q0 27 27 26h455q10 0 17 -7t3 -17l-18 -97q-4 -27 -31 -26h-309q-18 0 -19 -19v-35q0 -27 -26 -22l-72 14q-27 4 -27 31z" />
<glyph unicode="&#xf70a;" d="M-295 1229v266q0 27 27 27h106q27 0 27 -27v-266q0 -27 -27 -27h-106q-27 0 -27 27z" />
<glyph unicode="&#xf70b;" d="M-678 1356l27 96q4 10 13 17.5t20 7.5h165q27 0 27 -27v-90q0 -27 27 -27h317q27 0 23 -26l-17 -95q-6 -25 -30 -24h-418q-27 0 -27 24v93q0 27 -27 26h-79q-10 0 -17.5 7.5t-3.5 17.5z" />
<glyph unicode="&#xf70c;" d="M-733 1266q0 70 45 112q43 45 119 52q20 2 32.5 -14.5t28.5 -41.5q14 -14 27 0q20 25 32.5 40.5t30.5 15.5q94 -6 139 -52q12 -10 22.5 -28.5t14.5 -34.5q4 -18 15 -4q4 12 8 28.5t4 36.5q0 14 -1 25.5t-1 19.5q-2 8 -2 15q-2 8 2 15t14 7q33 6 50.5 10.5t27.5 6.5l12 2 q23 4 23 -19v-20q0 -33 -8 -66q-6 -29 -20.5 -57.5t-41.5 -50.5q-29 -20 -55.5 -30.5t-49 -16t-38.5 -5.5h-21q-23 4 -24 23v16q0 23 -11.5 51.5t-58.5 36.5q-14 4 -30.5 -9t-30.5 -30q-4 -6 -13.5 -6t-15.5 6q-16 16 -30.5 29.5t-30.5 9.5q-33 -6 -41 -24.5t-11 -38.5v-43 q0 -20 -22 -21h-66q-23 0 -22 23z" />
<glyph unicode="&#xf70d;" d="M-410 1368v51q0 27 27 27h66q27 0 26 27v57q0 27 27 26h96q27 0 27 -26v-57q0 -27 26 -27h66q27 0 26 -27v-51q0 -27 -26 -27h-66q-27 0 -26 -26v-62q0 -27 -27 -26h-96q-27 0 -27 26v62q0 27 -26 26h-66q-27 0 -27 27z" />
<glyph unicode="&#xf70e;" d="M-524 1237v152q0 27 26 26h387q10 0 17.5 -7t3.5 -17l-19 -97q-4 -27 -30 -26h-242q-18 0 -18 -19v-35q0 -27 -27 -22l-72 14q-27 4 -26 31z" />
<glyph unicode="&#xf70f;" horiz-adv-x="1660" d="M92 27v886q0 27 25 37q80 41 175 65.5t195 28.5q131 0 221.5 -32.5t145.5 -83.5t78.5 -113.5t23.5 -122.5v-463q0 -20 2.5 -25t6.5 -9q16 -12 79.5 -31t163.5 -19q37 0 76 8.5t72 32t53.5 67.5t20.5 116v632q0 27 26 27h107q25 0 24 -27v-663q0 -59 -15.5 -121.5 t-60.5 -114t-124.5 -84t-210.5 -32.5q-57 0 -120 14t-116 31q-63 20 -123 47q-23 12 -22 39v545q0 72 -29 115.5t-72 67t-91 32t-85 8.5q-98 0 -164.5 -19.5t-85.5 -29.5q-10 -6 -13 -15.5t-3 -17.5v-617q0 -27 27 -26h71q27 0 23 -27l-17 -106q-4 -27 -30 -27h-207 q-27 0 -27 27z" />
<glyph unicode="&#xf710;" d="M-541 1266v139q0 10 8.5 18.5t18.5 10.5l72 10q10 4 18 -2t8 -17v-24q0 -25 27 -25h467q27 0 22 -24l-16 -86q-6 -25 -31 -25h-567q-10 0 -18.5 7t-8.5 18z" />
<glyph unicode="&#xf711;" d="M-780 1311q0 39 15 73.5t41 61.5t60.5 42t75.5 15q39 0 75 -15t61.5 -42t41 -61.5t15.5 -73.5q0 -41 -15.5 -76t-41 -60.5t-61.5 -41t-75 -15.5q-41 0 -75.5 15.5t-60.5 41t-41 60.5t-15 76zM-666 1311q0 -33 22.5 -55.5t55.5 -22.5t55.5 22.5t22.5 55.5q0 31 -22.5 53 t-55.5 22t-55.5 -22.5t-22.5 -52.5z" />
<glyph unicode="&#xf712;" d="M-995 1358q0 76 54 131t175 55h193h198q18 0 19 -18v-2l-15 -80v-4q-6 -14 -24 -19h-402q-39 0 -51 -17.5t-12 -39.5q0 -25 10 -45.5t51 -20.5h60q35 0 57.5 11.5t34.5 25.5q8 8 18.5 16.5t28.5 4.5q10 -4 42 -11.5t66 -15.5q41 -8 93 -20q10 -4 17 -13.5t7 -19.5v-74 q0 -25 -24 -18l-90 24q-20 4 -39 11q-16 4 -30.5 8t-25.5 8q-18 6 -28.5 -1t-24.5 -17q-16 -14 -46 -27.5t-75 -13.5h-57q-31 0 -62.5 10t-57.5 32.5t-43 57.5t-17 82z" />
<glyph unicode="&#xf713;" d="M-479 1610v225q0 27 26 27h107q27 0 27 -27v-225q0 -27 -27 -27h-107q-27 0 -26 27z" />
<glyph unicode="&#xf714;" d="M-672 1749l27 96q4 10 13 17.5t20 7.5h166q27 0 26 -27v-88q0 -27 27 -26h317q27 0 23 -27l-17 -96q-6 -25 -30 -25h-418q-27 0 -27 25v92q0 27 -26 26h-80q-10 0 -17.5 7.5t-3.5 17.5z" />
<glyph unicode="&#xf715;" d="M-911 1642q0 70 45 113q43 45 118 51q20 2 33 -14t29 -41q14 -14 27 0q20 25 32.5 40t30.5 15q94 -6 139 -51q12 -10 22.5 -28.5t14.5 -34.5q4 -18 14 -4q4 12 8.5 28.5t4.5 36.5q0 14 -1 25.5t-1 19.5q-2 8 -2 14q-2 8 2 15.5t14 7.5q33 6 50.5 10t27.5 6l12 2 q23 4 23 -18v-20q0 -33 -8 -66q-6 -29 -20.5 -57.5t-41.5 -51.5q-29 -20 -55.5 -30.5t-49 -15.5t-39 -5h-20.5q-23 4 -24 23v16q0 23 -11.5 51.5t-58.5 36.5q-14 4 -30.5 -9t-30.5 -30q-4 -6 -13.5 -6t-15.5 6q-16 16 -30.5 29.5t-31.5 9.5q-33 -6 -41 -24.5t-10 -38.5v-43 q0 -20 -22 -21h-66q-23 0 -22 23z" />
<glyph unicode="&#xf716;" d="M-655 1731v51q0 27 26 26h66q27 0 26 27v57q0 27 27 27h96q27 0 27 -27v-57q0 -27 27 -27h65q27 0 27 -26v-51q0 -27 -27 -27h-65q-27 0 -27 -27v-61q0 -27 -27 -27h-96q-27 0 -27 27v61q0 27 -26 27h-66q-27 0 -26 27z" />
<glyph unicode="&#xf717;" d="M-551 1591v152q0 27 27 26h454q10 0 17.5 -7t3.5 -17l-19 -96q-4 -27 -30 -27h-310q-18 0 -18 -18v-35q0 -27 -27 -23l-71 15q-27 4 -27 30z" />
<glyph unicode="&#xf718;" d="M-467 -651l14 82q4 25 31 24h211q27 0 27 -24v-326q0 -27 -27 -27h-104q-27 0 -27 27v193q0 27 -27 26h-77q-25 0 -21 25z" />
<glyph unicode="&#xf719;" d="M-782 -653l14 80q4 27 31 26h188q27 0 27 -26v-177q4 -37 28.5 -61.5t69.5 -24.5q102 0 102 107v156q0 27 27 26h84q27 0 27 -26v-156q0 -100 -59.5 -158.5t-180.5 -58.5q-53 0 -98 16q-66 23 -96.5 72t-32.5 119v34q0 25 -27 25h-82q-27 0 -22 27z" />
<glyph unicode="&#xf71a;" d="M-387 -678q0 55 42 96t99 41t98.5 -41t41.5 -96t-41 -95t-99 -40q-57 0 -99 40t-42 95z" />
<glyph unicode="&#xf71b;" horiz-adv-x="1083" d="M-8 133q-4 25 22 25h70q27 0 27 26v729q0 27 24 37q80 41 175.5 65.5t195.5 28.5q131 0 221 -32.5t145.5 -83.5t79 -113.5t23.5 -122.5v-882q0 -53 -22.5 -94.5t-51.5 -69.5q-33 -33 -72 -58q-10 -6 -21 -5t-20 5q-45 20 -91 39t-128 31q-25 2 -60.5 5t-77.5 -2 t-86 -22.5t-85 -52.5q-10 -8 -18 -4l-9 4q-8 10 -16 19q-6 8 -13 17t-11 16q-14 18 -3 32q29 31 66 60.5t85 51t108.5 32t138.5 0.5q57 -8 108.5 -22.5t85.5 -29.5q14 -6 22.5 12.5t8.5 59.5v828q0 72 -28.5 115.5t-71.5 67t-91.5 32t-84.5 8.5q-98 0 -165 -19.5t-85 -29.5 q-10 -6 -13.5 -15.5t-3.5 -17.5v-778q0 -25 -26 -25h-205q-27 0 -31 25z" />
<glyph unicode="&#xf71c;" horiz-adv-x="1083" d="M-10 133q-4 25 22 25h70q27 0 27 26v729q0 27 24 37q80 41 175.5 65.5t195.5 28.5q131 0 221 -32.5t145.5 -83.5t79 -113.5t23.5 -122.5v-882q0 -53 -22.5 -94.5t-51.5 -69.5q-33 -33 -72 -58q-10 -4 -23 -3t-24 5q-4 0 -22 11q-16 8 -49 26.5t-91 53.5q-4 4 -10 6 t-16 -4q-84 -57 -160 -80t-176 -23h-31q-27 0 -22 27l12 71q4 10 20.5 9.5t32.5 1.5q51 4 102.5 20.5t98.5 46.5q53 39 92 88q10 16 20.5 16.5t18.5 -3.5q41 -23 78 -43q31 -16 57.5 -31.5t34.5 -20.5q16 -8 28.5 5.5t12.5 66.5v828q0 72 -28.5 115.5t-71.5 67t-91.5 32 t-84.5 8.5q-98 0 -165 -19.5t-85 -29.5q-10 -6 -13.5 -15.5t-3.5 -17.5v-778q0 -25 -26 -25h-205q-27 0 -31 25z" />
<glyph unicode="&#xf71d;" horiz-adv-x="1353" d="M127 1006q-4 27 23 26h108q25 0 29 -26l98 -682l2 -52q0 -10 2 -10t4 10l15 52l120 231l107 211q4 10 16.5 16t22.5 6h6q27 0 39 -22l227 -442l15 -52q2 -10 4 -10t2 10v52l20 131q8 49 13.5 92t7.5 47q4 35 -17.5 62.5t-58.5 48.5l-7 4t-15.5 11t-14.5 17.5t-4 22.5 q2 10 2 17t2 11q2 12 9 15.5t14 7.5q10 4 21 8t15 8q80 45 80 115v23v63q0 27 19 31q12 2 29.5 5t34 6t30.5 6t20 3q16 4 22.5 -3t6.5 -34q-2 -14 -1 -23t1 -15v-15q0 -131 -104 -213q-4 -4 -9.5 -8t2.5 -12q39 -39 64 -88.5t16 -98.5q0 -2 -3 -26.5t-8 -63.5t-12 -88 l-14 -98q-16 -119 -34 -266q-4 -27 -29 -27h-88q-25 0 -39 23l-250 473q-10 20 -24 0l-248 -473q-14 -23 -39 -23h-88q-27 0 -31 27z" />
<glyph unicode="&#xf8ff;" horiz-adv-x="1699" />
<glyph horiz-adv-x="780" d="M-760 1323q0 72 49 121t121 49t121 -49t49 -121q0 -70 -49 -119t-121 -49t-121 49t-49 119zM-657 1325q0 -29 19 -49.5t48 -20.5t48.5 20.5t19.5 49.5t-19.5 48.5t-48.5 19.5t-48 -19.5t-19 -48.5zM-30 940q1 10 12 18q39 20 90 39q43 16 103 28.5t132 12.5 q119 0 193.5 -32.5t115.5 -84t56.5 -110.5t15.5 -115v-671q0 -25 -26 -25h-101q-27 0 -26 25v688q0 63 -26 101t-63.5 57.5t-85 25.5t-90.5 6q-43 2 -81.5 -5t-69.5 -17q-37 -10 -66 -27q-10 -6 -21.5 -4t-17.5 12l-18 31l-21 29q-6 8 -5 18z" />
<glyph />
</font>
</defs>
</svg>
